<?xml version="1.0" encoding="utf-8"?>
<!-- Generator: Adobe Illustrator 19.0.0, SVG Export Plug-In . SVG Version: 6.00 Build 0)  -->
<svg version="1.1" id="Layer_1" xmlns="http://www.w3.org/2000/svg" xmlns:xlink="http://www.w3.org/1999/xlink" x="0px" y="0px"
	 viewBox="0 0 100 100" style="enable-background:new 0 0 100 100;" xml:space="preserve">
<style type="text/css">
	.st0{fill:#57438E;}
	.st1{fill:#381E60;}
	.st2{fill:#FFF9FF;}
	.st3{fill:#806CBE;}
	.st4{enable-background:new    ;}
	.st5{fill:#8E90FF;}
	.st6{fill:#87CEFF;}
	.st7{opacity:0.2;fill:#FFF9FF;}
</style>
<g id="XMLID_86_">
	<g id="XMLID_87_">
		<g id="XMLID_138_">
			<path id="XMLID_84_" class="st0" d="M15.1,25.7L53.4,3.7c0.7-0.4,1.6-0.6,2.4-0.4c1.1,0.3,2.1,0.6,2.1,1.5l0.1,35.6l-3.4,2
				c1.1,0.5,34.7,16.9,34.8,16.9l0.1,1.4c0,0.6-0.3,1.1-0.8,1.4c-5.7,3.3-39.2,22.7-39.2,22.7c-1.1,0.6-2.5,0.6-3.6,0L13.9,66.5
				c-0.3-0.2-0.5-0.5-0.5-0.9l-0.1-36.8C13.3,27.5,14,26.3,15.1,25.7z"/>
			<g id="XMLID_199_">
				<path id="XMLID_83_" class="st1" d="M14.4,65.4l43.5-24.8L58,5.1c0-1-1.1-1.7-2-1.2l-40.1,23c-0.9,0.5-1.4,1.4-1.4,2.4
					L14.4,65.4z"/>
				<polygon id="XMLID_82_" class="st1" points="56.2,6 16.4,28.8 16.3,62.3 56.2,39.4 				"/>
			</g>
			<g id="XMLID_197_">
				<path id="XMLID_81_" class="st2" d="M14.5,65.4l43.5-25.1l30.8,17.8c0.9,0.5,0.9,1.8,0,2.3l-40,23.1c-0.9,0.5-1.9,0.5-2.8,0
					L14.5,65.4z"/>
			</g>
			<g id="XMLID_140_">
				<g id="XMLID_141_">
					<path id="XMLID_80_" class="st0" d="M26.5,66.2c-0.9,0.5-1.3,0.7-2.2,1.2c-0.9-0.5-1.3-0.7-2.2-1.2c0.9-0.5,1.3-0.7,2.2-1.2
						C25.2,65.5,25.6,65.7,26.5,66.2z"/>
					<path id="XMLID_79_" class="st0" d="M29.7,64.4c-0.9,0.5-1.3,0.7-2.2,1.2c-0.9-0.5-1.3-0.7-2.2-1.2c0.9-0.5,1.3-0.7,2.2-1.2
						C28.4,63.6,28.8,63.9,29.7,64.4z"/>
					<path id="XMLID_78_" class="st0" d="M32.9,62.5c-0.9,0.5-1.3,0.7-2.2,1.2c-0.9-0.5-1.3-0.7-2.2-1.2c0.9-0.5,1.3-0.7,2.2-1.2
						C31.6,61.8,32,62,32.9,62.5z"/>
					<path id="XMLID_77_" class="st0" d="M36.1,60.7c-0.9,0.5-1.3,0.7-2.2,1.2c-0.9-0.5-1.3-0.7-2.2-1.2c0.9-0.5,1.3-0.7,2.2-1.2
						C34.8,59.9,35.2,60.2,36.1,60.7z"/>
					<path id="XMLID_76_" class="st0" d="M39.3,58.9c-0.9,0.5-1.3,0.7-2.2,1.2c-0.9-0.5-1.3-0.7-2.2-1.2c0.9-0.5,1.3-0.7,2.2-1.2
						C38,58.1,38.4,58.4,39.3,58.9z"/>
					<path id="XMLID_75_" class="st0" d="M42.5,57c-0.9,0.5-1.3,0.7-2.2,1.2c-0.9-0.5-1.3-0.7-2.2-1.2c0.9-0.5,1.3-0.7,2.2-1.2
						C41.2,56.3,41.6,56.5,42.5,57z"/>
					<path id="XMLID_74_" class="st0" d="M45.7,55.2c-0.9,0.5-1.3,0.7-2.2,1.2c-0.9-0.5-1.3-0.7-2.2-1.2c0.9-0.5,1.3-0.7,2.2-1.2
						C44.4,54.4,44.8,54.7,45.7,55.2z"/>
					<path id="XMLID_73_" class="st0" d="M48.9,53.3c-0.9,0.5-1.3,0.7-2.2,1.2c-0.9-0.5-1.3-0.7-2.2-1.2c0.9-0.5,1.3-0.7,2.2-1.2
						C47.6,52.6,48,52.9,48.9,53.3z"/>
					<path id="XMLID_72_" class="st0" d="M52.1,51.5c-0.9,0.5-1.3,0.7-2.2,1.2c-0.9-0.5-1.3-0.7-2.2-1.2c0.9-0.5,1.3-0.7,2.2-1.2
						C50.8,50.8,51.2,51,52.1,51.5z"/>
					<path id="XMLID_71_" class="st0" d="M55.3,49.7c-0.9,0.5-1.3,0.7-2.2,1.2c-0.9-0.5-1.3-0.7-2.2-1.2c0.9-0.5,1.3-0.7,2.2-1.2
						C53.9,48.9,54.4,49.2,55.3,49.7z"/>
					<path id="XMLID_70_" class="st0" d="M58.5,47.8c-0.9,0.5-1.3,0.7-2.2,1.2c-0.9-0.5-1.3-0.7-2.2-1.2c0.9-0.5,1.3-0.7,2.2-1.2
						C57.1,47.1,57.6,47.3,58.5,47.8z"/>
					<path id="XMLID_69_" class="st0" d="M61.7,46c-0.9,0.5-1.3,0.7-2.2,1.2c-0.9-0.5-1.3-0.7-2.2-1.2c0.9-0.5,1.3-0.7,2.2-1.2
						C60.3,45.3,60.8,45.5,61.7,46z"/>
					<path id="XMLID_68_" class="st0" d="M29.6,67.9c-0.9,0.5-1.3,0.7-2.2,1.2c-0.9-0.5-1.3-0.7-2.2-1.2c0.9-0.5,1.3-0.7,2.2-1.2
						C28.3,67.2,28.7,67.4,29.6,67.9z"/>
					<path id="XMLID_67_" class="st0" d="M32.8,66.1c-0.9,0.5-1.3,0.7-2.2,1.2c-0.9-0.5-1.3-0.7-2.2-1.2c0.9-0.5,1.3-0.7,2.2-1.2
						C31.5,65.4,31.9,65.6,32.8,66.1z"/>
					<path id="XMLID_66_" class="st0" d="M36,64.3c-0.9,0.5-1.3,0.7-2.2,1.2c-0.9-0.5-1.3-0.7-2.2-1.2c0.9-0.5,1.3-0.7,2.2-1.2
						C34.7,63.5,35.1,63.8,36,64.3z"/>
					<path id="XMLID_65_" class="st0" d="M39.2,62.4c-0.9,0.5-1.3,0.7-2.2,1.2c-0.9-0.5-1.3-0.7-2.2-1.2c0.9-0.5,1.3-0.7,2.2-1.2
						C37.8,61.7,38.3,61.9,39.2,62.4z"/>
					<path id="XMLID_64_" class="st0" d="M42.4,60.6c-0.9,0.5-1.3,0.7-2.2,1.2c-0.9-0.5-1.3-0.7-2.2-1.2c0.9-0.5,1.3-0.7,2.2-1.2
						C41,59.8,41.5,60.1,42.4,60.6z"/>
					<path id="XMLID_63_" class="st0" d="M45.6,58.8c-0.9,0.5-1.3,0.7-2.2,1.2c-0.9-0.5-1.3-0.7-2.2-1.2c0.9-0.5,1.3-0.7,2.2-1.2
						C44.2,58,44.7,58.3,45.6,58.8z"/>
					<path id="XMLID_62_" class="st0" d="M48.7,56.9c-0.9,0.5-1.3,0.7-2.2,1.2c-0.9-0.5-1.3-0.7-2.2-1.2c0.9-0.5,1.3-0.7,2.2-1.2
						C47.4,56.2,47.9,56.4,48.7,56.9z"/>
					<path id="XMLID_61_" class="st0" d="M51.9,55.1c-0.9,0.5-1.3,0.7-2.2,1.2c-0.9-0.5-1.3-0.7-2.2-1.2c0.9-0.5,1.3-0.7,2.2-1.2
						C50.6,54.3,51.1,54.6,51.9,55.1z"/>
					<path id="XMLID_60_" class="st0" d="M55.1,53.3c-0.9,0.5-1.3,0.7-2.2,1.2c-0.9-0.5-1.3-0.7-2.2-1.2c0.9-0.5,1.3-0.7,2.2-1.2
						C53.8,52.5,54.3,52.8,55.1,53.3z"/>
					<path id="XMLID_59_" class="st0" d="M58.3,51.4c-0.9,0.5-1.3,0.7-2.2,1.2c-0.9-0.5-1.3-0.7-2.2-1.2c0.9-0.5,1.3-0.7,2.2-1.2
						C57,50.7,57.5,50.9,58.3,51.4z"/>
					<path id="XMLID_58_" class="st0" d="M61.5,49.6c-0.9,0.5-1.3,0.7-2.2,1.2c-0.9-0.5-1.3-0.7-2.2-1.2c0.9-0.5,1.3-0.7,2.2-1.2
						C60.2,48.8,60.7,49.1,61.5,49.6z"/>
					<path id="XMLID_57_" class="st0" d="M64.7,47.7c-1.5,0.8-2.2,1.3-3.6,2.1c-0.9-0.5-1.3-0.7-2.2-1.2c1.5-0.8,2.2-1.3,3.6-2.1
						C63.4,47,63.9,47.3,64.7,47.7z"/>
					<path id="XMLID_56_" class="st0" d="M34.1,68.8c-1.4,0.8-2.2,1.2-3.6,2.1c-0.9-0.5-1.3-0.7-2.2-1.2c1.4-0.8,2.2-1.2,3.6-2.1
						C32.8,68.1,33.2,68.4,34.1,68.8z"/>
					<path id="XMLID_55_" class="st0" d="M35.8,67.8c-0.9,0.5-1.3,0.7-2.2,1.2c-0.9-0.5-1.3-0.7-2.2-1.2c0.9-0.5,1.3-0.7,2.2-1.2
						C34.5,67.1,35,67.3,35.8,67.8z"/>
					<path id="XMLID_54_" class="st0" d="M39,66c-0.9,0.5-1.3,0.7-2.2,1.2c-0.9-0.5-1.3-0.7-2.2-1.2c0.9-0.5,1.3-0.7,2.2-1.2
						C37.7,65.3,38.2,65.5,39,66z"/>
					<path id="XMLID_53_" class="st0" d="M42.2,64.2c-0.9,0.5-1.3,0.7-2.2,1.2c-0.9-0.5-1.3-0.7-2.2-1.2c0.9-0.5,1.3-0.7,2.2-1.2
						C40.9,63.4,41.4,63.7,42.2,64.2z"/>
					<path id="XMLID_52_" class="st0" d="M45.4,62.3c-0.9,0.5-1.3,0.7-2.2,1.2c-0.9-0.5-1.3-0.7-2.2-1.2c0.9-0.5,1.3-0.7,2.2-1.2
						C44.1,61.6,44.6,61.8,45.4,62.3z"/>
					<path id="XMLID_51_" class="st0" d="M48.6,60.5c-0.9,0.5-1.3,0.7-2.2,1.2c-0.9-0.5-1.3-0.7-2.2-1.2c0.9-0.5,1.3-0.7,2.2-1.2
						C47.3,59.8,47.7,60,48.6,60.5z"/>
					<path id="XMLID_50_" class="st0" d="M51.8,58.7c-0.9,0.5-1.3,0.7-2.2,1.2c-0.9-0.5-1.3-0.7-2.2-1.2c0.9-0.5,1.3-0.7,2.2-1.2
						C50.5,57.9,50.9,58.2,51.8,58.7z"/>
					<path id="XMLID_49_" class="st0" d="M55,56.8c-0.9,0.5-1.3,0.7-2.2,1.2c-0.9-0.5-1.3-0.7-2.2-1.2c0.9-0.5,1.3-0.7,2.2-1.2
						C53.7,56.1,54.1,56.3,55,56.8z"/>
					<path id="XMLID_48_" class="st0" d="M58.2,55c-0.9,0.5-1.3,0.7-2.2,1.2c-0.9-0.5-1.3-0.7-2.2-1.2c0.9-0.5,1.3-0.7,2.2-1.2
						C56.9,54.2,57.3,54.5,58.2,55z"/>
					<path id="XMLID_47_" class="st0" d="M61.4,53.2c-0.9,0.5-1.3,0.7-2.2,1.2c-0.9-0.5-1.3-0.7-2.2-1.2c0.9-0.5,1.3-0.7,2.2-1.2
						C60.1,52.4,60.5,52.7,61.4,53.2z"/>
					<path id="XMLID_46_" class="st0" d="M64.6,51.3c-0.9,0.5-1.3,0.7-2.2,1.2c-0.9-0.5-1.3-0.7-2.2-1.2c0.9-0.5,1.3-0.7,2.2-1.2
						C63.3,50.6,63.7,50.8,64.6,51.3z"/>
					<path id="XMLID_45_" class="st0" d="M67.8,49.5c-0.9,0.5-1.3,0.7-2.2,1.2c-0.9-0.5-1.3-0.7-2.2-1.2c0.9-0.5,1.3-0.7,2.2-1.2
						C66.5,48.7,66.9,49,67.8,49.5z"/>
					<path id="XMLID_44_" class="st0" d="M35.7,71.4c-0.9,0.5-1.3,0.7-2.2,1.2c-0.9-0.5-1.3-0.7-2.2-1.2c0.9-0.5,1.3-0.7,2.2-1.2
						C34.4,70.7,34.8,70.9,35.7,71.4z"/>
					<path id="XMLID_43_" class="st0" d="M38.9,69.6c-0.9,0.5-1.3,0.7-2.2,1.2c-0.9-0.5-1.3-0.7-2.2-1.2c0.9-0.5,1.3-0.7,2.2-1.2
						C37.6,68.8,38,69.1,38.9,69.6z"/>
					<path id="XMLID_42_" class="st0" d="M42.1,67.7c-0.9,0.5-1.3,0.7-2.2,1.2c-0.9-0.5-1.3-0.7-2.2-1.2c0.9-0.5,1.3-0.7,2.2-1.2
						C40.8,67,41.2,67.2,42.1,67.7z"/>
					<path id="XMLID_41_" class="st0" d="M45.3,65.9c-0.9,0.5-1.3,0.7-2.2,1.2c-0.9-0.5-1.3-0.7-2.2-1.2c0.9-0.5,1.3-0.7,2.2-1.2
						C44,65.2,44.4,65.4,45.3,65.9z"/>
					<path id="XMLID_40_" class="st0" d="M48.5,64.1c-0.9,0.5-1.3,0.7-2.2,1.2c-0.9-0.5-1.3-0.7-2.2-1.2c0.9-0.5,1.3-0.7,2.2-1.2
						C47.2,63.3,47.6,63.6,48.5,64.1z"/>
					<path id="XMLID_39_" class="st0" d="M51.7,62.2c-0.9,0.5-1.3,0.7-2.2,1.2c-0.9-0.5-1.3-0.7-2.2-1.2c0.9-0.5,1.3-0.7,2.2-1.2
						C50.4,61.5,50.8,61.7,51.7,62.2z"/>
					<path id="XMLID_38_" class="st0" d="M54.9,60.4c-0.9,0.5-1.3,0.7-2.2,1.2c-0.9-0.5-1.3-0.7-2.2-1.2c0.9-0.5,1.3-0.7,2.2-1.2
						C53.6,59.7,54,59.9,54.9,60.4z"/>
					<path id="XMLID_37_" class="st0" d="M58.1,58.6c-0.9,0.5-1.3,0.7-2.2,1.2c-0.9-0.5-1.3-0.7-2.2-1.2c0.9-0.5,1.3-0.7,2.2-1.2
						C56.8,57.8,57.2,58.1,58.1,58.6z"/>
					<path id="XMLID_36_" class="st0" d="M61.3,56.7c-0.9,0.5-1.3,0.7-2.2,1.2c-0.9-0.5-1.3-0.7-2.2-1.2c0.9-0.5,1.3-0.7,2.2-1.2
						C60,56,60.4,56.2,61.3,56.7z"/>
					<path id="XMLID_35_" class="st0" d="M64.5,54.9c-0.9,0.5-1.3,0.7-2.2,1.2c-0.9-0.5-1.3-0.7-2.2-1.2c0.9-0.5,1.3-0.7,2.2-1.2
						C63.2,54.1,63.6,54.4,64.5,54.9z"/>
					<path id="XMLID_34_" class="st0" d="M69.1,52.3c-1.4,0.8-2.1,1.2-3.5,2c-0.9-0.5-1.3-0.7-2.2-1.2c1.4-0.8,2.1-1.2,3.5-2
						C67.7,51.5,68.2,51.8,69.1,52.3z"/>
					<path id="XMLID_33_" class="st0" d="M70.9,51.2c-0.9,0.5-1.3,0.7-2.2,1.2c-0.9-0.5-1.3-0.7-2.2-1.2c0.9-0.5,1.3-0.7,2.2-1.2
						C69.6,50.5,70,50.7,70.9,51.2z"/>
					<path id="XMLID_32_" class="st0" d="M39.2,73.4c-0.9,0.5-1.3,0.7-2.2,1.2c-0.9-0.5-1.3-0.7-2.2-1.2c0.9-0.5,1.3-0.7,2.2-1.2
						C37.9,72.6,38.3,72.9,39.2,73.4z"/>
					<path id="XMLID_31_" class="st0" d="M42.4,71.5c-0.9,0.5-1.3,0.7-2.2,1.2c-0.9-0.5-1.3-0.7-2.2-1.2c0.9-0.5,1.3-0.7,2.2-1.2
						C41.1,70.8,41.5,71.1,42.4,71.5z"/>
					<path id="XMLID_30_" class="st0" d="M45.6,69.7c-0.9,0.5-1.3,0.7-2.2,1.2c-0.9-0.5-1.3-0.7-2.2-1.2c0.9-0.5,1.3-0.7,2.2-1.2
						C44.3,69,44.7,69.2,45.6,69.7z"/>
					<path id="XMLID_29_" class="st0" d="M64.8,58.7c-6,3.5-12.1,6.9-18.1,10.4c-0.9-0.5-1.3-0.7-2.2-1.2c6-3.5,12.1-6.9,18.1-10.4
						C63.5,58,63.9,58.2,64.8,58.7z"/>
					<path id="XMLID_28_" class="st0" d="M68,56.9c-0.9,0.5-1.3,0.7-2.2,1.2c-0.9-0.5-1.3-0.7-2.2-1.2c0.9-0.5,1.3-0.7,2.2-1.2
						C66.7,56.1,67.1,56.4,68,56.9z"/>
					<path id="XMLID_27_" class="st0" d="M71.2,55c-0.9,0.5-1.3,0.7-2.2,1.2c-0.9-0.5-1.3-0.7-2.2-1.2c0.9-0.5,1.3-0.7,2.2-1.2
						C69.9,54.3,70.3,54.5,71.2,55z"/>
					<path id="XMLID_26_" class="st0" d="M74.4,53.2c-0.9,0.5-1.3,0.7-2.2,1.2c-0.9-0.5-1.3-0.7-2.2-1.2c0.9-0.5,1.3-0.7,2.2-1.2
						C73.1,52.5,73.5,52.7,74.4,53.2z"/>
				</g>
			</g>
			<polygon id="XMLID_25_" class="st0" points="50,70 64.9,61.4 73.4,66.6 58.5,75.3 			"/>
		</g>
		<g id="XMLID_89_">
			<g id="XMLID_136_">
				<polygon id="XMLID_24_" class="st3" points="50.1,27.7 52.7,26.2 52.7,26.3 50.1,27.8 				"/>
			</g>
			<g id="XMLID_134_">
				<polygon id="XMLID_23_" class="st3" points="48.1,28.9 48,28.8 49,28.3 49,28.4 				"/>
			</g>
			<g id="XMLID_132_">
				<polygon id="XMLID_22_" class="st3" points="51.3,29.9 52.7,29.1 52.7,29.2 51.3,29.9 				"/>
			</g>
			<g id="XMLID_109_" class="st4">
				<g id="XMLID_130_">
					<polygon id="XMLID_21_" class="st5" points="51.3,29.9 52.7,32.5 51,33.5 46.2,36.2 48.5,29.7 49,28.4 49,28.3 49.6,26.8 
						50.1,27.7 50.1,27.8 51.3,29.9 					"/>
				</g>
				<g id="XMLID_128_">
					<polygon id="XMLID_20_" class="st6" points="48.1,28.9 48.5,29.7 46.2,36.2 44.5,35.6 45.3,33.4 45.4,33.3 46.7,29.7 
						46.8,29.6 47.4,27.9 48,28.8 					"/>
				</g>
				<g id="XMLID_126_">
					<polygon id="XMLID_19_" class="st5" points="42.7,34.9 44.5,35.6 46.2,36.2 43.7,37.7 39.2,40.3 42.1,35.7 42.6,35 42.7,34.9 
											"/>
				</g>
				<g id="XMLID_124_">
					<polygon id="XMLID_18_" class="st3" points="41.8,35.4 41.8,35.3 45.4,33.3 45.3,33.4 42.7,34.9 42.7,34.9 42.6,35 					"/>
				</g>
				<g id="XMLID_122_">
					<polygon id="XMLID_17_" class="st6" points="41.8,35.4 42.1,35.7 39.2,40.3 38.5,39 39.4,36.8 39.5,36.7 40.6,33.9 41.8,35.3 
											"/>
				</g>
				<g id="XMLID_120_">
					<polygon id="XMLID_16_" class="st3" points="37.9,37.7 37.8,37.6 39.5,36.7 39.4,36.8 					"/>
				</g>
				<g id="XMLID_118_">
					<polygon id="XMLID_15_" class="st3" points="36.7,35.5 36.7,35.4 46.8,29.6 46.7,29.7 					"/>
				</g>
				<g id="XMLID_116_">
					<polygon id="XMLID_14_" class="st5" points="37.9,37.7 38.5,39 39.2,40.3 37.6,41.2 33.4,43.6 35.3,37.4 35.7,36.1 35.8,35.9 
						36.2,34.5 36.7,35.4 36.7,35.5 37.8,37.6 					"/>
				</g>
				<g id="XMLID_114_">
					<polygon id="XMLID_13_" class="st3" points="34.8,36.6 34.8,36.5 35.8,35.9 35.7,36.1 					"/>
				</g>
				<g id="XMLID_112_">
					<polygon id="XMLID_12_" class="st3" points="33.4,34.2 52.6,23.1 52.6,23.2 33.5,34.3 					"/>
				</g>
				<g id="XMLID_110_">
					<polygon id="XMLID_11_" class="st3" points="52.6,20.2 52.6,20.3 20.3,39 20.2,39.1 20.2,39 20.3,38.9 					"/>
				</g>
			</g>
			<g id="XMLID_107_">
				<polygon id="XMLID_10_" class="st3" points="20.2,41.9 20.3,41.8 32.7,34.7 32.6,34.8 20.3,41.9 20.2,42 				"/>
			</g>
			<g id="XMLID_105_">
				<polygon id="XMLID_9_" class="st3" points="30,39.4 30,39.3 31.1,38.6 31.1,38.8 				"/>
			</g>
			<g id="XMLID_103_">
				<polygon id="XMLID_8_" class="st3" points="20.2,47.8 20.3,47.7 22.6,46.4 22.6,46.5 20.3,47.8 20.2,47.9 				"/>
			</g>
			<g id="XMLID_96_" class="st4">
				<g id="XMLID_101_">
					<polygon id="XMLID_7_" class="st5" points="30,39.4 30.6,40 33.4,43.6 27.9,46.8 23.5,49.4 25.4,44.7 26.8,41.2 26.9,41.1 
						28.4,37.3 30,39.3 					"/>
				</g>
				<g id="XMLID_99_">
					<polygon id="XMLID_6_" class="st6" points="24,43.5 25.4,44.7 23.5,49.4 20.3,51.2 22.6,46.5 22.6,46.4 					"/>
				</g>
				<g id="XMLID_97_">
					<polygon id="XMLID_5_" class="st3" points="20.2,44.9 20.3,44.9 26.9,41.1 26.8,41.2 20.3,45 20.2,45 					"/>
				</g>
			</g>
			<g id="XMLID_94_">
				<polygon id="XMLID_4_" class="st6" points="34.8,36.6 35.3,37.4 33.4,43.6 30.6,40 31.1,38.8 31.1,38.6 32.6,34.8 32.7,34.7 
					33.1,33.6 33.4,34.2 33.5,34.3 34.8,36.5 				"/>
			</g>
			<g id="XMLID_92_">
				<polygon id="XMLID_3_" class="st3" points="52.6,17 52.6,17.1 20.1,35.9 20.1,35.8 				"/>
			</g>
			<g id="XMLID_90_">
				<polygon id="XMLID_2_" class="st3" points="20.3,35.8 20.3,38.9 20.2,39 20.2,39.1 20.3,39 20.3,41.8 20.2,41.9 20.2,42 
					20.3,41.9 20.3,44.9 20.2,44.9 20.2,45 20.3,45 20.3,47.7 20.2,47.8 20.2,47.9 20.3,47.8 20.3,51.2 52.8,32.4 52.8,32.6 
					20.2,51.4 20.1,35.9 				"/>
			</g>
		</g>
		<path id="XMLID_1_" class="st7" d="M56,3.9l-40.1,23c-0.9,0.5-1.4,1.4-1.4,2.4l-0.1,36.1l1.3-0.7c7.8-11.5,37.2-55,41.1-60.9
			C56.6,3.7,56.3,3.8,56,3.9z"/>
	</g>
</g>
</svg>
