<?xml version="1.0" encoding="utf-8"?>
<!-- Generator: Adobe Illustrator 19.0.0, SVG Export Plug-In . SVG Version: 6.00 Build 0)  -->
<svg version="1.1" id="Layer_1" xmlns="http://www.w3.org/2000/svg" xmlns:xlink="http://www.w3.org/1999/xlink" x="0px" y="0px"
	 viewBox="0 0 100 100" style="enable-background:new 0 0 100 100;" xml:space="preserve">
<style type="text/css">
	.st0{opacity:0.8;fill:#647DDD;}
	.st1{fill:#806CBE;}
	.st2{enable-background:new    ;}
	.st3{fill:#FFF9FF;}
	.st4{fill:#87CEFF;}
	.st5{fill:#FF6690;}
</style>
<g id="XMLID_68_">
	<polygon id="XMLID_66_" class="st0" points="58.8,82.8 1.8,51.3 38.9,43.9 98.9,59.6 	"/>
	<g id="XMLID_69_">
		<g id="XMLID_160_">
			<path id="XMLID_161_" class="st1" d="M56.6,43.8c0.5-0.3,1.2-0.3,1.7,0c0.5,0.3,0.5,0.7,0,1c-0.5,0.3-1.2,0.3-1.7,0
				C56.2,44.5,56.1,44.1,56.6,43.8z M57.8,44.1c-0.3-0.1-0.6-0.2-0.8,0c-0.2,0.1-0.2,0.3,0.1,0.5c0.3,0.2,0.6,0.2,0.8,0
				C58.1,44.4,58,44.2,57.8,44.1"/>
		</g>
		<g id="XMLID_70_" class="st2">
			<g id="XMLID_158_">
				<path id="XMLID_63_" class="st3" d="M57.1,44.5c0.3,0.2,0.6,0.2,0.8,0c0.2-0.1,0.2-0.3-0.1-0.4c-0.3-0.1-0.6-0.2-0.8,0
					C56.8,44.1,56.8,44.3,57.1,44.5z"/>
			</g>
			<g id="XMLID_156_">
				<polygon id="XMLID_62_" class="st1" points="54.7,44.9 54.2,45.2 59.8,45.8 60.3,45.5 				"/>
			</g>
			<g id="XMLID_154_">
				<path id="XMLID_61_" class="st3" d="M57.5,46.2c-0.3-0.2-0.6-0.2-0.8,0c-0.2,0.1-0.2,0.3,0.1,0.4c0.3,0.1,0.6,0.2,0.8,0
					C57.7,46.5,57.7,46.3,57.5,46.2z"/>
			</g>
			<g id="XMLID_152_">
				<path id="XMLID_60_" class="st1" d="M53.2,47.5l-0.9,0.5c1.3,0.8,3.1,1.2,4.9,1.2c1.9,0,3.6-0.4,4.9-1.2
					c1.3-0.8,2.1-1.8,2.1-2.9c0-1.1-0.7-2.1-2-2.9c-1.3-0.8-3.1-1.2-4.9-1.2c-1.9,0-3.6,0.4-4.9,1.2l0.9,0.5c1.1-0.6,2.5-1,4-1
					c1.5,0,2.9,0.3,4,1c1.1,0.6,1.6,1.4,1.6,2.3c0,0.9-0.6,1.7-1.7,2.3c-1.1,0.6-2.5,1-4,1C55.7,48.5,54.3,48.1,53.2,47.5z"/>
			</g>
			<g id="XMLID_150_">
				<polygon id="XMLID_59_" class="st1" points="7.6,49.8 10,51.2 44.4,31.3 41.9,29.9 				"/>
			</g>
			<g id="XMLID_148_">
				<path id="XMLID_58_" class="st3" d="M45.5,51.2c0.3,0.2,0.6,0.2,0.8,0c0.2-0.1,0.2-0.3-0.1-0.4c-0.3-0.1-0.6-0.2-0.8,0
					C45.2,50.8,45.3,51,45.5,51.2z"/>
			</g>
			<g id="XMLID_145_">
				<path id="XMLID_146_" class="st3" d="M41.6,54.2c-1.1-0.6-1.7-1.5-1.6-2.4c0-0.8,0.6-1.6,1.7-2.2c1.1-0.6,2.5-1,4-1
					c1.5,0,2.9,0.3,4,1c1.1,0.6,1.6,1.4,1.6,2.3c0,0.9-0.6,1.7-1.7,2.3c-1.1,0.6-2.5,1-4,1C44.1,55.2,42.6,54.9,41.6,54.2z"/>
			</g>
			<g id="XMLID_143_">
				<path id="XMLID_56_" class="st3" d="M45.9,52.9c-0.3-0.2-0.6-0.2-0.8,0c-0.2,0.1-0.2,0.3,0.1,0.4c0.3,0.1,0.6,0.2,0.8,0
					C46.2,53.2,46.1,53,45.9,52.9z"/>
			</g>
			<g id="XMLID_141_">
				<polygon id="XMLID_55_" class="st1" points="14.5,53.8 15.6,54.4 50,34.6 48.9,33.9 				"/>
			</g>
			<g id="XMLID_139_">
				<polygon id="XMLID_54_" class="st1" points="16.9,55.2 18.1,55.9 52.4,36 51.3,35.4 				"/>
			</g>
			<g id="XMLID_137_">
				<path id="XMLID_53_" class="st1" d="M40.7,49.1l0.9,0.5c-1,0.6-1.6,1.4-1.7,2.2c0,0.9,0.5,1.8,1.6,2.4c-1.1-0.6-1.7-1.5-1.6-2.4
					c0-0.8,0.6-1.6,1.7-2.2c1.1-0.6,2.5-1,4-1c1.5,0,2.9,0.3,4,1s1.6,1.4,1.6,2.3c0,0.9-0.6,1.7-1.7,2.3l0.9,0.5
					c-1.3,0.8-3.1,1.2-4.9,1.2c-1.9,0-3.6-0.4-4.9-1.2c1.3,0.8,3.1,1.2,4.9,1.2c1.9,0,3.6-0.4,4.9-1.2c1.3-0.8,2.1-1.8,2.1-2.9
					c0-1.1-0.7-2.1-2-2.9c-1.3-0.8-3.1-1.2-4.9-1.2S42,48.3,40.7,49.1z"/>
			</g>
			<g id="XMLID_135_">
				<path id="XMLID_52_" class="st4" d="M40.7,49.1c-1.3,0.7-2,1.7-2.1,2.8c-0.1,1.1,0.7,2.2,2,3c1.3,0.8,3.1,1.2,4.9,1.2
					c1.9,0,3.6-0.4,4.9-1.2l-0.9-0.5c-1.1,0.6-2.5,1-4,1c-1.5,0-2.9-0.3-4-1c-1.1-0.6-1.7-1.5-1.6-2.4c0-0.8,0.6-1.6,1.7-2.2
					L40.7,49.1z"/>
			</g>
			<g id="XMLID_133_">
				<polygon id="XMLID_51_" class="st1" points="19.4,56.6 20.5,57.3 54.9,37.4 53.7,36.8 				"/>
			</g>
			<g id="XMLID_131_">
				<path id="XMLID_50_" class="st3" d="M33.9,57.8c0.3,0.2,0.6,0.2,0.8,0c0.2-0.1,0.2-0.3-0.1-0.4c-0.3-0.1-0.6-0.2-0.8,0
					C33.7,57.5,33.7,57.7,33.9,57.8z"/>
			</g>
			<g id="XMLID_128_">
				<path id="XMLID_129_" class="st3" d="M30,60.9c-1.1-0.6-1.7-1.5-1.6-2.4c0-0.8,0.6-1.6,1.7-2.2c1.1-0.6,2.5-1,4-1
					c1.5,0,2.9,0.3,4,1c1.1,0.6,1.6,1.4,1.6,2.3c0,0.9-0.6,1.7-1.7,2.3c-1.1,0.6-2.5,1-4,1C32.4,61.9,31,61.6,30,60.9z"/>
			</g>
			<g id="XMLID_126_">
				<path id="XMLID_48_" class="st3" d="M34.3,59.6c-0.3-0.2-0.6-0.2-0.8,0c-0.2,0.1-0.2,0.3,0.1,0.5c0.3,0.1,0.6,0.2,0.8,0
					C34.6,59.9,34.6,59.7,34.3,59.6z"/>
			</g>
			<g id="XMLID_124_">
				<polygon id="XMLID_47_" class="st4" points="76.9,53.9 88.2,60.4 91.4,58.6 80.1,52 				"/>
			</g>
			<g id="XMLID_122_">
				<path id="XMLID_46_" class="st1" d="M29.1,55.8l0.9,0.5c-1,0.6-1.6,1.4-1.7,2.2c0,0.9,0.5,1.8,1.6,2.4c-1.1-0.6-1.7-1.5-1.6-2.4
					c0-0.8,0.6-1.6,1.7-2.2c1.1-0.6,2.5-1,4-1c1.5,0,2.9,0.3,4,1l0.9-0.5c-1.3-0.8-3.1-1.2-4.9-1.2S30.4,55,29.1,55.8z"/>
			</g>
			<g id="XMLID_120_">
				<polygon id="XMLID_45_" class="st5" points="78.9,59.2 84.6,62.5 87.8,60.7 82.1,57.4 				"/>
			</g>
			<g id="XMLID_118_">
				<polygon id="XMLID_44_" class="st4" points="73.1,64.2 77.4,66.7 80.6,64.8 76.3,62.3 				"/>
			</g>
			<g id="XMLID_116_">
				<polygon id="XMLID_43_" class="st1" points="40,68.6 41.2,69.3 75.5,49.4 74.4,48.8 				"/>
			</g>
			<g id="XMLID_114_">
				<polygon id="XMLID_42_" class="st1" points="43.2,70.5 44.4,71.2 78.7,51.3 77.6,50.7 				"/>
			</g>
			<g id="XMLID_112_">
				<polygon id="XMLID_41_" class="st1" points="49.7,72.1 50.8,72.8 67,63.5 65.8,62.8 				"/>
			</g>
			<g id="XMLID_110_">
				<polygon id="XMLID_40_" class="st1" points="52.4,73.7 53.5,74.4 69.7,65 68.5,64.4 				"/>
			</g>
			<g id="XMLID_108_">
				<polygon id="XMLID_39_" class="st1" points="55.1,75.3 56.2,75.9 72.3,66.6 71.2,65.9 				"/>
			</g>
			<g id="XMLID_106_">
				<polygon id="XMLID_38_" class="st1" points="57.4,76.6 58.5,77.3 74.7,67.9 73.5,67.3 				"/>
			</g>
			<g id="XMLID_84_">
				<path id="XMLID_85_" class="st3" d="M98.9,59.6L58.8,82.8L2.3,50l40.2-23.2L98.9,59.6z M50.5,49.1c-1.3-0.8-3.1-1.2-4.9-1.2
					c-1.9,0-3.6,0.4-4.9,1.2c-1.3,0.7-2,1.7-2.1,2.8c-0.1,1.1,0.7,2.2,2,3c1.3,0.8,3.1,1.2,4.9,1.2c1.9,0,3.6-0.4,4.9-1.2
					c1.3-0.8,2.1-1.8,2.1-2.9C52.6,50.8,51.8,49.8,50.5,49.1 M38.9,55.8c-1.3-0.8-3.1-1.2-4.9-1.2c-1.9,0-3.6,0.4-4.9,1.2
					c-1.3,0.7-2,1.7-2.1,2.8c-0.1,1.1,0.7,2.2,2,3c1.3,0.8,3.1,1.2,4.9,1.2c1.9,0,3.6-0.4,4.9-1.2c1.3-0.8,2.1-1.8,2.1-2.9
					C40.9,57.5,40.2,56.5,38.9,55.8 M62.1,42.4c-1.3-0.8-3.1-1.2-4.9-1.2c-1.9,0-3.6,0.4-4.9,1.2c-1.3,0.7-2,1.7-2.1,2.8
					c-0.1,1.1,0.7,2.2,2,3c1.3,0.8,3.1,1.2,4.9,1.2c1.9,0,3.6-0.4,4.9-1.2c1.3-0.8,2.1-1.8,2.1-2.9C64.2,44.1,63.5,43.1,62.1,42.4
					 M10,51.2l34.4-19.8l-2.4-1.4L7.6,49.8L10,51.2 M18.1,55.9L52.4,36l-1.1-0.7L16.9,55.2L18.1,55.9 M13.2,53l34.4-19.8l-1.1-0.7
					L12,52.4L13.2,53 M15.6,54.4L50,34.6l-1.1-0.7L14.5,53.8L15.6,54.4 M20.5,57.3l34.4-19.8l-1.1-0.7L19.4,56.6L20.5,57.3
					 M44.4,71.2l34.4-19.8l-1.1-0.7L43.2,70.5L44.4,71.2 M41.2,69.3l34.4-19.8l-1.1-0.7L40,68.6L41.2,69.3 M37.7,67.3l34.4-19.8
					l-1.1-0.7L36.6,66.6L37.7,67.3 M88.2,60.4l3.2-1.8L80.1,52l-3.2,1.8L88.2,60.4 M81,64.6l3.2-1.8l-8.5-5l-3.2,1.8L81,64.6
					 M84.6,62.5l3.2-1.8l-5.7-3.3l-3.2,1.8L84.6,62.5 M53.5,74.4L69.7,65l-1.1-0.7l-16.2,9.3L53.5,74.4 M50.8,72.8L67,63.5l-1.1-0.7
					l-16.2,9.3L50.8,72.8 M56.2,75.9l16.2-9.3l-1.1-0.7l-16.2,9.3L56.2,75.9 M58.5,77.3l16.2-9.3l-1.1-0.7l-16.2,9.3L58.5,77.3
					 M77.4,66.7l3.2-1.8l-4.3-2.5l-3.2,1.8L77.4,66.7"/>
			</g>
			<g id="XMLID_82_">
				<path id="XMLID_17_" class="st5" d="M52.3,42.4c-1.3,0.7-2,1.7-2.1,2.8c-0.1,1.1,0.7,2.2,2,3l0.9-0.5c-1.1-0.6-1.7-1.5-1.6-2.4
					c0-0.8,0.6-1.6,1.7-2.2L52.3,42.4z"/>
			</g>
			<g id="XMLID_79_">
				<path id="XMLID_80_" class="st3" d="M62.8,45.2c0-0.9-0.6-1.7-1.6-2.3s-2.5-1-4-1c-1.5,0-2.9,0.3-4,1c-1,0.6-1.6,1.4-1.7,2.2
					c0,0.9,0.5,1.8,1.6,2.4c1.1,0.6,2.5,1,4,1c1.5,0,2.9-0.3,4-1C62.2,46.9,62.8,46.1,62.8,45.2z"/>
			</g>
			<g id="XMLID_77_">
				<polygon id="XMLID_15_" class="st1" points="12,52.4 13.2,53 47.5,33.2 46.4,32.5 				"/>
			</g>
			<g id="XMLID_75_">
				<path id="XMLID_14_" class="st4" d="M29.1,55.8c-1.3,0.7-2,1.7-2.1,2.8c-0.1,1.1,0.7,2.2,2,3c1.3,0.8,3.1,1.2,4.9,1.2
					c1.9,0,3.6-0.4,4.9-1.2c1.3-0.8,2.1-1.8,2.1-2.9c0-1.1-0.7-2.1-2-2.9L38,56.3c1.1,0.6,1.6,1.4,1.6,2.3c0,0.9-0.6,1.7-1.7,2.3
					c-1.1,0.6-2.5,1-4,1c-1.5,0-2.9-0.3-4-1c-1.1-0.6-1.7-1.5-1.6-2.4c0-0.8,0.6-1.6,1.7-2.2L29.1,55.8z"/>
			</g>
			<g id="XMLID_73_">
				<polygon id="XMLID_13_" class="st4" points="72.5,59.6 81,64.6 84.2,62.8 75.7,57.8 				"/>
			</g>
			<g id="XMLID_71_">
				<polygon id="XMLID_1_" class="st1" points="36.6,66.6 37.7,67.3 72.1,47.4 70.9,46.8 				"/>
			</g>
		</g>
	</g>
</g>
</svg>
