<?xml version="1.0" encoding="utf-8"?>
<!-- Generator: Adobe Illustrator 19.0.0, SVG Export Plug-In . SVG Version: 6.00 Build 0)  -->
<svg version="1.1" id="Layer_1" xmlns="http://www.w3.org/2000/svg" xmlns:xlink="http://www.w3.org/1999/xlink" x="0px" y="0px"
	 viewBox="0 0 100 100" style="enable-background:new 0 0 100 100;" xml:space="preserve">
<style type="text/css">
	.st0{fill:#87CEFF;}
	.st1{fill:#4CA6F1;}
	.st2{fill:#FFE4E3;}
	.st3{fill:#FFF9FF;}
	.st4{fill:#FFF2FF;}
</style>
<g id="XMLID_72_">
	<g id="XMLID_93_">
		<polygon id="XMLID_12_" class="st0" points="97.4,64.7 43.3,33.5 5.5,55.3 59.5,86.5 		"/>
		<polygon id="XMLID_11_" class="st0" points="5.5,54.5 5.5,55.3 59.5,86.5 97.4,64.7 97.4,63.8 		"/>
		<g id="XMLID_94_">
			<polygon id="XMLID_10_" class="st1" points="97.4,63.8 43.3,32.6 5.5,54.5 59.5,85.7 			"/>
		</g>
	</g>
	<g id="XMLID_88_">
		<polygon id="XMLID_9_" class="st0" points="97.4,63 43.3,31.8 5.5,53.6 59.5,84.8 		"/>
		<polygon id="XMLID_8_" class="st2" points="5.5,51.1 5.5,53.6 59.5,84.8 97.4,63 97.4,60.5 		"/>
		<g id="XMLID_89_">
			<polygon id="XMLID_7_" class="st3" points="97.4,60.5 43.3,29.3 5.5,51.1 59.5,82.3 			"/>
		</g>
	</g>
	<g id="XMLID_76_">
		<polygon id="XMLID_6_" class="st0" points="97.4,59 43.3,27.8 5.5,49.6 59.5,80.8 		"/>
		<polygon id="XMLID_5_" class="st1" points="5.5,48.8 5.5,49.6 59.5,80.8 97.4,59 97.4,58.1 		"/>
		<g id="XMLID_78_">
			<polygon id="XMLID_4_" class="st0" points="97.4,58.1 43.3,26.9 5.5,48.8 59.5,80 			"/>
			<polygon id="XMLID_3_" class="st4" points="21.7,48.8 43.3,36.3 81.1,58.1 59.5,70.6 			"/>
		</g>
	</g>
	<polygon id="XMLID_2_" class="st1" points="59.5,80 59.5,86.5 5.5,55.3 5.5,48.8 	"/>
</g>
</svg>
