<?xml version="1.0" encoding="utf-8"?>
<!-- Generator: Adobe Illustrator 19.0.0, SVG Export Plug-In . SVG Version: 6.00 Build 0)  -->
<svg version="1.1" id="Layer_1" xmlns="http://www.w3.org/2000/svg" xmlns:xlink="http://www.w3.org/1999/xlink" x="0px" y="0px"
	 viewBox="0 0 100 100" style="enable-background:new 0 0 100 100;" xml:space="preserve">
<style type="text/css">
	.st0{fill:#FEFEFE;}
	.st1{fill:#EF688B;}
	.st2{fill:#005D92;}
	.st3{fill:#EF698B;}
	.st4{fill:#0F0F0F;}
	.st5{fill:#121212;}
	.st6{fill:#EE5E84;}
	.st7{fill:none;}
	.st8{fill:#FFFFFF;}
	.st9{font-family:'MyriadPro-Regular';}
	.st10{font-size:12px;}
	.st11{fill:#FCFCFC;}
</style>
<g id="XMLID_2_">
	<path id="XMLID_41_" class="st0" d="M60.4,70.9c-1.1,1.4-2.6,1.7-4.2,0.6c-0.9-0.6-1.6-1.5-2.1-2.5c-0.4-0.7-0.7-1.3-1.4-1.9
		c-0.4-0.4-0.7-0.8-1.3-0.7c-0.6,0.1-0.7,0.7-0.9,1.2c-0.3,0.8-0.2,1.6-0.1,2.3c0,1-0.2,1.8-1.1,2.1c-1,0.3-1.6-0.4-2.1-1.2
		c-0.5-0.9-1-1.8-1.5-2.8c-0.2-0.4-0.4-1-1-0.8c-0.5,0.2-0.6,0.7-0.6,1.2s0,1,0,1.4c0,1.4-0.8,1.8-2,1.1c-1.1-0.6-1.8-1.6-2.4-2.6
		c-3-5.3-5.1-10.9-6-17c0-0.1-0.1-0.2-0.2-0.4c-0.3-0.4-0.2-0.9-0.1-1.3c0-0.7,0-1.4,0-2.1c0.4-0.3,0.7,0.1,1.1,0.2
		c0.6,0.2,1.1,0.3,1.7,0.1c0.5-0.1,1-0.3,1.1-0.9c0.1-0.7-0.5-0.7-0.9-0.9c-0.6-0.1-1.1-0.1-1.7,0c-0.4,0.1-0.8,0.3-1.3,0.2
		c-0.1-4.5,1.4-8.5,4.1-12.1c6.7-8.7,17.9-4.9,21.6,1.5c1.7,3,2.4,6.3,3,9.6c1.2,6.6,3.6,12.9,6.2,19.1c0.4,0.9,0.8,1.8,0.8,2.8
		c0,1.2-0.6,1.8-1.8,1.8c-1.3,0.3-2.3-0.3-3.3-1c-0.8-0.6-1.6-1.2-2.4-1.8c-0.4-0.3-0.8-0.6-1.3-0.4c-0.6,0.3-0.5,0.9-0.4,1.4
		c0.1,0.8,0.2,1.6,0.5,2.3C60.6,69.9,60.7,70.4,60.4,70.9z"/>
	<path id="XMLID_40_" class="st1" d="M33.5,46.5c0.4-0.2,0.7-0.4,1.1-0.5c0.7,0.1,1.4,0.1,2.1,0c0.7,0.2,1.4,0.5,1.3,1.2
		c-0.1,0.7-0.8,1.1-1.5,1.3c-1.1,0.2-2.1,0-3-0.7C33.2,47.4,33.2,46.9,33.5,46.5z"/>
	<path id="XMLID_39_" class="st2" d="M60.4,70.9c0-0.5,0-1,0-1.6C60.8,69.9,60.8,70.4,60.4,70.9z"/>
	<path id="XMLID_38_" class="st2" d="M33.5,49.9c0,0.4,0.1,0.9,0.1,1.3C33.1,50.8,33.2,50.3,33.5,49.9z"/>
	<path id="XMLID_37_" class="st3" d="M50.1,46.7c-0.8-0.1-1.6-0.5-1.5-1.3c0.1-0.7,0.8-1.3,1.8-1.2c0.5,0.1,1-0.3,1.5,0
		c0.6,0.3,1.3,0.7,1.2,1.3c-0.1,0.8-0.8,1.1-1.5,1.2C51.2,46.5,50.7,46.5,50.1,46.7z"/>
	<path id="XMLID_36_" class="st4" d="M48.1,40.2c0,0.4-0.2,0.7-0.6,0.7c-0.4,0-0.7-0.2-0.7-0.6c0-0.4,0.2-0.7,0.6-0.7
		C47.8,39.5,48,39.8,48.1,40.2z"/>
	<path id="XMLID_35_" class="st5" d="M37.8,41.8c-0.4-0.1-0.7-0.2-0.6-0.7c0-0.4,0.3-0.6,0.7-0.6s0.7,0.2,0.7,0.7
		C38.5,41.6,38.2,41.7,37.8,41.8z"/>
	<path id="XMLID_34_" class="st6" d="M36.7,46c-0.7,0.3-1.4,0.3-2.1,0C35.3,45.8,36,45.8,36.7,46z"/>
	<path id="XMLID_33_" class="st6" d="M50.1,46.7c0.5-0.3,1-0.3,1.6,0C51.2,46.8,50.7,46.8,50.1,46.7z"/>
</g>
<rect id="XMLID_1_" x="18.7" y="15.5" class="st7" width="50.5" height="13.5"/>
<text transform="matrix(1 0 0 1 18.6584 24.02)" class="st8 st9 st10">404</text>
<text transform="matrix(1 0 0 1 37.1584 24.02)" class="st9 st10">  </text>
<text transform="matrix(1 0 0 1 42.2584 24.02)" class="st11 st9 st10">error</text>
</svg>
