<?xml version="1.0" encoding="utf-8"?>
<!-- Generator: Adobe Illustrator 19.0.0, SVG Export Plug-In . SVG Version: 6.00 Build 0)  -->
<svg version="1.1" id="Layer_1" xmlns="http://www.w3.org/2000/svg" xmlns:xlink="http://www.w3.org/1999/xlink" x="0px" y="0px"
	 viewBox="0 0 100 100" style="enable-background:new 0 0 100 100;" xml:space="preserve">
<style type="text/css">
	.st0{opacity:0.5;fill:#647DDD;}
	.st1{fill:#57438E;}
	.st2{fill:#381E60;}
	.st3{fill:#FFF2FF;}
</style>
<g id="XMLID_13_">
	<path id="XMLID_21_" class="st0" d="M92.2,61.3c0.1-0.2,0-0.4,0-0.6v0l0,0c-0.2-0.7-1.1-1.3-1.1-1.3S36.9,28.2,34.3,26.7
		c-2.6-1.5-5.2,0-5.2,0S6,40.1,3.4,41.6c-1,0.6-1.2,1.1-1.1,1.6v2.6c-0.1,1,1.1,1.7,1.1,1.7s54.2,31.3,56.7,32.8
		c0.8,0.5,1.6,0.6,2.4,0.7l0,0l0,0c1.6,0,2.8-0.7,2.8-0.7l23.2-13.4c0,0,0,0,2.6-1.5c0.7-0.4,1-0.8,1.1-1.2h0v0c0.1-0.2,0-0.4,0-0.6
		V61.3z"/>
	<g id="XMLID_14_">
		<g id="XMLID_15_">
			<path id="XMLID_20_" class="st1" d="M97.7,64.2c0.1-0.2,0-0.4,0-0.6v-2.9l-6.1-1.2C78.1,51.7,42,30.8,39.9,29.6
				c-2.6-1.5-5.2,0-5.2,0S16.9,39.9,10.8,43.5l-3-0.6v2.9c-0.1,1,1.1,1.7,1.1,1.7s54.2,31.3,56.7,32.8c0.8,0.5,1.6,0.6,2.4,0.7l0,0
				l0,0c1.6,0,2.8-0.7,2.8-0.7L94,66.9c0,0,0,0,2.6-1.5C97.3,65,97.6,64.6,97.7,64.2L97.7,64.2L97.7,64.2z"/>
			<path id="XMLID_19_" class="st2" d="M94,63.9L70.8,77.3c0,0-2.6,1.5-5.2,0C63.1,75.8,8.9,44.6,8.9,44.6s-2.6-1.5,0-3
				c2.6-1.5,25.8-14.9,25.8-14.9s2.6-1.5,5.2,0c2.6,1.5,56.7,32.8,56.7,32.8s2.6,1.5,0,3C94,63.9,94,63.9,94,63.9z"/>
			<polygon id="XMLID_18_" class="st3" points="86.3,56.5 39.9,29.7 14.1,44.6 60.5,71.3 			"/>
			<path id="XMLID_17_" class="st3" d="M86,61.4l-0.4-0.3c-0.6-0.4-1.4-0.4-2.1,0l-13.2,7.6c-0.5,0.3-0.5,1.1,0,1.4l0.2,0.1
				c0.7,0.4,1.7,0.4,2.4,0L86,62.6C86.4,62.4,86.4,61.7,86,61.4z"/>
			<ellipse id="XMLID_16_" class="st3" cx="24.4" cy="35.4" rx="1.3" ry="0.5"/>
		</g>
	</g>
</g>
</svg>
