<?xml version="1.0" encoding="utf-8"?>
<!-- Generator: Adobe Illustrator 19.0.0, SVG Export Plug-In . SVG Version: 6.00 Build 0)  -->
<svg version="1.1" id="Layer_1" xmlns="http://www.w3.org/2000/svg" xmlns:xlink="http://www.w3.org/1999/xlink" x="0px" y="0px"
	 viewBox="0 0 100 100" style="enable-background:new 0 0 100 100;" xml:space="preserve">
<style type="text/css">
	.st0{fill:#BFD4D1;}
	.st1{fill:#454C53;}
	.st2{fill:#FFFFFF;}
	.st3{font-family:'MyriadPro-Regular';}
	.st4{font-size:12px;}
</style>
<g id="XMLID_12_">
	<g id="XMLID_13_">
		<g id="XMLID_14_">
			<path id="XMLID_10_" class="st0" d="M76.9,72.7c0,0,3.3,0.2,3.3-4.5c0-6.4-7.6-5.9-8.4-11.8c0,0-0.9,0.2-2.3,0.5
				c2.1,3.6,7.7,4.1,7.7,9.6c0,4.7-3.3,4.4-3.3,4.4C69,70.8,69.7,74,69.7,74h3.4C73.5,74,74.6,72.6,76.9,72.7z"/>
			<path id="XMLID_9_" class="st0" d="M36.3,72.4c3.2-0.1,4.1-0.2,4.1-0.2s1.8-1.7-3.1-9.8C33.9,56.7,33,51.3,33,51.3
				s-0.6-0.4-1.5-0.9c0.4,3.5,1.2,7.7,2.8,10.4c4.9,8.1,3.1,9.9,3.1,9.9s-0.9-0.1-4.1,0.1c-3.2,0.1-3,3.3-3,3.3h3.4
				C34,74,34.8,72.5,36.3,72.4z"/>
			<path id="XMLID_8_" class="st0" d="M16.3,32.8c1.6-1,3.4-1.7,5.1-2c-0.4-1.1-1.4-1.9-2.7-1.9c-1.6,0-2.9,1.3-2.9,2.9
				c0,0.4,0.1,0.8,0.2,1.1C16.1,32.9,16.2,32.8,16.3,32.8C16.3,32.8,16.3,32.8,16.3,32.8z"/>
			<path id="XMLID_7_" class="st1" d="M7.7,41.9c-1.3,1-1.3,1.7,0.5,3.5c0.1-0.1,0.9-1.9,0.6-2.6C8.5,42.2,7.9,42,7.7,41.9z"/>
			<path id="XMLID_17_" class="st2" d="M92.2,37.8l-4.4-2.5c-0.2-0.1-0.3-0.2-0.5-0.2C83.3,28.8,75.7,24.2,69,24.4
				c-9.4,0.3-24.9,6.6-29.2,7c-4.3,0.4-11.2-0.9-16.6-0.8c-0.6,0-1.2,0.1-1.9,0.2c-1.6,0.3-3.5,1-5.1,2c0,0,0,0,0,0
				c-0.1,0-0.1,0.1-0.2,0.1c-1.3,0.9-2.4,1.9-2.9,3.2c-0.8,2.1-0.7,2.9-3.7,4.7c-3,1.8-3.7,2.3-0.8,5c1.4,1.3,5.5,1.7,8.6,1.3
				c5.6-0.8,11.5,1.9,14.2,3.3c1,0.5,1.5,0.9,1.5,0.9s0.9,5.5,4.3,11.1c4.9,8.1,3.1,9.9,3.1,9.9s-0.9,0.1-4.1,0.2
				c-1.5,0.1-2.3,0.9-2.7,1.7c-0.4,0.9-0.4,1.7-0.4,1.7H45c5.7-9.7,4-19.3,4-19.3c5.4,3,15.9,1.3,20.5,0.3c1.4-0.3,2.3-0.5,2.3-0.5
				c0.8,5.8,8.4,5.4,8.4,11.8c0,4.7-3.3,4.5-3.3,4.5c-2.3-0.1-3.4,0.7-3.8,1.5c-0.5,0.8-0.3,1.7-0.3,1.7h13
				c2.8-7.7,4.2-21.2,4.1-32.4c1.3,0.3,2.7-0.3,3.4-1.5l0-0.1C94.2,40.5,93.7,38.6,92.2,37.8z M8.3,45.4c-1.8-1.8-1.9-2.5-0.5-3.5
				c0.2,0.1,0.8,0.3,1.1,0.9C9.2,43.5,8.3,45.3,8.3,45.4z M16.6,40.9c-0.4,0-0.8-0.4-0.8-0.8c0-0.4,0.4-0.8,0.8-0.8
				c0.4,0,0.8,0.4,0.8,0.8C17.4,40.5,17.1,40.9,16.6,40.9z M25.6,38.8c-0.4-0.4-0.7-0.8-1.1-1.2c0.7-0.3,1.3-1.1,1.1-1.9
				c-0.2-0.9-1.1-1.5-2-1.3c-0.6,0.1-1,0.6-1.2,1.1c-0.4-0.4-0.8-0.7-1.2-1.1c0.4-0.7,1.2-1.3,2.1-1.5c1.7-0.4,3.5,0.7,3.8,2.5
				C27.4,36.7,26.8,38.1,25.6,38.8z"/>
			<path id="XMLID_2_" class="st0" d="M23.3,32.9c-0.9,0.2-1.6,0.8-2.1,1.5c0.4,0.4,0.8,0.7,1.2,1.1c0.2-0.5,0.7-1,1.2-1.1
				c0.9-0.2,1.8,0.4,2,1.3c0.2,0.8-0.4,1.6-1.1,1.9c0.4,0.4,0.7,0.8,1.1,1.2c1.2-0.7,1.8-2.1,1.5-3.5C26.7,33.6,25,32.5,23.3,32.9z"
				/>
			<circle id="XMLID_1_" class="st1" cx="16.6" cy="40.1" r="0.8"/>
		</g>
	</g>
</g>
<text id="XMLID_11_" transform="matrix(1 0 0 1 30.1832 45.4397)" class="st3 st4">undefined</text>
</svg>
