<?xml version="1.0" encoding="utf-8"?>
<!-- Generator: Adobe Illustrator 19.0.0, SVG Export Plug-In . SVG Version: 6.00 Build 0)  -->
<svg version="1.1" id="Layer_1" xmlns="http://www.w3.org/2000/svg" xmlns:xlink="http://www.w3.org/1999/xlink" x="0px" y="0px"
	 viewBox="0 0 100 100" style="enable-background:new 0 0 100 100;" xml:space="preserve">
<style type="text/css">
	.st0{opacity:0.2;fill:#E9FFFB;}
	.st1{opacity:0.15;fill:#6B99D1;}
	.st2{fill:none;stroke:#EEF7FF;stroke-miterlimit:10;}
	.st3{fill:#C8E2FF;}
	.st4{fill:#A5CBFA;}
	.st5{fill:#DCEEFF;}
	.st6{fill:#031F60;}
	.st7{fill:#1E3779;}
	.st8{fill:#344593;}
</style>
<g id="XMLID_3189_">
	<path id="XMLID_3151_" class="st0" d="M48,53.3L30.1,63.7c-0.9,0.5-0.9,1.4,0,2L48,76c0.9,0.5,2.5,0.5,3.4,0l17.9-10.3
		c0.9-0.5,0.9-1.4,0-2L51.4,53.3C50.5,52.8,48.9,52.8,48,53.3z"/>
	<path id="XMLID_4153_" class="st1" d="M48,60.9L30.1,71.2c-0.9,0.5-0.9,1.4,0,2L48,83.5c0.9,0.5,2.5,0.5,3.4,0l17.9-10.3
		c0.9-0.5,0.9-1.4,0-2L51.4,60.9C50.5,60.4,48.9,60.4,48,60.9z"/>
	<path id="XMLID_3150_" class="st2" d="M48,53.3L30.1,63.7c-0.9,0.5-0.9,1.4,0,2L48,76c0.9,0.5,2.5,0.5,3.4,0l17.9-10.3
		c0.9-0.5,0.9-1.4,0-2L51.4,53.3C50.5,52.8,48.9,52.8,48,53.3z"/>
	<g id="XMLID_3241_">
		<path id="XMLID_3135_" class="st3" d="M70,27.8V51c0,1.1-0.8,2.4-1.7,2.9l-16.9,9.8c-0.5,0.3-1.1,0.4-1.7,0.4
			c-0.6,0-1.2-0.1-1.7-0.4l-16.9-9.8c-0.9-0.5-1.7-1.9-1.7-2.9V27.8H70z"/>
		<path id="XMLID_3133_" class="st4" d="M49.7,27.8v36.3c-0.6,0-1.2-0.1-1.7-0.4l-16.9-9.8c-0.9-0.5-1.7-1.9-1.7-2.9V27.8H49.7z"/>
		<path id="XMLID_3061_" class="st5" d="M48,16.5L30.1,26.8c-0.9,0.5-0.9,1.4,0,2L48,39.1c0.9,0.5,2.5,0.5,3.4,0l17.9-10.3
			c0.9-0.5,0.9-1.4,0-2L51.4,16.5C50.5,15.9,48.9,15.9,48,16.5z"/>
		<g id="XMLID_3071_">
			<path id="XMLID_3077_" class="st6" d="M56.3,44.6v6.8c0,0.7,0.5,1,1.1,0.7l0.2-0.1l5.7-3.3c0.3-0.2,0.6-0.5,0.8-0.9l-7.5-4.3
				C56.4,43.8,56.3,44.2,56.3,44.6z"/>
			<path id="XMLID_3125_" class="st7" d="M64.4,40.1l0-0.2c0-0.7-0.5-1-1.1-0.7l-0.1,0.1l-5.8,3.3c-0.3,0.2-0.6,0.5-0.8,0.9l7.5,4.3
				c0.2-0.4,0.3-0.8,0.3-1.1V40.1z"/>
			<path id="XMLID_3141_" class="st8" d="M63.2,45.8c0,0.4-0.1,0.8-0.3,1.1c-0.2,0.4-0.5,0.7-0.8,0.9l-5.7,3.3l-0.1,0.1v-6.6
				c0-0.4,0.1-0.8,0.3-1.1c0.2-0.4,0.5-0.7,0.8-0.9l5.8-3.3L63.2,45.8z"/>
		</g>
		<g id="XMLID_3108_">
			<path id="XMLID_3138_" class="st6" d="M43.1,44.6v6.8c0,0.7-0.5,1-1.1,0.7l-0.2-0.1l-5.7-3.3c-0.3-0.2-0.6-0.5-0.8-0.9l7.5-4.3
				C43,43.8,43.1,44.2,43.1,44.6z"/>
			<path id="XMLID_3137_" class="st7" d="M35,40.1l0-0.2c0-0.7,0.5-1,1.1-0.7l0.1,0.1l5.8,3.3c0.3,0.2,0.6,0.5,0.8,0.9l-7.5,4.3
				C35.1,47.4,35,47,35,46.7V40.1z"/>
			<path id="XMLID_3119_" class="st8" d="M36.2,45.8c0,0.4,0.1,0.8,0.3,1.1c0.2,0.4,0.5,0.7,0.8,0.9l5.7,3.3l0.1,0.1v-6.6
				c0-0.4-0.1-0.8-0.3-1.1c-0.2-0.4-0.5-0.7-0.8-0.9l-5.8-3.3L36.2,45.8z"/>
		</g>
		<path id="XMLID_3065_" class="st5" d="M48,16.5L30.1,26.8c-0.9,0.5-0.9,1.4,0,2L48,39.1c0.9,0.5,2.5,0.5,3.4,0l17.9-10.3
			c0.9-0.5,0.9-1.4,0-2L51.4,16.5C50.5,15.9,48.9,15.9,48,16.5z"/>
		<g id="XMLID_3062_">
			<path id="XMLID_3139_" class="st7" d="M56.7,28.4l-0.2,0.1l-5.7,3.3c-0.3,0.2-0.7,0.3-1.1,0.3c-0.4,0-0.8-0.1-1.1-0.3l-5.7-3.3
				l-0.2-0.1c-0.6-0.4-0.6-1,0-1.3l5.9-3.4c0.3-0.2,0.7-0.3,1.1-0.3c0.4,0,0.8,0.1,1.1,0.3l5.9,3.4C57.3,27.5,57.3,28.1,56.7,28.4z"
				/>
			<path id="XMLID_3126_" class="st6" d="M49.7,23.4v8.7c-0.4,0-0.8-0.1-1.1-0.3l-5.7-3.3l-0.2-0.1c-0.6-0.4-0.6-1,0-1.3l5.9-3.4
				C48.9,23.5,49.3,23.4,49.7,23.4z"/>
			<path id="XMLID_3134_" class="st8" d="M56.5,28.5l-5.7,3.3c-0.6,0.4-1.6,0.4-2.3,0l-5.7-3.3l5.7-3.3c0.6-0.4,1.6-0.4,2.3,0
				L56.5,28.5z"/>
		</g>
	</g>
</g>
</svg>
