<?xml version="1.0" encoding="utf-8"?>
<!-- Generator: Adobe Illustrator 19.0.0, SVG Export Plug-In . SVG Version: 6.00 Build 0)  -->
<svg version="1.1" id="Layer_1" xmlns="http://www.w3.org/2000/svg" xmlns:xlink="http://www.w3.org/1999/xlink" x="0px" y="0px"
	 viewBox="0 0 100 100" style="enable-background:new 0 0 100 100;" xml:space="preserve">
<style type="text/css">
	.st0{fill:#493C97;}
	.st1{fill:#CAB7D8;}
	.st2{fill:#2A969E;}
	.st3{fill:#9F89C0;}
	.st4{fill:#F5D3E4;}
	.st5{fill:#EAC2D9;}
	.st6{fill:#514399;}
	.st7{fill:#D7D3E9;}
	.st8{fill:#2FB4E8;}
	.st9{fill:#B9B8DB;}
	.st10{fill:#AFA3CF;}
	.st11{fill:#F7C5AE;}
	.st12{fill:#E2AE9B;}
	.st13{fill:#F6C4AE;}
	.st14{fill:#E187B1;}
	.st15{fill:#EDCFE1;}
	.st16{fill:#F3F6F7;}
	.st17{fill:#EBE9F3;}
</style>
<g>
	<path class="st0" d="M30.6,38.3c-0.6-1-0.8-2.1-1-3.3c-0.2-1.8,0.1-3.5,1.4-4.9c0.4-0.4,0.7-0.9,1.2,0c0.2,0.4,0.5-0.1,0.7-0.2
		c0.4-0.7,1.1-1.1,1.8-1.3c0.4-0.2,0.7-0.4,1.1-0.5c1.2-0.3,1.7,0,2.5,1.1c0.3,0.5,0.8,0.1,1.2,0.2c0.4,0,0.8,0,1.2,0
		c0.8,0.6,1,1.5,0.6,2.7c-0.1,1-0.4,2-1,2.8c-0.2,0.4-0.4,0.8-1,0.7c-0.4-1-1.1-1.2-2.2-0.9c-0.6,0.2-1.2,0-1.8-0.2
		c-0.2-0.1-0.4-0.2-0.7-0.3c-1.5-0.6-1.8-0.4-1.8,1.2c0,1.1,0,1.1-1.1,1.4c-0.3,0.1-0.6,0.3-0.7,0.6C30.9,37.8,30.9,38.1,30.6,38.3z
		"/>
	<path class="st1" d="M75.3,59.1c-0.8,1.8-1.3,3.6-2,5.4c-0.7,2.1-1.5,4.2-2.2,6.3c-0.2,0.6-0.5,0.4-0.9,0.3
		c-3.5-1.3-7.1-2.4-10.8-3c-8.7-1.5-17.2-1-25.4,2.6c-0.7,0.3-1.4,0.7-2,1.1c-0.6,0.3-0.9,0.3-1.2-0.3c-1.5-3.3-3-6.6-4.6-9.9
		c-0.4-0.8-0.8-1.6-1.1-2.4c0.2-0.3,0.5-0.4,0.8-0.4c0.3,0,0.5,0,0.8,0c15.7,0,31.3,0,47,0C74.3,58.7,74.9,58.5,75.3,59.1z"/>
	<path class="st2" d="M26.2,57.2c-0.6-2.9-0.7-5.9-0.3-8.8c0.5-3.5,2.1-5.3,5.6-5.9c0.4,0,0.6,0.3,0.8,0.5c0.4,0.4,0.8,0.9,1.2,1.2
		c0.6,0.4,0.8,0.3,1-0.3c0.1-0.2,0.1-0.5,0.4-0.7c2.2-0.3,3.8,1,4.2,3.1c-0.2,0.8,0.1,1.6,0,2.4c-0.2,1.1-0.5,2.1-0.8,3.1
		c-0.2,0.6-0.2,1.3-0.3,1.9c0,0.4-0.1,0.8-0.3,1.1c-0.3,0.3-0.7,0.3-1.1,0.1c-0.6-0.2-1-0.5-1.4-1c-1.6-2.1-3-4.3-3.3-7.1
		c-0.1-1.1-1-1.9-1.9-1.8c-1.1,0.1-1.9,1.1-1.9,2.3c0.1,1.3,0.5,2.6,1,3.8c0.9,2,2.3,3.7,3.5,5.5c0.2,0.3,0.6,0.6,0.1,1
		c-0.7,0.2-1.4,0.1-2.2,0.1c-1.2,0-2.3,0-3.5,0C26.8,57.7,26.3,57.7,26.2,57.2z"/>
	<path class="st3" d="M26.2,57.2c0.2,0.3,0.4,0.3,0.7,0.3c2,0,4.1,0,6.1,0c0.2-0.3,0.5-0.3,0.9-0.3c3.6,0,7.1-0.1,10.7,0
		c2.8-0.2,5.6,0.2,8.4,0c4.6-0.1,9.1,0,13.7,0c0.3,0,0.6,0.1,0.9,0.3c1.1,0,2.2,0,3.2,0c0.9-0.6,1.9-0.4,2.9-0.1
		c0.2,0.3,0.6,0.2,0.8,0.2c1.5,0,3,0,4.5,0c0.3,0,0.6,0.1,0.9,0.1c0.5,1.1,0.2,1.5-0.9,1.5c-1.2,0-2.4,0-3.6,0c-0.3,0-0.6,0-0.9,0
		c-16.1,0-32.2,0-48.3,0c-0.3,0-0.7,0-1,0c-1.7,0-3.3,0-5,0c-0.6,0-1.2,0-1.2-0.8c0-0.9,0.7-0.8,1.3-0.8c1.7,0,3.5,0,5.2,0
		C25.7,57.4,26.1,57.5,26.2,57.2z"/>
	<path class="st4" d="M30.6,38.3c0.1-1.4,0.4-1.7,1.7-1.7c0.4,0,0.3-0.2,0.3-0.4c0-0.5,0-1,0-1.5c0-1,0.5-1.3,1.4-1.1
		c0.6,0.2,1.2,0.5,1.8,0.7c0.8,0.3,1.6,0.4,2.3-0.1c0.5-0.3,0.8-0.1,1,0.3c0.1,0.3,0.2,0.7,0.3,1.1c0.3,0.2,0.3,0.6,0.3,1
		c0,1,0,2,0,3c0,1.4-0.8,2.5-2.1,3C36.8,43,36,43.2,35.1,43c-0.8,0-1.6-0.2-2.3-0.6c-0.6-0.4-1-0.9-0.9-1.6c0-0.1-0.1-0.2-0.1-0.3
		c-0.2-0.5-0.2-1.2-0.8-1.5C30.8,38.7,30.7,38.5,30.6,38.3z"/>
	<path class="st5" d="M31.9,40.7c0.6,1.4,1.8,1.8,3.1,2c0.1,0.2,0.2,0.3,0,0.5c-0.1,0.5,0,1.2-0.6,1.4c-0.6,0.2-1.1-0.3-1.5-0.7
		c-0.5-0.5-0.9-1-1.4-1.6C31.6,41.9,31.6,41.3,31.9,40.7z"/>
	<path class="st6" d="M30.9,38.9c1.3-0.1,0.6,0.9,0.8,1.5C31.3,40,31,39.5,30.9,38.9z"/>
	<path class="st7" d="M52.4,55.3c0.7-2.1,1.5-4.2,2.2-6.3c0.4-1.2,0.8-2.3,1.2-3.5c0.2-0.6,0.5-0.8,1.1-0.8c4.2,0,8.4,0,12.6,0
		c0.9,0,1.2,0.3,0.9,1.1c-1.1,3-2.3,6.1-3.4,9.1c-0.1,0.6-0.6,0.7-1.1,0.7c-2,0-4.1,0-6.1,0c-1.9,0-3.9,0-5.8,0
		C53.4,55.6,52.8,55.7,52.4,55.3z"/>
	<path class="st8" d="M44.7,57.4c-3.9,0-7.8,0-11.6,0c-1.9-2.4-3.8-4.9-4.7-7.9c-0.3-0.9-0.5-1.8-0.3-2.8c0.2-1.1,1.2-2,2.3-2
		c1,0,2,0.9,2.1,2.1c0.2,2.8,1.8,5,3.4,7.2c0.4,0.6,1.2,0.8,1.9,0.8c0.7-0.3,1.3,0.1,2,0.1c0.3,0,0.6,0.1,1,0.1
		c-0.7-0.6-1.3-1.3-1.9-2c-0.3-0.4-0.6-0.8-0.6-1.3c0.6-1.8,0.8-3.7,0.9-5.5c0.5,0,0.6,0.4,0.8,0.7c0.9,1.7,1.9,3.4,2.6,5.2
		c0.3,0.8,0.7,1.4,1.7,1.4c0.3,0,0.6,0.2,0.8,0.5c0.8,0.2,1.6,0.4,2.4,0.6c0.3,0.5,0,0.8-0.5,1c-0.1,0-0.2,0-0.3,0
		c-0.4,0-0.9-0.1-1.3,0.2c-0.4,0.3-0.2,0.8-0.3,1.2C44.9,57.2,44.8,57.3,44.7,57.4z"/>
	<path class="st9" d="M52.4,55.3c4.6,0,9.2,0,13.8,0c0.3,0,0.6-0.1,0.8-0.3c-0.1,0.5,0.5,0.3,0.5,0.6c0.1,0.6,0.1,1.1,0,1.7
		c0,0,0,0.1,0,0.1c-4.9,0-9.7,0-14.6,0C52.4,56.8,52.6,56,52.4,55.3L52.4,55.3z"/>
	<path class="st10" d="M52.4,55.3c0.6,0.2,0.6,0.8,0.6,1.3c0,0.3,0,0.6,0,0.9c-2.8,0-5.5,0-8.3,0c0-0.1,0-0.1,0-0.2
		c-0.2-1.9-0.2-2,1.8-1.9c0.5,0,0.9,0,0.9-0.7c0,0,0.1,0,0.1,0c0.2,0.3,0.5,0.3,0.8,0.3c0.6,0,1.2,0.1,1.8,0.2
		C50.8,55.5,51.6,55.3,52.4,55.3z"/>
	<path class="st11" d="M73.6,57.3c-1,0.3-1.9,0.1-2.9,0.1c-0.5-0.4-0.7-0.9-0.7-1.6c0-0.6,0-1.2,0-1.9c0.1-0.1,0.2-0.3,0.4-0.3
		c1.2,0,2.4-0.2,3.6,0.1c0.5,0.5,0.3,1.1,0.4,1.7c0,0.4-0.3,0.6-0.4,0.9C74.2,56.8,73.9,57.1,73.6,57.3z"/>
	<path class="st12" d="M74.2,54c-1.4,0-2.7,0-4.1,0c0-0.2,0-0.4,0-0.7c0.1-0.2,0.3-0.3,0.5-0.3c1.1,0,2.2-0.1,3.4,0.1
		c0.2,0.1,0.4,0.3,0.4,0.6C74.4,53.8,74.3,53.9,74.2,54z"/>
	<path class="st13" d="M74.2,53.3c-1.3,0-2.7,0-4,0c0-0.3-0.1-0.7,0.4-0.7c1.1,0,2.3,0,3.4,0c0.1,0,0.2,0.1,0.2,0.2
		C74.3,53,74.3,53.2,74.2,53.3z"/>
	<path class="st14" d="M74.2,53.3c0-0.1,0-0.3,0-0.4c0.1,0.3,0.2,0.5,0.6,0.5c0.8,0,1.3,0.6,1.3,1.3c0,0.7-0.5,1.3-1.3,1.5
		c-0.3,0-0.6,0-0.7,0.3c-0.1-0.3,0.1-0.5,0.1-0.8c0.2-0.4,0.9-0.3,0.9-0.9c0-0.6-0.8-0.5-0.9-0.9C74.3,53.6,74.2,53.5,74.2,53.3z"/>
	<path class="st15" d="M50,55.1c-0.7,0.3-1.5,0.1-2.3,0.1c-0.4,0-0.3-0.4-0.3-0.6C48.3,54.6,49.2,54.7,50,55.1z"/>
	<path class="st16" d="M63.1,50.3c0,0.6-0.6,1.2-1.2,1.2c-0.7,0-1.2-0.6-1.2-1.2c0-0.7,0.6-1.3,1.3-1.2
		C62.5,49.1,63.1,49.7,63.1,50.3z"/>
	<path class="st17" d="M50.7,56.9c-0.4-0.2-1.2,0.3-1.2-0.5c0-0.8,0.7-0.5,1.1-0.5c0.4,0,1.2-0.4,1.2,0.5
		C51.9,57.2,51.2,56.8,50.7,56.9z"/>
</g>
</svg>
