<?xml version="1.0" encoding="utf-8"?>
<!-- Generator: Adobe Illustrator 19.0.0, SVG Export Plug-In . SVG Version: 6.00 Build 0)  -->
<svg version="1.1" id="Layer_1" xmlns="http://www.w3.org/2000/svg" xmlns:xlink="http://www.w3.org/1999/xlink" x="0px" y="0px"
	 viewBox="0 0 100 100" style="enable-background:new 0 0 100 100;" xml:space="preserve">
<style type="text/css">
	.st0{opacity:0.15;fill:#6B99D1;}
	.st1{fill:url(#XMLID_2_);}
	.st2{fill:#DCEEFF;}
	.st3{fill:#FFFFFF;}
	.st4{fill:url(#XMLID_3_);}
	.st5{fill:none;stroke:#344593;stroke-miterlimit:10;}
	.st6{fill:url(#XMLID_4_);}
	.st7{fill:url(#XMLID_5_);}
	.st8{fill:url(#XMLID_6_);}
	.st9{fill:url(#XMLID_7_);}
	.st10{opacity:0.5;fill:url(#XMLID_8_);}
</style>
<g id="XMLID_2567_">
	<path id="XMLID_280_" class="st0" d="M40.9,72.8c-5,2.9-5,7.6,0,10.6c5,2.9,13.2,2.9,18.3,0c5-2.9,5-7.6,0-10.6
		C54.1,69.9,45.9,69.9,40.9,72.8z"/>
	<linearGradient id="XMLID_2_" gradientUnits="userSpaceOnUse" x1="37.0771" y1="75.8716" x2="62.9229" y2="75.8716">
		<stop  offset="0" style="stop-color:#A5CBFA"/>
		<stop  offset="0.3632" style="stop-color:#A8CDFA"/>
		<stop  offset="0.6668" style="stop-color:#B3D4FC"/>
		<stop  offset="0.9482" style="stop-color:#C4DFFE"/>
		<stop  offset="1" style="stop-color:#C8E2FF"/>
	</linearGradient>
	<path id="XMLID_2514_" class="st1" d="M61.3,72.2c-0.6-0.6-1.3-1.1-2.1-1.6c-5-2.9-13.2-2.9-18.3,0c-0.9,0.5-1.6,1-2.1,1.6h-1.7
		v3.6l0,0c0,1.9,1.3,3.8,3.8,5.3c5,2.9,13.2,2.9,18.3,0c2.5-1.5,3.8-3.4,3.8-5.3v-3.6H61.3z"/>
	<path id="XMLID_2512_" class="st2" d="M40.9,67.4c-5,2.9-5,7.6,0,10.6c5,2.9,13.2,2.9,18.3,0c5-2.9,5-7.6,0-10.6
		C54.1,64.5,45.9,64.5,40.9,67.4z"/>
	<g id="XMLID_2507_">
		<path id="XMLID_19_" class="st3" d="M50,66.2c3.3,0,6.3,0.7,8.6,2.1c2.1,1.2,3.3,2.8,3.3,4.4c0,1.6-1.2,3.2-3.3,4.4
			c-2.3,1.3-5.4,2.1-8.6,2.1s-6.3-0.7-8.6-2.1c-2.1-1.2-3.3-2.8-3.3-4.4c0-1.6,1.2-3.2,3.3-4.4C43.7,66.9,46.7,66.2,50,66.2
			 M50,65.2c-3.3,0-6.6,0.7-9.1,2.2c-5,2.9-5,7.6,0,10.6c2.5,1.5,5.8,2.2,9.1,2.2s6.6-0.7,9.1-2.2c5-2.9,5-7.6,0-10.6
			C56.6,65.9,53.3,65.2,50,65.2L50,65.2z"/>
	</g>
	<g id="XMLID_2498_">
		<linearGradient id="XMLID_3_" gradientUnits="userSpaceOnUse" x1="39.2984" y1="71.9088" x2="60.7016" y2="71.9088">
			<stop  offset="0" style="stop-color:#A5CBFA"/>
			<stop  offset="0.3632" style="stop-color:#A8CDFA"/>
			<stop  offset="0.6668" style="stop-color:#B3D4FC"/>
			<stop  offset="0.9482" style="stop-color:#C4DFFE"/>
			<stop  offset="1" style="stop-color:#C8E2FF"/>
		</linearGradient>
		<path id="XMLID_2438_" class="st4" d="M59.3,68.9c-0.5-0.5-1.1-0.9-1.8-1.4c-4.2-2.4-11-2.4-15.1,0c-0.7,0.4-1.3,0.9-1.8,1.4h-1.4
			v3h0c0,1.6,1,3.2,3.1,4.4c4.2,2.4,11,2.4,15.1,0c2.1-1.2,3.1-2.8,3.1-4.4v-3H59.3z"/>
		<path id="XMLID_2364_" class="st2" d="M42.4,64.9c-4.2,2.4-4.2,6.3,0,8.7c4.2,2.4,11,2.4,15.1,0c4.2-2.4,4.2-6.3,0-8.7
			C53.4,62.5,46.6,62.5,42.4,64.9z"/>
		<g id="XMLID_2357_">
			<path id="XMLID_14_" class="st3" d="M50,64.1c2.7,0,5.2,0.6,7.1,1.7c1.7,1,2.6,2.2,2.6,3.5s-0.9,2.5-2.6,3.5
				c-1.9,1.1-4.4,1.7-7.1,1.7c-2.7,0-5.2-0.6-7.1-1.7c-1.7-1-2.6-2.2-2.6-3.5s0.9-2.5,2.6-3.5C44.8,64.7,47.3,64.1,50,64.1 M50,63.1
				c-2.7,0-5.5,0.6-7.6,1.8c-4.2,2.4-4.2,6.3,0,8.7c2.1,1.2,4.8,1.8,7.6,1.8c2.7,0,5.5-0.6,7.6-1.8c4.2-2.4,4.2-6.3,0-8.7
				C55.5,63.7,52.7,63.1,50,63.1L50,63.1z"/>
		</g>
	</g>
	<g id="XMLID_2522_">
		<polyline id="XMLID_2531_" class="st5" points="54.5,49.6 55.7,42.9 50.7,42 		"/>
		<polyline id="XMLID_2529_" class="st5" points="45.2,50.7 50.7,42 54.5,49.6 		"/>
		
			<linearGradient id="XMLID_4_" gradientUnits="userSpaceOnUse" x1="118.2523" y1="-329.2851" x2="120.8618" y2="-326.6756" gradientTransform="matrix(0.9635 -0.2678 0.2678 0.9635 17.9217 398.752)">
			<stop  offset="0" style="stop-color:#91F1E6"/>
			<stop  offset="1" style="stop-color:#0662DD"/>
		</linearGradient>
		<circle id="XMLID_2528_" class="st6" cx="45.2" cy="50.7" r="2"/>
		
			<linearGradient id="XMLID_5_" gradientUnits="userSpaceOnUse" x1="126.3984" y1="-335.5883" x2="127.8057" y2="-334.181" gradientTransform="matrix(0.9635 -0.2678 0.2678 0.9635 17.9217 398.752)">
			<stop  offset="0" style="stop-color:#91F1E6"/>
			<stop  offset="1" style="stop-color:#0662DD"/>
		</linearGradient>
		<circle id="XMLID_2526_" class="st7" cx="50.7" cy="42" r="1.1"/>
		
			<linearGradient id="XMLID_6_" gradientUnits="userSpaceOnUse" x1="130.9481" y1="-333.3884" x2="132.3555" y2="-331.981" gradientTransform="matrix(0.9635 -0.2678 0.2678 0.9635 17.9217 398.752)">
			<stop  offset="0" style="stop-color:#91F1E6"/>
			<stop  offset="1" style="stop-color:#0662DD"/>
		</linearGradient>
		<circle id="XMLID_2535_" class="st8" cx="55.7" cy="42.9" r="1.1"/>
		
			<linearGradient id="XMLID_7_" gradientUnits="userSpaceOnUse" x1="127.8485" y1="-327.4407" x2="129.6123" y2="-325.677" gradientTransform="matrix(0.9635 -0.2678 0.2678 0.9635 17.9217 398.752)">
			<stop  offset="0" style="stop-color:#91F1E6"/>
			<stop  offset="1" style="stop-color:#0662DD"/>
		</linearGradient>
		<circle id="XMLID_2525_" class="st9" cx="54.5" cy="49.6" r="1.3"/>
	</g>
	<linearGradient id="XMLID_8_" gradientUnits="userSpaceOnUse" x1="49.9993" y1="75.3208" x2="49.9993" y2="14.0833">
		<stop  offset="0" style="stop-color:#57F7D7;stop-opacity:0.7"/>
		<stop  offset="0.904" style="stop-color:#57F7DF;stop-opacity:6.719244e-02"/>
		<stop  offset="1" style="stop-color:#57F7E0;stop-opacity:0"/>
	</linearGradient>
	<path id="XMLID_2310_" class="st10" d="M39.3,69.3c0,1.6,1,3.2,3.1,4.4c4.2,2.4,11,2.4,15.1,0c2.1-1.2,3.1-2.8,3.1-4.4V14.5H39.3
		L39.3,69.3z"/>
</g>
</svg>
