<?xml version="1.0" encoding="utf-8"?>
<!-- Generator: Adobe Illustrator 19.0.0, SVG Export Plug-In . SVG Version: 6.00 Build 0)  -->
<svg version="1.1" id="Layer_1" xmlns="http://www.w3.org/2000/svg" xmlns:xlink="http://www.w3.org/1999/xlink" x="0px" y="0px"
	 viewBox="0 0 100 100" style="enable-background:new 0 0 100 100;" xml:space="preserve">
<style type="text/css">
	.st0{opacity:0.15;fill:#6B99D1;}
	.st1{fill:url(#XMLID_2_);}
	.st2{fill:url(#XMLID_3_);}
	.st3{fill:#DCEEFF;}
	.st4{fill:#FFFFFF;}
	.st5{opacity:0.4;fill:url(#XMLID_4_);}
	.st6{opacity:0.5;fill:#57F7E0;}
	.st7{opacity:0.7;fill:#6CFFE6;}
	.st8{opacity:0.7;}
	.st9{opacity:0.5;fill:#6CFFE6;}
</style>
<g id="XMLID_3990_">
	<path id="XMLID_4159_" class="st0" d="M36.3,74.1c-7.3,4.2-7.3,11,0,15.2c7.3,4.2,19.1,4.2,26.4,0c7.3-4.2,7.3-11,0-15.2
		S43.6,69.9,36.3,74.1z"/>
	<g id="XMLID_576_">
		<linearGradient id="XMLID_2_" gradientUnits="userSpaceOnUse" x1="31.0124" y1="79.6304" x2="67.9351" y2="79.6304">
			<stop  offset="0" style="stop-color:#6B99D1"/>
			<stop  offset="2.052760e-02" style="stop-color:#6E9BD3"/>
			<stop  offset="0.2361" style="stop-color:#86B0E4"/>
			<stop  offset="0.4632" style="stop-color:#97BFF0"/>
			<stop  offset="0.7077" style="stop-color:#A2C8F8"/>
			<stop  offset="1" style="stop-color:#A5CBFA"/>
		</linearGradient>
		<path id="XMLID_497_" class="st1" d="M64.6,73.6l-0.3-0.5H64c-0.5-0.4-1-0.7-1.5-1c-7.2-4.2-18.9-4.2-26.1,0
			c-0.5,0.3-1.1,0.6-1.5,1h-0.4l-0.3,0.5c-1.2,2.3-3.3,5.3-3.3,6c0,2.7,1.8,5.5,5.4,7.6c7.2,4.2,18.9,4.2,26.1,0
			c3.6-2.1,5.4-4.8,5.4-7.5C67.9,78.7,66.2,75.6,64.6,73.6z"/>
		<linearGradient id="XMLID_3_" gradientUnits="userSpaceOnUse" x1="34.5527" y1="73.0882" x2="64.3901" y2="73.0882">
			<stop  offset="0" style="stop-color:#A5CBFA"/>
			<stop  offset="0.3632" style="stop-color:#A8CDFA"/>
			<stop  offset="0.6668" style="stop-color:#B3D4FC"/>
			<stop  offset="0.9482" style="stop-color:#C4DFFE"/>
			<stop  offset="1" style="stop-color:#C8E2FF"/>
		</linearGradient>
		<path id="XMLID_2162_" class="st2" d="M62.5,68.9C61.8,68.2,61,67.6,60,67c-5.8-3.4-15.3-3.4-21.1,0c-1,0.6-1.8,1.2-2.5,1.9h-1.9
			v4.2l0,0c0,2.2,1.5,4.4,4.4,6.1c5.8,3.4,15.3,3.4,21.1,0c2.9-1.7,4.4-3.9,4.4-6.1v-4.2H62.5z"/>
		<path id="XMLID_2135_" class="st3" d="M38.9,63.3c-5.8,3.4-5.8,8.8,0,12.2c5.8,3.4,15.3,3.4,21.1,0c5.8-3.4,5.8-8.8,0-12.2
			C54.2,60,44.7,60,38.9,63.3z"/>
		<g id="XMLID_2159_">
			<path id="XMLID_23_" class="st4" d="M49.5,61.8c3.8,0,7.4,0.8,10,2.4c2.5,1.4,3.9,3.3,3.9,5.2c0,1.9-1.4,3.8-3.9,5.2
				c-2.7,1.5-6.2,2.4-10,2.4c-3.8,0-7.4-0.8-10-2.4c-2.5-1.4-3.9-3.3-3.9-5.2c0-1.9,1.4-3.8,3.9-5.2C42.1,62.6,45.7,61.8,49.5,61.8
				 M49.5,60.8c-3.8,0-7.6,0.8-10.5,2.5c-5.8,3.4-5.8,8.8,0,12.2c2.9,1.7,6.7,2.5,10.5,2.5s7.6-0.8,10.5-2.5c5.8-3.4,5.8-8.8,0-12.2
				C57.1,61.6,53.3,60.8,49.5,60.8L49.5,60.8z"/>
		</g>
		<linearGradient id="XMLID_4_" gradientUnits="userSpaceOnUse" x1="49.4705" y1="77.8447" x2="49.4705" y2="-7.5258">
			<stop  offset="0" style="stop-color:#57F7D7;stop-opacity:0.7"/>
			<stop  offset="0.904" style="stop-color:#57F7DF;stop-opacity:6.719244e-02"/>
			<stop  offset="1" style="stop-color:#57F7E0;stop-opacity:0"/>
		</linearGradient>
		<path id="XMLID_574_" class="st5" d="M34.6,69.4c0,2.2,1.5,4.4,4.4,6.1c5.8,3.4,15.3,3.4,21.1,0c2.9-1.7,4.4-3.9,4.4-6.1V-7H34.6
			L34.6,69.4z"/>
		<path id="XMLID_498_" class="st6" d="M34.2,52.4c-1.4-0.8-2.6-1.8-3.6-2.7c-1.8-1.8-2.7-3.9-2.7-5.9v11.9v0.3
			c0.1,3.1,2.2,6.3,6.3,8.7c2.6,1.5,5.6,2.5,8.9,3.1V55.5C39.8,54.9,36.7,53.8,34.2,52.4z"/>
		<path id="XMLID_1728_" class="st6" d="M61.7,58c1.4-0.8,2.6-1.8,3.6-2.7c1.8-1.8,2.7-3.9,2.7-5.9v11.9v0.3
			c-0.1,3.1-2.2,6.3-6.3,8.7c-2.6,1.5-5.6,2.5-8.9,3.1V61.1C56.1,60.5,59.1,59.5,61.7,58z"/>
		<g id="XMLID_528_">
			<path id="XMLID_569_" class="st6" d="M56.1,48.7v14.8c-4.2,0.8-8.7,0.8-12.9,0.1c-3.2-0.6-6.1-1.6-8.6-3
				c-0.6-0.4-1.2-0.8-1.8-1.2V44.6c0.5,0.4,1.1,0.8,1.8,1.2c2.5,1.4,5.5,2.4,8.6,3C47.4,49.5,51.9,49.5,56.1,48.7z"/>
			<path id="XMLID_526_" class="st7" d="M44.9,51.8v4v1.9c2.5,0.3,5.1,0.4,7.7,0.2v-1V52C50,52.2,47.4,52.1,44.9,51.8z"/>
		</g>
		<g id="XMLID_502_">
			<path id="XMLID_500_" class="st6" d="M64.9,34.8c-0.4,0.4-0.9,0.8-1.4,1.2c-0.3,0.2-0.6,0.4-0.9,0.6c-0.2,0.1-0.4,0.2-0.6,0.4
				c-2,1.2-4.4,2-6.9,2.5c-1.2,0.2-2.5,0.4-3.7,0.5v13.7c1.3-0.1,2.5-0.2,3.7-0.5c2.5-0.5,4.9-1.3,6.9-2.5c0.6-0.3,1.1-0.7,1.5-1
				c0.5-0.4,1-0.8,1.4-1.2c1.2-1.3,1.9-2.6,2.2-4v-1.9V30.8C66.8,32.2,66.1,33.5,64.9,34.8z"/>
			<g id="XMLID_491_" class="st8">
				<g id="XMLID_46_">
					<path id="XMLID_49_" class="st9" d="M58.7,41.6v7.8c-0.6,0.2-1.2,0.4-1.8,0.6v-7.8C57.5,42,58.1,41.8,58.7,41.6z"/>
					<path id="XMLID_48_" class="st9" d="M62.3,39.9v7.8c-0.1,0.1-0.2,0.1-0.3,0.2c-0.5,0.3-1,0.5-1.5,0.8v-7.8
						c0.5-0.2,1-0.5,1.5-0.8C62.1,40,62.2,40,62.3,39.9z"/>
					<path id="XMLID_47_" class="st9" d="M65.8,36.8v7.8c-0.3,0.4-0.6,0.7-0.9,1.1c-0.3,0.3-0.6,0.6-0.9,0.9v-7.8
						c0.3-0.3,0.6-0.6,0.9-0.9C65.2,37.5,65.5,37.2,65.8,36.8z"/>
				</g>
			</g>
		</g>
		<path id="XMLID_575_" class="st6" d="M54.3,27.9v15.8c-1,0.2-2,0.3-3,0.3c-2.4,0.1-4.8,0-7.1-0.4c-0.4-0.1-0.8-0.2-1.2-0.2V27.6
			c0.4,0.1,0.8,0.2,1.2,0.2c2.3,0.4,4.7,0.6,7.1,0.4C52.3,28.2,53.3,28.1,54.3,27.9z"/>
		<path id="XMLID_577_" class="st6" d="M64.6,18.5v12.8c-0.7-0.6-1.5-1.2-2.5-1.8c-3.5-2-8.1-3.1-12.7-3.2V14.2
			c4.9,0,9.8,1.1,13.5,3.2C63.6,17.8,64.1,18.1,64.6,18.5z"/>
		<g id="XMLID_545_">
			<path id="XMLID_501_" class="st6" d="M43.8,20.5c-0.4-0.1-0.9-0.2-1.3-0.3c-1.8-0.4-3.5-1-5.1-1.7c0,0,0,0,0,0
				c-0.5-0.2-1-0.5-1.4-0.7c-0.2-0.1-0.4-0.3-0.6-0.4c-0.2-0.1-0.4-0.2-0.6-0.4c-0.1-0.1-0.3-0.2-0.4-0.3c0,0,0,0,0,0
				c-0.6-0.4-1.1-0.9-1.5-1.3c-1.6-1.6-2.4-3.4-2.4-5.2l0,13.8l0,0.3c0,1.8,0.8,3.6,2.4,5.2c0.5,0.5,1,0.9,1.5,1.3c0,0,0,0,0,0
				c0.3,0.2,0.6,0.5,1,0.7c0.2,0.1,0.4,0.3,0.6,0.4c0.5,0.3,0.9,0.5,1.4,0.7c0,0,0,0,0,0c1.6,0.7,3.3,1.3,5.1,1.7
				c0.4,0.1,0.9,0.2,1.3,0.3c1,0.2,2,0.3,3.1,0.4l0-14.1C45.8,20.9,44.8,20.7,43.8,20.5z"/>
			<path id="XMLID_532_" class="st7" d="M36.3,20.2c-1.4-0.6-3.1,0.8-3,2.4c0.1,1.6,0.4,3.7,2.9,5.1c2.8,1.6,4.1-0.6,4-2.5
				C40,23.1,38.8,21.2,36.3,20.2z"/>
		</g>
	</g>
</g>
</svg>
