<?xml version="1.0" encoding="utf-8"?>
<!-- Generator: Adobe Illustrator 19.0.0, SVG Export Plug-In . SVG Version: 6.00 Build 0)  -->
<svg version="1.1" id="Layer_1" xmlns="http://www.w3.org/2000/svg" xmlns:xlink="http://www.w3.org/1999/xlink" x="0px" y="0px"
	 viewBox="0 0 100 100" style="enable-background:new 0 0 100 100;" xml:space="preserve">
<style type="text/css">
	.st0{fill-rule:evenodd;clip-rule:evenodd;fill:#888888;}
	.st1{fill-rule:evenodd;clip-rule:evenodd;fill:#3E3639;}
	.st2{fill-rule:evenodd;clip-rule:evenodd;fill:#A37D73;}
	.st3{fill-rule:evenodd;clip-rule:evenodd;fill:#170603;}
	.st4{fill-rule:evenodd;clip-rule:evenodd;fill:#BD9585;}
	.st5{fill-rule:evenodd;clip-rule:evenodd;fill:#53362B;}
	.st6{fill-rule:evenodd;clip-rule:evenodd;fill:#6F3E31;}
	.st7{fill-rule:evenodd;clip-rule:evenodd;fill:#0049FF;}
	.st8{fill-rule:evenodd;clip-rule:evenodd;fill:#0A0AA3;}
	.st9{fill:#FFFFFF;}
	.st10{font-family:'MyriadPro-Regular';}
	.st11{font-size:12px;}
</style>
<g id="XMLID_16_">
	<path id="XMLID_13_" class="st0" d="M38.5,83.2c1.5,0,2.8-0.3,2.8-0.6c0-0.3-1.2-0.6-2.8-0.6c-1.5,0-2.8,0.3-2.8,0.6
		C35.7,83,36.9,83.2,38.5,83.2z"/>
	<path id="XMLID_12_" class="st1" d="M35.4,85.5c3.6,0,6.5-1.4,6.5-3.1c0-1.7-2.9-3.1-6.5-3.1s-6.5,1.4-6.5,3.1
		C28.9,84.1,31.8,85.5,35.4,85.5z"/>
	<polygon id="XMLID_11_" class="st2" points="33.8,19.8 38.8,19.8 38.8,82.8 38.8,83.6 38.7,83.6 38.7,83.6 38.7,83.6 38.7,83.6 
		38.7,83.6 38.7,83.6 38.7,83.6 38.6,83.7 38.6,83.7 38.5,83.7 38.5,83.7 38.5,83.8 38.5,83.8 38.5,83.8 38.4,83.8 38.4,83.8 
		38.4,83.8 38.4,83.8 38.4,83.8 38.3,83.9 38.3,83.9 38.3,83.9 38.3,83.9 38.3,83.9 38.2,83.9 38.2,83.9 38.2,83.9 38.2,83.9 
		38.2,83.9 38.1,84 38.1,84 38.1,84 38.1,84 38,84 38,84 38,84 38,84 38,84 37.9,84.1 37.9,84.1 37.9,84.1 37.8,84.1 37.8,84.1 
		37.8,84.1 37.8,84.1 37.7,84.1 37.7,84.1 37.7,84.1 37.6,84.1 37.6,84.1 37.6,84.2 37.6,84.2 37.6,84.2 37.5,84.2 37.5,84.2 
		37.5,84.2 37.4,84.2 37.4,84.2 37.4,84.2 37.4,84.2 37.3,84.2 37.3,84.2 37.3,84.2 37.2,84.2 37.2,84.3 37.2,84.3 37.2,84.3 
		37.1,84.3 37.1,84.3 37.1,84.3 37,84.3 37,84.3 37,84.3 36.9,84.3 36.9,84.3 36.9,84.3 36.8,84.3 36.8,84.3 36.8,84.3 36.7,84.3 
		36.7,84.3 36.7,84.3 36.6,84.3 36.6,84.3 36.6,84.3 36.5,84.4 36.5,84.4 36.5,84.4 36.5,84.4 36.4,84.4 36.4,84.4 36.4,84.4 
		36.3,84.4 36.3,84.4 36.2,84.4 36.2,84.4 36.1,84.4 36.1,84.4 36.1,84.4 36.1,84.4 36,84.4 36,84.4 35.9,84.4 35.9,84.4 35.9,84.4 
		35.8,84.4 35.8,84.4 35.8,84.4 35.7,84.4 35.7,84.4 35.7,84.4 35.7,84.4 35.6,84.4 35.6,84.4 35.6,84.4 35.6,84.4 35.6,84.4 
		35.5,84.4 35.5,84.4 35.5,84.4 35.4,84.4 35.4,84.4 35.4,84.4 35.4,84.4 35.3,84.4 35.3,84.4 35.3,84.4 35.3,84.4 35.2,84.4 
		35.2,84.3 35.2,84.3 35.2,84.3 35.2,84.3 35.1,84.3 35.1,84.3 35.1,84.3 35,84.3 35,84.3 35,84.3 34.9,84.3 34.9,84.3 34.9,84.3 
		34.9,84.3 34.8,84.3 34.8,84.3 34.8,84.3 34.8,84.3 34.8,84.3 34.7,84.3 34.7,84.3 34.7,84.3 34.7,84.3 34.6,84.3 34.6,84.3 
		34.6,84.3 34.6,84.3 34.5,84.2 34.5,84.2 34.5,84.2 34.5,84.2 34.4,84.2 34.4,84.2 34.4,84.2 34.4,84.2 34.3,84.2 34.3,84.2 
		34.3,84.2 34.3,84.2 34.2,84.2 34.2,84.2 34.2,84.2 34.2,84.2 34.1,84.1 34.1,84.1 34.1,84.1 34,84.1 33.9,84.1 33.9,84.1 
		33.9,84.1 33.9,84.1 33.9,84 33.8,84 33.8,84 33.8,84 33.8,82.7 	"/>
	<path id="XMLID_10_" class="st3" d="M33.8,19.8h5v0.4c-0.7,0.5-1.6,0.9-2.5,0.9c-0.9,0-1.8-0.3-2.5-0.9V19.8z"/>
	<polygon id="XMLID_9_" class="st4" points="36.3,19.8 33.8,19.8 33.8,82.8 33.8,83.6 33.8,83.6 33.8,83.6 33.8,83.6 33.8,83.6 
		33.9,83.6 33.9,83.6 33.9,83.6 33.9,83.7 33.9,83.7 34,83.7 34,83.7 34,83.7 34,83.7 34,83.8 34.1,83.8 34.1,83.8 34.1,83.8 
		34.1,83.8 34.1,83.8 34.2,83.8 34.2,83.8 34.2,83.8 34.2,83.9 34.2,83.9 34.3,83.9 34.3,83.9 34.3,83.9 34.3,83.9 34.3,83.9 
		34.4,83.9 34.4,83.9 34.4,83.9 34.4,84 34.4,84 34.5,84 34.5,84 34.5,84 34.5,84 34.5,84 34.6,84 34.6,84 34.6,84 34.6,84.1 
		34.7,84.1 34.7,84.1 34.7,84.1 34.7,84.1 34.8,84.1 34.8,84.1 34.8,84.1 34.8,84.1 34.8,84.1 34.9,84.1 34.9,84.1 34.9,84.1 
		35,84.2 35,84.2 35,84.2 35,84.2 35.1,84.2 35.1,84.2 35.1,84.2 35.1,84.2 35.2,84.2 35.2,84.2 35.2,84.2 35.3,84.2 35.3,84.2 
		35.3,84.2 35.3,84.2 35.4,84.3 35.4,84.3 35.4,84.3 35.4,84.3 35.5,84.3 35.5,84.3 35.5,84.3 35.6,84.3 35.6,84.3 35.6,84.3 
		35.7,84.3 35.7,84.3 35.7,84.3 35.8,84.3 35.8,84.3 35.8,84.3 35.9,84.3 35.9,84.3 35.9,84.3 36,84.3 36,84.4 36.1,84.4 36.1,84.4 
		36.1,84.4 36.2,84.4 36.2,84.4 36.2,84.4 36.2,84.4 36.3,84.4 36.3,82.7 	"/>
	<path id="XMLID_8_" class="st5" d="M36.3,19.8h-2.5v0.4c0.7,0.5,1.6,0.9,2.5,0.9L36.3,19.8z"/>
	<circle id="XMLID_7_" class="st2" cx="36.3" cy="16.7" r="4.1"/>
	<path id="XMLID_6_" class="st4" d="M34.2,20.2c-2-1.1-2.6-3.6-1.5-5.6c1.1-2,3.6-2.6,5.6-1.5L34.2,20.2z"/>
	<path id="XMLID_5_" class="st5" d="M40.4,16.7c0,2.3-1.8,4.1-4.1,4.1c-2.3,0-4.1-1.8-4.1-4.1c0,2.9,3.7,3.2,4.1,3.2
		C37.6,19.8,40.4,19.3,40.4,16.7z"/>
	<path id="XMLID_4_" class="st6" d="M32.2,16.7c0,2.3,1.8,4.1,4.1,4.1v-0.9C34.9,19.8,32.2,19,32.2,16.7z"/>
	<path id="XMLID_3_" class="st7" d="M33.8,20.8c0.8,0.4,1.7,0.6,2.5,0.6c0.8,0,1.7-0.1,2.5-0.6h28.4l-3.8,11.9l3.8,11.9H38.8
		c-0.8,0.4-1.7,0.6-2.5,0.6s-1.8-0.3-2.5-0.6C33.8,36.6,33.8,28.7,33.8,20.8z"/>
	<polygon id="XMLID_1_" class="st8" points="58.5,20.8 67.2,20.8 67.2,44.6 47.3,44.6 	"/>
	<text id="XMLID_14_" transform="matrix(1 0 0 1 40.3595 41.6668)" class="st9 st10 st11">Dev</text>
	<text id="XMLID_2_" transform="matrix(1 0 0 1 33.7791 32.6675)" class="st9 st10 st11">Junior</text>
</g>
</svg>
