<?xml version="1.0" encoding="utf-8"?>
<!-- Generator: Adobe Illustrator 19.0.0, SVG Export Plug-In . SVG Version: 6.00 Build 0)  -->
<svg version="1.1" id="Layer_1" xmlns="http://www.w3.org/2000/svg" xmlns:xlink="http://www.w3.org/1999/xlink" x="0px" y="0px"
	 viewBox="0 0 100 100" style="enable-background:new 0 0 100 100;" xml:space="preserve">
<style type="text/css">
	.st0{opacity:0.15;fill:#6B99D1;}
	.st1{fill:#DCEEFF;}
	.st2{fill:#A5CBFA;}
	.st3{fill:#C8E2FF;}
	.st4{fill:#FFFFFF;}
	.st5{fill:#344593;}
	.st6{fill:#1E3779;}
	.st7{fill:#031F60;}
	.st8{fill:none;stroke:#FFFFFF;stroke-linecap:round;stroke-miterlimit:10;}
	.st9{fill:#6CFFE6;}
	.st10{fill:#41E5C9;}
	.st11{fill:#ABFFEF;}
	.st12{fill:url(#XMLID_2_);}
	.st13{fill:url(#XMLID_3_);}
	.st14{fill:url(#XMLID_4_);}
	.st15{fill:url(#XMLID_5_);}
	.st16{fill:url(#XMLID_6_);}
	.st17{fill:url(#XMLID_7_);}
	.st18{fill:url(#XMLID_8_);}
	.st19{fill:url(#XMLID_44_);}
	.st20{fill:#B5DEFF;}
	.st21{fill:#3A52AA;}
	.st22{opacity:0.4;fill:#FFFFFF;}
	.st23{opacity:0.15;fill:#344593;}
	.st24{opacity:0.3;fill:url(#XMLID_46_);}
	.st25{opacity:0.5;fill:url(#XMLID_47_);}
</style>
<g id="XMLID_3266_">
	<g id="XMLID_3156_">
		<path id="XMLID_4158_" class="st0" d="M76.7,74L51.2,88.7C50.9,88.9,50.4,89,50,89c-0.4,0-0.9-0.1-1.2-0.3L23.3,74
			c-0.3-0.2-0.5-0.4-0.5-0.7c0-0.2,0.1-0.4,0.3-0.5c0.1-0.1,0.1-0.1,0.2-0.2l25.5-14.7c0.7-0.4,1.7-0.4,2.4,0l25.5,14.7
			C77.4,73,77.4,73.6,76.7,74z"/>
		<path id="XMLID_4171_" class="st0" d="M35.4,93.3l-2.1-1.2c-1.4-0.8-3.4-1-4.3-0.4c-1,0.6-0.7,1.7,0.8,2.5l2.1,1.2
			c1.4,0.8,3.4,1,4.3,0.4C37.2,95.3,36.9,94.2,35.4,93.3z"/>
		<path id="XMLID_3190_" class="st1" d="M76.7,71.9L51.2,86.6c-0.3,0.2-0.8,0.3-1.2,0.3c-0.4,0-0.9-0.1-1.2-0.3L23.3,71.9
			c-0.3-0.2-0.5-0.4-0.5-0.7c0-0.3,0.2-0.5,0.5-0.7l3.5-2l22.1-12.7c0.7-0.4,1.7-0.4,2.4,0l25.5,14.7C77.4,70.9,77.4,71.5,76.7,71.9
			z"/>
		<path id="XMLID_3182_" class="st2" d="M50,82v5c-0.4,0-0.9-0.1-1.2-0.3L23.3,71.9c-0.3-0.2-0.5-0.4-0.5-0.7v-4.3
			c0-0.2,0.1-0.4,0.3-0.5l3.7,2.1L50,82z"/>
		<path id="XMLID_3179_" class="st3" d="M50,82v5c0.4,0,0.9-0.1,1.2-0.3l25.5-14.7c0.3-0.2,0.5-0.4,0.5-0.7v-4.3
			c0-0.2-0.1-0.4-0.3-0.5l-3.7,2.1L50,82z"/>
		<path id="XMLID_3166_" class="st1" d="M76.7,67.6L51.2,82.3c-0.3,0.2-0.8,0.3-1.2,0.3c-0.4,0-0.9-0.1-1.2-0.3L23.3,67.6
			c-0.3-0.2-0.5-0.4-0.5-0.7c0-0.2,0.1-0.4,0.3-0.5c0.1-0.1,0.1-0.1,0.2-0.2l25.5-14.7c0.7-0.4,1.7-0.4,2.4,0l25.5,14.7
			C77.4,66.6,77.4,67.2,76.7,67.6z"/>
		<path id="XMLID_4157_" class="st0" d="M35.4,93.3l-2.1-1.2c-1.4-0.8-3.4-1-4.3-0.4c-1,0.6-0.7,1.7,0.8,2.5l2.1,1.2
			c1.4,0.8,3.4,1,4.3,0.4C37.2,95.3,36.9,94.2,35.4,93.3z"/>
		<path id="XMLID_4185_" class="st0" d="M64.7,91.4l2.1-1.2c1.4-0.8,3.4-1,4.3-0.4c1,0.6,0.7,1.7-0.8,2.5l-2.1,1.2
			c-1.4,0.8-3.4,1-4.3,0.4C62.9,93.4,63.3,92.3,64.7,91.4z"/>
		<g id="XMLID_3165_">
			<path id="XMLID_29_" class="st4" d="M50,52.2c0.3,0,0.5,0.1,0.7,0.2l25.2,14.5L50.7,81.5c-0.2,0.1-0.4,0.1-0.7,0.1
				c-0.3,0-0.5-0.1-0.7-0.1L24.1,66.9l25.2-14.5C49.5,52.3,49.7,52.2,50,52.2 M50,51.2c-0.4,0-0.9,0.1-1.2,0.3L23.3,66.2
				c-0.1,0.1-0.2,0.1-0.2,0.2c-0.2,0.2-0.3,0.3-0.3,0.5c0,0.3,0.2,0.5,0.5,0.7l25.5,14.7c0.3,0.2,0.8,0.3,1.2,0.3
				c0.4,0,0.9-0.1,1.2-0.3l25.5-14.7c0.7-0.4,0.7-1,0-1.4L51.2,51.5C50.9,51.3,50.4,51.2,50,51.2L50,51.2z"/>
		</g>
		<path id="XMLID_3164_" class="st5" d="M49.2,54.5l-20.7,12c-0.4,0.3-0.4,0.7,0,0.9l20.7,12c0.4,0.3,1.1,0.3,1.6,0l20.7-12
			c0.4-0.3,0.4-0.7,0-0.9l-20.7-12C50.4,54.3,49.6,54.3,49.2,54.5z"/>
		<path id="XMLID_3162_" class="st6" d="M71.5,66.5l-20.7-12c-0.2-0.1-0.5-0.2-0.8-0.2v0.8l21.4,12.3l0.1-0.1
			C72,67.1,72,66.7,71.5,66.5z"/>
		<path id="XMLID_3157_" class="st7" d="M50,54.3c-0.3,0-0.6,0.1-0.8,0.2l-20.7,12c-0.4,0.3-0.4,0.7,0,0.9l0.1,0.1L50,55.1L50,54.3z
			"/>
	</g>
	<path id="XMLID_3177_" class="st8" d="M50.2,61.4l6.1-3.5c0.1-0.1,0.1-0.1,0-0.2l-6.1-3.5c-0.1-0.1-0.2-0.1-0.3,0l-6.1,3.5
		c-0.1,0.1-0.1,0.1,0,0.2l6.1,3.5C49.9,61.5,50.1,61.5,50.2,61.4z"/>
	<g id="XMLID_3216_">
		<g id="XMLID_3180_">
			<g id="XMLID_3181_">
				<path id="XMLID_3183_" class="st9" d="M50,59.1v14.2c0.4,0,0.7-0.1,1-0.2l13.1-7.6c0.6-0.3,1-1.1,1-1.7v-4.6H50z"/>
				<path id="XMLID_3192_" class="st10" d="M34.8,59.1v4.6c0,0.6,0.5,1.4,1,1.7L49,73.1c0.3,0.2,0.6,0.2,1,0.2V59.1H34.8z"/>
			</g>
			<path id="XMLID_3178_" class="st11" d="M49,67.6l-13.7-7.9c-0.6-0.3-0.6-0.8,0-1.2L49,50.6c0.6-0.3,1.5-0.3,2,0l13.7,7.9
				c0.6,0.3,0.6,0.8,0,1.2L51,67.6C50.4,68,49.5,68,49,67.6z"/>
			<path id="XMLID_2301_" class="st8" d="M38.1,58.7l11.3-6.5c0.4-0.2,1-0.2,1.3,0l11.3,6.5c0.4,0.2,0.4,0.6,0,0.8L50.7,66
				c-0.4,0.2-1,0.2-1.3,0l-11.2-6.5C37.7,59.3,37.7,58.9,38.1,58.7z"/>
			<path id="XMLID_2306_" class="st8" d="M50.3,53.9l8.9,5.1c0.2,0.1,0.2,0.3,0,0.4l-8.9,5.1c-0.2,0.1-0.5,0.1-0.7,0l-8.8-5.1
				c-0.2-0.1-0.2-0.3,0-0.4l8.8-5.1C49.8,53.8,50.1,53.8,50.3,53.9z"/>
		</g>
		<g id="XMLID_2233_">
			<linearGradient id="XMLID_2_" gradientUnits="userSpaceOnUse" x1="34.8522" y1="65.957" x2="38.3318" y2="65.957">
				<stop  offset="0" style="stop-color:#C8E2FF"/>
				<stop  offset="0.1783" style="stop-color:#C2DEFC"/>
				<stop  offset="0.4099" style="stop-color:#B2D1F4"/>
				<stop  offset="0.671" style="stop-color:#97BCE7"/>
				<stop  offset="0.9518" style="stop-color:#729FD5"/>
				<stop  offset="1" style="stop-color:#6B99D1"/>
			</linearGradient>
			<path id="XMLID_3230_" class="st12" d="M38.3,64.1c0-0.3-0.2-0.7-0.5-0.8c-0.1-0.1-0.3-0.1-0.3,0l0,0l-1.9,1.1
				c-0.4,0.2-0.7,0.8-0.7,1.2v2.7l0,0c0,0.1,0.1,0.2,0.2,0.3c0.3,0.2,0.7,0.2,1,0c0.1-0.1,0.2-0.2,0.2-0.3v-2.6c0-0.1,0-0.1,0.1-0.1
				l1.9-1.1c0,0,0,0,0,0l0,0l0,0C38.3,64.4,38.3,64.3,38.3,64.1z"/>
			<linearGradient id="XMLID_3_" gradientUnits="userSpaceOnUse" x1="37.7677" y1="67.6478" x2="41.2472" y2="67.6478">
				<stop  offset="0" style="stop-color:#C8E2FF"/>
				<stop  offset="0.1783" style="stop-color:#C2DEFC"/>
				<stop  offset="0.4099" style="stop-color:#B2D1F4"/>
				<stop  offset="0.671" style="stop-color:#97BCE7"/>
				<stop  offset="0.9518" style="stop-color:#729FD5"/>
				<stop  offset="1" style="stop-color:#6B99D1"/>
			</linearGradient>
			<path id="XMLID_3229_" class="st13" d="M41.2,65.8c0-0.3-0.2-0.7-0.5-0.8c-0.1-0.1-0.3-0.1-0.3,0l0,0l-1.9,1.1
				c-0.4,0.2-0.7,0.8-0.7,1.2V70l0,0c0,0.1,0.1,0.2,0.2,0.3c0.3,0.2,0.7,0.2,1,0c0.1-0.1,0.2-0.2,0.2-0.3v-2.6c0-0.1,0-0.1,0.1-0.1
				l1.9-1.1c0,0,0,0,0,0l0,0l0,0C41.2,66.1,41.2,66,41.2,65.8z"/>
			<linearGradient id="XMLID_4_" gradientUnits="userSpaceOnUse" x1="40.6831" y1="69.3387" x2="44.1625" y2="69.3387">
				<stop  offset="0" style="stop-color:#C8E2FF"/>
				<stop  offset="0.1783" style="stop-color:#C2DEFC"/>
				<stop  offset="0.4099" style="stop-color:#B2D1F4"/>
				<stop  offset="0.671" style="stop-color:#97BCE7"/>
				<stop  offset="0.9518" style="stop-color:#729FD5"/>
				<stop  offset="1" style="stop-color:#6B99D1"/>
			</linearGradient>
			<path id="XMLID_3228_" class="st14" d="M44.2,67.5c0-0.3-0.2-0.7-0.5-0.8c-0.1-0.1-0.3-0.1-0.3,0l0,0l-1.9,1.1
				C41,68,40.7,68.6,40.7,69v2.7l0,0c0,0.1,0.1,0.2,0.2,0.3c0.3,0.2,0.7,0.2,1,0c0.1-0.1,0.2-0.2,0.2-0.3v-2.6c0-0.1,0-0.1,0.1-0.1
				l1.9-1.1c0,0,0,0,0,0l0,0l0,0C44.1,67.8,44.2,67.6,44.2,67.5z"/>
			<linearGradient id="XMLID_5_" gradientUnits="userSpaceOnUse" x1="43.5984" y1="71.0294" x2="47.0779" y2="71.0294">
				<stop  offset="0" style="stop-color:#C8E2FF"/>
				<stop  offset="0.1783" style="stop-color:#C2DEFC"/>
				<stop  offset="0.4099" style="stop-color:#B2D1F4"/>
				<stop  offset="0.671" style="stop-color:#97BCE7"/>
				<stop  offset="0.9518" style="stop-color:#729FD5"/>
				<stop  offset="1" style="stop-color:#6B99D1"/>
			</linearGradient>
			<path id="XMLID_3220_" class="st15" d="M47.1,69.2c0-0.3-0.2-0.7-0.5-0.8c-0.1-0.1-0.3-0.1-0.3,0l0,0l-1.9,1.1
				c-0.4,0.2-0.7,0.8-0.7,1.2v2.7l0,0c0,0.1,0.1,0.2,0.2,0.3c0.3,0.2,0.7,0.2,1,0c0.1-0.1,0.2-0.2,0.2-0.3v-2.6c0-0.1,0-0.1,0.1-0.1
				l1.9-1.1c0,0,0,0,0,0l0,0l0,0C47,69.4,47.1,69.3,47.1,69.2z"/>
		</g>
		<g id="XMLID_2239_">
			
				<linearGradient id="XMLID_6_" gradientUnits="userSpaceOnUse" x1="3385.7112" y1="65.957" x2="3389.1904" y2="65.957" gradientTransform="matrix(-1 0 0 1 3450.8652 0)">
				<stop  offset="0" style="stop-color:#C8E2FF"/>
				<stop  offset="0.1783" style="stop-color:#C2DEFC"/>
				<stop  offset="0.4099" style="stop-color:#B2D1F4"/>
				<stop  offset="0.671" style="stop-color:#97BCE7"/>
				<stop  offset="0.9518" style="stop-color:#729FD5"/>
				<stop  offset="1" style="stop-color:#6B99D1"/>
			</linearGradient>
			<path id="XMLID_2298_" class="st16" d="M61.7,64.1c0-0.3,0.2-0.7,0.5-0.8c0.1-0.1,0.3-0.1,0.3,0l0,0l1.9,1.1
				c0.4,0.2,0.7,0.8,0.7,1.2v2.7l0,0c0,0.1-0.1,0.2-0.2,0.3c-0.3,0.2-0.7,0.2-1,0c-0.1-0.1-0.2-0.2-0.2-0.3v-2.6
				c0-0.1,0-0.1-0.1-0.1l-1.9-1.1c0,0,0,0,0,0l0,0l0,0C61.7,64.4,61.7,64.3,61.7,64.1z"/>
			
				<linearGradient id="XMLID_7_" gradientUnits="userSpaceOnUse" x1="3388.6265" y1="67.6478" x2="3392.106" y2="67.6478" gradientTransform="matrix(-1 0 0 1 3450.8652 0)">
				<stop  offset="0" style="stop-color:#C8E2FF"/>
				<stop  offset="0.1783" style="stop-color:#C2DEFC"/>
				<stop  offset="0.4099" style="stop-color:#B2D1F4"/>
				<stop  offset="0.671" style="stop-color:#97BCE7"/>
				<stop  offset="0.9518" style="stop-color:#729FD5"/>
				<stop  offset="1" style="stop-color:#6B99D1"/>
			</linearGradient>
			<path id="XMLID_2297_" class="st17" d="M58.8,65.8c0-0.3,0.2-0.7,0.5-0.8c0.1-0.1,0.3-0.1,0.3,0l0,0l1.9,1.1
				c0.4,0.2,0.7,0.8,0.7,1.2V70l0,0c0,0.1-0.1,0.2-0.2,0.3c-0.3,0.2-0.7,0.2-1,0c-0.1-0.1-0.2-0.2-0.2-0.3v-2.6c0-0.1,0-0.1-0.1-0.1
				l-1.9-1.1c0,0,0,0,0,0l0,0l0,0C58.8,66.1,58.8,66,58.8,65.8z"/>
			
				<linearGradient id="XMLID_8_" gradientUnits="userSpaceOnUse" x1="3391.542" y1="69.3387" x2="3395.0212" y2="69.3387" gradientTransform="matrix(-1 0 0 1 3450.8652 0)">
				<stop  offset="0" style="stop-color:#C8E2FF"/>
				<stop  offset="0.1783" style="stop-color:#C2DEFC"/>
				<stop  offset="0.4099" style="stop-color:#B2D1F4"/>
				<stop  offset="0.671" style="stop-color:#97BCE7"/>
				<stop  offset="0.9518" style="stop-color:#729FD5"/>
				<stop  offset="1" style="stop-color:#6B99D1"/>
			</linearGradient>
			<path id="XMLID_2295_" class="st18" d="M55.8,67.5c0-0.3,0.2-0.7,0.5-0.8c0.1-0.1,0.3-0.1,0.3,0l0,0l1.9,1.1
				c0.4,0.2,0.7,0.8,0.7,1.2v2.7l0,0c0,0.1-0.1,0.2-0.2,0.3c-0.3,0.2-0.7,0.2-1,0C58,71.9,58,71.8,58,71.7v-2.6c0-0.1,0-0.1-0.1-0.1
				L56,67.8c0,0,0,0,0,0l0,0l0,0C55.9,67.8,55.8,67.6,55.8,67.5z"/>
			
				<linearGradient id="XMLID_44_" gradientUnits="userSpaceOnUse" x1="3394.457" y1="71.0294" x2="3397.9368" y2="71.0294" gradientTransform="matrix(-1 0 0 1 3450.8652 0)">
				<stop  offset="0" style="stop-color:#C8E2FF"/>
				<stop  offset="0.1783" style="stop-color:#C2DEFC"/>
				<stop  offset="0.4099" style="stop-color:#B2D1F4"/>
				<stop  offset="0.671" style="stop-color:#97BCE7"/>
				<stop  offset="0.9518" style="stop-color:#729FD5"/>
				<stop  offset="1" style="stop-color:#6B99D1"/>
			</linearGradient>
			<path id="XMLID_2277_" class="st19" d="M52.9,69.2c0-0.3,0.2-0.7,0.5-0.8c0.1-0.1,0.3-0.1,0.3,0l0,0l1.9,1.1
				c0.4,0.2,0.7,0.8,0.7,1.2v2.7l0,0c0,0.1-0.1,0.2-0.2,0.3c-0.3,0.2-0.7,0.2-1,0c-0.1-0.1-0.2-0.2-0.2-0.3v-2.6
				c0-0.1,0-0.1-0.1-0.1l-1.9-1.1c0,0,0,0,0,0l0,0l0,0C53,69.4,52.9,69.3,52.9,69.2z"/>
		</g>
	</g>
	<g id="XMLID_2307_">
		<path id="XMLID_3240_" class="st20" d="M62.1,23.3c2.7,6.7-0.6,14.2-7.2,16.9c-4.1,1.6-8.5,1-12-1.2c-2.1-1.4-3.9-3.5-4.9-6
			c-2.7-6.7,0.6-14.2,7.2-16.9c2.6-1,5.3-1.2,7.7-0.6C57,16.4,60.5,19.2,62.1,23.3z"/>
		<g id="XMLID_3225_">
			<path id="XMLID_3239_" class="st21" d="M48.5,17c-0.6,0-1.4,0.2-0.8,0.6c0.6,0.3,0.9,0.4,0.9,0.8c0,0.4-0.3,0.9-0.1,1.2
				c0.1,0.3,0.4,0.7,0.6,0.6c0.2-0.1,0.8-0.8,1.2-0.8c0.4,0,1.6,0.1,1.7-0.3c0.2-0.4,0.4-0.4,0.6-0.8c0.3-0.4,0.3-1-0.1-1
				c-0.4,0-0.4,0.1-1,0.1c-0.6,0-0.9-0.4-1.4-0.3C49.5,17.2,48.9,17,48.5,17z"/>
			<path id="XMLID_3233_" class="st21" d="M46.3,17.2c-0.7,0.4-2.1,0.9-2.7,0.7c-0.3-0.1-0.7-0.2-1.1-0.3c-2.5,1.8-4.3,4.5-5,7.6
				c0.2,0.3,0.4,0.7,0.6,0.9c0.5,0.6,1,0.7,1.7,0.8c0.7,0.1,0.4,0.5,0.8,0.9c0.3,0.4,0.5,0.6,0.8,0.8c0.4,0.2-0.1,0.6-0.3,1
				c-0.1,0.4-0.2,0.7,0.1,1.5c0.3,0.9,1.2,1.5,1.4,1.9c0.3,0.3-0.2,0.7-0.1,1.4c0.1,0.7,0.1,2.5,0.7,3.6c0.7,1,1.1,0.9,1,0.2
				c-0.1-0.7-0.3-1.4,0.1-1.9c0.4-0.5,1.2-0.4,1.5-1.3c0.3-1,0.5-0.9,0.9-1.2c0.4-0.3,0.2-0.6,0.7-1.3c0.4-0.7,0.5-1.4-0.1-1.7
				c-0.6-0.3-1-0.3-1.5-1c-0.5-0.7-1.3-1.4-2.1-1.8c-0.8-0.4-2,0.1-2.4,0c-0.5-0.1-0.8-1-0.8-1.4c0-0.4-0.3-0.4-0.7-0.4
				c-0.3,0.1-0.5-0.1-0.6-0.6c-0.1-0.5,0.6-1,1.2-1.1c0.6,0,0.9,0.2,1,1c0.1,0.8,0.6,1.1,1.1,1.3c0.5,0.1,0.2-0.4-0.2-0.8
				c-0.4-0.4-0.4-0.7-0.1-1.6c0.3-0.8,1-0.8,1.5-1.5c0.5-0.8,0.6-0.2,1.2-0.1c0.5,0.1,0.5-0.2,0.6-0.7c0.2-0.5,0.9-0.1,1.4-0.5
				c0.6-0.4-0.6-1-0.5-1.5c0.1-0.5,0.6-0.5,0.3-1.3c-0.3-0.8,0.1-0.8,0.3-1.1C47.3,17.1,46.9,16.8,46.3,17.2z M45.5,19.1
				c-0.2,0.4-0.3,0.3-0.6,0.7c-0.3,0.4-0.7,0.7-1,0.7c-0.3,0-0.8-0.5-0.8-0.8c0-0.3,0.4-0.4,1-0.5c0.5-0.1,1-0.3,1.4-0.7
				C45.8,18.4,45.7,18.8,45.5,19.1z"/>
			<path id="XMLID_3232_" class="st21" d="M63,27.1L63,27.1c-0.2,0.1-0.4,0.3-0.5,0.5c-0.3,0.7-0.3,0.4-1,0.9
				C60.7,29.1,61,29.5,61,30c0,0.5-0.8,1.1-1.2,1.2c-0.4,0.2-0.6,1.3-0.4,1.8c0.1,0.5-0.5,0.8-0.9,1.3c-0.4,0.5-0.6,1.3-0.9,1.7
				c-0.3,0.4-0.7,0.6-1.2,0.6c-0.5-0.1-0.9-0.9-1.2-1.5c-0.3-0.7-0.3-1.4-0.2-2.2c0.1-0.7,0.1-0.6-0.1-1.8c-0.2-1.2-1-1.5-1.4-1.6
				c-0.4-0.1-1.2,0.1-1.6-0.1c-0.4-0.2-0.6-0.6-0.8-1.7c-0.3-1.1,0.3-1.3,0.7-1.9c0.4-0.6,1.3-1.2,2-1.4c0.7-0.2,1.3,0,1.7,0.2
				c0.5,0.2,0.7,0.7,1,0.8c0.3,0,0.6-0.1,0.9-0.1c0.3,0.1,0.5,0.2,0.9,0.2c0.3-0.1,0.1-0.4,0.1-0.6c0-0.2-0.3-0.1-0.7-0.2
				c-0.4,0-0.5-0.1-0.6-0.4c-0.1-0.3-0.4,0-0.5-0.1c-0.2-0.1-0.1,0.4-0.2,0.5c0,0.2-0.2-0.1-0.2-0.1S56,24.9,56,24.7
				c-0.1-0.1,0.1-0.4,0.1-0.7c0-0.3-0.4-0.2-0.7-0.4c-0.2-0.2-0.6-0.2-0.9-0.1c-0.3,0.1-0.4,0-0.6,0.3c-0.2,0.3-0.9,0.5-1.1,0.5
				c-0.2,0-0.1-0.5,0.1-0.9c0.2-0.4,0.6-0.3,0.9-0.7c0.3-0.4-0.1-0.5-0.3-0.6c-0.2-0.1-0.3-0.3-0.1-0.8c0.3-0.5,0.6-0.4,0.7-0.1
				c0.1,0.3,0.4,0.4,0.8,0.4c0.3,0,0.2-0.2,0.2-0.7c0-0.5,0.2-0.7,0.6-0.9c0.4-0.2,1.1-0.5,1.4-0.7c0.3-0.3,0.8-0.1,1,0.2
				c0.3,0.3,0.8,0.4,1.4,0.5c0.2,0,0.3,0,0.4-0.1C61.6,21.7,62.8,24.3,63,27.1z"/>
			<path id="XMLID_3231_" class="st21" d="M60.6,33.5c-0.3-0.1-0.3,0.1-0.5,0.3c-0.2,0.2-0.5,0.5-0.4,0.8c0,0.3,0.1,0.6,0.3,0.4
				c0.2-0.2,0.1-0.4,0.5-0.6C60.7,34.3,61,33.6,60.6,33.5z"/>
		</g>
		<path id="XMLID_3224_" class="st22" d="M53.4,16.6c-8.3-2.4-9.8,3.2-5.4,6.8c4.4,3.6,11.9,4.7,12.9,2.4
			C61.9,23.5,59.6,18.4,53.4,16.6z"/>
		<path id="XMLID_2303_" class="st23" d="M46.5,34.6c-6.4-5.3-6.2-15.5-0.6-18.8l0,0c-0.2,0.1-0.5,0.2-0.7,0.3
			C38.6,18.7,35.3,26.3,38,33c1,2.6,2.8,4.6,4.9,6c3.4,2.3,7.9,2.9,12,1.2c3.4-1.3,5.9-3.9,7.2-7C60.2,35.7,52.9,39.9,46.5,34.6z"/>
	</g>
	<linearGradient id="XMLID_46_" gradientUnits="userSpaceOnUse" x1="76.5656" y1="64.7112" x2="51.6124" y2="20.758">
		<stop  offset="0" style="stop-color:#57F7E0"/>
		<stop  offset="1" style="stop-color:#57F7E0;stop-opacity:0"/>
	</linearGradient>
	<path id="XMLID_2302_" class="st24" d="M51.4,6.6C51,6.8,50.5,6.9,50,6.9c0,0,0,0,0,0c0,0,0,0,0,0v72.6c0.3,0,0.6-0.1,1-0.3
		l20.3-11.7c0.4-0.2,0.6-0.4,0.6-0.6V-5.2L51.4,6.6z"/>
	<linearGradient id="XMLID_47_" gradientUnits="userSpaceOnUse" x1="23.4805" y1="64.8835" x2="43.4969" y2="29.2849">
		<stop  offset="0" style="stop-color:#57F7E0"/>
		<stop  offset="1" style="stop-color:#57F7E0;stop-opacity:0"/>
	</linearGradient>
	<path id="XMLID_2234_" class="st25" d="M50,6.9c-0.1,0-0.2,0-0.4,0c0,0,0,0,0,0c-0.1,0-0.2,0-0.3-0.1c-0.1,0-0.1,0-0.2-0.1
		c0,0-0.1,0-0.1,0c-0.1,0-0.2-0.1-0.3-0.2L28.1-5.2v72.1c0,0.2,0.2,0.4,0.4,0.6L49,79.3c0.3,0.2,0.6,0.3,0.9,0.3c0,0,0,0,0,0L50,6.9
		C50,6.9,50,6.9,50,6.9z"/>
</g>
</svg>
