<?xml version="1.0" encoding="utf-8"?>
<!-- Generator: Adobe Illustrator 19.0.0, SVG Export Plug-In . SVG Version: 6.00 Build 0)  -->
<svg version="1.1" id="Layer_1" xmlns="http://www.w3.org/2000/svg" xmlns:xlink="http://www.w3.org/1999/xlink" x="0px" y="0px"
	 viewBox="-149 151 450 450" style="enable-background:new -149 151 450 450;" xml:space="preserve">
<style type="text/css">
	.st0{opacity:0.83;fill:url(#XMLID_10_);}
	.st1{fill:#FFFFFF;}
	.st2{fill:url(#SVGID_1_);}
	.st3{fill:url(#SVGID_2_);}
	.st4{fill:#F4D41C;}
	.st5{fill:none;}
	.st6{font-family:'MyriadPro-Regular';}
	.st7{font-size:116.5531px;}
	.st8{fill:#FCFCFC;}
	.st9{fill:#020202;}
	.st10{fill:#BBD070;}
	.st11{fill:#97A43C;}
	.st12{fill:#48753A;}
	.st13{fill:#385FAD;}
	.st14{fill:#213A70;}
	.st15{fill:#EEA886;}
	.st16{fill:#FFCA55;}
	.st17{fill:#E8E8E8;}
	.st18{fill:#3A3F47;}
	.st19{fill:#A77860;}
	.st20{fill:#C9A043;}
	.st21{fill:#444C94;}
	.st22{fill:#303669;}
	.st23{fill:#518AFA;}
	.st24{fill:#FF8478;}
	.st25{fill:#8C241A;}
	.st26{fill:#B52618;}
	.st27{fill:#F25C4D;}
	.st28{fill:#DAE8F5;}
	.st29{fill:#D6D6D6;}
	.st30{fill:#C2C2C2;}
	.st31{font-size:36px;}
	.st32{font-size:18px;}
	.st33{fill:url(#SVGID_3_);}
	.st34{fill:url(#SVGID_4_);}
	.st35{fill:url(#SVGID_5_);}
	.st36{fill:url(#SVGID_6_);}
</style>
<linearGradient id="XMLID_10_" gradientUnits="userSpaceOnUse" x1="300.9999" y1="150.1726" x2="-149.8052" y2="600.9777">
	<stop  offset="0" style="stop-color:#0170FE"/>
	<stop  offset="0.379" style="stop-color:#035ED4"/>
	<stop  offset="0.787" style="stop-color:#044DAD"/>
	<stop  offset="1" style="stop-color:#05479E"/>
</linearGradient>
<rect id="XMLID_5_" x="-149.8" y="150.2" class="st0" width="450.8" height="450.8"/>
<g>
	<rect x="-297.3" y="147.3" class="st1" width="748.3" height="451.6"/>
	<linearGradient id="SVGID_1_" gradientUnits="userSpaceOnUse" x1="-297.3349" y1="343.7782" x2="91.2788" y2="343.7782">
		<stop  offset="0" style="stop-color:#9A5CFF"/>
		<stop  offset="1" style="stop-color:#7892FF"/>
	</linearGradient>
	<path class="st2" d="M61.7,441.2c-53.9,89.9-154,78.5-237.1,44.5c-83.1-34-122,54.6-122,54.6V147.3c0,0,2.2,72.6,190.9,44.6
		C44.4,169.5,143.8,304.3,61.7,441.2z"/>
	<g>
		<linearGradient id="SVGID_2_" gradientUnits="userSpaceOnUse" x1="266.3157" y1="546.6916" x2="211.7486" y2="514.9536">
			<stop  offset="0" style="stop-color:#9A5CFF"/>
			<stop  offset="1" style="stop-color:#5577FF"/>
		</linearGradient>
		<path class="st3" d="M260.9,520.3H132.8c-4.2,0-7.5-3.4-7.5-7.5v-12.9c0-4.2,3.4-7.5,7.5-7.5h128.1c4.2,0,7.5,3.4,7.5,7.5v12.9
			C268.4,516.9,265,520.3,260.9,520.3z"/>
	</g>
	<g>
		<rect id="XMLID_8_" x="-125.5" y="261.6" class="st4" width="155.1" height="155.1"/>
		<rect id="XMLID_2_" x="-77.7" y="327.3" class="st5" width="129.2" height="124.3"/>
		<text id="XMLID_3_" transform="matrix(1 0 0 1 -77.6187 410.1948)" class="st6 st7">JS</text>
		<circle id="XMLID_4_" class="st8" cx="-77" cy="309.2" r="10.4"/>
		<circle id="XMLID_1_" class="st9" cx="-76.1" cy="310.2" r="4.9"/>
		<circle id="XMLID_7_" class="st8" cx="-22" cy="309.2" r="10.4"/>
		<circle id="XMLID_6_" class="st9" cx="-21" cy="310.2" r="4.9"/>
		<g>
			<g>
				<g>
					<path class="st10" d="M63.1,372.6c0,0,22.1,15.4,6.8,48.9s-8,47.1-8,47.1S17.8,429.1,63.1,372.6z"/>
				</g>
			</g>
		</g>
		<g>
			<g>
				<g>
					<path class="st11" d="M101.2,369.8c0,0,21.9,25.1-6.5,60.5c-28.4,35.4-23.7,53.9-23.7,53.9S30.1,423.7,101.2,369.8z"/>
				</g>
			</g>
		</g>
		<g>
			<g>
				<g>
					<path class="st12" d="M63.4,473c-13.4,2.9-2.1-35.6,17.8-47.7c20-12.1,37.9-13.5,49.1-25.1C130.3,400.2,129.3,458.9,63.4,473z"
						/>
				</g>
			</g>
		</g>
		<g>
			<g>
				<path class="st13" d="M82,455.6c0,56.4-1.6,67.4-15.8,80c-5.5,4.9-15.7,15.2-45.1,20.3c-8.8,1.5-19.4,2.6-32.1,2.9
					c-5.2,0.1-9.9-0.1-14.3-0.5c-3.6-0.4-7-1-10.1-1.8c-32.3-8.1-34.7-35.8-20.6-59.1c3.7-6.2,8-11.8,12.5-17.1
					c6.9-8.2,14.3-15.4,21.1-22.2c6.2-6.2,11.8-12.1,15.9-17.8c1.7-2.4,3.2-4.8,4.3-7.3c0.3-0.6,0.5-1.1,0.8-1.7
					c0.9-1.8,1.8-3.6,2.7-5.3c1.7-3.2,3.4-6.1,5.1-8.6c1.3-2.1,2.6-3.9,3.8-5.6c4.1-5.7,7.2-8.9,7.2-8.9c4.7-2.2,14.1-5.1,23.1-5.4
					C59,396.9,82,406.1,82,455.6z"/>
			</g>
			<g>
				<path class="st14" d="M6.8,540.5c0,0,0.5,3.8,1.1,5.4c0.6,1.7,3.9,5.5,2.5,9.2c-1.5,4-8.2,0.1-10.9-1.1
					c-2.7-1.2-2.1-3.4-2.4-6.2c-0.3-2.7-1.6-2.8-1.1-4.7c0.5-1.9,3.5-5.6,3.5-5.6L6.8,540.5z"/>
			</g>
			<g>
				<g>
					<path class="st15" d="M0.7,535.6c0,0-1.7,2.4-1.7,2.5c0,0.1,7.3,4.5,7.8,3.1c0.4-1.1,0.6-2.8,0.6-2.8L0.7,535.6z"/>
				</g>
			</g>
			<g>
				<path class="st14" d="M-23.9,543.1c0,0-2.2,1.9-4.2,4.9c-2,3-7.3,3.1-7.5,7.2c-0.2,4.1,7.2,4.2,11.1,2.9
					c3.9-1.3,4.5-5.3,6.8-6.3c2.4-1,3.6-1.8,3.4-3.7c-0.2-1.9-1.5-5.1-1.5-5.1s-1.5,0.5-2.3,0.6C-19,543.7-21.8,543.7-23.9,543.1z"
					/>
			</g>
			<g>
				<path class="st16" d="M2.8,432.8c0,0-1.5,8.9-2.7,14.7l0,0c-0.5,2.4-0.9,4.3-1.2,4.8c-0.3,0.7-3.1,3.7-6.6,7.3
					c-6,6.2-13.9,14-13.9,14l-3.1-5.9c0,0,7-8.3,11.8-13.8c2.2-2.6,3.9-4.5,4.3-4.8c1-0.9,2.2-9.7,3.8-17c1.6-7.3,4.9-11.3,4.9-11.3
					L2.8,432.8z"/>
			</g>
			<g>
				<path class="st15" d="M-7.7,459.6c-6,6.2-13.9,14-13.9,14l-3.1-5.9c0,0,7-8.3,11.8-13.8C-11.4,454.6-8.7,456.4-7.7,459.6z"/>
			</g>
			<g>
				<path class="st15" d="M-23.5,540.4l-0.3,2.7c0,0,3.9,1.4,8.1-0.1l0.1-2.4L-23.5,540.4z"/>
			</g>
			<g>
				<path class="st16" d="M31.2,472.4c0.2,0.8-40.8,0-40.8,0s11.4-8.3,12.1-10.5c0.7-2.2-2.9-15.5-3.4-19.8
					c-0.4-3.4-1.3-18.9,0.9-21.2c2.4-2.5,10.9-5,10.9-5l12.5,0.5c0,0,2.1,0.4,3.5,1.1c1.5,0.7,9.9,3.7,11.3,7.9
					c1.4,4.2-8.4,17.7-8.4,17.7s0,0.6,0,1.6c0,0,0,0,0,0c0,1.3-0.1,3.3-0.1,5.5c-0.1,2.8-0.1,6-0.1,8.2
					C29.5,463.8,31,471.6,31.2,472.4z"/>
			</g>
			<g>
				<path class="st17" d="M31.2,472.4c0,0,5.6,8.2,5.7,13.8c0.1,5.6-9.9,24.4-11.4,27c-4.5,8.1-17,25.5-17,25.5s-2.1-0.1-8.9-2.7
					c0,0,8.3-23,9.3-25.4c4.5-10.1,6.9-17.3,5.4-19c-1.5-1.7-5.6-3.5-6.8-4.5c-1.2-1-21.8,3.9-23.9,4.5c-5.6,1.4-3,11.2-1.8,15.5
					c2.1,7.3,3.9,33.6,3.9,33.6s-4,1.7-10.7,0.3c0,0-13.1-47.6-13.5-52.3c-0.4-4.7-0.6-12.5,31.7-18.5L31.2,472.4z"/>
			</g>
			<g>
				<path class="st15" d="M14.4,388.8c0,0-10.8-2.4-8.4,11.2c2.5,13.6,5.1,14.7,11.6,11.9c6.5-2.8,5.9-11.6,6.3-15.8
					C24.3,391.7,17.9,388.9,14.4,388.8z"/>
			</g>
			<g>
				<path class="st15" d="M11.5,419.4c0,0,4.8,5.1,12.4,0.5c0,0-1.7-11-0.8-16.4c0.9-5.4-9.9,8.3-9.9,8.3c0.1,0.1,0.2,0.6,0.3,1.3
					c0,0.6,0,1.4-0.1,2.2C13.1,417,12.6,418.9,11.5,419.4z"/>
			</g>
			<g>
				<path class="st18" d="M23.4,403c0,0-0.3-4.3-1.8-4.4c-1.6-0.1-1.8,1.6-1.8,1.6l-1.6,0.3c0,0,0.5-3.8-1.1-4.4
					c-1.6-0.7-10.1,2.1-11.4,1c-1.3-1.1-0.7-8.7,1.6-9.8c2.3-1,8.6-3.4,13.2-0.3c0,0,3.6-0.4,4.1,2.5
					C25.1,392.3,24.4,400.8,23.4,403z"/>
			</g>
			<g>
				<path class="st19" d="M13.4,415.3c7.8-2.4,8.4-7.1,8.4-7.2c-2.6,4.4-8.3,5-8.3,5C13.5,413.7,13.5,414.5,13.4,415.3z"/>
			</g>
			<g>
				<path class="st15" d="M27.1,417.5c0,0-5.7,11.4-15,10.7c-9.3-0.7-1.6-12.2-1.2-12.3C11.4,415.7,20.5,413.5,27.1,417.5z"/>
			</g>
			<g>
				<path class="st16" d="M-14.3,471.8c0,0,28.4,3.5,45.5,0.6l-32.8-4.1C-1.6,468.3-1.8,469.1-14.3,471.8z"/>
			</g>
			<g>
				<path class="st15" d="M6.9,467l-2.1,1.1c0,0,0.5,3.4,1.6,4.4l2.4-0.6C8.8,471.8,8.3,468.2,6.9,467z"/>
			</g>
			<g>
				<path class="st16" d="M39.7,460.1c-0.4,0.5-6,2.7-12.3,5.2h0c-8.6,3.3-18.3,6.4-18.3,6.4L6.9,467c0,0,10.2-5.5,17-9.4
					c3.2-1.8,5.8-3.3,6.1-3.6c1.1-1.1,1.4-2.7,0.6-5.7c-0.8-2.9-2.7-16.5-2.9-18c-0.2-1.6,0.5-5.8,4.5-6c3.9-0.2,5.9,0.9,5.9,0.9
					s1,0.4,1.7,10C40.6,444.7,40.7,459,39.7,460.1z"/>
			</g>
			<g>
				<path class="st20" d="M29.8,444.7C29.8,444.7,29.8,444.7,29.8,444.7c0,1.3-0.1,3.3-0.1,5.5c-3.8-9.4-1.6-17-1.6-17.1
					C27.6,435.7,29.8,444.5,29.8,444.7z"/>
			</g>
			<g>
				<path class="st20" d="M0.1,447.5L0.1,447.5c-0.5,2.4-0.9,4.3-1.2,4.8c-1.3-6.4-0.1-14.5-0.1-14.5
					C-1.1,441.7,0.1,447.5,0.1,447.5z"/>
			</g>
			<g>
				<path class="st15" d="M27.4,465.3L27.4,465.3c-8.6,3.3-18.6,6.6-18.6,6.6L6.9,467c0,0,10.2-5.5,17-9.4
					C23.9,457.6,26.4,458.8,27.4,465.3z"/>
			</g>
			<g>
				<polygon class="st21" points="6.3,472.1 -34,471.5 -13.7,481.9 				"/>
			</g>
			<g>
				<polygon class="st22" points="-13.7,481.9 6.3,474.1 6.3,472.1 -15.3,479.9 				"/>
			</g>
			<g>
				<g>
					<path class="st15" d="M5.2,468.1c0,0-2.5-0.4-4.3-0.8c-1.3-0.3-4.7,0.1-5.5,1c-0.9,0.9-3.6,6.9-4.1,7.3
						c-0.5,0.4,0.3,1.2,1.2,0.8c0,0,0.8,2.6,2.9,1.6c2-1,3.4-3.1,4.5-3.5c1.1-0.4,7.3-2.3,7.3-2.3S6.8,467.5,5.2,468.1z"/>
				</g>
			</g>
			<g>
				<g>
					<path class="st15" d="M-4,467.9c0,0-1.6,0.8-2,1.1c-0.4,0.3-2.1,1.6-2.5,1.9c-0.4,0.3,0.6,1.2,3.7-0.2
						C-1.8,469.5-4,467.9-4,467.9z"/>
				</g>
			</g>
			<g>
				<polygon class="st22" points="-13.7,481.9 -25.7,449.1 -64.3,449.8 -52.9,479.9 				"/>
			</g>
			<g>
				
					<ellipse transform="matrix(0.8943 -0.4474 0.4474 0.8943 -212.3979 30.81)" class="st23" cx="-41" cy="465.1" rx="3.3" ry="4.8"/>
			</g>
			<g>
				<path class="st15" d="M19.8,398.3c0.1-1.2,2.5-1.6,2.7,0.2c0.2,1.8-1.1,5-2,4.7C19.6,402.8,19.6,400,19.8,398.3z"/>
			</g>
		</g>
		<g>
			<g>
				<path class="st24" d="M-117.3,305.3c-2.7-7.5-9.9-12.1-17.5-11.9c-1.8,0.1-3.7,0.4-5.5,1c-5.5,2-9.5,6.4-11.1,11.6
					c-1.1,3.6-1.1,7.6,0.2,11.4c0.1,0.4,0.3,0.8,0.4,1.1c0.7,1.7,1.7,3.2,2.8,4.5c4.7,5.5,12.5,7.9,19.7,5.3
					C-118.9,324.9-114,314.6-117.3,305.3z M-129.7,324c-5.4,1.9-11.3,0.2-14.8-4c-0.8-1-1.5-2.1-2.1-3.4c-0.1-0.3-0.2-0.6-0.3-0.8
					c-1-2.9-1-5.9-0.2-8.6c1.2-3.9,4.2-7.2,8.3-8.7c1.4-0.5,2.8-0.7,4.1-0.8c5.7-0.2,11.1,3.3,13.1,8.9
					C-119.1,313.8-122.7,321.5-129.7,324z"/>
			</g>
			<g>
				<path class="st25" d="M-147.1,307.3l-4.3-1.3c1.6-5.2,5.6-9.6,11.1-11.6c1.8-0.7,3.7-1,5.5-1l0.1,4.5c-1.4,0-2.8,0.3-4.1,0.8
					C-142.9,300.1-145.9,303.4-147.1,307.3z"/>
			</g>
			<g>
				<path class="st26" d="M-146.6,316.7l-4.1,1.8c-0.2-0.4-0.3-0.7-0.4-1.1c-1.4-3.8-1.4-7.8-0.2-11.4l4.3,1.3
					c-0.8,2.7-0.9,5.7,0.2,8.6C-146.8,316.1-146.7,316.4-146.6,316.7z"/>
			</g>
			<g>
				<path class="st27" d="M-147.9,323c-1.1-1.3-2.1-2.8-2.8-4.5l4.1-1.8c0.5,1.2,1.2,2.4,2.1,3.4L-147.9,323z"/>
			</g>
		</g>
		<g>
			<rect x="-144.1" y="409.6" class="st24" width="9.7" height="31.8"/>
		</g>
		<g>
			<rect x="-158.5" y="418.5" class="st24" width="9.7" height="22.9"/>
		</g>
		<g>
			<rect x="-130.1" y="394.8" class="st24" width="9.7" height="46.5"/>
		</g>
		<g>
			<polygon class="st27" points="-199,325.5 -199.4,325.1 -191.9,315.3 -182.5,315.8 -175.5,304.6 -167.9,303.8 -163.3,294.8 
				-162.9,295 -167.5,304.3 -175.2,305.1 -182.2,316.3 -191.6,315.8 			"/>
		</g>
		<circle class="st28" cx="-182.4" cy="316.1" r="1.4"/>
		<path class="st27" d="M-181.8,317.6c-0.8,0.3-1.8-0.1-2.1-0.9c-0.3-0.8,0.1-1.8,0.9-2.1c0.8-0.3,1.8,0.1,2.1,0.9
			C-180.6,316.3-181,317.2-181.8,317.6z M-182.8,315c-0.6,0.2-0.8,0.9-0.6,1.4c0.2,0.6,0.9,0.8,1.4,0.6c0.6-0.2,0.8-0.9,0.6-1.4
			C-181.6,315.1-182.2,314.8-182.8,315z"/>
		<g>
			<circle class="st28" cx="-175.3" cy="304.9" r="1.4"/>
			<path class="st27" d="M-174.7,306.4c-0.8,0.3-1.8-0.1-2.1-0.9c-0.3-0.8,0.1-1.8,0.9-2.1c0.8-0.3,1.8,0.1,2.1,0.9
				C-173.5,305.1-173.9,306.1-174.7,306.4z M-175.7,303.9c-0.6,0.2-0.8,0.9-0.6,1.4c0.2,0.6,0.9,0.8,1.4,0.6
				c0.6-0.2,0.8-0.9,0.6-1.4C-174.5,303.9-175.1,303.6-175.7,303.9z"/>
		</g>
		<g>
			<circle class="st28" cx="-167.8" cy="304" r="1.4"/>
			<path class="st27" d="M-167.2,305.5c-0.8,0.3-1.8-0.1-2.1-0.9c-0.3-0.8,0.1-1.8,0.9-2.1c0.8-0.3,1.8,0.1,2.1,0.9
				C-166,304.2-166.4,305.2-167.2,305.5z M-168.2,303c-0.6,0.2-0.8,0.9-0.6,1.4c0.2,0.6,0.9,0.8,1.4,0.6c0.6-0.2,0.8-0.9,0.6-1.4
				C-167,303-167.6,302.7-168.2,303z"/>
		</g>
		<g>
			<circle class="st28" cx="-191.7" cy="315.7" r="1.4"/>
			<path class="st27" d="M-191.2,317.2c-0.8,0.3-1.8-0.1-2.1-0.9c-0.3-0.8,0.1-1.8,0.9-2.1c0.8-0.3,1.8,0.1,2.1,0.9
				C-189.9,315.9-190.3,316.9-191.2,317.2z M-192.1,314.7c-0.6,0.2-0.8,0.9-0.6,1.4c0.2,0.6,0.9,0.8,1.4,0.6
				c0.6-0.2,0.8-0.9,0.6-1.4C-190.9,314.7-191.6,314.4-192.1,314.7z"/>
		</g>
		<g>
			<g>
				<g>
					<g>
						<polygon class="st29" points="10.4,373.6 50.3,351.3 36.6,350.4 						"/>
					</g>
				</g>
			</g>
			<g>
				<g>
					<g>
						<polygon class="st17" points="10.4,373.6 22.7,353.9 33,353.6 						"/>
					</g>
				</g>
			</g>
			<g>
				<g>
					<g>
						<polygon class="st30" points="41.2,356.4 42,361.5 10.4,373.6 						"/>
					</g>
				</g>
			</g>
		</g>
		<g>
			<path class="st17" d="M-274.8,367.8l-0.8,0c0.1-1.5,0.2-2.9,0.3-4.4l0.8,0.1C-274.7,364.9-274.8,366.4-274.8,367.8z
				 M-274.2,359.2l-0.8-0.1c0.1-1.4,0.3-2.9,0.4-4.3l0.8,0.1C-273.9,356.3-274.1,357.7-274.2,359.2z M-273.2,350.5l-0.8-0.1
				c0.2-1.4,0.4-2.9,0.6-4.3l0.8,0.1C-272.8,347.7-273,349.1-273.2,350.5z M54,343.7l-0.3-0.7c0,0,1.6-0.7,3.8-2.1l0.4,0.7
				C55.6,343,54,343.7,54,343.7z M-271.8,342l-0.8-0.1c0.3-1.4,0.5-2.9,0.8-4.3l0.8,0.2C-271.3,339.1-271.6,340.5-271.8,342z
				 M61.5,339.1l-0.5-0.6c1.2-0.9,2.3-1.8,3.3-2.8l0.6,0.6C63.8,337.2,62.7,338.2,61.5,339.1z M-270.1,333.5l-0.8-0.2
				c0.3-1.4,0.7-2.8,1.1-4.2l0.8,0.2C-269.4,330.6-269.7,332.1-270.1,333.5z M67.8,333l-0.6-0.5c0.9-1.1,1.7-2.3,2.4-3.5l0.7,0.4
				C69.6,330.6,68.7,331.8,67.8,333z M72.1,325.3l-0.8-0.3c0.5-1.3,0.8-2.7,1-4.1l0.8,0.1C73,322.5,72.6,323.9,72.1,325.3z
				 M-267.9,325.1l-0.8-0.2c0.4-1.4,0.8-2.8,1.3-4.2l0.8,0.2C-267,322.3-267.4,323.7-267.9,325.1z M-265.2,316.8l-0.8-0.3
				c0.5-1.4,1-2.7,1.5-4.1l0.8,0.3C-264.2,314.1-264.7,315.4-265.2,316.8z M72.6,316.7c-0.1-1.4-0.3-2.8-0.6-4.2l0.8-0.2
				c0.3,1.5,0.5,2.9,0.6,4.4L72.6,316.7z M-262.1,308.7l-0.7-0.3c0.6-1.3,1.2-2.7,1.8-4l0.7,0.3C-260.9,306-261.5,307.4-262.1,308.7
				z M70.7,308.3c-0.5-1.3-1.1-2.6-1.8-3.9l0.7-0.4c0.7,1.3,1.3,2.7,1.9,4L70.7,308.3z M-258.5,300.8l-0.7-0.4
				c0.6-1.3,1.3-2.6,2-3.9l0.7,0.4C-257.1,298.2-257.8,299.5-258.5,300.8z M66.7,300.7l-0.1-0.2c-0.7-1.1-1.6-2.2-2.5-3.1l0.6-0.6
				c1,1,1.8,2.1,2.6,3.2l0.1,0.2L66.7,300.7z M60.9,294.6c-1.1-0.8-2.3-1.6-3.6-2.4l0.4-0.7c1.3,0.7,2.5,1.6,3.7,2.4L60.9,294.6z
				 M-254.4,293.2l-0.7-0.4c0.7-1.3,1.5-2.5,2.2-3.7l0.7,0.4C-252.9,290.7-253.6,291.9-254.4,293.2z M53.4,290.3
				c-1.3-0.5-2.6-1.1-4-1.5l0.3-0.8c1.4,0.5,2.8,1,4.1,1.6L53.4,290.3z M45.2,287.6c-1.3-0.3-2.8-0.7-4.2-1l0.2-0.8
				c1.5,0.3,2.9,0.6,4.3,1L45.2,287.6z M-249.8,285.8l-0.7-0.4c0.8-1.2,1.6-2.4,2.5-3.6l0.7,0.5C-248.1,283.4-249,284.6-249.8,285.8
				z M36.7,285.8c-1.3-0.2-2.8-0.4-4.3-0.6l0.1-0.8c1.5,0.2,3,0.4,4.3,0.7L36.7,285.8z M28.1,284.6c-1.4-0.2-2.8-0.3-4.3-0.5
				l0.1-0.8c1.6,0.2,3,0.3,4.3,0.5L28.1,284.6z M19.5,283.7c-1.4-0.1-2.9-0.3-4.3-0.4l0.1-0.8c1.5,0.1,2.9,0.3,4.3,0.4L19.5,283.7z
				 M10.8,282.9c-1.4-0.1-2.9-0.3-4.3-0.4l0.1-0.8c1.5,0.1,2.9,0.3,4.3,0.4L10.8,282.9z M2.1,282.1c-1.5-0.2-2.9-0.3-4.3-0.5
				l0.1-0.8c1.4,0.2,2.8,0.3,4.3,0.5L2.1,282.1z M-6.6,281.1c-1.5-0.2-2.9-0.4-4.3-0.6l0.1-0.8c1.4,0.2,2.8,0.4,4.3,0.6L-6.6,281.1z
				 M-15.2,279.8c-1.5-0.2-2.9-0.5-4.3-0.8l0.2-0.8c1.4,0.3,2.8,0.5,4.3,0.8L-15.2,279.8z M-244.7,278.8l-0.6-0.5
				c0.9-1.1,1.8-2.3,2.7-3.4l0.6,0.5C-242.9,276.5-243.8,277.6-244.7,278.8z M-23.8,278.1c-1.4-0.3-2.9-0.7-4.2-1l0.2-0.8
				c1.4,0.4,2.8,0.7,4.2,1L-23.8,278.1z M-32.2,275.9c-1.4-0.4-2.8-0.9-4.2-1.4l0.3-0.8c1.3,0.5,2.7,0.9,4.1,1.3L-32.2,275.9z
				 M-40.5,273c-1.4-0.6-2.7-1.1-4-1.7l0.3-0.7c1.3,0.6,2.6,1.2,4,1.7L-40.5,273z M-239.1,272.1l-0.6-0.5c1-1.1,2-2.2,3-3.2l0.6,0.6
				C-237.2,270-238.2,271-239.1,272.1z M-48.4,269.3c-1.3-0.7-2.6-1.4-3.8-2.2l0.4-0.7c1.2,0.7,2.5,1.5,3.8,2.1L-48.4,269.3z
				 M-233.1,265.8l-0.6-0.6c1-1,2.1-2,3.2-3l0.5,0.6C-231,263.8-232.1,264.8-233.1,265.8z M-55.8,264.8c-1.2-0.8-2.4-1.7-3.5-2.6
				l0.5-0.6c1.1,0.9,2.3,1.8,3.5,2.6L-55.8,264.8z M-226.7,260l-0.5-0.6c1.1-0.9,2.3-1.9,3.4-2.7l0.5,0.6
				C-224.5,258.2-225.6,259.1-226.7,260z M-62.7,259.4c-1.1-1-2.2-1.9-3.3-2.8l0.5-0.6c1.1,0.9,2.2,1.9,3.3,2.8L-62.7,259.4z
				 M-219.9,254.7l-0.5-0.7c1.2-0.8,2.4-1.7,3.6-2.5l0.4,0.7C-217.5,253-218.7,253.8-219.9,254.7z M-69.4,253.9
				c-1.1-0.9-2.3-1.7-3.5-2.5l0.5-0.7c1.2,0.8,2.4,1.7,3.6,2.5L-69.4,253.9z M-212.7,249.9l-0.4-0.7c1.2-0.8,2.5-1.5,3.8-2.2
				l0.4,0.7C-210.2,248.3-211.4,249.1-212.7,249.9z M-76.5,248.9c-1.2-0.8-2.5-1.5-3.7-2.2l0.4-0.7c1.3,0.7,2.5,1.5,3.7,2.2
				L-76.5,248.9z M-205.1,245.5l-0.4-0.7c1.3-0.7,2.6-1.3,3.9-2l0.4,0.7C-202.5,244.2-203.9,244.9-205.1,245.5z M-84.1,244.6
				c-1.3-0.7-2.6-1.3-3.9-1.9l0.3-0.7c1.3,0.6,2.6,1.3,3.9,1.9L-84.1,244.6z M-197.3,241.8l-0.3-0.7c1.3-0.6,2.7-1.2,4-1.7l0.3,0.7
				C-194.7,240.6-196,241.2-197.3,241.8z M-91.9,240.9c-1.3-0.6-2.7-1.1-4-1.6l0.3-0.8c1.4,0.5,2.7,1.1,4,1.7L-91.9,240.9z
				 M-189.3,238.5l-0.3-0.8c1.4-0.5,2.7-1,4.1-1.4l0.2,0.8C-186.6,237.6-187.9,238-189.3,238.5z M-100,237.8
				c-1.4-0.5-2.7-0.9-4.1-1.4l0.2-0.8c1.4,0.4,2.8,0.9,4.1,1.4L-100,237.8z M-181.1,235.8l-0.2-0.8c1.4-0.4,2.8-0.8,4.2-1.1l0.2,0.8
				C-178.3,235.1-179.7,235.4-181.1,235.8z M-108.3,235.2c-1.4-0.4-2.8-0.7-4.2-1.1l0.2-0.8c1.4,0.3,2.8,0.7,4.2,1.1L-108.3,235.2z
				 M-172.7,233.7l-0.2-0.8c1.4-0.3,2.8-0.6,4.3-0.9l0.1,0.8C-169.8,233.1-171.3,233.4-172.7,233.7z M-116.7,233.2
				c-1.4-0.3-2.8-0.6-4.3-0.8l0.1-0.8c1.4,0.2,2.9,0.5,4.3,0.8L-116.7,233.2z M-164.1,232.1l-0.1-0.8c1.4-0.2,2.9-0.4,4.3-0.6
				l0.1,0.8C-161.3,231.7-162.7,231.9-164.1,232.1z M-125.3,231.8c-1.4-0.2-2.9-0.4-4.3-0.5l0.1-0.8c1.4,0.1,2.9,0.3,4.3,0.5
				L-125.3,231.8z M-155.5,231.1l-0.1-0.8c1.4-0.1,2.9-0.2,4.3-0.3l0,0.8C-152.7,230.8-154.1,230.9-155.5,231.1z M-133.9,230.9
				c-1.4-0.1-2.9-0.2-4.3-0.2l0-0.8c1.4,0.1,2.9,0.1,4.4,0.2L-133.9,230.9z M-146.9,230.6l0-0.8c1.4,0,2.9,0,4.4,0l0,0.8
				C-144,230.5-145.4,230.5-146.9,230.6z"/>
		</g>
		<text transform="matrix(1 0 0 1 113.667 315.6665)" class="st6 st31">Dev battle</text>
		<text transform="matrix(1 0 0 1 157.5543 356.9598)" class="st6 st32">Find your bug!</text>
	</g>
	<linearGradient id="SVGID_3_" gradientUnits="userSpaceOnUse" x1="247.5892" y1="231.0316" x2="450.9897" y2="231.0316">
		<stop  offset="0" style="stop-color:#E8FEFF"/>
		<stop  offset="0.9896" style="stop-color:#EBEFFF"/>
	</linearGradient>
	<path class="st33" d="M451,314.7c0,0-9.3-167.4-203.4-167.4H451V314.7z"/>
	<linearGradient id="SVGID_4_" gradientUnits="userSpaceOnUse" x1="48.4204" y1="565.7252" x2="450.9897" y2="565.7252">
		<stop  offset="0" style="stop-color:#E8FEFF"/>
		<stop  offset="0.9896" style="stop-color:#EBEFFF"/>
	</linearGradient>
	<path class="st34" d="M451,532.6c0,0-12.3,53.2-125.1,19.1c-112.7-34.1-236.3,6.1-277.5,47.3H451V532.6z"/>
	<linearGradient id="SVGID_5_" gradientUnits="userSpaceOnUse" x1="-297.3349" y1="422.8044" x2="-249.2221" y2="422.8044">
		<stop  offset="0" style="stop-color:#9A5CFF"/>
		<stop  offset="1" style="stop-color:#7892FF"/>
	</linearGradient>
	<path class="st35" d="M-249.2,422.8c0,34.2-19.6,63.9-48.1,78.4V344.4C-268.8,358.9-249.2,388.6-249.2,422.8z"/>
	<linearGradient id="SVGID_6_" gradientUnits="userSpaceOnUse" x1="196.8392" y1="579.7554" x2="210.9311" y2="627.4703">
		<stop  offset="0" style="stop-color:#E8FEFF"/>
		<stop  offset="0.9896" style="stop-color:#EBEFFF"/>
	</linearGradient>
	<path class="st36" d="M250.8,598.9H152c0-27.3,22.1-49.4,49.4-49.4C228.7,549.5,250.8,571.6,250.8,598.9z"/>
</g>
<text transform="matrix(1 0 0 1 152.0304 511.0003)" class="st1 st6 st32">Start Game</text>
</svg>
