<?xml version="1.0" encoding="utf-8"?>
<!-- Generator: Adobe Illustrator 19.0.0, SVG Export Plug-In . SVG Version: 6.00 Build 0)  -->
<svg version="1.1" id="Layer_1" xmlns="http://www.w3.org/2000/svg" xmlns:xlink="http://www.w3.org/1999/xlink" x="0px" y="0px"
	 viewBox="0 0 100 100" style="enable-background:new 0 0 100 100;" xml:space="preserve">
<style type="text/css">
	.st0{opacity:0.15;fill:#6B99D1;}
	.st1{fill:#DCEEFF;}
	.st2{fill:#A5CBFA;}
	.st3{fill:#C8E2FF;}
	.st4{fill:#FFFFFF;}
	.st5{fill:#344593;}
	.st6{fill:#1E3779;}
	.st7{fill:#031F60;}
	.st8{fill:#ABFFEF;}
	.st9{fill:#6CFFE6;}
	.st10{fill:#47EACE;}
	.st11{opacity:0.3;fill:url(#XMLID_2_);}
	.st12{opacity:0.5;fill:url(#XMLID_3_);}
</style>
<g id="XMLID_2621_">
	<g id="XMLID_28_">
		<path id="XMLID_4186_" class="st0" d="M84,72.4L50.4,91.8c-0.5,0.3-1.2,0.4-1.8,0.4c-0.7,0-1.3-0.1-1.8-0.4L13.1,72.4
			c-0.5-0.3-0.8-0.7-0.8-1.1c0-0.3,0.1-0.6,0.4-0.8c0.1-0.1,0.2-0.2,0.4-0.3l33.6-19.4c1-0.6,2.7-0.6,3.7,0L84,70.3
			C85,70.9,85,71.8,84,72.4z"/>
		<path id="XMLID_2126_" class="st1" d="M84,68.4L50.4,87.8c-0.5,0.3-1.2,0.4-1.8,0.4c-0.7,0-1.3-0.1-1.8-0.4L13.1,68.4
			c-0.5-0.3-0.8-0.7-0.8-1.1c0-0.4,0.3-0.8,0.8-1.1l5.3-3.1l28.3-16.3c1-0.6,2.7-0.6,3.7,0L84,66.3C85,66.9,85,67.8,84,68.4z"/>
		<path id="XMLID_2121_" class="st2" d="M48.6,80.6v7.7c-0.7,0-1.3-0.1-1.8-0.4L13.1,68.4c-0.5-0.3-0.8-0.7-0.8-1.1v-6.6
			c0-0.3,0.1-0.6,0.4-0.8l5.7,3.3L48.6,80.6z"/>
		<path id="XMLID_2108_" class="st3" d="M48.6,80.6v7.7c0.7,0,1.3-0.1,1.8-0.4L84,68.4c0.5-0.3,0.8-0.7,0.8-1.1v-6.6
			c0-0.3-0.1-0.6-0.4-0.8l-5.7,3.3L48.6,80.6z"/>
		<path id="XMLID_452_" class="st1" d="M84,61.8L50.4,81.2c-0.5,0.3-1.2,0.4-1.8,0.4c-0.7,0-1.3-0.1-1.8-0.4L13.1,61.8
			c-0.5-0.3-0.8-0.7-0.8-1.1c0-0.3,0.1-0.6,0.4-0.8c0.1-0.1,0.2-0.2,0.4-0.3l33.6-19.4c1-0.6,2.7-0.6,3.7,0L84,59.7
			C85,60.3,85,61.2,84,61.8z"/>
		<g id="XMLID_447_">
			<path id="XMLID_32_" class="st4" d="M48.6,40.8c0.5,0,1,0.1,1.3,0.3l33.6,19.4c0.1,0.1,0.2,0.2,0.2,0.2c0,0-0.1,0.1-0.2,0.2
				L49.9,80.4c-0.3,0.2-0.8,0.3-1.3,0.3c-0.5,0-1-0.1-1.3-0.3L13.6,60.9c-0.1-0.1-0.2-0.2-0.2-0.2c0,0,0,0,0.1-0.1
				c0.1,0,0.1-0.1,0.2-0.1l33.6-19.4C47.6,40.9,48,40.8,48.6,40.8 M48.6,39.8c-0.7,0-1.3,0.1-1.8,0.4L13.1,59.7
				c-0.1,0.1-0.3,0.2-0.4,0.3c-0.3,0.2-0.4,0.5-0.4,0.8c0,0.4,0.3,0.8,0.8,1.1l33.6,19.4c0.5,0.3,1.2,0.4,1.8,0.4
				c0.7,0,1.3-0.1,1.8-0.4L84,61.8c1-0.6,1-1.5,0-2.1L50.4,40.3C49.9,40,49.2,39.8,48.6,39.8L48.6,39.8z"/>
		</g>
		<path id="XMLID_445_" class="st5" d="M47.3,44.9L21.1,60c-0.7,0.4-0.7,1,0,1.4l26.3,15.2c0.7,0.4,1.8,0.4,2.4,0L76,61.4
			c0.7-0.4,0.7-1,0-1.4L49.8,44.9C49.1,44.5,48,44.5,47.3,44.9z"/>
		<path id="XMLID_440_" class="st6" d="M76,60L49.8,44.9c-0.3-0.2-0.8-0.3-1.2-0.3v1.2l27.3,15.7l0.2-0.1C76.7,61.1,76.7,60.4,76,60
			z"/>
		<path id="XMLID_34_" class="st7" d="M48.6,44.6c-0.4,0-0.9,0.1-1.2,0.3L21.1,60c-0.7,0.4-0.7,1,0,1.4l0.2,0.1l27.3-15.7V44.6z"/>
	</g>
	<g id="XMLID_2152_">
		<polygon id="XMLID_2134_" class="st8" points="34.2,37.5 54.3,25.9 62.9,30.9 42.8,42.5 		"/>
		<path id="XMLID_2138_" class="st9" d="M34.2,60.5c0,2,1.4,4.3,3.1,5.3l2.5,1.4c1.7,1,4.4,1,6.1,0l14-8.1c1.7-1,3.1-3.3,3.1-5.3
			l0-23L42.8,42.5l-8.6-5V60.5z"/>
		<path id="XMLID_2148_" class="st10" d="M37.3,65.8l1.2,0.7l1.2,0.7c0.8,0.5,2,0.7,3.1,0.7l0-25.5l-8.6-5v23
			C34.2,62.5,35.6,64.8,37.3,65.8z"/>
		<path id="XMLID_2136_" class="st5" d="M53,45.1c1.9-1.1,3.5-0.2,3.5,2S55,52,53,53.2c-1.9,1.1-3.5,0.2-3.5-2
			C49.6,48.9,51.1,46.2,53,45.1z"/>
		<path id="XMLID_2142_" class="st5" d="M51.9,56.3c0,0.9,0.5,1.4,1.1,1c0.6-0.4,1.1-1.4,1.1-2.4l0-9.1l-2.3,1.3V56.3z"/>
		<g id="XMLID_2145_">
			<path id="XMLID_2143_" class="st5" d="M40.8,36.4c-1.1,0.6-1.1,1.7,0,2.3c1.1,0.6,2.9,0.6,4.1,0c1.1-0.6,1.1-1.7,0-2.3
				C43.7,35.7,41.9,35.7,40.8,36.4z"/>
			<path id="XMLID_2146_" class="st5" d="M52.3,29.7c-1.1,0.6-1.1,1.7,0,2.3c1.1,0.6,2.9,0.6,4.1,0c1.1-0.6,1.1-1.7,0-2.3
				C55.2,29.1,53.4,29.1,52.3,29.7z"/>
			<path id="XMLID_2537_" class="st5" d="M40,26.2v11.4h5.7V26.4c0-0.3,0.1-0.5,0.4-0.6l4.9-2.8c0.2-0.1,0.5,0,0.5,0.3v7.7h5.7
				l0-11.5c0-3.7-2.6-5.2-5.8-3.4L43,20.9C41.3,21.8,40,24.2,40,26.2z"/>
		</g>
	</g>
	<linearGradient id="XMLID_2_" gradientUnits="userSpaceOnUse" x1="78.6754" y1="60.2035" x2="52.9793" y2="14.9418">
		<stop  offset="0" style="stop-color:#57F7E0"/>
		<stop  offset="1" style="stop-color:#57F7E0;stop-opacity:0"/>
	</linearGradient>
	<path id="XMLID_2618_" class="st11" d="M50.4,1.8c-0.5,0.3-1.2,0.5-1.8,0.4c0,0,0,0,0,0c0,0,0,0,0,0v74.7c0.4,0,0.8-0.1,1.2-0.3
		l26-15c0.5-0.3,0.7-0.5,0.7-0.8v-74L50.4,1.8z"/>
	<linearGradient id="XMLID_3_" gradientUnits="userSpaceOnUse" x1="18.4956" y1="60.3891" x2="39.1057" y2="23.7344">
		<stop  offset="0" style="stop-color:#57F7E0"/>
		<stop  offset="1" style="stop-color:#57F7E0;stop-opacity:0"/>
	</linearGradient>
	<path id="XMLID_2589_" class="st12" d="M48.5,2.2c-0.2,0-0.3,0-0.5,0c0,0,0,0,0,0c-0.1,0-0.3,0-0.4-0.1c-0.1,0-0.2-0.1-0.3-0.1
		c-0.1,0-0.1,0-0.2-0.1c-0.1-0.1-0.3-0.1-0.4-0.2L20.6-13.3v74c0,0.3,0.2,0.5,0.5,0.7l26.3,15.2c0.4,0.2,0.8,0.3,1.2,0.3
		c0,0,0,0,0,0L48.5,2.2C48.6,2.2,48.5,2.2,48.5,2.2z"/>
</g>
</svg>
