<?xml version="1.0" encoding="utf-8"?>
<!-- Generator: Adobe Illustrator 19.0.0, SVG Export Plug-In . SVG Version: 6.00 Build 0)  -->
<svg version="1.1" id="Layer_1" xmlns="http://www.w3.org/2000/svg" xmlns:xlink="http://www.w3.org/1999/xlink" x="0px" y="0px"
	 viewBox="0 0 750 750" style="enable-background:new 0 0 750 750;" xml:space="preserve">
<style type="text/css">
	.st0{fill:#FCFCFC;}
	.st1{opacity:0.5;}
	.st2{fill:#62B3FB;}
	.st3{fill:#704522;stroke:#8B633C;stroke-width:4;stroke-linecap:round;stroke-miterlimit:10;}
	.st4{fill:none;stroke:#8B633C;stroke-width:4;stroke-linecap:round;stroke-miterlimit:10;}
	.st5{fill:#512811;}
	.st6{fill:#8CCEE0;}
	.st7{fill:#CCF5FF;}
	.st8{fill:#602E15;}
	.st9{fill:#43210C;}
	.st10{fill:#26314F;}
	.st11{fill:#191F34;}
	.st12{fill:#334366;}
	.st13{fill:#2A3050;}
	.st14{fill:#07072B;}
	.st15{fill:#1B1F3A;}
	.st16{fill:#11162B;}
	.st17{fill:#FFA784;}
	.st18{fill:#212643;}
	.st19{fill:#E88867;}
	.st20{fill:#161B32;}
	.st21{fill:#C9C8DB;}
	.st22{fill:#7E7E9B;}
	.st23{fill:#BBB8D3;}
	.st24{fill:#AEACC8;}
	.st25{fill:#A09FBC;}
	.st26{fill:#7A5130;}
	.st27{fill:#8B633C;}
	.st28{fill:#5E3918;}
	.st29{fill:#704522;}
	.st30{fill:#965E45;}
	.st31{fill:#623A17;}
	.st32{fill:#EEA047;}
	.st33{fill:#D38333;}
	.st34{fill:#FFCE6C;}
	.st35{fill:#47A87C;}
	.st36{fill:#417F6F;}
	.st37{fill:#F0FAFC;}
	.st38{fill:#F9062F;}
	.st39{font-family:'MyriadPro-Regular';}
	.st40{font-size:60px;}
	.st41{fill:url(#XMLID_10_);}
	.st42{fill:#FFFFFF;}
	.st43{font-size:24px;}
	.st44{fill:#546BDD;}
</style>
<g id="Layer_2">
	<rect id="XMLID_37_" y="-23.2" class="st0" width="750" height="773.2"/>
	<g id="XMLID_6_">
		<g id="XMLID_266_">
			<g id="XMLID_373_" class="st1">
				<polygon id="XMLID_26_" class="st2" points="539.4,258.8 518.3,271 467.3,241.6 467.3,245.6 514.7,273 486.6,289.3 491.9,292.3 
					544.6,261.9 				"/>
			</g>
			<line id="XMLID_428_" class="st3" x1="500.7" y1="170.7" x2="467.3" y2="253.7"/>
			<polyline id="XMLID_426_" class="st4" points="492.3,288.6 502.8,144.3 538,262.2 			"/>
			<g id="XMLID_424_">
				<polygon id="XMLID_374_" class="st5" points="485.2,130.1 523.9,107.7 523.9,168.6 485.2,191 				"/>
				<polygon id="XMLID_579_" class="st6" points="520.4,113.8 520.4,166.6 514,170.3 508.9,173.2 505.9,175 500.7,178 494.2,181.7 
					488.7,184.9 488.7,132.1 493.4,129.4 496.5,127.6 501.4,124.8 507.9,121 512.8,118.2 515.8,116.5 				"/>
				<g id="XMLID_375_">
					<polygon id="XMLID_430_" class="st7" points="520.4,121 520.4,125.9 512.8,118.2 515.8,116.5 					"/>
					<polygon id="XMLID_433_" class="st7" points="508.9,173.2 505.9,175 488.7,157.9 488.7,153 					"/>
					<polygon id="XMLID_429_" class="st7" points="520.4,151.6 520.4,156.4 493.4,129.4 496.5,127.6 					"/>
					<polygon id="XMLID_431_" class="st7" points="520.4,133.5 520.4,143.8 501.4,124.8 507.9,121 					"/>
					<polygon id="XMLID_434_" class="st7" points="500.7,178 494.2,181.7 488.7,176.3 488.7,166 					"/>
					<polygon id="XMLID_432_" class="st7" points="520.4,166.3 520.4,166.6 514,170.3 488.7,145 488.7,134.7 					"/>
				</g>
				<polygon id="XMLID_549_" class="st8" points="523.9,107.7 522.1,106.7 483.5,129 485.2,130.1 				"/>
				<polygon id="XMLID_550_" class="st9" points="483.5,129 485.2,130.1 485.2,191 483.5,189.9 				"/>
				<polygon id="XMLID_551_" class="st10" points="499.3,121.9 485.2,146.3 485.2,154.4 506.3,117.9 				"/>
				<polygon id="XMLID_578_" class="st11" points="485.2,146.3 483.5,145.3 483.5,153.4 485.2,154.4 				"/>
				<polygon id="XMLID_408_" class="st12" points="499.3,121.9 497.5,120.9 504.6,116.9 506.3,117.9 				"/>
			</g>
			<line id="XMLID_427_" class="st4" x1="496.5" y1="234.2" x2="524.3" y2="217.9"/>
		</g>
		<g id="XMLID_364_">
			<path id="XMLID_378_" class="st13" d="M205.9,145.5c-1.8-1-4.9,2.1-4.5,6.8c0.3,4.3,4.5,7.1,8,6.4c2.9-0.5,3.9-3.7,3.1-5.4
				C211.6,151.7,205.9,145.5,205.9,145.5z"/>
			<g id="XMLID_766_">
				<g id="XMLID_769_">
					<g id="XMLID_779_" class="st1">
						<path id="XMLID_23_" class="st2" d="M245.5,345.7c-15.5,9-37.6,10.8-49.2,4.1c-11.6-6.7-8.5-19.4,7-28.4
							c15.5-9,37.6-10.8,49.2-4.1C264.1,324,261,336.7,245.5,345.7z"/>
					</g>
					<g id="XMLID_771_">
						<path id="XMLID_777_" class="st14" d="M199.6,327.3c0,0-2,6.2-1.5,8c0.6,1.7,7.9,5.6,12.5,7.6c4.6,2.1,16-0.8,10-4.6
							c-7-4.4-12.3-10-12.3-10L199.6,327.3z"/>
						<path id="XMLID_382_" class="st14" d="M225,316.5c0,0-1.3,6.4-0.6,8.1c0.8,1.7,8.5,4.7,13.2,6.2c4.8,1.5,15.8-2.6,9.4-5.7
							c-7.5-3.6-14.4-9.4-14-9.1L225,316.5z"/>
						<path id="XMLID_380_" class="st15" d="M234,216.6c0,0-6-1.3-11.2-0.9l-20.6-1.4c-5.7,13.5-1.2,32.7,0.2,62.2
							c-5.8,10.2-2.8,32.6-2.7,51.8c3.6,3.1,8.6,3.7,8.6,0.2c0-2.9,8.2-65.5,11.4-87.4c0,0,1.5,18.3,2.9,33.4
							c-1.1,4.1-1.7,7.2-1.4,11.2c0.9,12.6,3.8,30.9,3.8,30.9c4.2,2.6,8.1-0.5,8.1-0.5C236.2,224.1,233.9,224.1,234,216.6z"/>
						<path id="XMLID_774_" class="st16" d="M222.7,163.3c0,0,3.7-0.6,7,3.5c3.1,3.8,8.5,10.9,7.8,16.2c-0.5,4.1-4.2,7.1-4.2,7.1
							l0.7,26.4c0,0-19.3,13.3-32-1.1c0.4-3.9,6.2-15.4,6.1-18.2c-0.2-4.3-5.4-15.4-7.5-21c-1.4-3.8-0.9-6.5,5.5-9.4
							C217.2,161.8,222.7,163.3,222.7,163.3z"/>
						<path id="XMLID_368_" class="st17" d="M230.5,156.6c-0.2,0.2-0.5,0.3-0.8,0.4h0c-2.7,1.3-6.8,1-6.8,1l0,7
							c2.1,6.2,2.9,10.9,0,9.9c0,0-7.9-3.9-10.6-10.6c0.2-7.6-0.1-10.4-0.1-10.4s-4.1-2.4-4.1-8.1s-0.9-14.4,10.6-15.3
							c11.5-0.9,14.5-0.4,14.5-0.4l0.8,5C237,145.6,233.1,154.8,230.5,156.6z"/>
					</g>
				</g>
				<path id="XMLID_768_" class="st18" d="M212.4,157.8c-0.1-1-1.5-2.2-1.9-2.5c-0.9-0.9-1.8-1.9-2.4-3.1c-1-1.7-1.8-3.5-2.1-5.4
					c-0.4-2-0.7-4.2-0.6-6.3c0.3-5.5,2.2-11.4,7.4-13.7c0.1,0,0.2-0.1,0.3-0.1c9.4-3.8,16.7-1.8,19.7,2.7c3,4.5,2.9,7.1,2.2,10.8
					c0,0-6.8-0.7-13.3-6.8c0,0-1.2,6-3.2,7.6c-2,1.6-1.3,5.3-1.5,5.9c-0.1,0.6-1-0.9-1.8-3.4c-0.7-2.5-3.7-3.7-4.8-1
					c-1.1,2.5,0.3,5.2,2.2,6.2c1.2,0.7,1.7,1.2,1.4,2.6C213.5,153.5,212.9,155.6,212.4,157.8z"/>
				<path id="XMLID_767_" class="st17" d="M220.4,230.1c-1.6-1.4-3.8-1.6-5.4-2.9c-1-0.8-1.9-1.8-2.8-2.7
					c-2.3-2.5-11.9-10.7-14.8-15.2c-1.9-3.1-2.2-5.4-2.1-8.9c0.2-5.6,0.8-11,1.5-16.5c0.5-4.5,1.3-9.4,4.2-13.1
					c0.7-0.9,1.6-1.6,2.8-1.7c3.6-0.3,4.4,4.9,2.1,16.1c-0.6,3.2-1.1,6.4-1.4,11.2c-0.2,3.3-0.4,5,1,7.9c0.9,1.9,2,3.8,3.2,5.4
					c2.9,3.7,6.2,7.3,9.9,10.2c4.3,3.4,9.7,6.2,12.4,11.3c0.3,0.5,0.5,1,0.4,1.6c-0.3,2-2.8,2.1-4.4,1.8
					C224.6,233.9,222.4,231.8,220.4,230.1z"/>
			</g>
			<path id="XMLID_359_" class="st19" d="M229.7,157c-2.7,1.3-6.8,1-6.8,1c-7.4-1.6-7.7-5.8-5.6-4.4
				C220,155.4,225.7,157.4,229.7,157z"/>
			<path id="XMLID_347_" class="st19" d="M229.3,147.3c2.4-1.2,4-1.6,4-0.9c0.1,0.8,0.1,1.3-1.5,1.4
				C230.3,148,228.1,147.9,229.3,147.3z"/>
			<path id="XMLID_348_" class="st19" d="M211.2,143.3c0.2-0.9,1.7-1.5,2.4-0.6s0.9,2.4,0.9,2.4s-0.7,0-1.1,0.8
				c-0.4,0.8,0.6,1.4,0.6,1.4s-1.5-0.1-1.5-1.4c0-1.3,1.2-1.3,1.2-1.3S212.8,142,211.2,143.3z"/>
			<path id="XMLID_381_" class="st17" d="M236.2,186.9c-0.1,0.4,1.8,13.3,2.9,18.7c1.1,5.6-7.2,20.8-11.4,24.2c0,0-4.4-1.9-4.5-4.1
				c-0.1-2.2,2.5-4.2,5.7-9.9c5.9-10.6,4.8-18.5,4.8-18.5l-0.2-7.1C234.4,189.3,235.3,188.3,236.2,186.9z"/>
		</g>
		<g id="XMLID_352_">
			<path id="XMLID_358_" class="st13" d="M335,79.3c-0.8,3-4.1,4.4-6.5,10.1c-2.1,4.9-1,10.5-1,16.3c0.1,5.8-3.5,6.6-3.5,6.6
				s-0.1,2.3,4.7,1c4.8-1.3,13.1-11.3,12.9-18.3C341.5,88.2,336.2,75.3,335,79.3z"/>
			<g id="XMLID_402_">
				<g id="XMLID_412_">
					<g id="XMLID_419_" class="st1">
						<path id="XMLID_21_" class="st2" d="M371.5,272.9c-15.5,9-37.6,10.8-49.2,4.1c-11.6-6.7-8.5-19.4,7-28.4
							c15.5-9,37.6-10.8,49.2-4.1C390.2,251.2,387,264,371.5,272.9z"/>
					</g>
					<g id="XMLID_413_">
						<path id="XMLID_417_" class="st14" d="M351,243.8c0,0-1.3,6.4-0.6,8.1c0.8,1.7,8.5,4.7,13.2,6.2c4.8,1.5,15.8-2.6,9.4-5.7
							c-7.5-3.6-14.4-9.4-14-9.1L351,243.8z"/>
						<path id="XMLID_416_" class="st17" d="M360.1,143.8c0,0-6-1.3-11.2-0.9c0,0-1.7,43.6-0.2,58.7c-1.1,4.1-1.7,7.2-1.4,11.2
							c0.9,12.6,3.8,30.9,3.8,30.9c4.2,2.6,8.1-0.5,8.1-0.5C362.2,151.4,359.9,151.4,360.1,143.8z"/>
						<path id="XMLID_425_" class="st14" d="M329.5,250.4c0,0-1.7,6.3-1.1,8c0.7,1.7,8.2,5.2,12.8,7c4.7,1.8,15.9-1.7,9.8-5.1
							c-7.2-4-13.8-10.3-13.4-9.9L329.5,250.4z"/>
						<path id="XMLID_422_" class="st17" d="M344.5,151.2c0,0-5.9-1.7-11.1-1.6c0,0-4.6,40.5-4,55.7c-1.3,4-2.8,7.7-2.8,11.6
							c0.2,12.6,2.9,33.5,2.9,33.5c4.1,2.8,8.1,0,8.1,0C346.2,158.8,343.9,158.7,344.5,151.2z"/>
						<path id="XMLID_423_" class="st14" d="M330,136.7c-3.6,7.8-5.7,9.1-5.9,29.4c-0.1,20.4,1.7,31.5,1.7,31.5s6.2,4.5,19,3.4
							c12.9-1.1,16.6-5.4,16.6-5.4s0.1-44-1.4-52.8L330,136.7z"/>
						<path id="XMLID_415_" class="st16" d="M348.8,90.6c0,0,3.7-0.6,7,3.5c3.1,3.8,8.5,10.9,7.8,16.2c-0.5,4.1-4.2,7.1-4.2,7.1
							l0.7,26.4c0,0-19.3,13.3-32-1.1c0.4-3.9,6.2-15.4,6.1-18.2c-0.2-4.3-5.4-15.4-7.5-21c-1.4-3.8-0.9-6.5,5.5-9.4
							C343.2,89.1,348.8,90.6,348.8,90.6z"/>
						<path id="XMLID_414_" class="st17" d="M356.5,83.9c-0.2,0.2-0.5,0.3-0.8,0.4h0c-2.7,1.3-6.8,1-6.8,1l0,7
							c2.1,6.2,2.9,10.9,0,9.9c0,0-7.9-3.9-10.6-10.6c0.2-7.6-0.1-10.4-0.1-10.4s-4.1-2.4-4.1-8.1s-0.9-14.4,10.6-15.3
							c11.5-0.9,14.5-0.4,14.5-0.4l0.8,5C363,72.9,359.1,82.1,356.5,83.9z"/>
					</g>
				</g>
				<path id="XMLID_411_" class="st18" d="M338.4,85.1c-0.1-1-1.5-2.2-1.9-2.5c-0.9-0.9-1.8-1.9-2.4-3.1c-1-1.7-1.8-3.5-2.1-5.4
					c-0.4-2-0.7-4.2-0.6-6.3c0.3-5.5,2.2-11.4,7.4-13.7c0.1,0,0.2-0.1,0.3-0.1c9.4-3.8,16.7-1.8,19.7,2.7c3,4.5,2.9,7.1,2.2,10.8
					c0,0-1.5-14.9-13.3-6.8c0,0-1.2,6-3.2,7.6c-2,1.6-1.3,5.3-1.5,5.9c-0.1,0.6-1-0.9-1.8-3.4c-0.7-2.5-3.7-3.7-4.8-1
					c-1.1,2.5,0.3,5.2,2.2,6.2c1.2,0.7,1.7,1.2,1.4,2.6C339.5,80.8,339,82.9,338.4,85.1z"/>
				<path id="XMLID_403_" class="st17" d="M346.5,157.4c-1.6-1.4-3.8-1.6-5.4-2.9c-1-0.8-1.9-1.8-2.8-2.7
					c-2.3-2.5-11.9-10.7-14.8-15.2c-1.9-3.1-2.2-5.4-2.1-8.9c0.2-5.6,0.8-11,1.5-16.5c0.5-4.5,1.3-9.4,4.2-13.1
					c0.7-0.9,1.6-1.6,2.8-1.7c3.6-0.3,4.4,4.9,2.1,16.1c-0.6,3.2-1.1,6.4-1.4,11.2c-0.2,3.3-0.4,5,1,7.9c0.9,1.9,2,3.8,3.2,5.4
					c2.9,3.7,6.2,7.3,9.9,10.2c4.3,3.4,9.7,6.2,12.4,11.3c0.3,0.5,0.5,1,0.4,1.6c-0.3,2-2.8,2.1-4.4,1.8
					C350.6,161.2,348.4,159.1,346.5,157.4z"/>
			</g>
			<path id="XMLID_384_" class="st19" d="M355.8,84.3c-2.7,1.3-6.8,1-6.8,1c-7.4-1.6-7.7-5.8-5.6-4.4
				C346,82.7,351.8,84.7,355.8,84.3z"/>
			<path id="XMLID_383_" class="st19" d="M355.3,74.5c2.4-1.2,4-1.6,4-0.9c0.1,0.8,0.1,1.3-1.5,1.4
				C356.3,75.2,354.1,75.2,355.3,74.5z"/>
			<path id="XMLID_379_" class="st19" d="M337.2,70.6c0.2-0.9,1.7-1.5,2.4-0.6c0.8,0.8,0.9,2.4,0.9,2.4s-0.7,0-1.1,0.8
				c-0.4,0.8,0.6,1.4,0.6,1.4s-1.5-0.1-1.5-1.4c0-1.3,1.2-1.3,1.2-1.3S338.9,69.3,337.2,70.6z"/>
			<path id="XMLID_363_" class="st17" d="M362.2,114.2c-0.1,0.4,1.8,13.3,2.9,18.7c1.1,5.6-7.2,20.8-11.4,24.2c0,0-4.4-1.9-4.5-4.1
				c-0.1-2.2,2.5-4.2,5.7-9.9c5.9-10.6,4.8-18.5,4.8-18.5l-0.2-7.1C360.4,116.6,361.3,115.6,362.2,114.2z"/>
		</g>
		<g id="XMLID_351_">
			<g id="XMLID_511_">
				<g id="XMLID_775_">
					<g id="XMLID_785_">
						<g id="XMLID_794_" class="st1">
							<path id="XMLID_19_" class="st2" d="M312.6,307.1c-15.5,9-37.6,10.8-49.2,4.1c-11.6-6.7-8.5-19.4,7-28.4
								c15.5-9,37.6-10.8,49.2-4.1C331.3,285.4,328.1,298.1,312.6,307.1z"/>
						</g>
						<path id="XMLID_443_" class="st14" d="M290.8,277.5c0,0-1.6,7.5-0.7,9.5c0.9,2,10,5.5,15.6,7.3c5.6,1.8,18.6-3.1,11.1-6.7
							c-8.8-4.2-17-11.1-16.5-10.7L290.8,277.5z"/>
						<path id="XMLID_442_" class="st14" d="M266.8,289.7c0,0-2,7.4-1.2,9.5c0.8,2,9.6,6.1,15.1,8.3c5.5,2.2,18.8-2,11.5-6
							c-8.5-4.8-16.3-12.1-15.8-11.7L266.8,289.7z"/>
						<g id="XMLID_787_">
							<g id="XMLID_79_">
								<path id="XMLID_350_" class="st17" d="M297.2,190.6c0.6,6,0.8,11.8,2.1,15.2c1.3,3.4,3,5.4,4.8,4.4c1.9-1,3.2-3.9,3-5.3
									c-0.2-1.4-1.3-5.7-1.4-6.6c1.5,1.5,2.6,3.2,3.7,2.4c1.1-0.8-2.3-4.9-3.3-7.9c-0.7-1.9-0.8-3.7-0.8-3.7L297.2,190.6z"/>
								<path id="XMLID_349_" class="st16" d="M292.6,129.7c-1.1,4-0.9,17.8-1.2,28.9c-0.3,11,5.6,35.2,5.6,35.2s7.8-1.4,9.6-2.1
									c0,0-3.9-26.8-3.7-30.7c0.2-3.9-0.8-16.4-0.7-20.5C302.5,131.8,294.6,122.2,292.6,129.7z"/>
							</g>
							<path id="XMLID_438_" class="st15" d="M302.2,177.6c0,0-6.5,0-12.3-0.5l-20.6-1.7c-4.3,35.4-2.8,115-2.5,116.2
								c3.6,3.1,9.5,1.7,9.6-1.9c0-3.6,8.9-78.6,9.6-82.2c0,0,2.1,32.7,3.3,49.7c0.9,12.6,1.4,21,1.4,21c6.1,4.2,9.6-1.2,9.6-1.2
								S303.3,193.2,302.2,177.6z"/>
							<path id="XMLID_790_" class="st15" d="M290,123.7c0,0,3.3,0.6,6.8,4c3.7,3.7,5.3,8.6,5.6,19.6c0.2,10.9-0.2,30.4-0.2,30.4
								s-20.2,12.1-32.9-2.2c-0.4-6-0.3-12.6-0.4-15.5c-0.2-4.3-1-15.2-1.2-22.2c-0.1-4.1,0-5.9,5.8-10
								C281.7,122.1,290,123.7,290,123.7z"/>
							<path id="XMLID_437_" class="st20" d="M293.4,132.4c0,0,2.7,11.5,3.5,28.4c0.8,16.9,0,30.4,0,30.4s5-0.1,6.2-2
								c0,0,0.1-14.5,0-23c-0.1-15.9,1.9-32.3-4.2-37.7c-3.4-2.9-8.5-5.1-8.5-5.1L293.4,132.4z"/>
							<path id="XMLID_436_" class="st20" d="M275.7,125.2c0,0,10.6,6.2,11.6,13.6c1,7.4,2,27.7,1.6,39.2
								c-0.5,11.5-0.8,14.8-0.8,14.8H276l-0.4-9.2l-1.4,8.6l-7.4-4.1c0,0,3-17.4,2.2-23.3c-0.8-6-2.9-29.7-3.1-32.5
								C265.6,129.6,275.7,125.2,275.7,125.2z"/>
							<path id="XMLID_788_" class="st17" d="M301.2,96.7c3,10.4-1,19.6-3.5,21.4c-2.6,1.8-7.6,1.4-7.6,1.4l0,7
								c3.1,5.7,2.5,9.5-0.4,8.5c0,0-8-3.8-10.2-7.2c0.2-7.6,0-9.9,0-9.9s-4.1-3.1-4.1-8.8c0-5.8-1-16,10.5-16.9
								c11.5-0.9,14.5-0.4,14.5-0.4L301.2,96.7z"/>
						</g>
					</g>
				</g>
				<path id="XMLID_784_" class="st15" d="M291.5,134.7c0,0,2.7,0.9,4.2,2.8c0,0,0.3-4.4-2.1-8.3c0,0-0.1-6.1-3.6-7.2l0,4.5
					C290,126.5,291.6,128.4,291.5,134.7z"/>
				<path id="XMLID_799_" class="st15" d="M279.6,113.3v7c0,0-1.6-3.6-2.9-6c-2.3-4.1-3.4-7.7-3.6-15.1C273,91.8,275.9,88,284,86.9
					c3.4-0.5,6.8-0.9,10.2-0.4c3.3,0.5,6.4,1.5,9.4,2.8c0.7,0.3,1.5,0.6,1.8,1.3c1.3,2.6-2.5,4.7-4.4,5.4
					c-8.4,3.1-14.8-0.8-14.8-0.8s0.3,3.2-2.2,5.6c-2.5,2.4-1.8,6.5-1.8,6.5s-1.5-0.8-2.1-3.4c-0.6-2.6-3.6-2.1-4.2,0.5
					c-0.7,2.5,1.5,6.4,3.4,5.8C279.4,110,279.6,111.3,279.6,113.3z"/>
				<path id="XMLID_559_" class="st15" d="M279.5,122c0,0,5.2,10,12,13c0,0-6.5,1.4-6.9,3.5c0,0-2.4-3-2.4-6.7l-8-5.8
					C274.2,125.9,275.8,122,279.5,122z"/>
			</g>
			<path id="XMLID_435_" class="st19" d="M296.9,118.5c-2.7,1.3-6.8,1-6.8,1c-7.4-1.6-6.9-5.5-6.8-6.5c0.8,1.8,3.4,4.1,5.1,4.7
				C291,118.6,294.4,118.7,296.9,118.5z"/>
			<path id="XMLID_418_" class="st19" d="M296.5,108.7c2.4-1.2,4-1.6,4-0.9c0.1,0.8,0.1,1.3-1.5,1.4
				C297.4,109.4,295.2,109.3,296.5,108.7z"/>
			<path id="XMLID_439_" class="st17" d="M262.9,194.6c0.2,6,0.1,11.8,1.2,15.3c1.1,3.5,2.6,5.5,4.6,4.7c1.9-0.9,3.4-3.7,3.3-5.1
				c-0.1-1.4-1-5.7-1-6.7c1.4,1.6,2.4,3.4,3.6,2.6c1.1-0.7-2-5.1-2.8-8.1c-0.6-2-0.6-3.8-0.6-3.8L262.9,194.6z"/>
			<path id="XMLID_440_" class="st16" d="M265.9,130.2c-2.7,3.1-5.9,21.1-6.9,32.1c-1,11,3.4,35.5,3.4,35.5s7.8-0.9,9.7-1.6
				c0,0-2.2-27-1.8-30.9c0.5-3.8,3-20.9,3.8-25C275.7,133.2,272.4,122.9,265.9,130.2z"/>
		</g>
		<g id="XMLID_7_">
			<g id="XMLID_147_">
				<g id="XMLID_369_" class="st1">
					<polygon id="XMLID_18_" class="st2" points="221.2,375.5 295,418.2 495.4,302.5 421.6,259.8 					"/>
				</g>
				<g id="XMLID_546_">
					<polygon id="XMLID_542_" class="st21" points="231.7,366.1 292.8,401.4 482.7,291.8 421.5,256.5 					"/>
					<polygon id="XMLID_78_" class="st22" points="244.6,325.2 244.6,366.1 292.8,394 292.8,353.1 					"/>
					<polygon id="XMLID_489_" class="st23" points="292.8,394 469.5,291.9 469.5,251 292.8,353.1 					"/>
					<polygon id="XMLID_110_" class="st23" points="292.8,349.4 481,240.7 419.9,205.4 231.7,314.1 					"/>
					<polygon id="XMLID_307_" class="st24" points="481,240.7 481,248.1 292.8,356.8 292.8,349.4 					"/>
					<polygon id="XMLID_77_" class="st25" points="231.7,314.1 292.8,349.4 292.8,356.8 231.7,321.5 					"/>
					<path id="XMLID_543_" class="st25" d="M292.8,394c0,0,5.6-15.7,11.3-24.2c7.5-11.1,18.7-20.6,45.1-37.2
						c26.4-16.6,120.4-77.9,120.4-77.9l-176.7,102L292.8,394z"/>
					<polygon id="XMLID_544_" class="st24" points="482.7,291.8 482.7,299.2 292.8,408.8 292.8,401.4 					"/>
					<polygon id="XMLID_545_" class="st25" points="231.7,366.1 292.8,401.4 292.8,408.8 231.7,373.5 					"/>
				</g>
				<g id="XMLID_55_">
					<g id="XMLID_407_">
						<path id="XMLID_410_" class="st26" d="M238.1,308.5l-0.1,2.8c0,1.7,0.9,3.3,2.3,4.1l50.1,28.9c1.4,0.8,3.2,0.8,4.6,0
							L473.8,241c1.4-0.8,2.3-2.4,2.3-4v-2.9L238.1,308.5z"/>
						<path id="XMLID_406_" class="st27" d="M422.9,201.5l51.6,29.8c2.2,1.3,2.2,4.4,0,5.7L294.2,341.1c-0.9,0.5-1.9,0.5-2.8,0
							l-51.9-29.9c-2.1-1.2-2.1-4.2,0-5.4l180.6-104.3C421,201,422.1,201,422.9,201.5z"/>
						<path id="XMLID_409_" class="st28" d="M292.8,330.8L292.8,330.8l-51.9-27.9v3.1c0,1.4,0.7,2.7,1.9,3.4l48.4,28
							c0.9,0.5,2,0.5,2.9,0L471.6,235c0.9-0.5,1.4-1.4,1.4-2.5v-3.9L292.8,330.8z"/>
						<path id="XMLID_405_" class="st29" d="M242.4,305.4l47.6,27.5c1.7,1,3.9,1,5.6,0l175.7-101.5c2.2-1.3,2.2-4.4,0-5.6L421.5,197
							L242.4,300.5C240.5,301.5,240.5,304.3,242.4,305.4z"/>
						<polygon id="XMLID_404_" class="st5" points="292.8,330.8 469.8,228.6 469.8,198.9 292.8,301.1 						"/>
						<polygon id="XMLID_356_" class="st9" points="244.6,273.2 244.6,302.9 292.8,330.8 292.8,301.1 						"/>
						<g id="XMLID_354_">
							<path id="XMLID_76_" class="st28" d="M241.4,271.3v1.7c0,1.3,0.7,2.4,1.8,3l48.3,27.9c0.9,0.5,2,0.5,2.8,0l176.7-102
								c1.3-0.7,2.1-2.1,2.1-3.6V197L241.4,271.3z"/>
							<path id="XMLID_75_" class="st26" d="M294.9,299.8l179.3-103.5c0.6-0.3,0.9-0.7,0.9-1.2c0-0.5,0-3.7,0-3.7l-51.4-26.7
								c-1.1-0.7-3-0.7-4.1,0l-180.2,101c0,0,0,3.3,0,3.7c0,0.4,0.3,0.9,0.9,1.2l50.6,29.2C291.9,300.5,293.7,300.5,294.9,299.8z"/>
							<path id="XMLID_74_" class="st27" d="M294.9,296.2l179.3-103.5c1.1-0.7,1.1-1.7,0-2.4L423.6,161c-1.1-0.7-3-0.7-4.1,0
								L240.2,264.6c-1.1,0.7-1.1,1.7,0,2.4l50.6,29.2C291.9,296.8,293.7,296.8,294.9,296.2z"/>
							<polygon id="XMLID_73_" class="st9" points="247.7,260.2 243.7,265.3 292.8,293.6 292.8,286.2 							"/>
							<polygon id="XMLID_72_" class="st5" points="292.8,293.6 471,190.8 466.6,185.9 292.8,286.2 							"/>
							<polygon id="XMLID_71_" class="st8" points="247.7,260.2 421.5,159.8 466.6,185.9 292.8,286.2 							"/>
						</g>
						<path id="XMLID_355_" class="st30" d="M247.7,260.2c0,0,21,9.2,33.8,13.9c3.3,1.2,14.8,4.2,29-2.8
							c43-21.4,114.2-61.3,114.2-61.3l-131.9,76.2L247.7,260.2z"/>
					</g>
					<g id="XMLID_66_">
						<path id="XMLID_446_" class="st31" d="M370.7,274.6l-56.9,32.9l-7.8,4.5c-2.2,1.3-4.3-1.2-1.1-3l8.2-4.7l56.7-32.7
							C370.8,270.9,371.7,274.1,370.7,274.6z"/>
						<path id="XMLID_444_" class="st32" d="M313.8,307.5l-7.8,4.5c-2.2,1.3-4.3-1.2-1.1-3l8.2-4.7c0.2,0,0.8,0,1.2,1
							C314.6,306.2,314.4,307.1,313.8,307.5z"/>
						<g id="XMLID_465_">
							<polygon id="XMLID_464_" class="st32" points="325,294.7 325,305.9 326.9,304.8 326.9,293.6 							"/>
							<path id="XMLID_476_" class="st33" d="M325,294.7v11.1l-1.9-1.1v-2.6c0.3-0.2,0.6-0.4,1-0.5c0.9-0.5,0.3-3.9-0.4-3.5
								c-0.1,0-0.3,0.2-0.6,0.3v-4.8L325,294.7z"/>
							<polygon id="XMLID_469_" class="st34" points="325,292.5 323.1,293.6 325,294.7 326.9,293.6 							"/>
						</g>
						<g id="XMLID_67_">
							<polygon id="XMLID_70_" class="st32" points="353.9,278 353.9,289.2 355.8,288.1 355.8,276.9 							"/>
							<path id="XMLID_69_" class="st33" d="M353.9,278v11.1l-1.9-1.1v-2.6c0.3-0.2,0.6-0.4,1-0.5c0.9-0.5,0.3-3.9-0.4-3.5
								c-0.1,0-0.3,0.2-0.6,0.3v-4.8L353.9,278z"/>
							<polygon id="XMLID_68_" class="st34" points="353.9,275.8 352.1,276.9 353.9,278 355.8,276.9 							"/>
						</g>
					</g>
					<g id="XMLID_56_">
						<path id="XMLID_65_" class="st31" d="M393.7,257.7l56.9-32.9l7.8-4.5c2.2-1.3,4.3,1.2,1.1,3l-8.2,4.7l-56.7,32.7
							C393.7,261.4,392.8,258.2,393.7,257.7z"/>
						<path id="XMLID_64_" class="st32" d="M450.7,224.8l7.8-4.5c2.2-1.3,4.3,1.2,1.1,3l-8.2,4.7c0.4-0.4,0.6-0.9,0.5-1.9
							C451.8,225,451,224.7,450.7,224.8z"/>
						<g id="XMLID_60_">
							<polygon id="XMLID_63_" class="st32" points="414.8,242.9 414.8,254.1 416.7,253 416.7,241.8 							"/>
							<path id="XMLID_62_" class="st33" d="M414.8,242.9v11.1l-1.9-1.1v-2.6c0.3-0.2,0.6-0.4,1-0.5c0.9-0.5,0.3-3.9-0.4-3.5
								c-0.1,0-0.3,0.2-0.6,0.3v-4.8L414.8,242.9z"/>
							<polygon id="XMLID_61_" class="st34" points="414.8,240.7 412.9,241.8 414.8,242.9 416.7,241.8 							"/>
						</g>
						<g id="XMLID_57_">
							<polygon id="XMLID_59_" class="st32" points="443.7,226.2 443.7,237.3 445.6,236.2 445.6,225.1 							"/>
							<path id="XMLID_58_" class="st33" d="M443.7,226.2v11.1l-1.9-1.1v-2.6c0.3-0.2,0.6-0.4,1-0.5c0.9-0.5,0.3-3.9-0.4-3.5
								c-0.1,0-0.3,0.2-0.6,0.3v-4.8L443.7,226.2z"/>
							<polygon id="XMLID_105_" class="st34" points="443.7,224 441.8,225.1 443.7,226.2 445.6,225.1 							"/>
						</g>
					</g>
				</g>
			</g>
			<g id="XMLID_8_">
				<path id="XMLID_130_" class="st9" d="M442.3,192.2c0-1.2-0.7-2.2-1.6-2.7c0-0.1,0-0.2,0-0.3c0.6-0.9,0.9-1.9,0.9-3
					c0-3-2.4-5.4-5.4-5.4c0,0,0,0,0,0c0-0.1,0-0.2,0-0.3c0-1.7-1.4-3.1-3.1-3.1c-1,0-1.8,0.5-2.4,1.2c-0.2-0.1-0.3-0.1-0.5-0.2
					c-0.1-2.9-2.5-5.1-5.3-5.1c-1.7,0-3.1,0.8-4.1,1.9c-1-1.2-2.4-1.9-4.1-1.9c-1.7,0-3.3,0.8-4.2,2.1c-0.4-1.3-1.5-2.2-2.9-2.2
					c-1.4,0-2.6,1-3,2.3c-0.9-0.7-2-1.1-3.2-1.1c-2.6,0-4.8,1.9-5.3,4.4c-0.2,0.1-0.4,0.2-0.6,0.3c-0.5-0.5-1.3-0.8-2.1-0.8
					c-1.7,0-3.1,1.4-3.1,3.1c0,0.4,0.1,0.8,0.2,1.1c-0.1,0.1-0.2,0.2-0.3,0.3c0,0,0,0,0,0c-3,0-5.4,2.4-5.4,5.4c0,1.2,0.4,2.2,1,3.1
					c-1.1,0.5-1.8,1.5-1.8,2.8c0,1.7,1.4,3.1,3.1,3.1c0.3,0,0.6-0.1,0.9-0.2c0,0.2-0.1,0.4-0.1,0.6c0,3,2.4,5.4,5.4,5.4
					c0.6,0,1.3-0.1,1.8-0.3c0.1,1.6,1.4,2.8,3,2.8c1.1,0,2.1-0.6,2.6-1.5c0,0,0,0,0,0c1,2.1,3.1,3.6,5.6,3.6c1.5,0,2.9-0.6,4-1.5
					c0.5,1,1.5,1.7,2.8,1.7c1.5,0,2.7-1,3-2.4c0.1,0,0.1,0,0.2,0c1,1.4,2.6,2.3,4.4,2.3c2.4,0,4.4-1.6,5.1-3.8
					c0.5,0.5,1.3,0.8,2.1,0.8c1.7,0,3-1.4,3.1-3c0.3,0.1,0.7,0.1,1.1,0.1c3,0,5.4-2.4,5.4-5.4c0-0.4,0-0.8-0.1-1.2c0,0,0,0,0-0.1
					C441.1,195.2,442.3,193.8,442.3,192.2z"/>
				<path id="XMLID_275_" class="st35" d="M441.4,190.2c0-1.2-0.7-2.2-1.6-2.7c0-0.1,0-0.2,0-0.3c0.6-0.9,0.9-1.9,0.9-3
					c0-3-2.4-5.4-5.4-5.4c0,0,0,0,0,0c0-0.1,0-0.2,0-0.3c0-1.7-1.4-3.1-3.1-3.1c-1,0-1.8,0.5-2.4,1.2c-0.2-0.1-0.3-0.1-0.5-0.2
					c-0.1-2.9-2.5-5.1-5.3-5.1c-1.7,0-3.1,0.8-4.1,1.9c-1-1.2-2.4-1.9-4.1-1.9c-1.7,0-3.3,0.8-4.2,2.1c-0.4-1.3-1.5-2.2-2.9-2.2
					c-1.4,0-2.6,1-3,2.3c-0.9-0.7-2-1.1-3.2-1.1c-2.6,0-4.8,1.9-5.3,4.4c-0.2,0.1-0.4,0.2-0.6,0.3c-0.5-0.5-1.3-0.8-2.1-0.8
					c-1.7,0-3.1,1.4-3.1,3.1c0,0.4,0.1,0.8,0.2,1.1c-0.1,0.1-0.2,0.2-0.3,0.3c0,0,0,0,0,0c-3,0-5.4,2.4-5.4,5.4c0,1.2,0.4,2.2,1,3.1
					c-1.1,0.5-1.8,1.5-1.8,2.8c0,1.7,1.4,3.1,3.1,3.1c0.3,0,0.6-0.1,0.9-0.2c0,0.2-0.1,0.4-0.1,0.6c0,3,2.4,5.4,5.4,5.4
					c0.6,0,1.3-0.1,1.8-0.3c0.1,1.6,1.4,2.8,3,2.8c1.1,0,2.1-0.6,2.6-1.5c0,0,0,0,0,0c1,2.1,3.1,3.6,5.6,3.6c1.5,0,2.9-0.6,4-1.5
					c0.5,1,1.5,1.7,2.8,1.7c1.5,0,2.7-1,3-2.4c0.1,0,0.1,0,0.2,0c1,1.4,2.6,2.3,4.4,2.3c2.4,0,4.4-1.6,5.1-3.8
					c0.5,0.5,1.3,0.8,2.1,0.8c1.7,0,3-1.4,3.1-3c0.3,0.1,0.7,0.1,1.1,0.1c3,0,5.4-2.4,5.4-5.4c0-0.4,0-0.8-0.1-1.2c0,0,0,0,0-0.1
					C440.2,193.1,441.4,191.8,441.4,190.2z"/>
				<g id="XMLID_109_">
					<path id="XMLID_111_" class="st36" d="M420.8,200.9c0.7-0.7-1.2-2.3-2.2-1.9C417.6,199.4,419.8,201.8,420.8,200.9z"/>
					<path id="XMLID_129_" class="st36" d="M421.4,201c0.6,0.8,2.5-0.8,2.2-1.9C423.3,198.1,420.6,200,421.4,201z"/>
				</g>
				<g id="XMLID_144_">
					<path id="XMLID_274_" class="st36" d="M416.2,192.4c0.7-0.7-1.2-2.3-2.2-1.9C413,191,415.3,193.4,416.2,192.4z"/>
					<path id="XMLID_145_" class="st36" d="M416.8,192.6c0.6,0.8,2.5-0.8,2.2-1.9C418.7,189.6,416,191.5,416.8,192.6z"/>
				</g>
				<g id="XMLID_318_">
					<path id="XMLID_54_" class="st36" d="M418.8,185.9c0.7-0.7-1.2-2.3-2.2-1.9C415.7,184.4,417.9,186.8,418.8,185.9z"/>
					<path id="XMLID_53_" class="st36" d="M419.4,186c0.6,0.8,2.5-0.8,2.2-1.9C421.3,183.1,418.6,184.9,419.4,186z"/>
				</g>
				<g id="XMLID_309_">
					<path id="XMLID_311_" class="st36" d="M403.5,188.2c0.7-0.7-1.2-2.3-2.2-1.9S402.6,189.1,403.5,188.2z"/>
					<path id="XMLID_310_" class="st36" d="M404.1,188.3c0.6,0.8,2.5-0.8,2.2-1.9C406,185.4,403.3,187.3,404.1,188.3z"/>
				</g>
				<g id="XMLID_312_">
					<path id="XMLID_314_" class="st36" d="M400.8,180.3c0.9-0.4-0.2-2.6-1.2-2.6C398.5,177.7,399.6,180.8,400.8,180.3z"/>
					<path id="XMLID_313_" class="st36" d="M401.4,180.6c0.2,0.9,2.6,0.2,2.7-0.9C404.2,178.7,401,179.4,401.4,180.6z"/>
				</g>
				<g id="XMLID_302_">
					<path id="XMLID_304_" class="st36" d="M397.6,196.4c0.5-0.8-1.6-2-2.5-1.4C394.2,195.6,396.9,197.5,397.6,196.4z"/>
					<path id="XMLID_303_" class="st36" d="M398.2,196.3c0.7,0.6,2.2-1.3,1.7-2.3C399.4,193.1,397.2,195.5,398.2,196.3z"/>
				</g>
				<g id="XMLID_305_">
					<path id="XMLID_308_" class="st36" d="M392.1,187.4c0.9-0.3-0.1-2.6-1.2-2.6C389.8,184.8,390.8,187.9,392.1,187.4z"/>
					<path id="XMLID_306_" class="st36" d="M392.6,187.8c0.2,0.9,2.6,0.3,2.8-0.8C395.5,185.9,392.3,186.5,392.6,187.8z"/>
				</g>
				<g id="XMLID_132_">
					<path id="XMLID_134_" class="st36" d="M432.1,197.5c0.4-0.9-2-1.7-2.7-0.9C428.6,197.4,431.6,198.7,432.1,197.5z"/>
					<path id="XMLID_133_" class="st36" d="M432.7,197.3c0.8,0.5,2-1.7,1.3-2.6C433.3,193.9,431.6,196.7,432.7,197.3z"/>
				</g>
				<g id="XMLID_135_">
					<path id="XMLID_137_" class="st36" d="M431.7,187.3c0.8-0.5-0.6-2.5-1.7-2.3C429,185.2,430.6,188,431.7,187.3z"/>
					<path id="XMLID_136_" class="st36" d="M432.3,187.6c0.4,0.9,2.6-0.3,2.5-1.4C434.8,185.1,431.8,186.4,432.3,187.6z"/>
				</g>
				<g id="XMLID_141_">
					<path id="XMLID_143_" class="st36" d="M409.6,201c0.6-0.7-1.3-2.2-2.3-1.7C406.4,199.8,408.8,202,409.6,201z"/>
					<path id="XMLID_142_" class="st36" d="M410.3,201.1c0.6,0.7,2.4-1,2-2C411.9,198.1,409.4,200.1,410.3,201.1z"/>
				</g>
				<g id="XMLID_138_">
					<path id="XMLID_140_" class="st36" d="M426.9,179.7c0.8-0.5-0.6-2.5-1.7-2.3C424.2,177.6,425.8,180.4,426.9,179.7z"/>
					<path id="XMLID_139_" class="st36" d="M427.5,179.9c0.4,0.9,2.6-0.3,2.5-1.4C430,177.5,427,178.7,427.5,179.9z"/>
				</g>
				<g id="XMLID_315_">
					<path id="XMLID_317_" class="st36" d="M412.9,178.4c0.6-0.7-1.5-2.2-2.4-1.6C409.6,177.3,412.1,179.4,412.9,178.4z"/>
					<path id="XMLID_316_" class="st36" d="M413.5,178.4c0.7,0.7,2.4-1.1,1.9-2.1C415,175.3,412.6,177.5,413.5,178.4z"/>
				</g>
				<path id="XMLID_131_" class="st37" d="M423.2,191.2c-0.3,0.7,1.2,4.4,2.8,3.9c1.6-0.4,0.9-2.2,0.9-2.2s1.8,0,1.4-1.7
					C428,189.5,423.5,190.3,423.2,191.2z"/>
				<path id="XMLID_52_" class="st37" d="M405.6,194.5c-0.7-0.4-4.5,0.4-4.4,2.1c0.1,1.7,2,1.3,2,1.3s-0.3,1.8,1.4,1.7
					C406.4,199.5,406.4,195,405.6,194.5z"/>
				<path id="XMLID_51_" class="st37" d="M423.8,184.6c0.4,0.5,3.7,0.9,4-0.5c0.3-1.4-1.3-1.6-1.3-1.6s0.7-1.4-0.7-1.7
					C424.5,180.4,423.3,184,423.8,184.6z"/>
				<path id="XMLID_50_" class="st37" d="M398.3,184.6c0.5-0.3,1.2-3,0.1-3.5c-1.1-0.5-1.5,0.9-1.5,0.9s-1.1-0.8-1.6,0.4
					C394.8,183.5,397.8,185,398.3,184.6z"/>
				<path id="XMLID_49_" class="st37" d="M435.1,192.4c0.5,0.1,3-1.2,2.6-2.3c-0.4-1.1-1.7-0.5-1.7-0.5s-0.2-1.3-1.3-0.9
					C433.6,189,434.5,192.2,435.1,192.4z"/>
				<path id="XMLID_48_" class="st37" d="M433.2,183.1c0.5,0.1,2.7-1,2.3-2c-0.4-1-1.5-0.4-1.5-0.4s-0.1-1.1-1.2-0.8
					C431.8,180.2,432.6,183,433.2,183.1z"/>
				<path id="XMLID_47_" class="st37" d="M407.9,178.7c0.7-0.4,1.8-4.5,0.1-5.2c-1.7-0.7-2.2,1.3-2.2,1.3s-1.6-1.1-2.3,0.5
					C402.7,177,407,179.2,407.9,178.7z"/>
				<path id="XMLID_46_" class="st37" d="M419.6,178.9c0.6,0.1,3.5-1.6,2.9-2.9c-0.6-1.3-2-0.5-2-0.5s-0.3-1.5-1.6-1
					C417.6,175.1,418.9,178.7,419.6,178.9z"/>
				<path id="XMLID_45_" class="st37" d="M415,194.6c-0.5,0.4-0.7,3.7,0.7,4c1.4,0.3,1.5-1.4,1.5-1.4s1.4,0.6,1.7-0.8
					C419.2,195.1,415.6,194,415,194.6z"/>
				<path id="XMLID_44_" class="st37" d="M411.4,188.3c0.6-0.2,2.1-3.2,0.9-4c-1.2-0.8-1.9,0.7-1.9,0.7s-1-1.1-1.9,0
					C407.7,186.2,410.7,188.6,411.4,188.3z"/>
				<path id="XMLID_43_" class="st37" d="M394.4,190.4c-0.4-0.5-3.6-1.1-4.1,0.2s1.2,1.7,1.2,1.7s-0.8,1.3,0.6,1.8
					C393.4,194.5,394.9,191,394.4,190.4z"/>
				<circle id="XMLID_42_" class="st37" cx="409.9" cy="195.5" r="0.9"/>
				<circle id="XMLID_41_" class="st37" cx="421.7" cy="187.9" r="0.9"/>
				<circle id="XMLID_40_" class="st37" cx="413" cy="181.4" r="0.9"/>
				<circle id="XMLID_39_" class="st37" cx="398.5" cy="189.3" r="0.9"/>
				<circle id="XMLID_38_" class="st37" cx="427.2" cy="198.8" r="0.5"/>
				<circle id="XMLID_4_" class="st37" cx="416" cy="202.2" r="0.5"/>
				<circle id="XMLID_3_" class="st37" cx="400.9" cy="200.2" r="0.5"/>
				<circle id="XMLID_34_" class="st37" cx="394.9" cy="179.4" r="0.5"/>
				<circle id="XMLID_2_" class="st37" cx="406.4" cy="181.9" r="0.5"/>
				<circle id="XMLID_32_" class="st37" cx="406.6" cy="191.1" r="0.5"/>
				<circle id="XMLID_31_" class="st37" cx="419" cy="181.4" r="0.5"/>
				<circle id="XMLID_30_" class="st37" cx="425.7" cy="174.8" r="0.5"/>
				<circle id="XMLID_35_" class="st37" cx="389.3" cy="188.3" r="0.5"/>
			</g>
		</g>
	</g>
</g>
<text id="XMLID_1_" transform="matrix(1 0 0 1 150.598 469.5088)"><tspan x="0" y="0" class="st38 st39 st40">Your life got a 404,</tspan><tspan x="74.3" y="72" class="st38 st39 st40"> you´re fired!</tspan></text>
<g id="XMLID_154_">
	<linearGradient id="XMLID_10_" gradientUnits="userSpaceOnUse" x1="454.8942" y1="705.7356" x2="385.8289" y2="665.5649">
		<stop  offset="0" style="stop-color:#9A5CFF"/>
		<stop  offset="1" style="stop-color:#5577FF"/>
	</linearGradient>
	<path id="XMLID_152_" class="st41" d="M445.3,679H288.6c-4.2,0-7.5-3.4-7.5-7.5v-33.7c0-4.2,3.4-7.5,7.5-7.5h156.7
		c4.2,0,7.5,3.4,7.5,7.5v33.7C452.8,675.6,449.4,679,445.3,679z"/>
	<text id="XMLID_33_" transform="matrix(1 0 0 1 318.4533 659.2224)" class="st42 st39 st43">Continue!</text>
</g>
<text id="XMLID_36_" transform="matrix(1 0 0 1 240.1755 591.4449)" class="st44 st39 st43">The bug ruined your system</text>
</svg>
