<?xml version="1.0" encoding="utf-8"?>
<!-- Generator: Adobe Illustrator 19.0.0, SVG Export Plug-In . SVG Version: 6.00 Build 0)  -->
<svg version="1.1" id="Layer_1" xmlns="http://www.w3.org/2000/svg" xmlns:xlink="http://www.w3.org/1999/xlink" x="0px" y="0px"
	 viewBox="0 0 100 100" style="enable-background:new 0 0 100 100;" xml:space="preserve">
<style type="text/css">
	.st0{fill:none;}
	.st1{fill:#EFB853;}
	.st2{fill:#B94F27;}
	.st3{fill:#FEE990;}
	.st4{display:none;}
	.st5{display:inline;}
	.st6{fill:url(#XMLID_13_);}
	.st7{fill:url(#XMLID_14_);}
	.st8{fill:url(#XMLID_16_);}
	.st9{fill:#FD781D;}
	.st10{fill:none;stroke:#2000E7;stroke-width:0.1497;stroke-miterlimit:10;}
	.st11{fill:#DC2227;}
	.st12{fill:#F8F7F5;}
	.st13{fill:#750805;}
	.st14{fill:#F9A2A1;}
	.st15{fill:#232323;}
	.st16{fill:#121212;}
	.st17{fill:#FFFFFF;}
</style>
<pattern  width="4.5" height="3" patternUnits="userSpaceOnUse" id="Motivo_nuevo_2" viewBox="0.6 -3.6 4.5 3" style="overflow:visible;">
	<g>
		<polygon class="st0" points="0.6,-3.6 5.1,-3.6 5.1,-0.6 0.6,-0.6 		"/>
		<path d="M5.7-0.7C5.7-0.4,5.5-0.1,5.2,0S4.6-0.1,4.5-0.5C4.4-0.8,4.6-1.1,5-1.2C5.3-1.2,5.6-1,5.7-0.7z"/>
		<path d="M1.2-0.7C1.2-0.4,1-0.1,0.7,0S0.1-0.1,0-0.5s0.1-0.6,0.5-0.7C0.8-1.2,1.1-1,1.2-0.7z"/>
		<path d="M5.7-3.7C5.7-3.4,5.5-3.1,5.2-3S4.6-3.1,4.5-3.5C4.4-3.8,4.6-4.1,5-4.2C5.3-4.2,5.6-4,5.7-3.7z"/>
		<path d="M3.4-2.2C3.5-1.9,3.3-1.6,3-1.5C2.6-1.4,2.3-1.6,2.3-2s0.1-0.6,0.5-0.7S3.3-2.5,3.4-2.2z"/>
		<path d="M1.2-3.7C1.2-3.4,1-3.1,0.7-3S0.1-3.1,0-3.5s0.1-0.6,0.5-0.7C0.8-4.2,1.1-4,1.2-3.7z"/>
	</g>
</pattern>
<g id="XMLID_7_">
	
		<image style="overflow:visible;opacity:0.4;" width="84" height="87" id="XMLID_3013_" xlink:href="C261E9BAC81CD246.png"  transform="matrix(1 0 0 1 38 4)">
	</image>
	<g id="XMLID_1948_">
		<g id="XMLID_2557_">
			<g id="XMLID_2558_">
				<g id="XMLID_2780_">
					<path id="XMLID_2784_" class="st1" d="M88,38.7c-0.8,0-2.1,0-20.4-17.7l-0.1-0.1l-0.1-0.1c-0.9-1-1.5-3.2,0.3-5
						c1.7-1.7,3.9-1.8,4.1-1.8l0.1,0l0.1,0c0.3,0,6.9,0.5,13,3.6c3.3,1.7,15.1,9.3,12.6,14.3l-0.2,0.3l-0.3,0.2
						c-7.2,5.9-8.5,6-9,6.1l-0.1,0L88,38.7z"/>
					<path id="XMLID_2781_" d="M71.9,15.8c0,0,6.5,0.4,12.3,3.5c5.8,3,13.2,9.2,11.9,12c0,0-6.8,5.6-8.1,5.7c0,0,0,0,0,0
						c-1.4,0-19.2-17.3-19.2-17.3s-1.1-1.3,0.2-2.6C70.3,15.9,71.9,15.8,71.9,15.8 M72,12.3l-0.2,0c-0.5,0-3.1,0.2-5.3,2.3
						c-2.4,2.3-2,5.5-0.4,7.4l0.1,0.1l0.1,0.1c18.8,18.2,20,18.2,21.6,18.2h0.2l0.2,0c0.9-0.1,2.3-0.3,9.8-6.5l0.6-0.5l0.3-0.7
						c3.7-7.6-13.2-16.6-13.4-16.6c-6.4-3.3-13.4-3.8-13.7-3.8L72,12.3L72,12.3z"/>
				</g>
				<g id="XMLID_2778_">
					<path id="XMLID_2779_" class="st2" d="M88.2,36.1c0,0,0.4-1.4,1.6-2.3c0,0-0.9-3.7,1.9-5c2.8-1.3,4.2,1.5,4.1,2.2
						c0,0-6.2,5.1-7.6,5.6C86.9,37.1,88.2,36.1,88.2,36.1z"/>
				</g>
				<g id="XMLID_2773_">
					<path id="XMLID_2777_" class="st3" d="M51.1,66.6c-0.7,0-1.3-0.3-1.6-0.8c-0.6-0.9-0.3-1.8-0.1-2.3c0-0.1,0.1-0.3,0.1-0.4
						c-0.1-0.6-0.2-1.1-0.2-1.5c-0.6-0.6-1.1-1.4-1-2.4c-0.1-0.7,0.1-1.6,0.7-2.2c0.1-0.3,0.3-0.6,0.5-1c0-1.9,0.4-2.5,0.6-2.8
						c0.1-0.2,0.3-0.4,0.4-0.6c0.2-0.3,0.4-0.5,0.5-0.8c0.5-0.8,0.8-1.6,1.1-2.4c0.4-1.3,2.1-4.5,2.5-5.3c0.9-2.1,1.4-2.8,1.8-3.1
						c0.1-0.1,0.2-0.4,0.2-0.6l0.1-0.2c0.5-1.6,0.9-2.9,1.6-3.6c0.2-0.6,0.6-1.8,0.9-2.6c0.7-2.3,1-3,1.3-3.4
						c0.1-0.2,0.4-0.8,0.6-1.2c1-2.4,1.8-3.9,2.8-4.6c0.3-0.4,1-1.9,1.4-2.7c1.2-2.5,1.7-3.6,2.8-4c0.3-0.1,0.7-0.2,1.2-0.2
						c1.6,0,4.4,0.9,5.6,1.7c0.9,0.6,1.6,0.8,1.8,0.8c0.5,0.1,0.8,0.4,1.5,0.9c0.2,0.2,0.6,0.4,0.8,0.5c1.4,0.2,2,0.9,2.3,1.5
						c0.1,0.1,0.2,0.1,0.3,0.2c0.3,0.2,0.7,0.4,1,0.8c0.2,0.2,0.4,0.5,0.6,0.8c0.1,0,0.1,0,0.2,0c1.2,0,2.1,0.3,2.8,0.8
						c0.7,0.6,1.1,1.4,1.3,2.1c0.4,0.4,0.8,1.1,1,1.9c0.5,0.6,1.4,1.8,1.7,2.2c0.5,0.2,0.8,0.6,1,1.1c0.2,0.7,0,1.4-0.6,1.9
						c-0.2,0.2-0.5,0.5-0.6,0.6c0,0.2,0,0.7,0,0.9c0,0.8,0.1,1.9-0.5,2.6c0,0.3,0.1,0.6,0.1,0.8c0.2,0.9,0,1.8-0.5,2.5
						c-0.5,0.6-1.2,1-2,1c-0.2,0-0.3,0-0.5,0c-0.5-0.1-0.9-0.3-1.2-0.6c0,0.5,0.1,1.1,0.1,1.9c0,0.5,0,1.3,0.1,1.5l0,0.1
						c0.2,0.7,0.6,2.1-0.1,3.3c-0.3,0.5-0.8,1.1-1.9,1.4c-0.2,0.1-0.5,0.1-0.7,0.1c-0.7,0-1.4-0.3-1.9-0.9c-1.1-1.3-0.9-3.6-0.8-4.4
						c-0.1,0-0.1,0-0.2,0c0,0-0.2,0-0.2,0c-0.6,0-1.1-0.2-1.5-0.5c-0.3,0.2-0.7,0.3-0.9,0.3c-0.3,0.1-0.5,0.2-0.8,0.3
						c-0.2,0.1-0.3,0.2-0.5,0.2c0.2,2.3-0.5,3.6-2.1,3.9c-0.2,0-0.4,0.1-0.5,0.1c-0.5,0-1.2-0.1-1.7-0.8c-0.5,0.6-1.3,1.3-2.4,1.5
						c-0.5,0.1-1.3,0.5-1.7,0.8c0.1,1.8-0.5,2.9-1.8,3.2c-0.1,0-0.1,0-0.2,0c0,0.1,0,0.1,0,0.2c0.3,1.1,1.1,4.5-1.9,5.2
						c-0.2,0.1-0.4,0.1-0.6,0.1c-0.7,0-1.4-0.3-1.9-0.9c-0.7-0.9-0.8-2.2-0.7-3.3c-0.3,0.2-0.7,0.3-1.1,0.4
						c-0.2,1.9-1.3,2.3-2.1,2.4c0,0-0.1,0-0.2,0c-0.2,0-0.4,0-0.6-0.1c-0.3,0.6-1,1-1.7,1.1c0,0-0.1,0-0.2,0c-0.2,0-0.6,0-1.1-0.3
						c-0.1,0.1-0.2,0.2-0.3,0.2c0,0,0,0.1,0,0.1c0,0.3-0.1,1-0.1,1.2c0,0,0,0.1,0.1,0.2c0.7,3,0.2,4.7-1.7,5.2
						C51.6,66.5,51.3,66.6,51.1,66.6z"/>
					<path id="XMLID_2774_" d="M69.3,19.7c1.3,0,3.7,0.8,4.6,1.4c1.1,0.7,1.9,0.9,2.3,1c0.4,0.1,1.9,1.4,2.4,1.4
						c0.5,0,1,0.2,1.2,0.7c0.2,0.5,1.1,0.8,1.6,1.3c0.5,0.5,0.7,1.3,1.1,1.3c0,0,0,0,0,0c0.2,0,0.5-0.1,0.9-0.1
						c0.6,0,1.3,0.1,1.7,0.4c0.8,0.6,0.7,1.6,0.7,1.6s1,0.7,1,1.7c0,0,1.8,2.3,2.1,2.7c0.3,0.4,0.6,0.4,0.6,0.4s-1,0.8-1.2,1.5
						c-0.2,0.7,0.1,2.9-0.2,3c0,0,0,0,0,0c-0.3,0-0.4-0.4-0.4-0.4s0.1,1.7,0.3,2.7c0.2,0.9-0.3,1.4-0.8,1.4c-0.1,0-0.1,0-0.2,0
						c-0.6-0.1-0.8-0.8-0.7-1.5c0.1-0.7,0-1.2-0.4-1.3c0,0,0,0,0,0c-0.4,0,0.1,2.1-0.5,2.2c0,0-0.1,0-0.1,0c-0.5,0-0.8-0.9-1.3-0.9
						c0,0,0,0-0.1,0c-0.6,0.1-0.7,1.2-0.4,1.9c0.3,0.7,0.1,3.8,0.3,4.5c0.2,0.7,0.8,2.4-0.7,2.7c-0.1,0-0.2,0-0.3,0
						c-1.2,0-1-2.6-0.9-3.4c0.1-0.9,0.3-4.6-0.6-4.7c0,0,0,0,0,0c-0.9,0-0.5,2.7-1.4,2.8c0,0,0,0-0.1,0c-0.9,0-1.1-1.5-1.1-1.5
						s0,0-0.1,0c-0.1,0-0.3,0.1-0.4,0.6C78,44,77,43.9,76,44.4c-1,0.5-1.5,1-1.5,1.2c0,0.2,0.5,2.6-0.6,2.8c-0.1,0-0.1,0-0.2,0
						c-0.9,0-0.3-1.9-0.8-1.9c0,0,0,0,0,0c-0.4,0-0.1,0.7-1.8,1.1c0,0-0.7,1.3-1.8,1.6c-1.1,0.2-3.3,1.4-3.2,2
						c0.1,0.6,0.3,1.8-0.4,2c0,0-0.1,0-0.1,0c-0.6,0-0.3-1.4-0.4-1.6c-0.1-0.1-0.2-0.3-0.4-0.3c-0.1,0-0.3,0.1-0.4,0.2
						c-0.4,0.5-0.5,2.3-0.3,3.3c0.2,1,1,3.3-0.4,3.7c-0.1,0-0.2,0-0.2,0c-1.2,0-0.8-2.5-0.7-3C62.8,55,62.9,53,62,53
						c0,0-0.1,0-0.1,0c-1,0.2-1.1,0.8-1.1,0.8s-0.2,0.9-1.8,1c-1.6,0-0.4,2.2-1.4,2.3c0,0,0,0-0.1,0c-0.8,0-0.1-1.3-0.7-1.3
						c0,0-0.1,0-0.1,0c-0.9,0.2-0.7,0.8-1.4,1c0.1,0.1,0.5,1.2-0.1,1.2c0,0,0,0,0,0c-0.6,0-0.4-0.8-0.5-0.8c0,0,0,0,0,0
						c-0.2,0-2.5,1.4-2.5,1.8c0,0.3-0.2,1.8-0.1,2.3c0.1,0.5,1,3.2-0.3,3.5c-0.1,0-0.3,0.1-0.4,0.1c-0.7,0,0.3-1.1,0.1-2
						c-0.3-1,0-2-0.3-2.2c-0.3-0.2-1-0.8-0.8-1.4c0,0-0.2-0.8,0.5-1.3c0,0,0.2-0.8,0.7-1.4c0,0-0.1-1.8,0.2-2.3c0.3-0.5,0.8-1,1-1.5
						c0.3-0.5,0.8-1.5,1.2-2.7c0.4-1.3,2.4-5,2.4-5s1-2.3,1.3-2.4c0.4-0.2,0.7-1.1,0.8-1.4c0.1-0.3,0.8-3.1,1.3-3.1
						c0.4,0,1.9-5.8,2.3-6.2c0.4-0.5,1.9-4.9,3-5.4c1-0.5,3-6.2,3.9-6.6C68.9,19.7,69.1,19.7,69.3,19.7 M69.3,16.2
						c-0.7,0-1.3,0.1-1.8,0.3c-1.7,0.7-2.5,2.3-3.7,4.9c-0.3,0.7-0.8,1.7-1.1,2.2c-1.3,1-2.1,2.7-3.2,5.1c-0.1,0.3-0.3,0.8-0.4,1
						c-0.5,0.7-0.8,1.6-1.5,3.9c-0.2,0.6-0.5,1.6-0.7,2.2c-0.9,1-1.3,2.6-1.7,4L55,40c0,0,0,0,0,0.1c-0.6,0.6-1.2,1.6-2,3.4
						c-0.6,1.1-2.2,4.1-2.6,5.5c-0.2,0.7-0.5,1.4-0.9,2c-0.1,0.1-0.3,0.4-0.4,0.6c-0.2,0.2-0.3,0.4-0.5,0.6
						c-0.3,0.4-0.8,1.2-0.9,3.3c-0.1,0.2-0.2,0.4-0.2,0.5c-0.7,1-1,2.1-0.9,3.1c-0.1,1.2,0.4,2.3,1.1,3.2c0,0.2,0,0.4,0.1,0.7
						c-0.2,0.6-0.7,2.2,0.3,3.8c0.7,1,1.8,1.6,3.1,1.6c0.4,0,0.8-0.1,1.2-0.2c1.6-0.4,3.4-1.9,3.4-4.7c0-0.7-0.1-1.4-0.2-1.9
						c0.8-0.1,1.6-0.4,2.2-1c0.1,0,0.1,0,0.2,0c0.2,0,1.1-0.1,2-0.7c0.1,0.2,0.3,0.4,0.4,0.6c0.8,1,2,1.5,3.2,1.5c0.3,0,0.7,0,1-0.1
						c2.1-0.5,3.4-2.2,3.5-4.5c0-0.5,0-1-0.1-1.5c0.9-0.6,1.6-1.7,1.8-3.2c0.1-0.1,0.3-0.1,0.4-0.1c0.8-0.2,1.5-0.6,2.1-1
						c0.5,0.2,1,0.3,1.6,0.3c0.3,0,0.6,0,0.9-0.1c1-0.2,3.2-1.1,3.5-4.4c0.1,0,0.2-0.1,0.3-0.1c0,0,0.1,0,0.1,0
						c0,1.3,0.3,2.9,1.3,4.1c0.8,1,2,1.5,3.2,1.5c0.4,0,0.7,0,1.1-0.1c1.3-0.3,2.4-1.1,3-2.2c1.1-1.9,0.5-3.8,0.2-4.7
						c0-0.1,0-0.4,0-0.6c1.3,0,2.5-0.6,3.3-1.6c0.9-1.1,1.2-2.5,0.8-4c0,0,0-0.1,0-0.1c0.2-0.5,0.4-1,0.4-1.7c0-0.4,0-0.9,0-1.3
						c0-0.1,0-0.1,0-0.2c1.1-0.9,1.5-2.3,1.1-3.7c-0.3-0.8-0.8-1.5-1.5-1.9c-0.3-0.4-0.8-1-1.2-1.6c-0.2-0.7-0.6-1.4-1-2
						c-0.3-0.9-0.8-1.9-1.8-2.7c-0.8-0.7-1.9-1-3.2-1.2c-0.1-0.1-0.2-0.2-0.3-0.3c-0.4-0.4-0.9-0.7-1.2-1c-0.7-1-1.7-1.7-3-1.9
						c-0.1-0.1-0.3-0.2-0.4-0.3c-0.7-0.5-1.3-0.9-2.1-1.1c-0.2,0-0.6-0.2-1.3-0.6C74.4,17.2,71.3,16.2,69.3,16.2L69.3,16.2z"/>
				</g>
				<g id="XMLID_2766_" class="st4">
					<g id="XMLID_2771_" class="st5">
						<pattern  id="XMLID_13_" xlink:href="#Motivo_nuevo_2" patternTransform="matrix(1 0 0 1 -2 -2)">
						</pattern>
						<path id="XMLID_2772_" class="st6" d="M51.7,54.4c0.4-0.4,1.1-1.2,1.8-2.4c0.7-1.2,3.5-4.3,3.5-4.3s1.5-2,1.9-2.1
							c0.4-0.1,0.9-0.9,1.1-1.2c0.2-0.3,1.5-2.8,1.9-2.7c0.4,0.1,3.1-5.2,3.7-5.5c0.5-0.4,3-4.3,4.2-4.6s4.3-5.4,5.3-5.5
							c1-0.1,3.8,1.6,4.7,2.5c0.9,0.9,1.6,1.3,2,1.5c0.4,0.2,1.5,1.8,2,1.9c0.4,0.1,0.9,0.4,1,0.9c0.1,0.5,0.8,1,1.2,1.6
							c0.4,0.6,0.4,1.5,0.8,1.5c0.2,0,0.8,0.1,1.3,0.3c0-0.5,0-1,0.1-1.3c0.2-0.7,1.2-1.5,1.2-1.5s-0.3,0-0.6-0.4
							c-0.3-0.4-2.1-2.7-2.1-2.7c0-1.1-1-1.7-1-1.7s0.1-1-0.7-1.6c-0.8-0.6-2.2-0.4-2.6-0.4c-0.4,0-0.6-0.8-1.1-1.3
							c-0.5-0.5-1.3-0.8-1.6-1.3c-0.2-0.5-0.7-0.6-1.2-0.7c-0.5,0-2-1.3-2.4-1.4c-0.4-0.1-1.2-0.4-2.3-1c-1.1-0.7-4.2-1.7-5.1-1.3
							c-0.9,0.4-2.8,6.1-3.9,6.6c-1,0.5-2.5,4.9-3,5.4C61.4,32.2,60,38,59.5,38c-0.4,0-1.2,2.8-1.3,3.1c-0.1,0.3-0.5,1.3-0.8,1.4
							c-0.4,0.2-1.3,2.4-1.3,2.4s-2,3.8-2.4,5c-0.4,1.3-1,2.3-1.2,2.7c-0.3,0.5-0.7,1-1,1.5c-0.1,0.1-0.1,0.3-0.2,0.6
							C51.4,54.7,51.6,54.5,51.7,54.4z"/>
					</g>
					<g id="XMLID_2769_" class="st5">
						<pattern  id="XMLID_14_" xlink:href="#Motivo_nuevo_2" patternTransform="matrix(1 0 0 1 -2 -2)">
						</pattern>
						<path id="XMLID_2770_" class="st7" d="M51.9,59.3c-0.5,0.2-1.3,0.4-1.7,0.7c0.2,0.3,0.5,0.5,0.7,0.6c0.3,0.2,0.1,1.1,0.3,2.2
							c0.3,1-1.1,2.3,0.2,2c1.3-0.3,0.4-3,0.3-3.5C51.7,60.8,51.8,59.9,51.9,59.3z"/>
					</g>
					<g id="XMLID_2767_" class="st5">
						<pattern  id="XMLID_16_" xlink:href="#Motivo_nuevo_2" patternTransform="matrix(1 0 0 1 -2 -2)">
						</pattern>
						<path id="XMLID_2768_" class="st8" d="M64.2,56.1c-0.1-0.2-0.3-0.6-0.8-0.2c-0.3,0.2-0.7,1.1-0.9,2c0.1,0.4,0.4,0.7,0.9,0.6
							c0.4-0.1,0.6-0.4,0.8-0.7C63.7,57.7,64.3,56.3,64.2,56.1z"/>
					</g>
				</g>
				<g id="XMLID_2764_">
					<path id="XMLID_2765_" class="st9" d="M53.8,56.5c0,0-0.1-0.3-0.1-0.5c0-0.2,0-0.4,0.1-0.5c0.1-0.1,0.3,0,0.5,0.2
						c0.2,0.1,0.4,0.4,0.4,0.4s0.1,0.3,0.1,0.5c0,0.2,0,0.4-0.1,0.5c-0.1,0.1-0.3,0-0.5-0.2C54,56.7,53.8,56.5,53.8,56.5z"/>
				</g>
				<g id="XMLID_2762_">
					<path id="XMLID_2763_" class="st9" d="M56.8,55c0,0,0-0.3,0.1-0.6c0-0.3,0.1-0.5,0.3-0.5c0.1-0.1,0.3-0.1,0.6,0
						c0.2,0.1,0.5,0.2,0.5,0.2s0.1,0.3,0.1,0.6c0,0.3-0.1,0.6-0.4,0.7c-0.2,0.1-0.5,0.1-0.8,0C57,55.2,56.8,55,56.8,55z"/>
				</g>
				<g id="XMLID_2760_">
					<path id="XMLID_2761_" class="st9" d="M59.1,53.5c0,0,0.1-0.4,0.4-0.8c0.2-0.2,0.4-0.4,0.6-0.6c0.1-0.1,0.1-0.1,0.2-0.2
						c0,0,0.1,0,0.2-0.1l0.1,0l0,0l0,0l0,0c0,0-0.2,0-0.1,0l0,0l0.1,0c0.1-0.1-0.1,0,0,0l0.1-0.1c0.4-0.3,1-0.7,1.6-0.8
						c0.3-0.1,0.5-0.1,0.7-0.1c0.2,0,0.3,0.1,0.3,0.1c0,0-0.1,0.1-0.1,0.2c-0.1,0.1-0.1,0.3-0.3,0.5c-0.2,0.4-0.6,0.9-1.1,1.4
						l-0.2,0.2c0,0-0.3,0.2-0.4,0.2l-0.1,0l-0.1,0l0,0l0,0l0,0c0,0,0,0-0.1,0l-0.2,0c-0.3,0.1-0.5,0.1-0.8,0.1
						C59.5,53.6,59.1,53.5,59.1,53.5z"/>
				</g>
				<g id="XMLID_2758_">
					<path id="XMLID_2759_" class="st9" d="M76.5,42.6c0,0-0.1-0.3-0.1-0.5c0-0.2,0-0.4,0-0.4c0.1,0,0.2,0.1,0.3,0.3
						c0.1,0.2,0.3,0.4,0.3,0.4s0.1,0.3,0.1,0.5c0,0.2,0,0.4,0,0.4c-0.1,0-0.2-0.1-0.3-0.3C76.7,42.9,76.5,42.6,76.5,42.6z"/>
				</g>
				<g id="XMLID_2756_">
					<path id="XMLID_2757_" class="st9" d="M78.1,41.8c0,0,0-0.4,0.1-0.7c0.1-0.4,0.3-0.7,0.7-1c0.3-0.2,0.7-0.4,1.1-0.4
						c0.2,0,0.4,0,0.5,0.1c0.1,0,0.1,0.1,0.2,0.1c0,0,0,0,0,0c0,0,0,0.1-0.1,0.2c0,0.1-0.1,0.3-0.1,0.4c-0.1,0.3-0.3,0.7-0.6,0.9
						c-0.3,0.2-0.7,0.4-1.1,0.4C78.5,42,78.1,41.8,78.1,41.8z"/>
				</g>
				<path id="XMLID_2755_" class="st10" d="M82.4,39.6c0,0,0.1,0.7,0.3,0.8"/>
				<g id="XMLID_2753_">
					<path id="XMLID_2754_" class="st9" d="M82.9,38.7c0,0,0-0.4,0.2-0.8c0.2-0.4,0.5-0.8,0.9-1.1c0.4-0.3,0.9-0.4,1.4-0.4
						c0.2,0,0.4,0,0.6,0.1c0.2,0,0.2,0.1,0.2,0.1c0,0-0.1,0.1-0.1,0.2c0,0.1-0.1,0.3-0.2,0.5c-0.2,0.4-0.5,0.7-0.9,1
						c-0.4,0.3-0.9,0.4-1.3,0.4C83.3,38.8,82.9,38.7,82.9,38.7z"/>
				</g>
				<g id="XMLID_2748_">
					<path id="XMLID_2752_" class="st2" d="M77.3,27.2c-0.6,0-0.9-0.1-1.2-0.3c-0.1,0-0.1-0.1-0.6-0.2l-0.5-0.1l-0.2-0.4
						c-0.1-0.3-0.1-0.6,0-0.9c0-0.3,0-0.6,0.2-0.8c0.3-0.5,0.9-0.7,1.7-0.7l0.2,0c1.7,0.1,2.4,1.1,2.5,1.4c0.2,0.5,0.2,0.9,0,1.3
						C79.2,26.9,78.3,27.2,77.3,27.2z"/>
					<path id="XMLID_2749_" d="M76.9,24.5c0,0,0.1,0,0.1,0c1.5,0.1,2,1.1,1.8,1.3c-0.1,0.2-0.7,0.5-1.5,0.5c-0.9,0-0.4-0.2-1.5-0.5
						c0,0-0.1-0.2,0.1-0.3C75.9,25.5,75.5,24.5,76.9,24.5 M76.9,22.8L76.9,22.8c-1.4,0-2.1,0.6-2.4,1.1c-0.3,0.4-0.4,0.8-0.4,1.2
						c-0.2,0.5-0.1,1,0,1.4l0.4,0.9l0.9,0.2c0.1,0,0.2,0,0.3,0.1c0.5,0.3,0.9,0.4,1.6,0.4c1.3,0,2.4-0.4,3-1.2
						c0.4-0.6,0.5-1.4,0.1-2.2c-0.5-1.1-1.8-1.8-3.3-1.9C77,22.8,76.9,22.8,76.9,22.8L76.9,22.8z"/>
				</g>
				<g id="XMLID_2743_">
					<path id="XMLID_2747_" class="st2" d="M71.6,40.4c-0.6,0-0.9-0.1-1.2-0.3c-0.1,0-0.1-0.1-0.6-0.2l-0.5-0.1l-0.2-0.4
						c-0.1-0.3-0.1-0.6,0-0.9c0-0.3,0-0.6,0.2-0.8c0.3-0.5,0.9-0.7,1.7-0.7l0.2,0c1.7,0.1,2.4,1.1,2.5,1.4c0.2,0.5,0.2,0.9,0,1.3
						C73.5,40.1,72.7,40.4,71.6,40.4z"/>
					<path id="XMLID_2744_" d="M71.2,37.8c0,0,0.1,0,0.1,0c1.5,0.1,2,1.1,1.8,1.3c-0.1,0.2-0.7,0.5-1.5,0.5s-0.4-0.2-1.5-0.5
						c0,0-0.1-0.2,0.1-0.3C70.2,38.7,69.8,37.8,71.2,37.8 M71.2,36.1L71.2,36.1c-1.4,0-2.1,0.6-2.4,1.1c-0.3,0.4-0.4,0.8-0.4,1.2
						c-0.2,0.5-0.1,1,0,1.4l0.4,0.9l0.9,0.2c0.1,0,0.2,0,0.3,0.1c0.5,0.3,0.9,0.4,1.6,0.4c1.3,0,2.4-0.4,3-1.2
						c0.4-0.6,0.5-1.4,0.1-2.2c-0.5-1.1-1.8-1.8-3.3-1.9C71.4,36.1,71.3,36.1,71.2,36.1L71.2,36.1z"/>
				</g>
				<g id="XMLID_2738_">
					<path id="XMLID_2742_" class="st2" d="M84.5,36.3c-0.6,0-1.2-0.1-1.6-0.6c-0.2-0.2-0.3-0.5-0.3-0.9c0-0.3,0.1-0.7,0.4-1
						c0.2-0.2,0.5-0.4,0.9-0.5c0.2-0.1,0.4-0.1,0.6-0.1c0.2,0,0.4,0,0.6,0.1c0.6,0.2,1,0.5,1.3,0.9c0.2,0.3,0.2,0.6,0.1,0.9
						c-0.2,0.6-0.7,1.2-1.8,1.2L84.5,36.3z"/>
					<path id="XMLID_2739_" d="M84.6,34.1c0.1,0,0.2,0,0.3,0.1c0.5,0.2,0.8,0.5,0.8,0.7c-0.1,0.2-0.3,0.6-1,0.6c0,0-0.1,0-0.1,0
						c-0.8,0-1.1-0.2-1.1-0.6c0,0,0-0.6,0.8-0.6C84.3,34.2,84.3,34.1,84.6,34.1 M84.6,32.4L84.6,32.4c-0.3,0-0.6,0.1-0.9,0.2
						c-0.7,0.1-1.1,0.5-1.3,0.7c-0.5,0.6-0.6,1.2-0.6,1.5c0,0.6,0.2,1.1,0.5,1.5c0.6,0.7,1.5,0.8,2.2,0.9c0.1,0,0.1,0,0.2,0
						c1.5,0,2.4-0.9,2.6-1.8c0.2-0.5,0.1-1.1-0.2-1.6c-0.3-0.6-1-1.1-1.8-1.3C85.1,32.4,84.8,32.4,84.6,32.4L84.6,32.4z"/>
				</g>
				<g id="XMLID_2733_">
					<path id="XMLID_2737_" class="st2" d="M61,44.1c-0.6,0-1.2-0.1-1.6-0.6c-0.2-0.2-0.3-0.5-0.3-0.9c0-0.3,0.1-0.7,0.4-1
						c0.2-0.2,0.5-0.4,0.9-0.5c0.2-0.1,0.4-0.1,0.6-0.1c0.2,0,0.4,0,0.6,0.1c0.6,0.2,1,0.5,1.3,0.9c0.2,0.3,0.2,0.6,0.1,0.9
						c-0.2,0.6-0.7,1.2-1.8,1.2L61,44.1z"/>
					<path id="XMLID_2734_" d="M61.1,42c0.1,0,0.2,0,0.3,0.1c0.5,0.2,0.8,0.5,0.8,0.7c-0.1,0.2-0.3,0.6-1,0.6c0,0-0.1,0-0.1,0
						c-0.8,0-1.1-0.2-1.1-0.6c0,0,0-0.6,0.8-0.6C60.8,42.1,60.8,42,61.1,42 M61.1,40.2L61.1,40.2c-0.3,0-0.6,0.1-0.9,0.2
						c-0.7,0.1-1.1,0.5-1.3,0.7c-0.5,0.6-0.6,1.2-0.6,1.5c0,0.6,0.2,1.1,0.5,1.5c0.6,0.7,1.5,0.8,2.2,0.9c0.1,0,0.1,0,0.2,0
						c1.5,0,2.4-0.9,2.6-1.8c0.2-0.5,0.1-1.1-0.2-1.6c-0.3-0.6-1-1.1-1.8-1.3C61.6,40.3,61.3,40.2,61.1,40.2L61.1,40.2z"/>
				</g>
				<g id="XMLID_2728_">
					<path id="XMLID_2732_" class="st11" d="M64.4,49.5c0.1-0.5,0.4-1.8,0.5-2.2c0.1-0.6,0.5-1.1,0.9-1.4c0.1-0.1,0.2-0.2,0.3-0.3
						l0.1-0.1c1-1.5,2.5-3.5,4.3-3.5c0.1,0,0.1,0,0.2,0c0.2,0,0.4,0,0.7,0c1.2,0,1.9-0.3,2.1-0.4l0.2-0.1l0.3,0h0.6l0.2,0.5
						c0.3,0.6,0.3,0.6-4.1,5.6l-0.1,0.1l-0.1,0.1c-1.8,0.9-3.9,2.1-4.3,2.4l-2.4,3.1L64.4,49.5z"/>
					<path id="XMLID_2729_" d="M73.7,42.5c0.1,0-4,4.6-4,4.6s-4.2,2.2-4.5,2.6c0,0,0.4-1.7,0.5-2.2c0.1-0.5,0.7-0.9,1-1.3
						c0.3-0.4,2-3.2,3.6-3.2c0,0,0.1,0,0.1,0c0.3,0,0.5,0,0.7,0C72.4,43,73.4,42.7,73.7,42.5C73.7,42.5,73.7,42.5,73.7,42.5
						 M73.7,40.7L73.7,40.7L73.7,40.7l-0.5,0L72.8,41c-0.1,0.1-0.7,0.2-1.6,0.2c-0.2,0-0.4,0-0.6,0c-0.1,0-0.2,0-0.3,0
						c-2.1,0-3.9,2.2-5,3.8l-0.1,0.1c0,0-0.1,0.1-0.2,0.2c-0.4,0.4-1,1-1.1,1.9c-0.1,0.3-0.3,1.5-0.4,2.1L61.8,57l4.7-6.1
						c0.5-0.4,2.5-1.4,4.1-2.3l0.3-0.1l0.2-0.2c0,0,1-1.1,2-2.3c0.5-0.6,1-1.2,1.4-1.6c0.7-0.9,1.3-1.6,0.9-2.6l-0.5-1L73.7,40.7
						L73.7,40.7z"/>
				</g>
				<g id="XMLID_2723_">
					<path id="XMLID_2727_" class="st11" d="M68.2,47.1c0.5-0.9,1.1-2.1,1.8-2.4c0.3-0.1,1.3-1,2.1-1.9c0.6-0.6,1.3-1.4,2.3-1.4
						c0.3,0,0.6,0.1,0.9,0.2c0.9,0.4,1,1.1,1,1.3c0,0.9-0.8,1.7-2.4,2.4c-0.9,0.4-1.7,1.1-2.5,1.7c-0.9,0.7-1.6,1.2-2.3,1.3
						l-1.6,0.2L68.2,47.1z"/>
					<path id="XMLID_2724_" d="M74.4,42.2c0.2,0,0.3,0,0.5,0.1c0.9,0.4,0.6,1.3-1.4,2.2c-2,1-3.6,2.8-4.5,2.9c0,0,0.9-1.8,1.4-2
						c0.5-0.2,1.7-1.4,2.4-2.1C73.3,42.8,73.8,42.2,74.4,42.2 M74.4,40.5L74.4,40.5c-1.4,0-2.3,1-2.9,1.7c-0.7,0.8-1.6,1.6-1.8,1.7
						c-0.3,0.1-1,0.5-2.2,2.8L66,49.6l3.2-0.4c0.9-0.1,1.7-0.7,2.7-1.5c0.7-0.5,1.5-1.2,2.3-1.6c0.7-0.3,2.9-1.4,2.9-3.2
						c0-0.9-0.6-1.7-1.5-2.1C75.2,40.6,74.8,40.5,74.4,40.5L74.4,40.5z"/>
				</g>
				<g id="XMLID_2683_">
					<g id="XMLID_2718_">
						<path id="XMLID_2722_" class="st11" d="M56.8,53.2c-1.6,0-2.5-0.8-3.3-1.6l-0.1-0.1l0-0.1c-0.2-0.3-1.6-2.6-0.4-4.3
							c0.1-0.2,0.3-0.4,0.4-0.6c0.8-1.2,1.7-2.5,3.4-2.7c0.2,0,0.5-0.1,0.7-0.1c0.5-0.1,1-0.2,1.6-0.2c1.3,0,2.4,0.6,3.4,1.7
							c1,1.2,1.4,2.5,1,3.8c-0.4,1.5-1.7,2.7-3.6,3.4C58.7,53,57.7,53.2,56.8,53.2z"/>
						<path id="XMLID_2719_" d="M59.2,44.5c0.9,0,1.8,0.3,2.7,1.4c1.8,2.2,1,4.6-2.2,5.8c-1.2,0.4-2.1,0.6-2.9,0.6
							c-1.2,0-1.8-0.5-2.6-1.3c0,0-1.3-2-0.4-3.3c0.9-1.3,1.7-2.8,3.2-2.9C57.7,44.7,58.4,44.5,59.2,44.5 M59.2,42.7
							c-0.6,0-1.2,0.1-1.7,0.2C57.2,43,57,43,56.8,43c-2.1,0.2-3.1,1.8-4,3.1c-0.1,0.2-0.2,0.4-0.4,0.5c-1.5,2.2,0.1,4.9,0.3,5.2
							l0.1,0.1l0.1,0.1c0.9,1,2,1.9,3.9,1.9c0.9,0,2-0.2,3.5-0.7c2.2-0.8,3.7-2.2,4.2-4c0.4-1.5,0-3.2-1.2-4.6
							C62.1,43.4,60.8,42.7,59.2,42.7L59.2,42.7z"/>
					</g>
					<g id="XMLID_2716_">
						<path id="XMLID_2717_" class="st12" d="M59.9,51c0,0,0.3-0.2,0.5-0.7c0-0.1,0.1-0.3,0.2-0.4c0.1-0.2,0.2-0.3,0.3-0.5
							c0.2-0.3,0.5-0.6,0.7-0.8c0.2-0.3,0.3-0.5,0.4-0.8c0-0.1,0-0.3,0-0.4c0-0.2,0-0.3,0-0.4c0-0.5-0.1-0.9-0.1-0.9
							s0.3,0.3,0.6,0.8c0.1,0.1,0.1,0.3,0.2,0.5c0,0.2,0.1,0.3,0.1,0.6c0,0.5-0.2,0.9-0.4,1.2c-0.3,0.3-0.5,0.6-0.8,0.8
							c-0.1,0.1-0.2,0.2-0.3,0.3c-0.1,0.1-0.2,0.2-0.3,0.3c-0.2,0.2-0.5,0.3-0.6,0.4C60,51.1,59.9,51,59.9,51z"/>
					</g>
					<g id="XMLID_2714_">
						<path id="XMLID_2715_" class="st12" d="M59.9,45.4c0,0,0,0,0.1-0.1c0.1,0,0.2-0.1,0.3-0.1c0.2,0,0.5,0,0.7,0.2
							c0.2,0.2,0.3,0.4,0.3,0.6c0,0.2-0.1,0.4-0.1,0.4s-0.2,0-0.3-0.1c-0.2-0.1-0.3-0.2-0.4-0.3c-0.1-0.1-0.2-0.2-0.3-0.4
							C60,45.5,60,45.5,59.9,45.4C59.9,45.4,59.8,45.4,59.9,45.4z"/>
					</g>
					<g id="XMLID_2712_">
						<path id="XMLID_2713_" class="st12" d="M55.8,51c0,0,0.2,0,0.5,0c0.2,0,0.5,0,0.8,0.1c0.3,0,0.5,0.1,0.8,0.1
							c0.2,0,0.4,0.1,0.4,0.1s-0.1,0.2-0.3,0.4c-0.2,0.2-0.6,0.3-1,0.3c-0.4-0.1-0.7-0.3-0.9-0.5C55.8,51.3,55.8,51,55.8,51z"/>
					</g>
					<g id="XMLID_2710_">
						<ellipse id="XMLID_2711_" class="st13" cx="58.3" cy="46.9" rx="0.4" ry="0.2"/>
					</g>
					<g id="XMLID_2708_">
						<ellipse id="XMLID_2709_" class="st13" cx="60.6" cy="46.9" rx="0.3" ry="0.2"/>
					</g>
					<g id="XMLID_2706_">
						<ellipse id="XMLID_2707_" class="st13" cx="59.9" cy="48" rx="0.3" ry="0.2"/>
					</g>
					<g id="XMLID_2704_">
						<ellipse id="XMLID_2705_" class="st12" cx="55.7" cy="47.6" rx="0.6" ry="0.4"/>
					</g>
					<g id="XMLID_2702_">
						<ellipse id="XMLID_2703_" class="st12" cx="56.4" cy="49.2" rx="0.3" ry="0.1"/>
					</g>
					<g id="XMLID_2700_">
						<ellipse id="XMLID_2701_" class="st12" cx="57.5" cy="48.9" rx="0.2" ry="0.1"/>
					</g>
					<g id="XMLID_2698_">
						<ellipse id="XMLID_2699_" class="st13" cx="59.4" cy="50.3" rx="0.7" ry="0.5"/>
					</g>
					<g id="XMLID_2696_">
						<ellipse id="XMLID_2697_" class="st13" cx="60.5" cy="48.9" rx="0.4" ry="0.2"/>
					</g>
					<g id="XMLID_2694_">
						<circle id="XMLID_2695_" class="st13" cx="58.9" cy="49.3" r="0.1"/>
					</g>
					<g id="XMLID_2692_">
						<ellipse id="XMLID_2693_" class="st12" cx="56.2" cy="50.3" rx="0.6" ry="0.2"/>
					</g>
					<g id="XMLID_2690_">
						<ellipse id="XMLID_2691_" class="st13" cx="59.1" cy="46.1" rx="0.2" ry="0.1"/>
					</g>
					<g id="XMLID_2688_">
						<ellipse id="XMLID_2689_" class="st13" cx="57.4" cy="46" rx="0.8" ry="0.2"/>
					</g>
					<g id="XMLID_2686_">
						<circle id="XMLID_2687_" class="st13" cx="58.5" cy="48" r="0.2"/>
					</g>
					<g id="XMLID_2684_">
						<ellipse id="XMLID_2685_" class="st12" cx="54.5" cy="49" rx="0.5" ry="0.3"/>
					</g>
				</g>
				<g id="XMLID_2643_">
					<g id="XMLID_2678_">
						<path id="XMLID_2682_" class="st11" d="M62.7,40.9c-1.7,0-2.7-0.9-3.4-1.7l-0.1-0.1l0-0.1c-0.2-0.3-1.7-2.7-0.4-4.5
							c0.1-0.2,0.3-0.4,0.4-0.6c0.9-1.3,1.9-2.7,3.6-2.9c0.3,0,0.5-0.1,0.8-0.1c0.5-0.1,1.1-0.2,1.7-0.2c1.4,0,2.6,0.6,3.6,1.8
							c1.1,1.2,1.4,2.7,1.1,4c-0.4,1.6-1.8,2.8-3.9,3.6C64.6,40.7,63.6,40.9,62.7,40.9z"/>
						<path id="XMLID_2679_" d="M65.2,31.6c0.9,0,1.9,0.3,2.9,1.5c2,2.3,1,4.9-2.4,6.2c-1.3,0.5-2.3,0.7-3.1,0.7
							c-1.2,0-2-0.5-2.8-1.4c0,0-1.4-2.2-0.4-3.5c1-1.3,1.8-3,3.4-3.1C63.6,31.9,64.4,31.6,65.2,31.6 M65.2,29.9
							c-0.7,0-1.3,0.1-1.8,0.2c-0.3,0.1-0.5,0.1-0.7,0.1c-2.1,0.2-3.3,1.9-4.2,3.3c-0.1,0.2-0.3,0.4-0.4,0.6
							c-1.6,2.2,0.2,5.1,0.4,5.5l0.1,0.1l0.1,0.1c1,1,2.1,2,4.1,2c1,0,2.2-0.3,3.7-0.8c2.4-0.8,3.9-2.3,4.4-4.2
							c0.4-1.6,0-3.3-1.3-4.8C68.3,30.6,66.9,29.9,65.2,29.9L65.2,29.9z"/>
					</g>
					<g id="XMLID_2676_">
						<path id="XMLID_2677_" class="st12" d="M65.9,38.7c0,0,0.1,0,0.2-0.2c0.1-0.1,0.2-0.3,0.4-0.6c0.1-0.1,0.1-0.3,0.2-0.4
							c0.1-0.2,0.2-0.3,0.3-0.5c0.2-0.3,0.5-0.6,0.7-0.9c0.2-0.3,0.4-0.6,0.4-0.8c0-0.1,0-0.3,0-0.5c0-0.2,0-0.3,0-0.5
							c0-0.6-0.1-1-0.1-1s0.3,0.3,0.6,0.9c0.1,0.1,0.1,0.3,0.2,0.5c0,0.2,0.1,0.3,0.1,0.6c0,0.5-0.2,1-0.5,1.3
							c-0.3,0.4-0.6,0.6-0.8,0.9c-0.1,0.1-0.2,0.2-0.4,0.3c-0.1,0.1-0.2,0.2-0.3,0.4c-0.2,0.2-0.5,0.4-0.7,0.4
							C66,38.7,65.9,38.7,65.9,38.7z"/>
					</g>
					<g id="XMLID_2674_">
						<path id="XMLID_2675_" class="st12" d="M65.9,32.6c0.1-0.1,0.9,0.1,1.3,1.1"/>
					</g>
					<g id="XMLID_2672_">
						<path id="XMLID_2673_" class="st12" d="M61.5,38.7c0,0,0.2,0,0.5,0c0.3,0,0.6,0.1,0.8,0.1c0.3,0,0.6,0.1,0.8,0.1
							c0.3,0,0.5,0.1,0.5,0.1s-0.1,0.2-0.3,0.4c-0.2,0.2-0.7,0.3-1.1,0.3c-0.4-0.1-0.8-0.3-1-0.5C61.6,38.9,61.5,38.7,61.5,38.7z"/>
					</g>
					<g id="XMLID_2670_">
						<ellipse id="XMLID_2671_" class="st12" cx="64.2" cy="34.2" rx="0.4" ry="0.3"/>
					</g>
					<g id="XMLID_2668_">
						<ellipse id="XMLID_2669_" class="st12" cx="66.7" cy="34.3" rx="0.4" ry="0.2"/>
					</g>
					<g id="XMLID_2666_">
						<ellipse id="XMLID_2667_" class="st13" cx="65.9" cy="35.4" rx="0.4" ry="0.2"/>
					</g>
					<g id="XMLID_2664_">
						<ellipse id="XMLID_2665_" class="st13" cx="61.4" cy="34.9" rx="0.7" ry="0.5"/>
					</g>
					<g id="XMLID_2662_">
						<ellipse id="XMLID_2663_" class="st13" cx="62.2" cy="36.7" rx="0.3" ry="0.1"/>
					</g>
					<g id="XMLID_2660_">
						<ellipse id="XMLID_2661_" class="st13" cx="63.3" cy="36.4" rx="0.2" ry="0.1"/>
					</g>
					<g id="XMLID_2658_">
						<ellipse id="XMLID_2659_" class="st13" cx="65.4" cy="37.9" rx="0.7" ry="0.5"/>
					</g>
					<g id="XMLID_2656_">
						<ellipse id="XMLID_2657_" class="st13" cx="66.6" cy="36.4" rx="0.5" ry="0.2"/>
					</g>
					<g id="XMLID_2654_">
						<circle id="XMLID_2655_" class="st13" cx="64.9" cy="36.8" r="0.1"/>
					</g>
					<g id="XMLID_2652_">
						<ellipse id="XMLID_2653_" class="st13" cx="62" cy="37.9" rx="0.6" ry="0.2"/>
					</g>
					<g id="XMLID_2650_">
						<ellipse id="XMLID_2651_" class="st12" cx="65.1" cy="33.4" rx="0.2" ry="0.1"/>
					</g>
					<g id="XMLID_2648_">
						<ellipse id="XMLID_2649_" class="st12" cx="63.3" cy="33.3" rx="0.8" ry="0.2"/>
					</g>
					<g id="XMLID_2646_">
						<circle id="XMLID_2647_" class="st12" cx="64.4" cy="35.4" r="0.2"/>
					</g>
					<g id="XMLID_2644_">
						<ellipse id="XMLID_2645_" class="st13" cx="60.1" cy="36.5" rx="0.5" ry="0.4"/>
					</g>
				</g>
				<g id="XMLID_2603_">
					<g id="XMLID_2638_">
						<path id="XMLID_2642_" class="st11" d="M68,30.1c-1.7,0-2.7-0.9-3.4-1.7l-0.1-0.1l0-0.1c-0.2-0.3-1.7-2.7-0.4-4.5
							c0.1-0.2,0.3-0.4,0.4-0.6c0.9-1.3,1.9-2.7,3.6-2.9c0.3,0,0.5-0.1,0.8-0.1c0.5-0.1,1.1-0.2,1.7-0.2c1.4,0,2.6,0.6,3.6,1.8
							c1.1,1.2,1.4,2.7,1.1,4c-0.4,1.6-1.8,2.8-3.9,3.6C70,29.8,68.9,30.1,68,30.1z"/>
						<path id="XMLID_2639_" d="M70.5,20.8c0.9,0,1.9,0.3,2.9,1.5c2,2.3,1,4.9-2.4,6.2c-1.3,0.5-2.3,0.7-3.1,0.7
							c-1.2,0-2-0.5-2.8-1.4c0,0-1.4-2.2-0.4-3.5c1-1.3,1.8-3,3.4-3.1C68.9,21,69.7,20.8,70.5,20.8 M70.5,19c-0.7,0-1.3,0.1-1.8,0.2
							c-0.3,0.1-0.5,0.1-0.7,0.1c-2.1,0.2-3.3,1.9-4.2,3.3c-0.1,0.2-0.3,0.4-0.4,0.6c-1.6,2.2,0.2,5.1,0.4,5.5l0.1,0.1l0.1,0.1
							c1,1,2.1,2,4.1,2c1,0,2.2-0.3,3.7-0.8c2.4-0.8,3.9-2.3,4.4-4.2c0.4-1.6,0-3.3-1.3-4.8C73.6,19.7,72.2,19,70.5,19L70.5,19z"/>
					</g>
					<g id="XMLID_2636_">
						<path id="XMLID_2637_" class="st12" d="M71.2,27.8c0,0,0.1,0,0.2-0.2c0.1-0.1,0.2-0.3,0.4-0.6c0.1-0.1,0.1-0.3,0.2-0.4
							c0.1-0.2,0.2-0.3,0.3-0.5c0.2-0.3,0.5-0.6,0.7-0.9c0.2-0.3,0.4-0.6,0.4-0.8c0-0.1,0-0.3,0-0.5c0-0.2,0-0.3,0-0.5
							c0-0.6-0.1-1-0.1-1s0.3,0.3,0.6,0.9c0.1,0.1,0.1,0.3,0.2,0.5c0,0.2,0.1,0.3,0.1,0.6c0,0.5-0.2,1-0.5,1.3
							c-0.3,0.4-0.6,0.6-0.8,0.9c-0.1,0.1-0.2,0.2-0.4,0.3c-0.1,0.1-0.2,0.2-0.3,0.4c-0.2,0.2-0.5,0.4-0.7,0.4
							C71.3,27.9,71.2,27.8,71.2,27.8z"/>
					</g>
					<g id="XMLID_2634_">
						<path id="XMLID_2635_" class="st12" d="M71.2,21.7c0,0,0,0,0.1-0.1c0.1,0,0.2-0.1,0.3-0.1c0.2,0,0.5,0.1,0.7,0.2
							c0.2,0.2,0.3,0.5,0.3,0.7c0,0.2-0.1,0.4-0.1,0.4s-0.2-0.1-0.3-0.1c-0.2-0.1-0.3-0.2-0.5-0.3c-0.1-0.1-0.2-0.3-0.3-0.4
							C71.4,21.9,71.3,21.8,71.2,21.7C71.3,21.7,71.2,21.7,71.2,21.7z"/>
					</g>
					<g id="XMLID_2632_">
						<path id="XMLID_2633_" class="st12" d="M66.9,27.8c0,0,0.2,0,0.5,0c0.3,0,0.6,0.1,0.8,0.1c0.3,0,0.6,0.1,0.8,0.1
							c0.3,0,0.5,0.1,0.5,0.1s-0.1,0.2-0.3,0.4c-0.2,0.2-0.7,0.3-1.1,0.3c-0.4-0.1-0.8-0.3-1-0.5C66.9,28.1,66.9,27.8,66.9,27.8z"/>
					</g>
					<g id="XMLID_2630_">
						<ellipse id="XMLID_2631_" class="st12" cx="69.6" cy="23.4" rx="0.4" ry="0.3"/>
					</g>
					<g id="XMLID_2628_">
						<ellipse id="XMLID_2629_" class="st12" cx="72" cy="23.4" rx="0.4" ry="0.2"/>
					</g>
					<g id="XMLID_2626_">
						<ellipse id="XMLID_2627_" class="st13" cx="71.3" cy="24.5" rx="0.4" ry="0.2"/>
					</g>
					<g id="XMLID_2624_">
						<ellipse id="XMLID_2625_" class="st13" cx="66.8" cy="24.1" rx="0.7" ry="0.5"/>
					</g>
					<g id="XMLID_2622_">
						<ellipse id="XMLID_2623_" class="st13" cx="67.5" cy="25.9" rx="0.3" ry="0.1"/>
					</g>
					<g id="XMLID_2620_">
						<ellipse id="XMLID_2621_" class="st12" cx="68.7" cy="25.5" rx="0.2" ry="0.1"/>
					</g>
					<g id="XMLID_2618_">
						<ellipse id="XMLID_2619_" class="st13" cx="70.7" cy="27.1" rx="0.7" ry="0.5"/>
					</g>
					<g id="XMLID_2616_">
						<ellipse id="XMLID_2617_" class="st13" cx="71.9" cy="25.5" rx="0.5" ry="0.2"/>
					</g>
					<g id="XMLID_2614_">
						<circle id="XMLID_2615_" class="st12" cx="70.2" cy="25.9" r="0.1"/>
					</g>
					<g id="XMLID_2612_">
						<ellipse id="XMLID_2613_" class="st13" cx="67.4" cy="27.1" rx="0.6" ry="0.2"/>
					</g>
					<g id="XMLID_2610_">
						<ellipse id="XMLID_2611_" class="st12" cx="70.5" cy="22.5" rx="0.2" ry="0.1"/>
					</g>
					<g id="XMLID_2608_">
						<ellipse id="XMLID_2609_" class="st12" cx="68.6" cy="22.5" rx="0.8" ry="0.2"/>
					</g>
					<g id="XMLID_2606_">
						<circle id="XMLID_2607_" class="st12" cx="69.8" cy="24.5" r="0.2"/>
					</g>
					<g id="XMLID_2604_">
						<ellipse id="XMLID_2605_" class="st13" cx="65.5" cy="25.7" rx="0.5" ry="0.4"/>
					</g>
				</g>
				<g id="XMLID_2563_">
					<g id="XMLID_2598_">
						<path id="XMLID_2602_" class="st11" d="M75.2,38c-1.8,0-2.9-0.7-4-1.9l-0.1-0.1l0-0.1c-0.1-0.1-2-3-0.5-5
							c0.2-0.2,0.3-0.5,0.5-0.7c1-1.4,2.2-3,4.2-3.2c0.3,0,0.7-0.1,1-0.2c0.6-0.1,1.3-0.2,2-0.2c1.6,0,3,0.6,4.2,2
							c1.2,1.4,1.7,2.9,1.3,4.4c-0.5,1.8-2.1,3.2-4.6,4.1C77.5,37.8,76.2,38,75.2,38z"/>
						<path id="XMLID_2599_" d="M78.2,27.6c1.1,0,2.3,0.4,3.6,1.8c2.4,2.6,1.2,5.6-2.9,7c-1.6,0.5-2.8,0.8-3.7,0.8
							c-1.5,0-2.4-0.6-3.4-1.6c0,0-1.7-2.5-0.5-4c1.2-1.5,2.2-3.4,4.1-3.6C76.3,27.9,77.2,27.6,78.2,27.6 M78.2,25.9L78.2,25.9
							c-0.8,0-1.5,0.1-2.1,0.2c-0.3,0.1-0.7,0.1-0.9,0.1c-2.4,0.3-3.8,2.1-4.8,3.6c-0.2,0.2-0.3,0.4-0.5,0.7
							c-1.9,2.5,0.2,5.7,0.5,6.1l0.1,0.1l0.1,0.1c1.3,1.3,2.6,2.1,4.6,2.1c1.2,0,2.5-0.3,4.3-0.9c2.8-0.9,4.6-2.6,5.2-4.7
							c0.5-1.8-0.1-3.6-1.5-5.2C81.7,26.6,80.1,25.9,78.2,25.9L78.2,25.9z"/>
					</g>
					<g id="XMLID_2596_">
						<path id="XMLID_2597_" class="st12" d="M79.1,35.6c0,0,0.1,0,0.3-0.2c0.1-0.1,0.3-0.3,0.5-0.6c0.1-0.1,0.2-0.3,0.3-0.5
							c0.1-0.2,0.3-0.4,0.4-0.5c0.3-0.4,0.6-0.7,0.9-1c0.3-0.3,0.5-0.7,0.5-1c0-0.1,0-0.4,0-0.6c0-0.2,0-0.4,0-0.5
							c-0.1-0.7-0.2-1.1-0.2-1.1s0.4,0.3,0.7,1c0.1,0.2,0.1,0.4,0.2,0.6c0,0.2,0.1,0.4,0.1,0.7c0,0.3-0.1,0.6-0.2,0.8
							c-0.1,0.2-0.3,0.5-0.4,0.7c-0.3,0.4-0.7,0.7-1,1c-0.1,0.1-0.3,0.3-0.4,0.4c-0.1,0.1-0.3,0.3-0.4,0.4c-0.3,0.3-0.6,0.4-0.8,0.5
							C79.2,35.7,79.1,35.6,79.1,35.6z"/>
					</g>
					<g id="XMLID_2594_">
						<path id="XMLID_2595_" class="st12" d="M79.1,28.7c0,0,0,0,0.1-0.1c0.1,0,0.2-0.1,0.3-0.1c0.3,0,0.6,0.1,0.8,0.3
							c0.2,0.2,0.4,0.5,0.4,0.8c0,0.2-0.1,0.4-0.1,0.4s-0.2-0.1-0.4-0.2c-0.2-0.1-0.4-0.2-0.5-0.4c-0.2-0.1-0.3-0.3-0.4-0.5
							C79.3,28.9,79.2,28.8,79.1,28.7C79.1,28.7,79.1,28.7,79.1,28.7z"/>
					</g>
					<g id="XMLID_2592_">
						<path id="XMLID_2593_" class="st12" d="M73.8,35.6c0,0,0.3,0,0.6,0.1c0.3,0,0.7,0.1,1,0.1c0.4,0.1,0.7,0.1,1,0.1
							c0.2,0,0.3,0,0.4,0c0.1,0,0.2,0,0.2,0s-0.1,0.2-0.4,0.4c-0.3,0.2-0.8,0.3-1.3,0.3c-0.5-0.1-0.9-0.3-1.2-0.6
							C73.8,35.9,73.8,35.6,73.8,35.6z"/>
					</g>
					<g id="XMLID_2590_">
						<ellipse id="XMLID_2591_" class="st12" cx="77" cy="30.6" rx="0.5" ry="0.3"/>
					</g>
					<g id="XMLID_2588_">
						<ellipse id="XMLID_2589_" class="st12" cx="80" cy="30.6" rx="0.4" ry="0.2"/>
					</g>
					<g id="XMLID_2586_">
						<ellipse id="XMLID_2587_" class="st12" cx="79.1" cy="31.9" rx="0.4" ry="0.2"/>
					</g>
					<g id="XMLID_2584_">
						<ellipse id="XMLID_2585_" class="st12" cx="73.6" cy="31.4" rx="0.8" ry="0.5"/>
					</g>
					<g id="XMLID_2582_">
						<ellipse id="XMLID_2583_" class="st13" cx="74.5" cy="33.4" rx="0.4" ry="0.2"/>
					</g>
					<g id="XMLID_2580_">
						<ellipse id="XMLID_2581_" class="st13" cx="76" cy="33" rx="0.3" ry="0.1"/>
					</g>
					<g id="XMLID_2578_">
						<ellipse id="XMLID_2579_" class="st13" cx="78.4" cy="34.8" rx="0.9" ry="0.6"/>
					</g>
					<g id="XMLID_2576_">
						<ellipse id="XMLID_2577_" class="st12" cx="79.9" cy="33" rx="0.6" ry="0.3"/>
					</g>
					<g id="XMLID_2574_">
						<ellipse id="XMLID_2575_" class="st13" cx="77.8" cy="33.5" rx="0.1" ry="0.1"/>
					</g>
					<g id="XMLID_2572_">
						<ellipse id="XMLID_2573_" class="st13" cx="74.4" cy="34.8" rx="0.7" ry="0.2"/>
					</g>
					<g id="XMLID_2570_">
						<ellipse id="XMLID_2571_" class="st12" cx="78.1" cy="29.6" rx="0.3" ry="0.1"/>
					</g>
					<g id="XMLID_2568_">
						<ellipse id="XMLID_2569_" class="st12" cx="75.9" cy="29.5" rx="1" ry="0.2"/>
					</g>
					<g id="XMLID_2566_">
						<ellipse id="XMLID_2567_" class="st13" cx="77.3" cy="31.9" rx="0.2" ry="0.2"/>
					</g>
					<g id="XMLID_2564_">
						<ellipse id="XMLID_2565_" class="st12" cx="72" cy="33.2" rx="0.6" ry="0.4"/>
					</g>
				</g>
				<g id="XMLID_2561_">
					<path id="XMLID_2562_" class="st9" d="M68.6,40c0,0,0.5,0,1.3,0.1c0.8,0,1.7,0.1,2.5-0.1c0.2,0,0.4-0.1,0.6-0.1
						c0.2,0,0.4-0.1,0.6-0.2c0.2-0.1,0.4-0.1,0.6-0.2c0.2,0,0.4-0.1,0.6-0.2c0.2-0.1,0.4-0.1,0.5-0.2c0.1-0.1,0.3-0.1,0.4-0.2
						c0.2-0.1,0.4-0.1,0.4-0.1s0,0.1-0.1,0.4c-0.1,0.2-0.3,0.6-0.5,0.9c-0.1,0.2-0.3,0.4-0.5,0.5c-0.2,0.2-0.4,0.3-0.6,0.5
						c-0.3,0.1-0.5,0.3-0.8,0.4c-0.3,0.1-0.6,0.2-0.9,0.2c-1.2,0.2-2.4-0.2-3.1-0.7C68.9,40.6,68.6,40,68.6,40z"/>
				</g>
				<g id="XMLID_2559_">
					<path id="XMLID_2560_" class="st9" d="M82.6,27.8c0,0,0.1,0,0.3-0.1c0.2,0,0.5,0,0.8,0.1c0.3,0.1,0.7,0.3,1,0.6
						c0.2,0.2,0.3,0.3,0.4,0.5c0.1,0.2,0.2,0.4,0.2,0.6c0.1,0.4,0.1,0.9,0,1.3c-0.1,0.4-0.2,0.7-0.4,1c-0.2,0.3-0.4,0.4-0.5,0.6
						c-0.1,0.1-0.2,0.2-0.2,0.2s0-0.1-0.1-0.3c-0.1-0.2-0.1-0.4-0.2-0.7c-0.1-0.3-0.1-0.5-0.2-0.8c0-0.3-0.1-0.5-0.1-0.8
						c0-0.1-0.1-0.2-0.1-0.4c0-0.1-0.1-0.2-0.1-0.3c-0.1-0.2-0.2-0.4-0.3-0.7C82.8,28.2,82.6,27.8,82.6,27.8z"/>
				</g>
			</g>
		</g>
	</g>
</g>
<g id="XMLID_311_">
	<g id="XMLID_356_">
		<path id="XMLID_309_" class="st14" d="M23,81.2H1.7c-0.6,0-1-0.5-1-1c0-0.6,0.5-1,1-1H23c1.2,0,2.1-1,2.1-2.1c0-1.2-1-2.1-2.1-2.1
			h-8.5c-3.1,0-5.5-2.5-5.5-5.5c0-3.1,2.5-5.5,5.5-5.5h13c0.6,0,1,0.5,1,1s-0.5,1-1,1h-13c-1.9,0-3.5,1.6-3.5,3.5s1.6,3.5,3.5,3.5
			H23c2.3,0,4.2,1.9,4.2,4.2C27.2,79.3,25.3,81.2,23,81.2z"/>
	</g>
	<g id="XMLID_354_">
		<path id="XMLID_305_" class="st14" d="M42.2,49.7c-0.4,0-0.8-0.2-0.9-0.6c-0.4-0.8-1-1.4-1.8-1.7l-2.1-0.8
			c-0.5-0.2-0.8-0.8-0.6-1.3c0.2-0.5,0.8-0.8,1.3-0.6l2.1,0.8c1.3,0.5,2.4,1.5,2.9,2.8c0.2,0.5,0,1.1-0.5,1.3
			C42.5,49.7,42.3,49.7,42.2,49.7z"/>
	</g>
	<g id="XMLID_352_">
		<path id="XMLID_74_" class="st14" d="M46.2,67H35.9v2.3h12.6l0,0C48.5,68,47.5,67,46.2,67z"/>
	</g>
	<g id="XMLID_350_">
		<path id="XMLID_73_" class="st15" d="M53.1,40.8c-0.1,0-0.2,0-0.2-0.1c-1.1-2.4-0.4-4.6-0.4-4.7c0-0.1,0.2-0.2,0.3-0.1
			c0.1,0,0.2,0.2,0.1,0.3c0,0-0.7,2.1,0.4,4.3C53.4,40.6,53.4,40.7,53.1,40.8C53.2,40.8,53.2,40.8,53.1,40.8z"/>
	</g>
	<g id="XMLID_348_">
		<path id="XMLID_65_" class="st15" d="M49.9,40.8C49.9,40.8,49.9,40.8,49.9,40.8c-0.1,0-0.2-0.1-0.2-0.2c0-2.2,1.8-4.5,1.8-4.6
			c0.1-0.1,0.2-0.1,0.3,0c0.1,0.1,0.1,0.2,0,0.3c0,0-1.7,2.3-1.7,4.4C50.2,40.7,50.1,40.8,49.9,40.8z"/>
	</g>
	<g id="XMLID_346_">
		<path id="XMLID_46_" class="st15" d="M47.2,41.1C47.2,41.1,47.2,41.1,47.2,41.1c-0.2,0-0.3-0.2-0.2-0.3c0.6-2.9,3.6-4.9,3.7-5
			c0.1-0.1,0.3,0,0.3,0.1c0.1,0.1,0,0.3-0.1,0.3c0,0-3,2-3.5,4.7C47.4,41,47.3,41.1,47.2,41.1z"/>
	</g>
	<g id="XMLID_344_">
		<path id="XMLID_15_" class="st15" d="M55.4,32.5l-16.3-6.3c-3.5-0.9-6.9,1.2-7.8,4.5c-6.7,1.7-12,7.2-13.2,14.5l-1.3,8.6
			c-1,6.8,3.6,13.2,10.4,14.2l7.8,1.2c2.6,0.4,5.2-1.3,5.7-3.9c0.3-1.4,0-2.7-0.7-3.7c-1.9-2.9-2.7-6.5-2.2-10l1-6.7
			c0.4-2.6,2.4-4.6,5-5l2.8-0.5c3.2-0.5,6.2-2.2,8.2-4.8l0,0C56.3,34.8,56.6,33,55.4,32.5z"/>
	</g>
	<g id="XMLID_342_">
		<path id="XMLID_11_" class="st15" d="M37.2,27.6c0,0-3-4.1-5.4-4.2c-2.4-0.1-5.3,3.6-1.8,6.9c3.5,3.3,6.7,3.1,6.7,3.1L37.2,27.6z"
			/>
	</g>
	<g id="XMLID_339_">
		<path id="XMLID_10_" class="st14" d="M36,31c0,0-1.8-5.1-4.1-5.5c-2.3-0.4-2.8,1.9-1.2,3.6C32.2,30.7,34.6,31.5,36,31z"/>
	</g>
	<g id="XMLID_333_">
		<g id="XMLID_337_">
			<circle id="XMLID_9_" class="st16" cx="43.4" cy="30.6" r="1.2"/>
		</g>
		<g id="XMLID_334_">
			<circle id="XMLID_8_" class="st17" cx="42.9" cy="30.1" r="0.4"/>
		</g>
	</g>
	<g id="XMLID_312_">
		<path id="XMLID_6_" class="st14" d="M53,34.2c-0.2,0-0.4,0.1-0.4,0.2c0,0.2,0.1,0.4,0.2,0.4l1.7,0.5c0.2-0.2,0.3-0.3,0.5-0.5
			c0,0,0,0,0.1,0L53,34.2z"/>
	</g>
</g>
</svg>
