<?xml version="1.0" encoding="utf-8"?>
<!-- Generator: Adobe Illustrator 19.0.0, SVG Export Plug-In . SVG Version: 6.00 Build 0)  -->
<svg version="1.1" id="Layer_1" xmlns="http://www.w3.org/2000/svg" xmlns:xlink="http://www.w3.org/1999/xlink" x="0px" y="0px"
	 viewBox="0 0 100 100" style="enable-background:new 0 0 100 100;" xml:space="preserve">
<style type="text/css">
	.st0{fill:#D9DADB;}
	.st1{fill:#5C6670;}
	.st2{fill:#C5C6C7;}
	.st3{fill:#7D868C;}
	.st4{fill:#35404A;}
</style>
<g>
	<path class="st0" d="M9.9,32.2c0-1.3,0-2.5,0-3.8c0.5,0,0.7-0.4,1.1-0.5c2.1-0.8,4-2.7,6.7-1c0.9,0.6,2.7,0.8,4-0.8
		c2.5-3.3,5.8-3.7,9.4-2.6c0.8,0.2,1.2,0.2,1.8-0.6c1.9-3,4.8-3.6,7.6-1.6c0.6,0.4,1,0.5,1.6,0.2c3.4-2.1,6.6-1.7,9.7,0.6
		c0.7,0.5,1.2,0.6,1.9-0.1c1.4-1.3,3.2-1.8,4.7-0.9c1.8,1.1,3.8,1.2,5.7,1.8c0.8,0.3,1.3,0.1,1.9-0.5c2.5-2.4,4.4-2.6,7.3-0.6
		c0.6,0.4,1.1,0.6,1.8,0.3c3.5-1.2,5.5,0.5,5.5,4.4c-1.2,2.8-2.6,3.6-5.2,2.7c-0.6-0.2-0.9-0.2-1.3,0.4c-0.4,0.5-0.7,0.9-0.3,1.6
		c1.2,2.5,1.3,5,0.4,7.7c-0.4,1.3,1.2,3.9,2.5,4.1c0.3,1.8,0.3,3.6,1.5,5.1c0.9,1.3,1.1,3.1,0.2,4.5c-1.3,1.8-1.8,3.7-1.8,5.9
		c0,0.1-0.1,0.2-0.1,0.4c-0.7,3.3-2.9,5.2-5.4,6.9c-1.7,0-3.3,0.6-5,0.3c-0.9-0.2-2.3,0.3-2.5,1.7c-0.3,1.5-1.1,2.7-1.9,3.8
		c-0.6,0.4-1.2,0.8-1.8,1.2c-1.4,0.2-2.7,0.4-4.1,0c-1.2-0.7-2.4-1.5-3-2.8c-0.4-0.9-0.9-1-1.7-0.5c-3.3,2.1-6.6,1.7-9.9-0.1
		c-2-2.5-4.6-0.2-6.8-0.8c-0.4-0.1-1.3,2-1.9,3.1c-0.8,0.1-1.3,0.8-2.1,1.1c-1.3,0.3-2.7,0.3-4,0c-2.1-1.2-4-2.9-3.9-5.5
		c0.1-3.1-1.3-4-3.7-4.8c-4.2-1.3-6.9-6.1-6-10.6c0.3-1.5,0-2.6-0.6-3.8c-2-3.7-1.6-7.8,1.1-10.9c0.6-0.7,0.8-1.5,1-2.4
		c0.1-0.5,0.1-1.1-0.5-1C12,34.1,11.1,32.8,9.9,32.2z M70.8,37.2c-0.2-1.2-0.5-2.5-0.8-3.9c-0.1-0.5-0.4-0.8-0.9-0.7
		c-0.5,0-0.8,0.3-0.9,0.8c-0.3,1.4-0.6,2.7-0.8,4.1c-0.1,1.2,0.6,2,1.7,1.9C70.3,39.4,70.8,38.6,70.8,37.2z"/>
	<path class="st1" d="M80.4,26.5c1.5,0.3,2.9-0.6,4.4-0.2c3.3,0.9,5.1,3.4,6.1,6.7c0,1.1,0,2.3,0,3.4c-1.5,3.8-3.9,6.4-8.1,6.5
		c-2.1,0-4.2,0-6.3,0.1c-1.2-0.2-2.9-2.8-2.5-4.1c0.9-2.7,0.8-5.2-0.4-7.7c-0.4-0.7-0.1-1.1,0.3-1.6c0.4-0.6,0.7-0.6,1.3-0.4
		C77.8,30.1,79.2,29.3,80.4,26.5z M79.3,31.1c-0.7,0.1-1,0.5-1,1.3c0,0.8,0.4,1.2,1.1,1.2c0.7,0,1-0.6,1.1-1.3
		C80.4,31.5,80,31.1,79.3,31.1z"/>
	<path class="st2" d="M70.7,65.8c0.4,3.3-1.1,5.4-3.7,7c-1.4,0.2-2.8,0.2-4.2,0c-0.5-0.4-1-0.8-1.5-1.2c0.8-1.2,1.6-2.3,1.9-3.8
		c0.3-1.4,1.6-1.8,2.5-1.7C67.5,66.4,69.1,65.8,70.7,65.8z"/>
	<path class="st2" d="M33.6,72.7c-0.5-0.4-0.9-0.7-1.4-1.1c0.6-1.1,1.5-3.2,1.9-3.1c2.3,0.6,4.8-1.7,6.8,0.8
		c-0.6,1.7-1.9,2.6-3.3,3.4C36.2,73.1,34.9,73.1,33.6,72.7z"/>
	<path class="st3" d="M26.1,78.9c0-2,0-4.1,0-6.1c1.3,0.3,2.7,0.3,4,0c0,2,0,4.1-0.1,6.1C28.7,78.9,27.4,78.9,26.1,78.9z"/>
	<path class="st3" d="M55.6,78.9c0-2-0.1-4.1-0.1-6.1c1.3,0.4,2.7,0.2,4.1,0c0,2,0,4.1,0,6.1C58.2,78.9,56.9,78.9,55.6,78.9z"/>
	<path class="st1" d="M70.8,37.2c0,1.4-0.5,2.2-1.7,2.2c-1.1,0-1.8-0.7-1.7-1.9c0.1-1.4,0.5-2.7,0.8-4.1c0.1-0.5,0.4-0.8,0.9-0.8
		c0.5,0,0.8,0.3,0.9,0.7C70.3,34.7,70.6,36.1,70.8,37.2z"/>
	<path class="st1" d="M62.9,72.8c1.4,0.1,2.8,0.2,4.2,0c0,2,0,4.1-0.1,6.1c-1.3,0-2.7,0-4,0C62.9,76.9,62.9,74.9,62.9,72.8z"/>
	<path class="st1" d="M33.6,72.7c1.3,0.3,2.7,0.3,4,0c0,2,0,4.1,0,6.1c-1.3,0-2.6,0-3.9,0C33.6,76.8,33.6,74.8,33.6,72.7z"/>
	<path class="st4" d="M55.6,78.9c1.3,0,2.6,0,3.9,0c0.5,2.8-1.5,1.6-2.5,1.8C55.5,80.9,55.2,80.2,55.6,78.9z"/>
	<path class="st4" d="M63,78.9c1.3,0,2.7,0,4,0c0.5,2.8-1.5,1.6-2.5,1.8C63.1,80.9,62.6,80.3,63,78.9z"/>
	<path class="st4" d="M26.1,78.9c1.3,0,2.6,0,3.9,0c0.3,1.6-0.7,1.6-1.7,1.5C27.4,80.3,25.9,81,26.1,78.9z"/>
	<path class="st4" d="M33.6,78.9c1.3,0,2.6,0,3.9,0c0.2,1.1-0.3,1.6-1.3,1.5c-0.7,0-1.5,0-2.3,0c-0.1-0.1-0.3-0.2-0.4-0.4
		C33.6,79.6,33.6,79.2,33.6,78.9z"/>
	<path class="st2" d="M33.6,80c0.1,0.1,0.3,0.2,0.4,0.4c-0.1,0.2-0.3,0.4-0.5,0.2C33.3,80.4,33.3,80.2,33.6,80z"/>
	<path class="st4" d="M79.3,31.1c0.8,0,1.2,0.4,1.1,1.2c0,0.7-0.4,1.3-1.1,1.3c-0.7,0-1.1-0.4-1.1-1.2
		C78.3,31.7,78.6,31.2,79.3,31.1z"/>
</g>
</svg>
