<?xml version="1.0" encoding="utf-8"?>
<!-- Generator: Adobe Illustrator 19.0.0, SVG Export Plug-In . SVG Version: 6.00 Build 0)  -->
<svg version="1.1" id="Layer_1" xmlns="http://www.w3.org/2000/svg" xmlns:xlink="http://www.w3.org/1999/xlink" x="0px" y="0px"
	 viewBox="0 0 750 750" style="enable-background:new 0 0 750 750;" xml:space="preserve">
<style type="text/css">
	.st0{fill:#FCFCFC;}
	.st1{opacity:0.54;fill:#80B2BA;}
	.st2{opacity:0.56;fill:#A1E3DD;}
	.st3{fill:#F0F0F0;}
	.st4{clip-path:url(#XMLID_122_);}
	.st5{fill:none;stroke:#FFFFFF;stroke-width:0.75;stroke-miterlimit:10;}
	.st6{fill:#110809;}
	.st7{fill:none;stroke:#110809;stroke-width:2;stroke-miterlimit:10;}
	.st8{fill:#F7FAE6;}
	.st9{fill:#FF9575;}
	.st10{fill:#0E398A;}
	.st11{fill:#F02B66;}
	.st12{fill:#2155B5;}
	.st13{fill:#1C0029;}
	.st14{opacity:0.6;fill:none;stroke:#051433;stroke-miterlimit:10;}
	.st15{fill:#FFFFFF;}
	.st16{fill:#111314;}
	.st17{fill:url(#XMLID_148_);}
	.st18{fill:#151A36;}
	.st19{fill:#FAD100;}
	.st20{fill:#D4004A;}
	.st21{fill:url(#XMLID_149_);}
	.st22{fill:#7A483A;}
	.st23{fill:url(#XMLID_150_);}
	.st24{fill:#FFF5F5;}
	.st25{fill:#C9CDD1;}
	.st26{fill:#006149;}
	.st27{fill:#40A876;}
	.st28{fill:#138F70;}
	.st29{fill:#47BA9B;}
	.st30{fill:url(#XMLID_151_);}
	.st31{fill:url(#XMLID_153_);}
	.st32{clip-path:url(#XMLID_155_);}
	.st33{fill:none;stroke:#47BA9B;stroke-width:0.5;stroke-miterlimit:10;}
	.st34{fill:#80B2BA;}
	.st35{fill:none;stroke:#FFFFFF;stroke-miterlimit:10;}
	.st36{font-family:'MyriadPro-Regular';}
	.st37{font-size:60px;}
	.st38{fill:url(#XMLID_161_);}
	.st39{font-size:24px;}
	.st40{fill:#546BDD;}
</style>
<g id="Layer_2">
	<rect id="XMLID_37_" class="st0" width="750" height="750"/>
</g>
<g id="XMLID_2_">
	<path id="XMLID_3_" class="st1" d="M529.3,402.5c4.7-4.8,9.2-9.8,13.5-15.1c11.3-14.2,20.7-30.4,26.7-47.6
		c2.5-7.2,2.5-12.9,3.1-20.2c0.8-8.5,4.3-16.6,6.8-24.7c10-33.3,20.1-66.9,24.2-101.5c3.3-28.5,7.4-67.1-26.3-78.1
		c-15.6-5.1-32.7-2.6-48.5,1.9c-15.8,4.5-31.1,11-47.3,13.7c-23.2,4-47.3,0.3-69.6-7.2c-57.3-19-111.3-64-175.4-50.5
		c-29.6,6.2-55.3,25.7-73.1,50.1s-28.1,53.6-34.4,83.2c-13,62.1-15.1,143.7,25.5,195.8H529.3z"/>
	<path id="XMLID_4_" class="st2" d="M571.9,90.4c-6.7-15.5-17.5-29.3-31.7-36.7C514,39.9,483.7,41,455.9,49.3
		c-30.3,9-58.4,25.1-81.5,46.7c-12.4,11.6-23.4,24.8-37,35c-23.7,17.8-53.8,25.4-83.4,27.6c-22,1.7-44.7,0.9-65.5,8.5
		c-25.3,9.3-44.8,30.3-57.7,54c-9.5,17.5-15.8,36.4-21.2,55.5c-4.4,15.4-4.6,31.2-7.3,47c-4,23.2-5,48.2-1.1,72.1h479.9
		c2.3-3.4,4.4-6.9,6.6-10.4c15.7-25.9,26-54.8,32.1-84.4c5.8-28.1,13.1-62.2,7.1-90.6c-0.9-4.4-2.2-8.8-4.5-12.7
		c-7.8-12.7-25.3-16.1-34.4-27.8c-9.9-12.7-7.2-30.7-8.1-46.8C579.2,112.3,576.5,101,571.9,90.4z"/>
	<path id="XMLID_5_" class="st1" d="M540.6,400.6c9.6-7.6,16.9-17.3,19.9-31.1c4.8-22.2,4.9-45.1,4.9-67.8c0-22.1,0.1-44.2-2-66.2
		c-1.6-17.1-4.9-38.9-11.5-54.8c-3.9-9.4-10.8-17.8-20.1-21.9c-4.8-2.1-10.7-2.8-15.1,0c-2.2,1.5-3.9,3.7-5.9,5.4
		c-5.9,5.1-15.4,5.3-21.4,0.5c-4-3.1-6.3-7.9-8.7-12.4c-6.6-12.5-14.6-24.5-25.6-33.3c-31.7-25.3-67.6-2.6-93.9,19.8
		c-12.9,10.9-25.7,22.7-36.6,35.6c-9.5,11.2-16.9,24.3-26.4,35.8c-19.2,23.2-41.8,43.5-66.9,60.1c-15,9.9-31.1,18.6-43.8,31.3
		c-9.3,9.3-16.5,20.5-23,32c-17.7,31.3-28.6,79.1,9.7,100.7c11.9,6.7,25.7,9.5,39.2,11.3c27.5,3.6,55.4,3.4,83.1,0.9
		c14.2-1.3,28.2-3.2,42.3-5.3c9.6-1.4,19.1-0.5,28.5-2.1c25.8-4.2,50.6-7.1,76.8-8.5c21.9-1.1,40.6-2.5,61.3-11.3
		C518.1,414,530.6,408.5,540.6,400.6z"/>
	<path id="XMLID_6_" class="st3" d="M612.1,460.6c-25.1,2.6-51.3,0.4-76.2,0.4c-42.7,0-85.4,0-128.2,0c-47.6,0-95.3,0-142.9,0
		c-26.4,0-52.9,0-79.3,0c-18.7,0-37.5,0-56.2,1.1c-7.1,0.4-14.4,0.4-20.9-2.4c-4.6-1.9-8.9-5.5-10.8-10.2c-2.6-5.9,2-10.8,0.4-16.6
		c-1-3.5-4.8-6-7.8-7.5c-8.8-4.5-14.1-15.7-8.6-24.8c2.5-4.2,6.8-7,11.4-8.6c9.5-3.4,20.4-3.4,30.4-3.4c9.5,0,18.9,1.2,28.3,1.2
		c39.5,0,79,0,118.5,0c48,0,95.9,0,143.9,0c42.4,0,84.7,0,127.1,0c14.7,0,29.4,0,44.1,0c4.9,0,9.9,0,14.8,0c5.4,0,13.7-0.5,15.5,6.4
		c1.7,6.5-6.7,11.4-7.3,17.7c-1.6,17.4,33.5,10.2,33.9,30c0.1,4.5-2.9,8.6-6.6,11.1c-3.8,2.4-8.3,3.5-12.7,4.2
		C619.3,459.8,615.7,460.2,612.1,460.6z"/>
	<g id="XMLID_7_">
		<defs>
			<path id="XMLID_20_" d="M612.1,460.6c-25.1,2.6-51.3,0.4-76.2,0.4c-42.7,0-85.4,0-128.2,0c-47.6,0-95.3,0-142.9,0
				c-26.4,0-52.9,0-79.3,0c-18.7,0-37.5,0-56.2,1.1c-7.1,0.4-14.4,0.4-20.9-2.4c-4.6-1.9-8.9-5.5-10.8-10.2
				c-2.6-5.9,2-10.8,0.4-16.6c-1-3.5-4.8-6-7.8-7.5c-8.8-4.5-14.1-15.7-8.6-24.8c2.5-4.2,6.8-7,11.4-8.6c9.5-3.4,20.4-3.4,30.4-3.4
				c9.5,0,18.9,1.2,28.3,1.2c39.5,0,79,0,118.5,0c48,0,95.9,0,143.9,0c42.4,0,84.7,0,127.1,0c14.7,0,29.4,0,44.1,0
				c4.9,0,9.9,0,14.8,0c5.4,0,13.7-0.5,15.5,6.4c1.7,6.5-6.7,11.4-7.3,17.7c-1.6,17.4,33.5,10.2,33.9,30c0.1,4.5-2.9,8.6-6.6,11.1
				c-3.8,2.4-8.3,3.5-12.7,4.2C619.3,459.8,615.7,460.2,612.1,460.6z"/>
		</defs>
		<use xlink:href="#XMLID_20_"  style="overflow:visible;fill:#A1E3DD;"/>
		<clipPath id="XMLID_122_">
			<use xlink:href="#XMLID_20_"  style="overflow:visible;"/>
		</clipPath>
		<g id="XMLID_8_" class="st4">
			<line id="XMLID_9_" class="st5" x1="68.6" y1="397.8" x2="640.4" y2="397.8"/>
			<line id="XMLID_10_" class="st5" x1="68.6" y1="406.4" x2="640.4" y2="406.4"/>
			<line id="XMLID_11_" class="st5" x1="68.6" y1="415" x2="640.4" y2="415"/>
			<line id="XMLID_12_" class="st5" x1="68.6" y1="423.5" x2="640.4" y2="423.5"/>
			<line id="XMLID_13_" class="st5" x1="68.6" y1="432.1" x2="640.4" y2="432.1"/>
		</g>
		<g id="XMLID_14_" class="st4">
			<line id="XMLID_15_" class="st5" x1="68.6" y1="440.7" x2="640.4" y2="440.7"/>
			<line id="XMLID_16_" class="st5" x1="68.6" y1="449.3" x2="640.4" y2="449.3"/>
			<line id="XMLID_17_" class="st5" x1="68.6" y1="457.9" x2="640.4" y2="457.9"/>
			<line id="XMLID_18_" class="st5" x1="68.6" y1="466.5" x2="640.4" y2="466.5"/>
			<line id="XMLID_19_" class="st5" x1="68.6" y1="475.1" x2="640.4" y2="475.1"/>
		</g>
	</g>
	<g id="XMLID_21_">
		<rect id="XMLID_109_" x="566.3" y="332.6" class="st6" width="2.6" height="56.3"/>
		<path id="XMLID_108_" class="st7" d="M589.9,400.6c0-8.3-14.7-11.8-22-11.8c-8.7,0-22,3.2-22,11.8"/>
		<line id="XMLID_107_" class="st7" x1="567.6" y1="402.9" x2="567.6" y2="389.1"/>
		<circle id="XMLID_102_" class="st6" cx="545.8" cy="402.6" r="3.6"/>
		<circle id="XMLID_101_" class="st6" cx="567.7" cy="402.6" r="3.6"/>
		<circle id="XMLID_96_" class="st6" cx="589.5" cy="402.6" r="3.6"/>
		<path id="XMLID_95_" class="st8" d="M572.5,313.7v-41.4c0-7.2,5.8-13,13-13h14.3c7.2,0,13,5.8,13,13v46.3
			c0,10.2-8.4,18.6-18.6,18.6h-21.4h-25.2c-1.2,0-2.2-1-2.2-2.2l0,0c0-1.2,1-2.2,2.2-2.2h5.8C564,332.8,572.5,324.2,572.5,313.7z"/>
	</g>
	<g id="XMLID_22_">
		<rect id="XMLID_94_" x="237.6" y="325.2" class="st6" width="2.6" height="56.3"/>
		<path id="XMLID_93_" class="st7" d="M216.6,393.3c0-8.3,14.7-11.8,22-11.8c8.7,0,22,3.2,22,11.8"/>
		<line id="XMLID_92_" class="st7" x1="238.8" y1="395.5" x2="238.8" y2="381.7"/>
		<circle id="XMLID_91_" class="st6" cx="260.6" cy="395.3" r="3.6"/>
		<circle id="XMLID_90_" class="st6" cx="238.8" cy="395.3" r="3.6"/>
		<circle id="XMLID_89_" class="st6" cx="216.9" cy="395.3" r="3.6"/>
		<path id="XMLID_88_" class="st8" d="M238.8,306.3v-41.4c0-7.2-5.8-13-13-13h-14.3c-7.2,0-13,5.8-13,13v46.3
			c0,10.2,8.4,18.6,18.6,18.6h21.4h25.2c1.2,0,2.2-1,2.2-2.2l0,0c0-1.2-1-2.2-2.2-2.2h-5.8C247.4,325.4,238.8,316.9,238.8,306.3z"/>
	</g>
	<g id="XMLID_23_">
		<path id="XMLID_24_" class="st9" d="M347.4,217.8c0.6-1.1,1-2.3,1.4-3.5c1.1-3.9,1.1-8.3,3.4-11.7c1.2,0.1,1.7,1.6,1.8,2.9
			c0.4,4.5,0,9.1-0.3,13.6c-0.1,1.1-0.2,2.3-0.6,3.4c-0.5,1.2-1.3,2.2-2.1,3.2c-1.6,1.9-5.8,9.3-8.6,8.2c-2-0.7-2.8-5.2-2.2-6.9
			c0.9-2.6,2.7-3.4,4.4-5.1C345.7,220.8,346.7,219.3,347.4,217.8z"/>
		<path id="XMLID_388_" class="st6" d="M303.2,404.9c0.1,0.2,0.2,0.3,0.4,0.5c2.1,2.1,6.4,1.6,9.3,1.7c4.1,0,8.2,0,12.3-0.6
			c1.3-0.2,2.7-0.6,3.5-1.6c2-2.3-1.2-4.2-2.9-4.6c-1.8-0.5-3.7-0.6-5.6-0.9c-1.9-0.3-3.7-0.9-5.1-2c-1.1-0.9-1.9-2.3-2.2-3.8
			c-0.3-1.6-0.2-3.4-1.3-4.5c-1-1-3.1-1-4.3-0.3c-1.6,0.9-2.7,2.4-3.3,4.1c-0.9,2.6-0.7,5.5-1,8.1
			C302.7,402.2,302.5,403.7,303.2,404.9z"/>
		<path id="XMLID_25_" class="st10" d="M318.3,326.4c-0.1-0.7-0.2-1.3-0.3-2c-1.3-7.8-4-14.8-5.9-22.4c-2.6-10.4-5.2-20.7-8.6-30.9
			c-1.4-4.2-2.5-9.4-4.6-13.3c-2-3.5-4.7-3.2-8.7-2.5c-2.3,0.4-4.7,0.9-6.4,2.6c-1.1,1.1-1.7,2.5-2.3,3.9
			c-3.2,7.9-4.5,15.1-5.2,23.4c-0.4,5.7,0.8,9.9,2.1,15.2c1.5,6,1.5,11.4,4.9,16.9c2.3,3.7,5.5,6.9,6.8,11c1.4,4.1,1.2,8.5,2.5,12.6
			c1.2,3.6,2.9,7,4.4,10.6c1.7,4,1.9,8.4,2.1,12.7c0.4,10.8,0.8,21.6,1.3,32.4c5-1.1,10-2.1,15-3.2c0.7-0.1,1.4-0.3,1.8-0.9
			c0.5-0.6,0.4-1.4,0.4-2.2c-0.8-13.2,0.7-26.4,1.4-39.6C319.4,342.7,319.4,334.5,318.3,326.4z"/>
		<path id="XMLID_386_" class="st6" d="M254.1,409.8c0.1,0.2,0.2,0.3,0.4,0.5c2.1,2.1,6.4,1.6,9.3,1.7c4.1,0,8.2,0,12.3-0.6
			c1.3-0.2,2.7-0.6,3.5-1.6c2-2.3-1.2-4.2-2.9-4.6c-1.8-0.5-3.7-0.6-5.6-0.9c-1.9-0.3-3.7-0.9-5.1-2c-1.1-0.9-1.9-2.3-2.2-3.8
			c-0.3-1.6-0.2-3.4-1.3-4.5c-1-1-3.1-1-4.3-0.3c-1.6,0.9-2.7,2.4-3.3,4.1c-0.9,2.6-0.7,5.5-1,8.1
			C253.6,407.1,253.4,408.7,254.1,409.8z"/>
		<path id="XMLID_385_" class="st9" d="M309.4,191.4c0.2-0.1,0.5-0.1,0.7-0.2c2-0.7,3.5-2.5,4.3-4.5c0.8-2,0.9-4.2,0.8-6.3
			c-0.1-1.6-0.3-3.2-0.1-4.8c0.1-1.6,0.5-3.3,0.1-4.9c-1.1-4-6-4.5-9.4-4.4c-4.1,0.1-8.9,2.5-11.1,6.1c-1.2,1.9-1.5,4.3-0.6,6.3
			c0.8,1.6,2.3,2.8,4,3.6c-2.4,2.7-4.8,5.5-7.2,8.2c-2.2,2.5-4.9,4.7-5.7,8c-0.5,1.9,2.1,2.5,3,1.1c0.6-0.9,1.5-1.7,2.4-2.4
			c0.2,1.6,1.4,2.4,2.6,2.4c0.2,1.4,1.5,2.5,2.9,2c5-1.8,6.6-8,11.7-9.7C308.3,191.7,308.8,191.6,309.4,191.4z"/>
		<path id="XMLID_26_" class="st11" d="M292.2,208.1c0.7-2.7,4.4-8.1,3-10.5c-1.1-2-3.7-2.8-6-2.5c-2.3,0.4-4.3,1.7-6.1,3
			c-10.6,7.7-18.8,18.5-24.2,30.4c-1.1,2.5-2.2,5.2-2.4,8c-0.2,2.9,0.4,5.9,1.1,8.7c2.9,12.4,5.7,24.8,8.6,37.2
			c3.1,1.3,6.7-1.2,7.8-4.3c1.2-3.1,0.6-6.6,0.1-9.9c-0.6-4.1-1.2-8.2-1.7-12.3c-0.5-4.5-0.9-9.3,1.2-13.3c0.9-1.7,2.3-3.3,2.9-5.2
			c0.3-1.2,0.3-2.5,0.7-3.7c1-2.8,4.1-4.5,5.9-6.8c2.2-2.9,4.3-6.5,5.8-9.8C290.2,214.3,291.3,211.2,292.2,208.1z"/>
		<path id="XMLID_27_" class="st11" d="M309.3,229.7c0-4.6,1.2-9.1,2.7-13.4c1.5-4.2,3.9-8.3,4.9-12.6c0.2-0.6,0.3-1.3,0.1-1.9
			c-0.2-1.1-1.1-1.9-2-2.5c-5.8-4-14.4-5.8-21.4-5.5c-10.2,0.5-17.7,9.4-18.8,19.2c-0.6,5.2,0.3,10.5,1.4,15.7
			c1.1,5.2,2.5,10.3,2.8,15.6c0.2,3.6,0,7.2-0.2,10.8c-0.1,3.3-0.9,7,2.8,8.6c8.8,4,18.1,1.8,22.8-6.8c2.2-4,3.2-8.5,4-13
			C309.4,239,309.3,234.4,309.3,229.7z"/>
		<path id="XMLID_382_" class="st11" d="M340.7,223.8c-3.7,3.6-7.5,7.2-11.2,10.8c-1.1,1.1-2.3,2.2-3.6,2.9c-1.2-5-2.1-10.1-3.4-15
			c-1.2-4.5-0.9-9.1-1.7-13.6c-0.4-2.2-1-3.9-2.3-5.5c-1.2-1.5-1.8-3.4-3.6-4.3c-0.5-0.2-1-0.4-1.4-0.6c-1.1-0.6-2.1-1.8-3.3-1.8
			c-0.2,0-0.5,0.1-0.7,0.2c-0.1,0.1-0.2,0.3-0.3,0.4c-0.3,0.8-0.3,1.8-0.3,2.7c-0.1,1.8-0.2,4-1.1,5.6c-0.8,1.6-1.6,2.8-2.2,4.6
			c-1.3,4-2.3,8.3-2.1,12.5c0.1,2.8,1.7,4.3,2.7,7c1,2.9,1.2,6,1.8,8.9c1.3,6.6,4.5,12.8,9.2,17.7c0.8,0.8,1.6,1.6,2.7,1.9
			c8.1,2.5,14.6-8,19.1-13c4.6-5.2,8.8-12.1,11-18.7c-1.9-2.1-3.9-4-6.1-5.7C342.7,221.9,341.7,222.9,340.7,223.8z"/>
		<path id="XMLID_28_" class="st12" d="M287.7,248.1c-1.3-0.6-2.7-0.9-4.2-1.1c-0.9-0.1-2.9-0.7-3.7-0.2c-0.9,0.6-1.1,3-1.6,4
			c-1.5,3-4,5.4-6.2,7.9c-3.5,3.8-6.6,7.9-9.4,12.2c-1.5,2.4-3,5-3.5,7.9c-1.2,6.2,2.3,11.6,2.4,17.6c0.1,6.1-3.4,11.7-4.6,17.7
			c-1.7,8.9,1.6,17.9,1.4,27c-0.1,4.7-1.1,9.2-1.9,13.8c-2.6,15.1-2.6,30.5-2.5,45.8c3.4-0.3,6.9-0.7,10.3-1
			c1.2-0.1,2.5-0.3,3.5-0.9c0.8-0.5,1.3-1.3,1.8-2c6.7-10.2,4.5-22.6,7.1-34.2c2-9.2,4-18.3,6-27.5c0.7-3.4,2-6.8,2.8-10.3
			c1.5-6.7,2.4-13.2,4.3-19.8c2.1-7.4,4.8-15.3,5.9-22.8c0.3-1.9,5.9-23.8,8.2-22.4C297.9,256.3,293.5,250.6,287.7,248.1z"/>
		<path id="XMLID_380_" class="st13" d="M319.1,172.4c1.7-1.6,3-3.6,2.1-6c-0.9-2.5-3.8-4.1-6.5-3.6c-1.9,0.4-3.5,1.7-5.4,2.1
			c-3.4,0.8-7.1-1.2-10.5-0.4c-1.5,0.4-2.8,1.3-3.7,2.5c-0.9,1.3-1.3,2.9-2.3,4.2c-1.5,2.1-4,3-6.3,3.9c-1.9,0.7-5.2,1.5-6.3,3.4
			c-0.8,1.3-1.1,2.9-0.8,4.4c0.1,0.6,0.3,1.2,0.2,1.8c-0.1,1.4-1.3,2.5-2.2,3.6c-1.9,2.3-2.6,5.7-1.2,8.4c0.9,1.8,2.6,3,4.4,3.9
			c1.3,0.7,2.6,1.2,4,1.4c4.7,0.5,9.5-0.9,12.8-4.3c2.7-2.8,4.3-6.7,4.2-10.6c0-1.9-0.3-4.2,1.1-5.5c1.1-1.1,2.4-1.2,2.7-3
			c0.2-1.2-0.4-2.6,0.2-3.7c0.5-0.9,1.4-1.5,2.4-1.7c1.4-0.3,2.8-0.1,4.2,0.2c2.6,0.5,4.6,0.9,6.7-0.9
			C319,172.5,319,172.4,319.1,172.4z"/>
		<path id="XMLID_379_" class="st9" d="M306.3,180.4c0-0.4-0.1-0.8-0.1-1.3c0-0.4,0.1-0.8,0-1.2c-0.3-0.9-1.3-1.3-2.2-1.1
			c-0.9,0.2-1.6,0.9-2.1,1.7c-1,1.6-1,4.1,1,5c1.5,0.6,3.3-1,3.4-2.5C306.4,180.8,306.3,180.6,306.3,180.4z"/>
		<path id="XMLID_29_" class="st14" d="M284.9,271.6c-2.4-1.3-9.3-5.7-9.3-5.7c-0.3-0.1-4.6,6.7-5.2,10c-0.2,1.4-0.1,2.9,0.8,3.9
			c0.5,0.6,1.3,1,2,1.2c1.7,0.5,3.6,0,5.1-1C280.6,278.6,283.8,273.8,284.9,271.6"/>
		<path id="XMLID_377_" class="st15" d="M310.7,183.7c0.2,0.7,0.6,1.3,1.2,1.7c0.6,0.3,1.4,0.3,1.9-0.2c0.2-0.2,0.3-0.4,0.4-0.7
			c0.2-0.4,0.3-0.8,0.3-1.2c0,0,0-0.1,0-0.1c0,0,0,0.1,0,0"/>
	</g>
	<g id="XMLID_97_">
		<path id="XMLID_371_" class="st9" d="M252.9,113.1c0.1-2.1-0.3-4.4-0.4-6.5c-0.1-1-0.1-2.1-0.3-3.1c-0.1-0.3-0.1-0.5-0.3-0.8
			c-0.2-0.4-0.6-0.5-1-0.7c-0.8-0.4-1.8-0.7-2.6-0.2c-0.3,0.2-0.5,0.4-0.6,0.7c-1.1,1.5-1.6,3.4-2,5.2c-0.2,1.2-0.1,4-1.2,4.7
			c0.6-0.3-0.3-5.2-1.8-4.8c-0.3,0.1-0.6,0.5-0.6,0.8c0,0.4,0,0.7,0.1,1.1c0.4,2.7-1.3,5.3-1.1,8.1c0.1,1.8,1,3.5,1.2,5.2
			c0.3,1.8,0.4,3.9,0.3,5.7c-0.1,1.4,0,5.7-1.5,6.5c1.9-1,4.2-1.3,6.4-0.7c0.4-2.6,0.8-5.2,1.2-7.8c0.3-1.7,0.5-3.4,1.2-5
			c0.9-2.2,2.5-4.2,2.9-6.6C252.9,114.3,252.9,113.7,252.9,113.1z"/>
		<g id="XMLID_86_">
			<path id="XMLID_87_" class="st16" d="M216.5,400.4c0.2,0.2,0.5,0.4,0.8,0.6c2.9,2.1,6.4,2.9,9.7,4c1.7,0.6,6.6,2,4.4,4.6
				c-2.2,2.6-7.4,2.1-10.4,1.8c-3.3-0.3-6.5-0.9-9.8-0.8c-2.1,0.1-4.2,0.6-6.2,0.3c-7.2-1.1-3.5-11-3.5-15.8c0-4.7-0.1-9.5,1.1-14.1
				c0.5-2,1.6-4.2,3.5-4.9c1.3-0.5,3.3-0.1,4.5,0.4c1.5,0.6,1.8,1.8,2.2,3.3c1.3,4.7,1.7,9.9,1.5,14.7c0,1.2-0.1,2.4,0.3,3.4
				C215,398.9,215.7,399.7,216.5,400.4z"/>
		</g>
		<g id="XMLID_606_">
			<path id="XMLID_622_" class="st9" d="M193.6,175.4c0.1,0.3,0.2,0.6,0.2,0.9c0.3,1.1,0.3,2.4,0.4,3.5c0.2,2,0.3,4.1,0.7,6.1
				c0.5,2.6,7.1,14.2,9.6,14.1c2.7-0.1,4.9-11.3,4.4-13.9c-0.6-3.6-2.6-10.8-2.6-10.9c-0.8-2.2-2.2-4.3-4.4-5.4
				c-2.3-1.1-5.5-0.9-7.9-0.6c-0.4,0-0.8,0.1-1.1,0.4c-0.6,0.5-0.5,1.4-0.3,2.1C193,172.9,193.3,174.1,193.6,175.4z"/>
			<linearGradient id="XMLID_148_" gradientUnits="userSpaceOnUse" x1="195.6515" y1="165.4649" x2="204.0347" y2="188.6184">
				<stop  offset="0.2654" style="stop-color:#371B85;stop-opacity:0.9148"/>
				<stop  offset="0.5554" style="stop-color:#F26D5A;stop-opacity:0"/>
			</linearGradient>
			<path id="XMLID_621_" class="st17" d="M207.1,179.2c0,0,0-0.1,0-0.2c-0.4-1.6-0.7-2.7-0.7-2.7c-3.5-9.4-13.2-6.7-12.5,0.1
				c0.1,0.6,0.2,2.1,0.3,3.7l1.1,0.8C199.2,183.9,204.2,182.9,207.1,179.2z"/>
			<g id="XMLID_607_">
				<path id="XMLID_620_" class="st9" d="M204.8,155.7c-1.9-0.7-5,2-7,2.4c-1.9,0.7-4.9,1.6-6,3.2c-2.5,3.4-1.3,8.6,1,12
					c0.4,0.6,1.2,2.1,1.7,2.6c3.5,4.3,9,4,11.6,3c3.2-1.2,4.6-4.1,4.6-8c0-0.7-0.2-2.9-0.3-3.6C209.9,163.1,206.7,156.5,204.8,155.7
					z"/>
				<path id="XMLID_611_" class="st18" d="M207.1,148c-0.4,0.1-0.8,0.4-1.1,0.6c-2.1,1.2-4.6,1.2-7,1.7c-3.5,0.7-7.1,2.5-8.9,5.7
					c-2.3,3.9-0.8,8.9,0.4,13c0.1,0.3,0.2,0.6,0.3,0.8c1.4,2.7,3.4,0.4,3.7-1.6c0.2-1.3,0-2.6,0.2-3.9c0.5-2.9,3.2-5.3,6.2-5.1
					c2.7,0.2,6-0.6,7.4-3.2c1.1-2.1,1.3-4.7,0.5-7c-0.1-0.3-0.3-0.6-0.5-0.8C207.9,147.9,207.5,147.9,207.1,148z"/>
				<path id="XMLID_610_" class="st18" d="M210.3,165.3c0,0.2,0,0.3,0,0.4c-0.1,0-0.3-0.1-0.3-0.1c-1.4-2-1.6-4.6-3-6.6
					c-0.6-0.8-1.5-0.9-2-1.5c-0.7-1-0.2-2.9,0.7-3.5c0.9-0.6,2.2-0.5,2.9,0.4c0.2,0.3,0.3,0.6,0.5,0.9c0.7,2,0.9,4.1,1,6.2
					C210.1,162.6,210.4,164.1,210.3,165.3z"/>
				<path id="XMLID_81_" class="st9" d="M194,171.7c-0.3,0.5-0.7,1-1.3,1.2c-0.5,0.2-1.2,0.2-1.7-0.1c-0.8-0.5-1.5-2.1-1.6-3
					c-0.1-0.9,0.3-1.8,1-2.3C193,165.5,195.2,169.5,194,171.7z"/>
				<path id="XMLID_608_" class="st9" d="M211.1,165.1C211.1,165.1,211.1,165.1,211.1,165.1c0.1,0.5,0.1,1,0,1.5
					c-0.1,0.5-0.4,0.9-0.8,1.2c-0.9,0.5-2.1-0.5-2.5-1.3c-0.5-0.9-0.5-2.2,0-3.1c0.4-0.7,1.1-1.2,1.8-1c0.5,0.1,0.9,0.5,1.1,1
					c0.2,0.5,0.3,1,0.3,1.5C211.1,164.8,211.1,165,211.1,165.1z"/>
			</g>
		</g>
		<path id="XMLID_31_" class="st19" d="M222.7,189.5c-0.3-0.5-0.9-0.7-1.4-0.8c-1.6-0.4-3.2-0.8-4.8-1.3c-1.5-0.5-2.8-1.1-4.3-1.4
			c-0.4-0.1-0.8-0.1-1.2-0.2c-0.3-0.1-0.6-0.2-0.8-0.3c-0.5-0.2-1-0.5-1.5-0.7c0.2,1.7,0,3.6-1.1,4.9c-1.4,1.8-4.1,2.4-6.2,2.1
			c-2.1-0.3-4.1-1.4-5-3.4c-0.5-1.1-1.1-2.2-1.5-3.4c-0.8-0.2-2.6,0.4-3.2,0.5c-1.7,0.4-3.3,0.8-5,1.2c-2.5,0.7-5,1.3-7.5,2.1
			c-2.7,2.2,0.1,6-0.3,7.7c-1.1,5-0.5,65.2-0.5,65.2l40.6-0.7c0.2-3.7,0.5-7.3,0.7-11c0.5-7.9,1-15.8,1.4-23.7
			c0.4-7.6,0.8-15.2,1-22.8c0-1.4,0-2.9,0.1-4.3c0-1.2-0.1-2.3,0-3.4c0-0.1,0-0.2,0-0.2c0.3-1.8,0.9-3.4,1-5.2
			C222.9,190.1,222.9,189.8,222.7,189.5z"/>
		<g id="XMLID_562_">
			<g id="XMLID_572_">
				<path id="XMLID_34_" class="st20" d="M225,274c-0.2-3.4-0.4-6.8-0.6-10.2c-0.2-2.6-0.4-5.3-1.8-7.6c-1.8-3-7.2-6-10.3-7.6
					c-4.4-2.4-10.1-1.1-14,1.8c-4.1,3.1-6.7,7.8-8.3,12.7c-2.6,8-2.9,16.8-0.9,25c1.1,4.4,3.6,9.2,3.7,13.8c0.1,5.5-2,10.2,0.2,15.7
					c1.2,2.8,3.2,5.1,4.4,7.9c1.9,4.3,1.7,9.1,1.5,13.8c-0.7,18.4-1.5,36.8-2.2,55.2h20.3c0,0,0,0,0,0c1.6-10.6,3-21.3,4.3-32
					c1.2-9.8,2.3-19.6,3.3-29.4C226.7,313.2,226.1,293.8,225,274z"/>
			</g>
		</g>
		<g id="XMLID_166_">
			<path id="XMLID_168_" class="st16" d="M149.8,398.2c-0.1,0.4-0.1,0.8,0,1.1c0.3,1,1.9,1.9,2.6,2.7c1.3,1.6,3.5,2.2,5.6,2.5
				c1.9,0.2,5.9,0,6.9,2c0.2,0.4,0.2,0.8,0.2,1.2c-0.5,5.3-9.5,4-12.9,3.8c-3.2-0.2-6.5-0.4-9.7-0.6c-4.7-0.3-8.9-2.3-7.2-7.7
				c0.3-1.1,0.8-2.2,1.3-3.2c1.2-2.7,2.5-5.3,3.7-8c1-2.2,2.1-4.5,3.9-6.1c2.2-1.9,7.7-2.7,8.9,0.9c0.4,1.2,0,2.6-0.5,3.8
				c-0.6,1.6-1.1,3.2-1.7,4.9C150.7,396.1,150,397.2,149.8,398.2z"/>
		</g>
		<g id="XMLID_169_">
			<g id="XMLID_171_">
				<path id="XMLID_35_" class="st11" d="M204.3,251.5c-0.1-1-0.2-2-0.9-2.7c-0.5-0.6-1.3-0.8-1.9-1.3c-1.9-1.5-1-2.3-4.1-2.7
					c-2.3-0.3-4.6-0.4-6.9-0.1c-4,0.5-8.2,2-11.1,5c-5,5.4-7.3,12.9-8,20.1c-1,9.6,0.3,19.3-0.9,28.9c-0.7,5.7-2.2,11.2-3.2,16.8
					c-0.5,3.2-0.9,6.4-2.3,9.3c-1,2-2.5,3.7-3.8,5.5c-5.7,8.1-5.7,17.9-9,27c-3.7,10.6-10.5,24.6-14.7,35c0.7,0.3,1.3,0.5,1.6,0.6
					c1.6,0.7,3.1,1.3,4.7,1.9c3.1,1.3,6.1,2.7,9.1,4.2c7-12.1,17.3-27.6,24.6-39.5c7.2-11.8,14.4-22.1,18.4-35.6
					C202.8,300.6,206.7,275.7,204.3,251.5z"/>
			</g>
		</g>
		<path id="XMLID_326_" class="st12" d="M204.7,229.4c0.1-0.4,0.1-0.7,0.2-1.1c1.1-6.2,1.7-12.4,2.2-18.7c0.2-3.1,0.5-6.3,0.7-9.4
			c0.2-2.7,0.6-5.3,0.8-7.9c0.2-2.3,0.3-4.7,1.9-6.5c0.1,0,0.2,0,0.4,0c4.4-1,8.1-5,11.1-9.2c0.5-0.2,0.9-0.3,1.4-0.1
			c0.9,0.3,1.3,1.4,1.5,2.3c0.6,2.9,0,5.9,0.2,8.9c0.2,2.7,0.5,4.9,0.4,7.6c-0.1,2.9,0.4,5.7-0.8,8.5c-1.4,3.2-1.3,6.4-1.2,9.9
			c0.6,19.5,2,38.9,3.9,58.2c0.1,0.4-0.4,0.6-0.8,0.6c-4.8,0.3-9.6-0.2-14.4-0.6c-0.9-0.1-1.8-0.2-2.5-0.6c-0.7-0.4-1.2-1-1.6-1.7
			c-2.6-4-2.6-8.6-2.8-13.1c-0.3-5.4-0.6-10.8-0.9-16.2c-0.1-2.1-0.4-4.2-0.4-6.3C204.1,232.5,204.4,230.9,204.7,229.4z"/>
		<path id="XMLID_325_" class="st12" d="M173.8,227.7c-1.6,13.1-4.1,26.1-5.7,39.3c-0.1,1.2-0.8,3,0.2,3.9c0.6,0.5,1.3,0.6,2,0.7
			c5.1,0.8,10.4,1.3,15.6,1.3c3.9,0,9.7,0.7,13.2-1.5c3.3-2.1,4.2-6.4,4.8-10.3c0.8-5.4,1.5-10.8,1.8-16.3c0.1-2.6,0.1-5.1-0.2-7.7
			c-0.3-2.6-0.1-5.2-0.5-7.7c-0.3-1.7-0.9-3.4-1.5-5c-2.3-6.4-4.2-13-5.8-19.6c-1.5-6.4-2.4-13-3.7-19.4c0-0.1,0-0.1-0.1-0.1
			c0,0-0.1-0.1-0.2-0.1c-2.1-0.1-4.1,0.5-6.2,0.7c-1.9,0.1-3.9-0.1-5.8,0.2c-1.9,0.2-3.9,0.9-5.1,2.5c-1.9,2.5-1.9,6.2-1.7,9.2
			c0.1,2.7,0.6,5.5,0.6,8.2C175.4,213.2,174.7,220.5,173.8,227.7z"/>
		<g id="XMLID_644_">
			<path id="XMLID_79_" class="st9" d="M156.3,290.9c0-2.3-1.2-4.5-2.4-6.5c-0.1-0.3-0.3-0.5-0.5-0.7c-0.2-0.2-0.6-0.3-0.8-0.1
				c-0.2,0.1-0.3,0.2-0.4,0.4c-1.4,2.3-0.1,3.4,1.4,5c0.5,0.6,1.1,1.4,0.9,2.1c-0.1,0.4-0.5,0.7-0.8,1c-0.5,0.5-0.8,2.4,0.4,1.8
				C155.3,293.2,156.3,292.4,156.3,290.9z"/>
			<path id="XMLID_78_" class="st16" d="M156.6,297.8c0-1.8,0.2-4.1-1.1-5.6c-1.1-1.3-3.2-1.6-4.8-1.8c-4.4-0.4-6.2,2.3-6.8,6.4
				c-0.2,1.1,1.5,1.3,1.6,0.2c0.2-1.4,0.4-2.9,1.4-3.9c1.1-1.2,2.8-1.1,4.3-0.9c1.5,0.2,3,0.6,3.5,2.3c0.3,1.1,0.2,2.5,0.2,3.6
				C154.9,299.1,156.6,298.9,156.6,297.8z"/>
			<g id="XMLID_76_">
				<g id="XMLID_163_">
					<path id="XMLID_164_" class="st9" d="M154.7,282.2c-0.3,1.1-0.6,2.2-0.7,3.4c-0.2,1.7,0.3,3.2,0.4,4.9c0.1,1.2,0.4,2.9-0.7,3.8
						c-0.5,0.5-1.3,0.7-2,0.7c-2,0-3.9-1.2-4.8-3c-0.6-1.2-0.8-2.6-0.8-3.9c-0.2-3.7,1.9-7,3.4-10.3c0.4-0.9,1-2.2,1.9-2.7
						c1.3-0.6,2.6,0.3,3.1,1.4c0.6,1.3,0.6,2.9,0.4,4.3C154.9,281.2,154.8,281.7,154.7,282.2z"/>
				</g>
			</g>
		</g>
		<g id="XMLID_74_">
			<path id="XMLID_75_" class="st10" d="M172.4,335l-52.4-6.6c-0.5-0.1-0.9-0.6-0.9-1.1l4.2-32.9c0.1-0.5,0.6-0.9,1.1-0.9l52.4,6.6
				c0.5,0.1,0.9,0.6,0.9,1.1l-4.2,32.9C173.5,334.7,173,335.1,172.4,335z"/>
			<path id="XMLID_642_" class="st12" d="M177.2,301.5l-28,10.4c-0.3,0.1-0.6,0.1-0.9-0.1l-24.6-17.1c-0.7-0.5-0.3-1.6,0.6-1.5
				l52.6,6.6C177.9,300,178,301.1,177.2,301.5z"/>
			<path id="XMLID_641_" class="st12" d="M149.7,311.3c0.1-1-1.5-1.2-1.6-0.2c-0.1,1-0.2,1.9-0.3,2.9c-0.2,1,1.4,1.2,1.6,0.2
				C149.5,313.3,149.6,312.3,149.7,311.3z"/>
		</g>
		<g id="XMLID_73_">
			<path id="XMLID_121_" class="st12" d="M174.2,189.8c-5.7,4.4-9.5,11.2-10.6,18.4c-0.3,2-0.5,4-1.2,5.8c-0.7,1.7-1.8,3.2-2.9,4.7
				c-2.9,4.3-4.9,9.2-5.8,14.4c-1,5.8-0.6,11.9-1.8,17.7c-2,10-4.7,19.3-5.6,29.5c0.9,0.2,11,2,10.7,2.6c1.5-4.4,3.2-8.7,4.6-13.1
				c1.1-3.5,2.6-6.5,4-9.8c2.1-5.1,1.3-11.3,4.3-15.9c1.2-1.8,2.8-3.2,4.1-5c3.9-5.4,3.3-12.9,6.5-18.7c1.8-3.2,4.6-5.8,6.3-9.1
				c2.9-5.9,1.4-12.5,0.3-18.6c-0.9-4.8-3.4-7.9-8.4-5.6C177,187.8,175.5,188.7,174.2,189.8z"/>
		</g>
		<g id="XMLID_405_">
			<circle id="XMLID_404_" class="st16" cx="206.2" cy="234.1" r="1.7"/>
			<circle id="XMLID_403_" class="st16" cx="206.2" cy="244.8" r="1.7"/>
		</g>
		<path id="XMLID_307_" class="st15" d="M200.4,171.8c0.4,1.8,2,3,3.8,2.8c1.8-0.3,3-1.9,2.8-3.8L200.4,171.8z"/>
		<path id="XMLID_32_" class="st12" d="M239.9,125.2c-1.8,5.1-2,11.8-2.9,17.1c-0.3,1.7-0.6,3.4-1.3,5c-1,2.1-2.6,3.9-3.6,6
			c-2.1,4-1.9,8.8-3.5,13c-2.5,6.8-9,11.2-12.4,17.6c-3.4,6.5-3.6,14.9-2.7,22.6c0.3,2.8,0.8,5.5,1.2,8c1.2,6.5,12.7-6,14.6-8
			c6-6.4,11.6-13.7,13.6-22.4c0.6-2.4,0.8-4.9,1.3-7.4c0.5-2.6,1.3-5.2,2-7.8c2.8-10.8,5.5-22.6,5.3-33.8c-0.1-3.1-0.2-6.1-0.3-9.2
			C247.3,126.2,243.6,125.9,239.9,125.2z"/>
		<path id="XMLID_72_" class="st10" d="M192.1,185.3c-0.1,0.7-0.2,2.8-0.2,3c-0.1,1.4-0.3,2.8-0.4,4.3c-0.3,2.7-0.6,5.5-0.8,8.2
			c0,0.5-0.1,1-0.1,1.5l5.4,1.4l-4.1,4.9L205,229c-1.1-5.3-2.1-10.5-3.3-15.8c-1.1-4.9-2.4-9.6-3.6-14.5c-1.2-4.7-2.4-9.3-3.5-14
			c-0.8,0-1.6,0.1-2.4,0.3C192.1,185.1,192.1,185.1,192.1,185.3z"/>
		<path id="XMLID_38_" class="st10" d="M212.5,192.2c-0.3-2.2-0.6-4.3-0.8-6.5c-1.1,0-2.1-0.4-3.1-0.9c0,0.8-0.2,3-0.2,3.2
			c-0.1,1.2-0.2,2.4-0.4,3.6c-0.3,2.3-0.9,4.5-1.3,6.8c-0.9,4.6-0.8,9.4-1.1,14.2c-0.1,2.7-0.2,5.4-0.3,8.2
			c-0.1,1.4-0.1,2.7-0.2,4.1c0,0.7-0.1,1.4-0.1,2.1c0,0.4,0.1,1.5-0.1,1.8l8.4-20.3c0,0-4.6-4.9-4.6-4.9c0.2,0.2,2.5-0.7,2.8-0.8
			c0.6-0.2,1.2-0.3,1.8-0.5c0.3-0.1,0.7-0.1,0.8-0.4c0.1-0.4-0.3-1.4-0.4-1.8C213.3,197.5,212.9,194.9,212.5,192.2z"/>
	</g>
	<g id="XMLID_54_">
		<path id="XMLID_39_" class="st6" d="M506.6,405.3c-0.3,0.6-0.7,1.3-1.1,1.8c-2.9,3.6-8.2,4-12.4,6c-1.9,0.9-4.7,3.5-2.8,5.7
			c1.3,1.5,4.6,1.4,6.4,1.3c6.3-0.5,12.5-1.2,18.8-2.3c0.6-0.1,1.2-0.2,1.6-0.6c0.7-0.6,0.8-1.6,0.8-2.5c0.2-5.7,0.3-11.5,0.1-17.2
			c0,0-7.9-0.2-8.6,0.1c-1.6,0.7-1.4,2.1-1.6,3.7C507.5,402.6,507.2,404,506.6,405.3z"/>
		<path id="XMLID_40_" class="st6" d="M554.7,412.6c-0.5,0.5-1,0.9-1.7,1.3c-2.8,1.7-5.7,3.1-8.7,4.2c-2.3,0.9-4.9,1.7-6.2,3.7
			c-3.1,4.6,3.3,5.8,6.3,5.5c6.3-0.5,12.5-1.2,18.8-2.3c0.6-0.1,1.2-0.2,1.6-0.6c0.7-0.6,0.8-1.6,0.8-2.5c0.2-5.7,0.3-11.5,0.1-17.2
			c0,0.1-8.1-0.3-8.7,0.1c-1.3,0.9-0.7,2.7-0.8,4C556.1,410.4,555.6,411.6,554.7,412.6z"/>
		<g id="XMLID_70_">
			<g id="XMLID_71_">
				<path id="XMLID_43_" class="st20" d="M555.9,289c-0.7-6.5-2.8-13.8-5.3-19.8c-0.3-0.8-1-3-2-3.2c-0.6-0.1-2.6,1.5-3.2,1.7
					c-1.3,0.6-2.7,1-4,1.4c-3,0.9-6.1,1.5-9.1,2.6c-2.3,0.8-6.1,2.3-7.2,4.6c-1.4,3.2-2.8,6.5-4,9.7c-1.1,3-2.7,6.1-3.3,9.2
					c-0.5,2.7-0.5,5.2-1.4,7.9c-3.7,10.9-10.2,20.9-12.6,32.2c-1,4.8-1.3,9.7-1.4,14.6c-0.6,18.6,0.2,38.4,1.6,57h16
					c0.5-3.5,1-8.2,1.5-11.7c0.5-3.9,1.1-7.8,2.4-11.6c0.7-2.2,1.7-4.2,2.3-6.4c1.8-6.6,0.2-14,3.3-20c0.8-1.5,1.8-2.8,2.7-4.3
					c1.4-2.4,2.1-5.1,2.7-7.8c1.9-7.9,3.1-16.1,6.9-23.3c2.2-4.1,5.1-5.5,8.2-8.5c2.4-2.3,4.4-7.1,5.1-10.4
					C556,298.5,556.4,293.8,555.9,289z"/>
			</g>
		</g>
		<path id="XMLID_279_" class="st9" d="M485.7,184.6c-0.8-2.1-0.6-4.5-0.4-6.7c0.3-3.1,0.2-6.3-0.2-9.5c-0.1-0.9-0.3-1.8-0.7-2.5
			c-0.6-1.1-2.5-2.3-3.8-1.4c-0.5,0.3-0.7,0.9-1,1.4c-0.6,1.2-1.3,2.6-1.2,3.9c0.1,1.3,0.5,2.8,0,4.1c-0.4,1.2-1.1-0.3-1.2-0.9
			c-0.1-0.6-0.9-2.1-1.7-1.7c-0.9,0.4-0.1,3.1,0.1,3.8c0.8,2.9,2.4,5.5,2.8,8.4c0.2,1.6,0.1,3.1,0.3,4.7c0.3,2.7,1.2,5.2,1.7,7.8
			c0.3,1.8,0.5,3.7,0.6,5.6c0.1,1,0.1,2,0.2,2.9c0.2,1.9,0.7,3.7,1.1,5.6c0.5,2,1,4,1.6,6c0.5,1.8,1.1,3.4,1.7,5.2
			c1.3,3.7,3,6.6,5.4,9.6c2.3,2.9,3.9,7.1,8.1,7.1c2.1,0,4.8-0.8,6.9-1.4c2.6-0.7,5-1.9,7.1-3.5c3.5-2.6,6.3-6.3,7.6-10.5
			c0.4-1.4,0.7-3,0.3-4.4c-1.1-3.9-5.6-4.3-8.9-3.8c-1.9,0.3-3.8,0.6-5.7,0.9c-1.8,0.3-4.3,2.1-5.4-0.3c-2.4-5.2-6-10-8.7-15.1
			c-2.2-4-3.6-8.4-5.5-12.5C486.4,186.5,486,185.5,485.7,184.6z"/>
		<g id="XMLID_66_">
			<g id="XMLID_68_">
				<path id="XMLID_44_" class="st11" d="M575.5,296.4c1-8.8-1.6-17.9-6.9-24.8c-3.3-4.3-8-8-13.5-8.6
					c-19.8-2.2-17.7,33.8-16.6,45.6c0.8,9.4,2.4,18.7,3.1,28.1c0.5,6.5-0.1,13.1,0,19.6c0,6.6,2.7,13.4,4,19.9
					c0.6,2.7,4,26.1,5.2,37.7h16.8c2.7-20.7,4.6-41.6,5.7-62.5c0.4-7.2,0.7-14.4,0.8-21.5c0.2-7.4-1.6-14.6-0.6-22.1
					C574,303.9,575,300.2,575.5,296.4z"/>
			</g>
		</g>
		<path id="XMLID_41_" class="st12" d="M529.3,209.4c-2.9-0.7-6.5,0-9.1,0.5c-4.1,0.8-8.1,2.3-12.1,3.5c-0.2,0.1-0.4,0.1-0.6,0.2
			c-0.3,0.1-0.5,0.2-0.8,0.3c0,0.5-0.1,0.9-0.1,1.4c0.8,7.5,2,15,3.2,22.5c8-3.2,15-9,19.6-16.3c0.6-1,1.3-2.5,1.8-4.2
			c0-0.4,0-0.9,0-1.3C530.9,213.7,530,211.6,529.3,209.4z"/>
		<path id="XMLID_42_" class="st12" d="M522.8,279.4c4.3-1.1-4.9-36.1-5.6-39.4c-0.9-4.5-1.9-9.1-2.1-13.7c-0.2-3,0-6.2,1.8-8.6
			c1.1-1.6,2.8-2.6,4.5-3.7c8.6-5.4,16.1-12.4,26.8-12.9c0.6,0,1.3,0,1.8,0.2c1.1,0.4,1.8,1.7,2.3,2.8c2.5,5.5,3.5,11.6,6,17
			c2.6,5.5,4.4,11,5.9,17c3.1,12.2,5.9,24.5,7.2,37c-1.6-3.3-18.9,0.5-22.7,1C540,276.9,531.4,278,522.8,279.4z"/>
		<path id="XMLID_45_" class="st9" d="M553.4,205.3c2,2.2,2.9,5.6,3.6,8.6c1.7,8.1,3.4,16.2,3.2,24.4c-0.1,4.9-0.8,9.8-1.6,14.6
			c-1.3,8.7-2.7,17.4-4,26.2c-0.7,4.4-1.3,8.7-2,13.1c-0.3,2.2-0.2,6-1.8,7.8c-0.9,1-2.3,1.2-3.6,1.4c-6.3,0.7-12.6,1.1-19,1.2
			c-0.9-3.3,1.7-6.7,4.9-7.9c3.2-1.2,6.7-0.8,10.1-0.4c-0.9-10.8-1.8-21.7-2.7-32.5c-1.1-7.7,0.6-15.7-1.1-23.2
			c-1.7-7.5-2.2-15.2-2.8-23c-0.2-2.5-0.4-5.3,1-7.4c1.2-1.8,3.4-2.8,5.4-3.6c2.2-0.9,4.5-1.8,6.8-1.3
			C551.3,203.4,552.4,204.2,553.4,205.3z"/>
		<path id="XMLID_46_" class="st12" d="M535.9,235.6c8.7-1.6,17.5-2.2,26.3-1.8c-0.4-6.6-1.4-13.2-2.8-19.7c-0.8-3.9-2-8.1-5-10.8
			c-5.2-4.6-16.3-3.4-18.8,3.6C532.7,215.1,534.3,227.3,535.9,235.6z"/>
		<g id="XMLID_56_">
			<path id="XMLID_69_" class="st9" d="M534.6,199c0.3,1.6,1.7,8.6,1.8,10.1c0.2,2.5-2.9,15-5.2,15.6c-2.6,0.7-7.5-9.1-7.8-11.7
				c-0.4-3.5-0.5-10.7-0.5-10.7C523.6,192.5,533.4,192.5,534.6,199z"/>
			<linearGradient id="XMLID_149_" gradientUnits="userSpaceOnUse" x1="531.028" y1="190.4516" x2="527.2134" y2="217.7747">
				<stop  offset="0.2654" style="stop-color:#371B85;stop-opacity:0.9148"/>
				<stop  offset="0.5554" style="stop-color:#F26D5A;stop-opacity:0"/>
			</linearGradient>
			<path id="XMLID_48_" class="st21" d="M533,195.2c-0.6-0.6-1.4-0.6-2.6-0.6c-1.5-0.1-3.1,0.1-4.3,1c-2,1.5-3.4,4.1-3.2,6.6
				c0.1,1,0.1,1.9,0.2,2.7c0.1,0.9,0.4,1.7,1.1,2.6c0.8,1.1,1.9,2.1,3,3c0.5,0.5,1.1,0.9,1.8,1.1c1.2,0.3,2.4-0.2,3.5-0.8
				c5.5-3,2-9.5,1.2-14.1C533.5,196,533.3,195.5,533,195.2z"/>
			<g id="XMLID_57_">
				<path id="XMLID_67_" class="st9" d="M519.3,183.7c1.5-1.2,5.2,0.5,7.1,0.4c1.9,0.1,4.9,0.2,6.4,1.3c3.2,2.5,3.5,7.6,2.3,11.4
					c-0.2,0.6-0.6,2.2-0.8,2.9c-2.1,4.9-7.3,6.1-10,5.9c-3.2-0.3-5.3-2.6-6.4-6.2c-0.2-0.6-0.5-2.8-0.7-3.4
					C516.5,191.9,517.7,184.9,519.3,183.7z"/>
				<path id="XMLID_65_" class="st6" d="M515.9,176.1c1.5-0.9,3.5-1.2,4.9-0.2c1.5,1.1,2.1,2.5,4.2,2.4c2-0.1,3.3-0.9,5.3-0.1
					c3.2,1.3,5.3,4.8,5.6,8.2c0.3,2.4,0.1,5.6-0.1,8.1c-0.1,0.1-0.5,0.3-0.6-0.2c-0.2-1.2-0.3-2.6-0.7-3.7c-0.2-0.6-0.8-1.1-1.4-1.2
					c-0.5,0-1.2,0.3-1.6-0.1c-0.2-0.2-0.3-0.5-0.3-0.7c-0.4-1.2-1.5-2.2-2.8-2.4c-3-0.5-5.7,0.6-8.7,0.6c-4.9,0-8.9-6.4-4.5-10.1
					C515.4,176.4,515.6,176.2,515.9,176.1z"/>
				<path id="XMLID_64_" class="st6" d="M516.7,194.1c0.1,0.6,0.1,0.5,0.4,0.2c1-2.9,0.1-7.8,2.3-8.4c0.2,0,0.6-1.9,0.2-1.8
					c-0.7,0.1-2.1,0.6-2.4,1.1C516.1,186.8,516.5,191.7,516.7,194.1z"/>
				
					<ellipse id="XMLID_60_" transform="matrix(-0.9998 -2.027843e-02 2.027843e-02 -0.9998 1065.9288 399.1382)" class="st9" cx="535" cy="194.2" rx="1.7" ry="2.2"/>
				
					<ellipse id="XMLID_58_" transform="matrix(-0.9998 -2.027915e-02 2.027915e-02 -0.9998 1029.697 397.9857)" class="st9" cx="516.9" cy="193.8" rx="1.7" ry="2.2"/>
			</g>
		</g>
		<path id="XMLID_259_" class="st15" d="M527.6,197.5c0.1,1.8-1.1,3.3-2.8,3.6c-1.7,0.2-3.3-1-3.6-2.8L527.6,197.5z"/>
	</g>
	<g id="XMLID_30_">
		<path id="XMLID_53_" class="st6" d="M385.1,378.5c1.7,2.6,3,5.1,2.5,8.5c-0.7,5.1-4.8,8.5-5.9,13.4c-0.1,0.4-0.2,0.9-0.1,1.4
			c0.2,0.9,1.2,1.7,2,1.9c4.8,1.3,9-5.8,11.7-8.5c3.4-3.4,6.8-6.9,10.3-10.3c0.9-0.9,0.8-2.6-0.3-3.7L394,369.3l-1.7-1.8
			c-2.8-2.9-7-3.2-9.3-0.7c-2,2.2-1.8,5.9,0.2,8.9C383.9,376.7,384.5,377.6,385.1,378.5z"/>
		<g id="XMLID_47_">
			<rect id="XMLID_106_" x="423.4" y="330.7" class="st6" width="2.6" height="56.3"/>
			<path id="XMLID_105_" class="st7" d="M446.9,398.8c0-8.3-14.7-11.8-22-11.8c-8.7,0-22,3.2-22,11.8"/>
			<line id="XMLID_104_" class="st7" x1="424.7" y1="401" x2="424.7" y2="387.2"/>
			<circle id="XMLID_103_" class="st6" cx="402.9" cy="400.8" r="3.6"/>
			<circle id="XMLID_52_" class="st6" cx="424.7" cy="400.8" r="3.6"/>
			<circle id="XMLID_100_" class="st6" cx="446.6" cy="400.8" r="3.6"/>
			<path id="XMLID_99_" class="st15" d="M427.1,311.8v-41.4c0-7.2,5.8-13,13-13h14.3c7.2,0,13,5.8,13,13v46.3
				c0,10.2-8.4,18.6-18.6,18.6h-21.4h-25.2c-1.2,0-2.2-1-2.2-2.2l0,0c0-1.2,1-2.2,2.2-2.2h5.8C418.6,330.9,427.1,322.4,427.1,311.8z
				"/>
		</g>
		<path id="XMLID_98_" class="st6" d="M377.8,398.6c-0.6,3.1-1.4,5.7-4.1,7.9c-4,3.2-9.4,2.7-13.6,5.5c-0.4,0.3-0.8,0.5-1,1
			c-0.5,0.8-0.3,2,0.2,2.8c2.6,4.3,10.5,2.1,14.4,2c4.9-0.1,9.7-0.2,14.6-0.3c1.3,0,2.4-1.3,2.4-2.8l0-16.5l0-2.4c0-4-2.8-7.2-6.2-7
			c-2.9,0.2-5.4,3-6,6.5C378.1,396.5,378,397.6,377.8,398.6z"/>
		<g id="XMLID_49_">
			<path id="XMLID_246_" class="st9" d="M403,271.8c-2.8,2.7-6.1,4.6-10.2,4.3c-3.1-0.2-5.9-1.8-8.5-3.4c-5.6-3.3-9.1-9-12.6-14.3
				c-4.8-7.3-11-13.8-14.2-22.1c-1.6-4.1-2.7-7.5-2.3-12c0.3-4.3,1.4-8.7,0.4-13c-0.3-1.5-2-5.9,0.1-6.7c1.9-0.7,3.8,2.4,4.2,3.8
				c0.5,1.6,0.5,3.4,0.6,5.1c0.6,7.4,3.7,17.6,9.8,22.4c2,1.5,4.4,2.3,6.5,3.7c4.1,2.7,6.4,7.4,9.8,11c0.8,0.9,1.8,1.7,3,1.8
				c3.5,0.4,4-3.8,5.3-5.9c2.6-4.1,9.5-8.9,14.5-7.8c3.4,0.8,6.2,3.8,6.7,7.3c0.2,1.5,0,3-0.2,4.5c-0.2,1.5-0.4,3-0.9,4.4
				c-0.9,2.8-2.7,5.1-4.5,7.4C408.3,265.2,405.9,268.9,403,271.8z"/>
			<path id="XMLID_245_" class="st22" d="M408.2,287.9L408.2,287.9c0-0.1,0-0.1,0-0.2L408.2,287.9z"/>
			<polygon id="XMLID_244_" class="st22" points="417.9,241.5 417.8,242.4 417.8,242.4 			"/>
			<path id="XMLID_243_" class="st22" d="M408.4,287.2c0,0.2-0.1,0.3-0.1,0.5l0.1-0.7C408.4,287.1,408.4,287.2,408.4,287.2z"/>
			<path id="XMLID_242_" class="st19" d="M418.8,239.4c0,2.9-0.3,5.8-0.3,7.4c0,2,0,4-0.5,5.9c-0.4,1.7-1.1,3.3-1.9,4.9
				c-2.3,4.8-5,10-8.6,14c-1.5-2-3.4-4.2-4.7-6.4c-2.1-3.4-4-6.9-6-10.3c-1.1-1.9-4.5-5.5-3.9-7.6c0.4-1.5,5.7-5.3,7-7
				c3-3.7,9.2-10.4,14.4-10.8C418.2,229.1,418.9,234.4,418.8,239.4z"/>
		</g>
		<path id="XMLID_240_" class="st10" d="M355,321c0-2.6,1-5.3,2.8-7.3c3.7-4.1,9.7-5,15.2-5.7c7.4-0.9,14.9-1.8,22.3-2.7
			c12.7-1.5,26.4-2.9,37.7,3.1c7.8,4.1,10.5,13.7,3,19.7c-4.2,3.4-9.7,4.4-15,5.3c-7.5,1.3-15.1,2.6-22.6,4
			c-6.6,1.2-14.4,3.6-20.5-0.5c-1.6-1.1-3-2.6-4.8-3.3c-5.2-2.1-14.6-3.2-17.3-8.8C355.2,323.7,355,322.4,355,321z"/>
		<path id="XMLID_239_" class="st10" d="M365,309.5c2.2-0.5,4.6-0.8,7.2-0.7c7,0.1,12,7.2,8.4,13.7c-0.8,1.4-2,2.7-2.2,4.3
			c-0.2,1.5,0.3,2.9,0.9,4.3c6.1,14.9,15.5,31.1,17.2,47.2c-4.4,2.2-17.6,3.6-20.1-0.9c-2.3-4-4.6-8-6.9-12
			c-1.4-2.5-2.9-5.1-4.7-7.4c-2.2-2.8-4.9-5.3-7.1-8.1c-6.2-7.9-8.1-19-5-28.6C355,314.5,359.3,310.9,365,309.5z"/>
		<path id="XMLID_238_" class="st12" d="M383.3,326.1c8.5-11.9,26.6-10.2,33.6-24c0.2-0.4,0.4-0.9,0.8-1.3c1.1-1.2,2.9-1.3,4.6-1.3
			c9.3,0,18.5-1.4,27.6-2.9c5.4-0.9,5.4-0.1,7.3,4.9c1.5,3.8,2.7,7.6,3.1,11.7c0.5,5.5-1,11.5-5.1,15.3c-2.3,2-5.1,3.2-7.9,4.3
			c-13.6,5.4-27.5,10-41.6,13.8c-2.6,0.7-5.3,1.4-8.1,1.4c-5.2,0-10.4-2.9-13.3-7.3C380.3,334.4,380.6,329.8,383.3,326.1z"/>
		<path id="XMLID_237_" class="st19" d="M408.6,233.9c0.8-1.2,1.9-2.4,3.2-3.4c4.6-3.5,11.1-3.1,16.5-3.3c5.7-0.2,11.8,0.2,17.1,2.4
			c5.4,2.2,6.6,4.5,6.7,9.9c0.2,7.2,2.4,14.4,3.2,21.5c0.9,7.6,1.2,15.2,1.2,22.8c0,4.1-0.2,8.1-0.5,12.2c-0.3,4.5-0.7,4.6-5.2,5.2
			c-10.4,1.4-24.3,4.5-34.6,1.5c-0.5-18.4-6.8-36.2-9.4-54.5C406.3,242.8,406,237.9,408.6,233.9z"/>
		<path id="XMLID_50_" class="st9" d="M429,239.3c1.6-0.6,3-1.7,4-3c4.2-5.5,0.2-9.3-0.1-14.9c-0.2-4.1,2.6-8.1,1.3-12
			c-0.3-0.8-1-1.6-1.7-1.2c-0.2,0.1-0.4,0.4-0.6,0.6c-3.6,5.4-8.3,4.9-14.4,6c0.8-0.1,1,13.2,0.8,14.2c-0.2,1-0.5,2.1-0.5,3.1
			c-0.2,3.5,2.5,6.8,5.9,7.6C425.5,240.2,427.4,240,429,239.3z"/>
		<linearGradient id="XMLID_150_" gradientUnits="userSpaceOnUse" x1="429.6293" y1="209.9484" x2="423.0795" y2="236.8638">
			<stop  offset="0.2654" style="stop-color:#371B85;stop-opacity:0.9148"/>
			<stop  offset="0.5554" style="stop-color:#F26D5A;stop-opacity:0"/>
		</linearGradient>
		<path id="XMLID_235_" class="st23" d="M433,218l-13.5,0.7l1.1,9.9h0c4.5,2.4,14.8,1.7,12.3-3.2V218z"/>
		<path id="XMLID_51_" class="st9" d="M422.6,223.6c1.8,0.1,3.6-0.7,5.2-2.1c1.4-1.2,2.6-2.7,3.9-4c0.8-0.8,1.7-1.5,2.3-2.4
			c0.8-1.2,1.1-2.7,1.3-4.2c0.3-1.8,0.9-3.5,0.5-5.4c-0.2-1.1-0.8-2-1.3-3c-0.8-1.3-1.6-2.7-2.6-3.9c-1.8-2.6-4.9-4.8-8.2-3.5
			c-1.6,0.6-2.8,1.8-3.6,3.3c-1,2-1.1,4.3-2,6.3c-0.3,0.7-0.7,1.3-1,2c-1.4,2.7-2.5,6.1-1.8,9.2c0.6,2.6,1.9,5.1,4.2,6.6
			C420.7,223.2,421.7,223.6,422.6,223.6z"/>
		<path id="XMLID_59_" class="st6" d="M438.5,203.2c-2-0.8-2-1.9-2.6-3.8c-0.6-2-2-3.7-3.8-4.7c-1.8-1-3.9-1.4-6-1.4
			c-1.6,0-3.3,0.4-4.8,1.2c-1.4,0.8-2.6,2.1-3.1,3.7c-0.2,0.6-0.3,1.4-0.1,2c0.5,1.6,2.9,2.2,4.3,2.8c1.6,0.6,3.2,1.2,4.7,2
			c3,1.6,4.4,4,2.9,7.3c-0.5,1.2-0.7,3.3-2.7,2.8c-0.6-0.1-1-0.7-1.4-1.1c-0.8-0.9-1.7-1.7-2.8-2.3c-1.2-0.6-2.3-0.5-3.6-0.5
			c-1,0-2.2,0.3-3.3,0.1c-0.4-0.1-0.3-0.8-0.8-0.8c-0.3,0-0.5,0.4-0.6,0.8c-0.3,1.3-0.6,2.5-0.9,3.8c-0.5,2.1-1,5-0.1,7
			c0.7,1.6,2.1,2.7,3.7,3.5c3,1.5,7.3,1.8,10.2-0.2c2.1-1.5,2.7-3.9,4.5-5.5c1.6-1.5,4.7-1.7,5.6-3.8c0.5-1.3-0.1-2.9,0.4-4.2
			C439.5,208.9,444.5,205.6,438.5,203.2z M416.6,217.9c-0.1-0.1-0.2-0.3-0.3-0.4c-0.4-1,0.2-2.2,1.1-2.9c1.5-1.2,3.9-1.2,5.4,0
			c0.9,0.8,2.1,1.8,2.2,3.1c0,0.6-0.1,1.2-0.6,1.6c-0.6,0.5-1.4,0.5-2.1,0.2c-1.1-0.5-1.3-1.7-2.7-1.3c-0.8,0.3-0.9,0.6-1.7,0.4
			C417.4,218.4,416.9,218.3,416.6,217.9z"/>
		<path id="XMLID_63_" class="st9" d="M432.2,211.8c-0.2,0.2-0.3,0.3-0.4,0.5c-0.6,0.9-1.3,2.4-1.4,3.4c0.6,0.2,1.3,0.5,1.9,0.4
			c0.5-0.1,0.9-0.3,1.2-0.7c0.9-0.8,1.5-1.9,1.7-3c0-0.4,0-0.8-0.2-1.1c-0.3-0.4-0.9-0.5-1.4-0.4C433,211.1,432.5,211.4,432.2,211.8
			z"/>
		<path id="XMLID_77_" class="st15" d="M423.9,217.5c0,0-1.8,1.2-3.9,0.3c-2.4-1-2.5-2.9-2.5-2.9"/>
		<g id="XMLID_80_">
			<path id="XMLID_82_" class="st9" d="M458,290.9c0.8-0.1,1.7-0.1,2.5-0.2c-2.6-3.3-6-5.9-8.5-9.3c-2.9-3.8-2.6-7.5-3.9-11.7
				c-1.1-3.5-3.3-6.5-4.4-10.1c-2.7-8.6,0.6-24,13-20.2c3.5,1.1,6.3,3.9,8.1,7.1c1.8,3.2,2.8,6.8,3.7,10.4c2,7.6,4,15.2,6,22.8
				c0.9,3.4,1.6,6.9,2.4,10.3c1.2,4.7,4.1,10.1-2.7,12c-4,1.1-8.3,1.4-12.5,1.7c-7.9,0.5-15.8,1.3-23.6,1.6
				c-4.8,0.1-9.4-1.4-14.1-1.9c-4.1-0.5-8,1-12.1,0.3c-1.7-0.3-3.5-1.5-3.4-3.2c0.1-1,0.7-1.8,1.5-2.4c3-2.5,7.4-2.5,11.1-1.5
				c0.9,0.2,1.7,0.5,2.6,0.4c0.9-0.1,1.8-0.5,2.6-0.8c5.4-2.3,10.3-0.5,15.7-1.3C447.5,293.9,452.5,291.5,458,290.9z"/>
			<path id="XMLID_83_" class="st19" d="M438.5,255.5c-0.1-0.3-0.2-0.6-0.3-0.9c-1.2-4.2-2.3-8.6-1.5-12.9c0.7-4.3,3.6-8.5,7.8-9.7
				c2.7-0.8,5.7-0.2,8.3,0.9c6.5,2.7,11.1,8.2,14.2,14.4c1.4,2.9,3.4,6.4,1.8,8.7c-1.9,2.9-24.8,13.8-23.9,15.7
				C442.3,266.4,440.1,261,438.5,255.5z"/>
		</g>
		<path id="XMLID_84_" class="st12" d="M383.8,326.6c-5.3,10-2.9,22.3-3.9,33.1c-1.3,13.7-3,27.4-5.1,41c6.9-0.5,13.9,0,20.6,1.7
			c3.9-13.2,7.7-26.4,9.1-40.1c0.4-4.2,0.6-8.4,1.9-12.4c1.5-4.8,4.6-9.2,5.6-14.2c1.3-6.3-4.2-16.7-11-17.5
			C395.2,317.6,386.6,321.3,383.8,326.6z"/>
	</g>
	<g id="XMLID_581_">
		<path id="XMLID_587_" class="st15" d="M318.5,301.2h64.9v-0.7c0-0.8-0.7-1.5-1.5-1.5h-63.4V301.2z"/>
		<path id="XMLID_586_" class="st24" d="M307.3,298.9h64.8l-11.6-34.2c-0.4-1.2-1.6-2-2.9-2h-58.4c-2.1,0-3.5,1.8-2.9,3.7
			L307.3,298.9z"/>
		<rect id="XMLID_585_" x="307.3" y="298.9" class="st25" width="65.1" height="2.3"/>
		<path id="XMLID_582_" class="st25" d="M330.5,280.4c0.2,1.4,1.6,2.2,3,2.1c1.5-0.1,2.7-1.2,2.6-2.6c-0.1-1.4-1.4-2.7-3-2.7
			c-0.1,0-0.2,0-0.2,0.1c-0.1,0-0.2,0-0.3,0C331.2,277.6,330.3,279,330.5,280.4z M332.9,278.1c0,0,0.1,0,0.1,0c0,0,0.1,0,0.1,0
			c0.8,0,1.5,0.4,1.8,1c0.9,1.5-0.3,2.5-1.6,2.6C331,281.7,330.8,278.6,332.9,278.1z"/>
	</g>
	<g id="XMLID_85_">
		<path id="XMLID_110_" class="st26" d="M485.3,244C485.3,244,485.3,244,485.3,244c-0.2-2.4,1.4-4.6,1-6.8c0-0.2-0.1-0.5-0.3-0.6
			c-0.4-0.2-0.8,0.1-1,0.4c-1.6,2-1.4,4.6-1.1,6.9c0.3,2.5-0.9,4.6-1.3,7.1c-0.3,1.7,0,3.3-0.3,5c-0.4,2-0.7,3.8,0,5.7
			c0.3,0.8,0.7,1.7,0.6,2.6c-0.1,1.1-0.9,1.9-1.3,2.9c-1.1,2.6,0.4,6-1.1,8.4c-0.2,0.3-0.4,0.5-0.7,0.5c-0.4,0-0.6-0.4-0.7-0.7
			c-1.7-4.6-3.4-9.9-2.7-14.8c0.1-1.1,0.4-2.2,0.5-3.3c0.1-1,0-2-0.1-3c-0.2-2.4-0.5-4.8-0.7-7.1c0-0.4-0.1-0.9-0.4-1.2
			c-0.3-0.4-0.8-0.6-1.1-0.3c-0.3,0.2-0.3,0.5-0.4,0.8c-0.4,2.4,0.5,4.9,0.3,7.3c-0.1,1.4-0.6,2.7-0.9,4c-0.6,3,0.4,6.8,0.9,9.8
			c0.4,2.1,0.6,4.3,0.9,6.4c0.2,1.1,0.6,2.2,0.8,3.4c0.1,0.9-0.6,3.7-1.5,1.7c-0.3-0.8-0.5-1.7-0.4-2.6c0-0.5,0.1-0.9,0.1-1.4
			c-0.1-0.5-0.3-1-0.7-1.1c-0.4-0.2-1,0-1.4-0.2c-0.5-0.3-0.6-0.9-0.7-1.5c-0.2-1.7-0.4-3.4,0.2-5c0.2-0.5,0.4-1,0.5-1.5
			c0.2-1.3-0.8-1.8-1-2.9c-0.2-1,0.6-1.9,0.7-2.9c0.1-0.7-0.3-1.5-1-1.8c-0.2-0.1-0.4-0.2-0.6-0.3c-0.2-0.3-0.1-0.6,0-0.9
			c0.2-0.6,0.4-1.2,0.7-1.8c0.7-1.6-1.3-3-2.6-1.7c-0.5,0.6-0.5,1.5-0.5,2.3c0.2,4.9,0.4,9.7,1.4,14.5c0.7,3.3,1.7,6.5,3.3,9.4
			c0.7,1.4,1.8,2.6,2.5,4c0.9,2,1.6,4.8,4.5,4.2c1.6-0.3,2.9-1.6,3.9-2.9c1.6-1.9,3-4.5,1.9-6.8c-0.3-0.6-0.8-1.1-1-1.8
			c-0.2-0.5-0.2-1.1-0.2-1.7c0.1-2,0.3-3.9,0.7-5.8c0.5-2.2,1.4-4.8,0.7-7.1c-0.6-1.9-1.2-3.4-0.7-5.6c0.5-2.2,2.2-4.1,2.1-6.3
			C486.8,247.6,485.5,245.9,485.3,244z"/>
		<g id="XMLID_111_">
			<path id="XMLID_215_" class="st27" d="M485.5,288.8c2.8-2.3,4.5-6.4,4-9.8c-0.2-1.8-0.8-3.8,0.4-5.1c0.4-0.4,1-0.7,1.3-1.2
				c0.9-1.1,0.4-2.8-0.3-4.1c-1.1-2.3-1.8-4.5-0.2-6.7c1.2-1.7,3.3-2.8,3.7-5c0.6-2.9-2.4-6-0.9-8.6c0.4-0.7,1.1-1.2,1.6-1.9
				c0.9-1.2,1.2-2.8,0.7-4.2c-0.3-0.9-1.2-2.1-2.1-2.4c-1.4-0.4-1.4,0.2-1.8,1.6c-0.8,2.4-1.2,5-1.1,7.6c0.2,3.9-1.3,8.2-1.9,12
				c-0.3,2.1-0.7,4.1-1.1,6.2c-0.3,1.3-0.4,2.6-0.8,3.8c-0.2,0.6-1.1,1.8-1.1,2.4c-0.4-5,2.1-9.7,2.7-14.7c0.1-0.4,0.1-0.9-0.1-1.3
				c-0.2-0.3-0.5-0.5-0.7-0.8c-1-1.4,0.3-4.7,0.5-6.3c0.4-2.8,0.5-5.7,0.7-8.6c0.3-3.5,0.7-6.8,0.3-10.3c0-0.1,0-0.3-0.1-0.4
				c-0.1-0.1-0.4-0.1-0.5,0.1c-0.1,0.1-0.2,0.4-0.2,0.6c-0.8,5-1,10.2-1.8,15.3c-0.9,5.5-1.5,11.1-2.1,16.6
				c-0.6,5.4-1.9,10.7-2.5,16.1c-0.1,1.2-0.5,2.7-1.7,2.8c-1,0.1-1.8-1-2-2c-0.4-2.8,2.1-5.1,3.1-7.7c0.8-1.9,0.8-4.1,0.4-6.1
				c-0.4-2.1-1.2-4.4,0-6.1c0.5-0.7,1.3-1.2,1.7-1.9c0.3-0.6,0.3-1.2,0.4-1.8c0.1-2,0-4-0.2-5.9c-0.2-1.7-0.8-3.6-0.7-5.3
				c0.3-3.4,1.2-6.6,1-10.1c-0.2-3-2.5,1.6-2.6,2.8c-0.1,1.6,0.2,3.1,0,4.7c-0.2,1.7-1.1,3.5-0.8,5.2c0,0.2,0.1,0.5,0,0.7
				c-0.1,0.2-0.3,0.4-0.5,0.3c-0.1-0.1-0.2-0.2-0.2-0.3c-1.2-3,1.6-8.2-0.8-10.7c-1.9,2.4-1.5,7.9-1.3,10.8
				c0.3,7.5,1.6,15.1,0.2,22.6c-0.1,0.5-0.2,1.1-0.7,1.5c-0.7,0.6-1.8,0.3-2.4-0.4c-0.6-0.7-0.8-1.6-1-2.5c-0.2-0.9-0.6-1.8-1.3-2.3
				c-0.7,0.8-0.9,2-0.8,3c0.1,1.1,0.6,2.1,0.9,3.1c0.6,1.8,0.8,3.6,0.8,5.5c0,2-0.4,4,0.3,5.8c1.2,3,6.5,5.9,9.5,4.7
				C484.1,289.8,484.8,289.3,485.5,288.8z"/>
		</g>
		<polygon id="XMLID_213_" class="st10" points="467.5,279.5 493,279.9 486.3,301.7 471.7,301.9 		"/>
	</g>
	<g id="XMLID_112_">
		<rect id="XMLID_599_" x="99.4" y="301.3" class="st15" width="504.2" height="5.2"/>
		<rect id="XMLID_210_" x="552.1" y="303.9" class="st15" width="4.9" height="135"/>
		<polygon id="XMLID_113_" class="st15" points="506.9,437.8 502,437.8 533.7,303.9 538.6,303.9 		"/>
		<polygon id="XMLID_208_" class="st15" points="191.3,437.8 196.2,437.8 164.5,303.9 159.6,303.9 		"/>
		<rect id="XMLID_207_" x="142.2" y="303.9" class="st15" width="4.9" height="135"/>
	</g>
	<g id="XMLID_114_">
		<path id="XMLID_205_" class="st28" d="M139.6,411.2c-0.1,0.8-0.2,1.6-0.3,2.4c-0.2,2.8-0.8,6-3.2,7.4c-2.2,1.3-5.1,0.4-6.9-1.4
			c-1.8-1.8-2.6-4.3-3-6.8c-1.2-6.4-0.7-13.1,1.5-19.1c1.4-3.8,5.3-9.5,4.9-13.6c-0.5-4.3-5.5-6.8-5.7-11.4c-0.2-5.1,4.4-9.4,7-13.4
			c1-1.4,1.8-3,1.8-4.7c0.2-6-8.5-9.1-9.1-15.1c-0.7-7.4,9.5-10.4,9.6-17.4c0.1-3.8-3.3-7.8-3-12.3c0.3-4.5,2.1-8.9,5.2-12.2
			c1.2-1.3,3-2.5,4.7-1.9c1.7,0.6,2.4,2.6,2.3,4.4c0,1.8-0.5,3.6-0.2,5.3c1.1,5.2,4.7,7.1,4.2,13c-0.3,3.3-1.4,6.8-2.9,9.8
			c-5.4,10.6-3.8,9.3,2.7,18.5c3.4,4.8,3.4,11.8,0,16.6c-2,2.8-5,5.1-5.4,8.5c-0.2,1.6,0.3,3.1,0.9,4.6c0.7,1.7,1.6,3.4,2,5.3
			c0.5,2.6-0.2,5.2-0.9,7.8C143.5,394.2,140.7,402.4,139.6,411.2z"/>
		<path id="XMLID_204_" class="st29" d="M118.2,402.9c-0.5-3.3-1-6.6-1.4-9.9c-0.4-2.9-0.9-5.9-2.2-8.5c-1.2-2.3-3-4.3-4-6.7
			c-2.3-5.2-0.8-11.2,1-16.6c1.2-3.8,2.4-7.8,1.3-11.5c-0.6-2-1.8-3.7-2.9-5.5c-2.1-3.6-6-12.2-3.5-16.4c4.1-7.2,8.1-0.3,8.4,4.6
			c0.3,4.4,2.1,8.8,5,12.1c1.7,1.9,3.8,3.6,4.7,5.9c2.5,6.3-4.5,12.7-4,19.4c0.4,5.3,5.4,9.1,7.5,14.1c3.7,9.2,6.3,22.6,3.7,32.3
			c-0.4,1.7-1.1,3.4-2.6,4.4c-2.3,1.5-5.6,0.3-7.3-1.9c-1.7-2.2-2.1-5.1-2.5-7.8C119,408.2,118.6,405.6,118.2,402.9z"/>
		<path id="XMLID_115_" class="st12" d="M133.2,447.2L133.2,447.2c-9.1,0-16.8-6.8-17.9-15.8l-2.8-22.6h40.9l-2.3,22.3
			C150.2,440.3,142.4,447.2,133.2,447.2z"/>
		<path id="XMLID_116_" class="st29" d="M140.2,399.8c0.4-3.4,0-7.1,1.8-10c2.4-3.9,8-5.6,8.9-10c1-4.3-3.2-9-1.3-13
			c1.6-3.4,6.6-4,8.2-7.4c1.4-3-0.7-6.3-1.2-9.6c-0.6-3.9,1.2-8.2,4.5-10.4c0.7-0.4,1.4-0.8,2.2-0.8c2.1,0.1,2.9,3,2.2,5
			c-0.7,2-2.4,3.6-3,5.6c-1.8,5.5,3.8,12.5-0.2,16.6c-1.2,1.2-2.9,1.7-4.2,2.9c-4.1,3.9,0,11.2-2.5,16.4c-1.6,3.4-5.9,5-7.6,8.3
			c-1.2,2.2-1.1,4.7-1.5,7.2c-0.4,2.6-1.4,5.3-3.4,7c-2.1,1.9-5.1,2.7-5.6-0.5C137.2,405.4,140,401.9,140.2,399.8z"/>
		<linearGradient id="XMLID_151_" gradientUnits="userSpaceOnUse" x1="132.4025" y1="403.7643" x2="136.6554" y2="438.4957">
			<stop  offset="0" style="stop-color:#201B59;stop-opacity:0.9148"/>
			<stop  offset="0.5554" style="stop-color:#2D3A8D;stop-opacity:0"/>
		</linearGradient>
		<path id="XMLID_117_" class="st30" d="M118.3,423.4c4.6-1.1,9.2-2.1,13.7-3.3c6.9-1.9,13.8-3.9,20.7-6c0.1,0,0.2-0.1,0.3-0.1
			l0.5-5.1h-40.9l1.9,15.4C115.7,424,117,423.7,118.3,423.4"/>
		<polygon id="XMLID_118_" class="st12" points="155.9,411.3 111,411.3 108.5,401.5 157.5,401.5 		"/>
	</g>
	<g id="XMLID_119_">
		<path id="XMLID_198_" class="st28" d="M565.1,393.6c-1.4-5.3-3.2-10.8-1.7-16c1-3.5,3.4-6.5,4.3-10c1.6-5.7-0.8-11.8,0.2-17.6
			c1-5.5,4.9-10,7-15.2c2.8-6.9,2.3-14.6,4.7-21.6c0.8-2.3,1.9-4.5,3.9-5.8c2-1.3,5.1-1.1,6.4,0.8c0.8,1.1,0.8,2.6,0.8,3.9
			c-0.6,14.6-12.4,27.7-10.2,42.1c0.6,4.1,2.4,8.2,1.3,12.3c-1,4-4.5,6.8-6.2,10.6c-1.9,4.1-1.4,8.8-0.8,13.3
			c0.6,4.5,1.2,9.1-0.3,13.3c-0.8,2.2-7.7,9.7-10,5.8c-0.3-0.5,1.8-6,1.9-7C566.5,399.4,565.9,396.4,565.1,393.6z"/>
		<g id="XMLID_120_">
			<path id="XMLID_197_" class="st29" d="M559.7,399.9c0-0.1,0-0.2,0-0.3c-0.2-3.5-2.6-6.4-5.2-8.7c-4.3-3.8-8.4-13.7-9.2-19.5
				c-0.5-4,0.2-8-0.1-12c-0.5-6.2-3.2-11.9-5.1-17.8c-1.7-5.4-2.6-11.1-2.8-16.8c-0.1-2.2,0.2-4.9,2.2-6c1.6-0.9,3.7-0.4,5.1,0.9
				c1.4,1.2,2.1,3,2.6,4.8c2.7,8.8,1.7,18.6,5.5,26.9c1.7,3.8,4.4,7.3,5.2,11.4c0.8,4.5-0.7,9.2,0.4,13.6c1.9,7.4,9.1,11.6,9.7,19.6
				c0.1,0.9,0.1,1.8,0.3,2.7c0.4,1.3,1.3,2.4,2.1,3.6c2,3,5.2,9.6,1.9,12.3c-5.9,4.8-12.8-5.4-12.9-10.4
				C559.4,402.8,559.7,401.4,559.7,399.9z"/>
			<path id="XMLID_196_" class="st29" d="M578.2,389.8c0.6-2,1.2-4,2.4-5.7c2.2-3.1,6.3-4.9,7.5-8.6c0.5-1.5,0.4-3.1,0.6-4.7
				c0.3-2.8,1.8-5.6,4.1-7.2c2.3-1.6,5.6-1.9,8-0.4c3.1,1.9,4.1,5.9,4.7,9.6c1.8,11.3,2.8,23.5-2.7,33.5c-0.3,0.5-0.5,0.9-1,1.2
				c-1.3,0.8-2.9-0.5-3.6-1.8c-3.4-6.4,0.8-14.8-2.5-21.2c-0.3-0.5-0.7-1-1.2-1.1c-0.5,0-0.8,0.3-1.1,0.6c-1.7,1.9-1.9,4.8-3.6,6.7
				c-1.5,1.7-4,2.4-5.5,4c-1.3,1.4-1.8,3.3-2.3,5.2c-0.9,3.3-1.9,16.7-6.8,10.9C570.9,405.7,576.6,395.1,578.2,389.8z"/>
			<path id="XMLID_123_" class="st12" d="M570.4,449h-0.7c-9.6,0-17.7-7.2-18.8-16.7l-3-24.7h44l-2.6,24.3
				C588.3,441.7,580.1,449,570.4,449z"/>
			<linearGradient id="XMLID_153_" gradientUnits="userSpaceOnUse" x1="569.1804" y1="402.1983" x2="573.7595" y2="439.5939">
				<stop  offset="0" style="stop-color:#201B59;stop-opacity:0.9148"/>
				<stop  offset="0.5554" style="stop-color:#2D3A8D;stop-opacity:0"/>
			</linearGradient>
			<path id="XMLID_124_" class="st31" d="M568.7,419.7c7.5-2.1,14.9-4.2,22.3-6.5c0.1,0,0.2-0.1,0.3-0.1l0.6-5.5h-44l2,16.6
				C556.2,422.7,562.5,421.4,568.7,419.7z"/>
			<polygon id="XMLID_125_" class="st12" points="594.5,410.3 546.1,410.3 543.5,399.7 596.2,399.7 			"/>
		</g>
	</g>
	<g id="XMLID_126_">
		<g id="XMLID_127_">
			<defs>
				<path id="XMLID_182_" d="M497.9,411.2c0.3-1.8,0.9-3.5,2.3-4.3c2.1-1.2,4.8-0.2,7.2-0.6c6.7-1.3,6.6-10.6,6.5-15.8
					c-0.1-3.3-0.2-6.6-0.4-9.8c-0.1-0.9-0.1-1.8-0.6-2.5c-0.8-1.3-2.7-1.7-4.2-1.3c-2.9,0.8-4.6,4-5.1,7c-0.5,3-0.3,6.1-1.1,9.1
					c-0.1,0.6-0.3,1.1-0.7,1.6c-0.4,0.5-0.9,1-1.5,1.3c-0.9,0.4-1.9,0.5-2.7,0c-0.9-0.6-0.8-1.3-0.8-2.2c0-1.1-0.1-2.2-0.3-3.3
					c-0.3-2.5-0.5-4.9-0.8-7.4c-0.5-4.9-0.9-9.7-1.4-14.6c-0.2-2.2-0.5-4.5-1.6-6.5c-4.8-8.6-12.1-1-12.8,5.2
					c-1.5,14.3,5.9,27.8,5.3,42c0,0.6-0.1,1.2-0.3,1.8c-1.1,2.2-4.7,1.8-6.4,0.6c-2.6-2-1.7-6.4-1.7-9c0-2.1-0.7-4.6-2.8-5.6
					c-2.4-1.1-5.4,0.2-6.8,2.3c-1.7,2.7-1.5,7.4-1.3,10.4c0.2,2.2,0.7,4.4,2,6.3c1.3,1.9,3.4,3.3,5.8,3.4c1.4,0.1,3-0.2,4,0.6
					c1.3,1,0.8,2.9,0.9,4.4c0.1,3.1,2.7,5.7,5.8,7c3,1.3,6.5,1.5,9.8,1.7c2.8-4.6,3-9.8,3.2-14.9
					C497.8,416.2,497.6,413.5,497.9,411.2z"/>
			</defs>
			<clipPath id="XMLID_155_">
				<use xlink:href="#XMLID_182_"  style="overflow:visible;"/>
			</clipPath>
			<g id="XMLID_128_" class="st32">
				<g id="XMLID_129_">
					<path id="XMLID_190_" class="st28" d="M497.9,411.2c0.3-1.8,0.9-3.5,2.3-4.3c2.1-1.2,4.8-0.2,7.2-0.6
						c6.7-1.3,6.6-10.6,6.5-15.8c-0.1-3.3-0.2-6.6-0.4-9.8c-0.1-0.9-0.1-1.8-0.6-2.5c-0.8-1.3-2.7-1.7-4.2-1.3c-2.9,0.8-4.6,4-5.1,7
						c-0.5,3-0.3,6.1-1.1,9.1c-0.1,0.6-0.3,1.1-0.7,1.6c-0.4,0.5-0.9,1-1.5,1.3c-0.9,0.4-1.9,0.5-2.7,0c-0.9-0.6-0.8-1.3-0.8-2.2
						c0-1.1-0.1-2.2-0.3-3.3c-0.3-2.5-0.5-4.9-0.8-7.4c-0.5-4.9-0.9-9.7-1.4-14.6c-0.2-2.2-0.5-4.5-1.6-6.5
						c-4.8-8.6-12.1-1-12.8,5.2c-1.5,14.3,5.9,27.8,5.3,42c0,0.6-0.1,1.2-0.3,1.8c-1.1,2.2-4.7,1.8-6.4,0.6c-2.6-2-1.7-6.4-1.7-9
						c0-2.1-0.7-4.6-2.8-5.6c-2.4-1.1-5.4,0.2-6.8,2.3c-1.7,2.7-1.5,7.4-1.3,10.4c0.2,2.2,0.7,4.4,2,6.3c1.3,1.9,3.4,3.3,5.8,3.4
						c1.4,0.1,3-0.2,4,0.6c1.3,1,0.8,2.9,0.9,4.4c0.1,3.1,2.7,5.7,5.8,7c3,1.3,6.5,1.5,9.8,1.7c2.8-4.6,3-9.8,3.2-14.9
						C497.8,416.2,497.6,413.5,497.9,411.2z"/>
					<path id="XMLID_189_" class="st33" d="M488.9,358.4c3.4,23.7,6.4,47.8,2.2,71.4"/>
					<path id="XMLID_188_" class="st33" d="M485.6,358.3c-1,4.4-1.9,8.9-1.9,13.4c0,8.6,3.7,16.8,5.1,25.3
						c1.6,9.5,0.4,19.1-0.8,28.7"/>
					<path id="XMLID_187_" class="st33" d="M493,400.1c4.1-0.6,9.1-1.2,11.7-4.5c0.4-0.5,0.7-1,0.9-1.5c0.7-2.2,0.3-4.8,0.3-7.1
						c0-2.2,0-6.1,0-9"/>
					<path id="XMLID_186_" class="st33" d="M489.3,415.8c-3.7,0.6-7.8,1.1-11-0.7c-2-1.1-3.3-3-4-5c-0.7-2-0.8-4.1-0.8-6.2
						c0-2.3,0.2-4.6,0.6-6.9"/>
					<path id="XMLID_185_" class="st33" d="M493,403.9c4.7-0.7,9.3-1.9,13.8-3.6c0.9-0.3,1.9-0.7,2.6-1.4c0.7-0.7,1.1-1.7,1.4-2.7
						c0.6-2.1,0.9-16.8,0.2-20.4"/>
				</g>
			</g>
		</g>
		<path id="XMLID_180_" class="st19" d="M475.5,424.9l27.8-0.6l-1.5,12.4c-0.8,6.1-6,10.7-12.1,10.7l0,0c-6,0-11.1-4.3-12.1-10.2
			L475.5,424.9z"/>
	</g>
	<g id="XMLID_130_">
		<circle id="XMLID_178_" class="st34" cx="430.6" cy="139.5" r="17.2"/>
		<path id="XMLID_131_" class="st35" d="M429.8,128.8c0,0.8,0.8,13.1,0.8,13.1l9.8-6.5"/>
	</g>
	<g id="XMLID_132_">
		<path id="XMLID_175_" class="st35" d="M375.8,286.7l9.2-5.6h44.6c4.6,0,8.3-3.7,8.3-8.3v-7.2c0-4.6-3.7-8.3-8.3-8.3h-45.5
			c-4.6,0-8.3,3.7-8.3,8.3V286.7z"/>
		<g id="XMLID_133_">
			<ellipse id="XMLID_134_" class="st15" cx="398.1" cy="269.2" rx="1.7" ry="1.8"/>
			<ellipse id="XMLID_135_" class="st15" cx="408.6" cy="269.2" rx="1.7" ry="1.8"/>
			<ellipse id="XMLID_136_" class="st15" cx="419" cy="269.2" rx="1.7" ry="1.8"/>
		</g>
	</g>
	<g id="XMLID_137_">
		<path id="XMLID_165_" class="st35" d="M489.9,170.1l9.2-5.6h44.6c4.6,0,8.3-3.7,8.3-8.3V149c0-4.6-3.7-8.3-8.3-8.3h-45.5
			c-4.6,0-8.3,3.7-8.3,8.3V170.1z"/>
		<g id="XMLID_138_">
			<ellipse id="XMLID_139_" class="st15" cx="512.3" cy="152.6" rx="1.7" ry="1.8"/>
			<ellipse id="XMLID_140_" class="st15" cx="522.7" cy="152.6" rx="1.7" ry="1.8"/>
			<ellipse id="XMLID_141_" class="st15" cx="533.2" cy="152.6" rx="1.7" ry="1.8"/>
		</g>
	</g>
	<g id="XMLID_142_">
		<path id="XMLID_159_" class="st35" d="M387.6,204.5l-9.2-5.6h-44.6c-4.6,0-8.3-3.7-8.3-8.3v-7.2c0-4.6,3.7-8.3,8.3-8.3h45.5
			c4.6,0,8.3,3.7,8.3,8.3V204.5z"/>
		<g id="XMLID_143_">
			<ellipse id="XMLID_158_" class="st15" cx="365.2" cy="187" rx="1.7" ry="1.8"/>
			<ellipse id="XMLID_157_" class="st15" cx="354.8" cy="187" rx="1.7" ry="1.8"/>
			<ellipse id="XMLID_156_" class="st15" cx="344.3" cy="187" rx="1.7" ry="1.8"/>
		</g>
	</g>
	<g id="XMLID_144_">
		<path id="XMLID_145_" class="st35" d="M193.6,122.9c1.5,4.5,2.6,9.1,3.2,13.8"/>
		<path id="XMLID_146_" class="st35" d="M206.3,118.7c-0.9,5.1-1.8,10.3-2.7,15.4"/>
		<path id="XMLID_147_" class="st35" d="M219.6,126.1c-2,2-3.7,4.3-4.8,6.9"/>
	</g>
</g>
<text id="XMLID_1_" transform="matrix(1 0 0 1 59.1109 538.2224)" class="st36 st37">Your project has no bugs!</text>
<g id="XMLID_154_">
	<linearGradient id="XMLID_161_" gradientUnits="userSpaceOnUse" x1="454.8942" y1="705.7356" x2="385.8289" y2="665.5649">
		<stop  offset="0" style="stop-color:#9A5CFF"/>
		<stop  offset="1" style="stop-color:#5577FF"/>
	</linearGradient>
	<path id="XMLID_152_" class="st38" d="M445.3,679H288.6c-4.2,0-7.5-3.4-7.5-7.5v-33.7c0-4.2,3.4-7.5,7.5-7.5h156.7
		c4.2,0,7.5,3.4,7.5,7.5v33.7C452.8,675.6,449.4,679,445.3,679z"/>
	<text id="XMLID_33_" transform="matrix(1 0 0 1 318.4533 659.2224)" class="st15 st36 st39">Continue!</text>
</g>
<text id="XMLID_36_" transform="matrix(1 0 0 1 240.1755 591.4449)" class="st40 st36 st39">You unlocked a new level</text>
</svg>
