<?xml version="1.0" encoding="utf-8"?>
<!-- Generator: Adobe Illustrator 19.0.0, SVG Export Plug-In . SVG Version: 6.00 Build 0)  -->
<svg version="1.1" id="Layer_1" xmlns="http://www.w3.org/2000/svg" xmlns:xlink="http://www.w3.org/1999/xlink" x="0px" y="0px"
	 viewBox="0 0 750 750" style="enable-background:new 0 0 750 750;" xml:space="preserve">
<style type="text/css">
	.st0{fill:#FCFCFC;}
	.st1{fill:url(#XMLID_7_);}
	.st2{fill:#D1E1E8;}
	.st3{fill:url(#XMLID_10_);}
	.st4{opacity:0.6;}
	.st5{fill:#FFFFFF;}
	.st6{fill:url(#XMLID_11_);}
	.st7{fill:url(#XMLID_12_);}
	.st8{fill:url(#XMLID_13_);}
	.st9{opacity:0.4;}
	.st10{fill:url(#XMLID_15_);}
	.st11{fill:url(#XMLID_16_);}
	.st12{fill:#FFBA98;}
	.st13{fill:#154593;}
	.st14{fill:#C49882;}
	.st15{fill:#F6BA99;}
	.st16{fill:#FF957E;}
	.st17{fill:url(#XMLID_44_);}
	.st18{fill:#00143A;}
	.st19{opacity:0.15;fill:#00143A;}
	.st20{fill:url(#XMLID_47_);}
	.st21{fill:url(#XMLID_117_);}
	.st22{fill:url(#XMLID_263_);}
	.st23{fill:#EFDFD2;}
	.st24{fill:url(#XMLID_264_);}
	.st25{fill:url(#XMLID_265_);}
	.st26{fill:url(#XMLID_266_);}
	.st27{fill:url(#XMLID_267_);}
	.st28{fill:url(#XMLID_268_);}
	.st29{opacity:0.34;fill:url(#XMLID_269_);}
	.st30{fill:#FF8771;}
	.st31{fill:url(#XMLID_270_);}
	.st32{fill:url(#XMLID_271_);}
	.st33{fill:url(#XMLID_272_);}
	.st34{fill:url(#XMLID_273_);}
	.st35{fill:url(#XMLID_274_);}
	.st36{fill:url(#XMLID_275_);}
	.st37{fill:url(#XMLID_276_);}
	.st38{fill:url(#XMLID_277_);}
	.st39{fill:url(#XMLID_278_);}
	.st40{fill:url(#XMLID_279_);}
	.st41{fill:#D1AC9D;}
	.st42{fill:#DDDDDD;}
	.st43{fill:url(#XMLID_280_);}
	.st44{fill:url(#XMLID_281_);}
	.st45{fill:url(#XMLID_282_);}
	.st46{fill:url(#XMLID_283_);}
	.st47{fill:url(#XMLID_284_);}
	.st48{fill:url(#XMLID_285_);}
	.st49{opacity:0.34;clip-path:url(#XMLID_286_);fill:url(#XMLID_287_);}
	.st50{clip-path:url(#XMLID_286_);}
	.st51{fill:url(#XMLID_288_);}
	.st52{fill:url(#XMLID_289_);}
	.st53{fill:url(#XMLID_290_);}
	.st54{opacity:0.36;clip-path:url(#XMLID_292_);}
	.st55{fill:none;stroke:#456594;stroke-width:8.469600e-02;stroke-miterlimit:10;}
	.st56{fill:#F2957E;}
	.st57{fill:url(#XMLID_293_);}
	.st58{fill:url(#XMLID_294_);}
	.st59{fill:url(#XMLID_295_);}
	.st60{fill:url(#XMLID_296_);}
	.st61{font-family:'MyriadPro-Regular';}
	.st62{font-size:60px;}
	.st63{fill:url(#XMLID_297_);}
	.st64{font-size:24px;}
	.st65{fill:#546BDD;}
</style>
<g id="Layer_2">
	<rect id="XMLID_37_" y="-1.9" class="st0" width="750" height="751.9"/>
	<linearGradient id="XMLID_7_" gradientUnits="userSpaceOnUse" x1="400.1512" y1="335.0541" x2="500.4313" y2="91.9285">
		<stop  offset="0" style="stop-color:#EDEDED"/>
		<stop  offset="0.9189" style="stop-color:#7ECAE6"/>
	</linearGradient>
	<path id="XMLID_262_" class="st1" d="M237.4,233.1c11.9-8.6,26.7-13.6,35.8-25.3c9.2-11.7,10.8-27.7,15.4-42
		c4.9-15,13.7-29,26.7-37.5c13-8.5,30.3-10.6,43.9-3.1c8.8,4.8,15.6,13.3,25,16.9c14,5.5,29.5-1,43.7-6.1c14.2-5,31.9-7.8,42.6,3
		c7.8,7.8,10.1,21.2,20,26c6.9,3.3,15,1,22.5-0.4c15.4-3,31.9-2.1,46.2,4.6c14.3,6.7,26.2,19.5,30.1,35.2
		c3.3,13.3,1.1,28.1,7.4,40.2c2.8,5.5,7.2,9.9,10.9,14.8c12.8,16.7,17.8,39.4,13.3,60.1c-5.3,24.6-22.8,44-46.2,51.1
		c-56.1,17.2-117.9,14.3-172.3-8.2c-10.2-4.2-20.2-9.1-30.9-11.2c-19.4-3.9-39.3,1.5-57.9,8.2c-18.6,6.8-37,15-56.6,17.3
		c-14.2,1.7-21.6-1.4-30.1-12.7C199.7,327.8,198.1,261.6,237.4,233.1z"/>
	<g id="XMLID_64_">
		<ellipse id="XMLID_261_" class="st2" cx="426.9" cy="433.7" rx="146.5" ry="8"/>
		<g id="XMLID_249_">
			<g id="XMLID_256_">
				<g id="XMLID_257_">
					<g id="XMLID_258_">
						<g id="XMLID_259_">
							
								<linearGradient id="XMLID_10_" gradientUnits="userSpaceOnUse" x1="944.2827" y1="148.2339" x2="1039.1915" y2="51.1516" gradientTransform="matrix(0.9958 9.230000e-02 -9.230000e-02 0.9958 -424.3973 140.3511)">
								<stop  offset="0" style="stop-color:#19507E"/>
								<stop  offset="0.1718" style="stop-color:#1F6282"/>
								<stop  offset="0.7283" style="stop-color:#2F968D"/>
								<stop  offset="1" style="stop-color:#36AB92"/>
							</linearGradient>
							<path id="XMLID_260_" class="st3" d="M497.1,370.2c0,0,45.8,6.7,67.3-1c3-1.1,6-2.3,8.3-4.4c3.1-2.8,4.7-7.8,2.1-11
								c-2.6-3.1-7.5-2.6-11.2-4.5c5.3-0.7,10.7-1.5,15.5-3.9c4.8-2.4,9-6.6,10.2-11.8c0.2-0.9,0.3-1.9,0-2.8
								c-0.8-2.4-3.9-3.2-6.4-2.8s-4.9,1.6-7.5,1.3c6.2-2.2,11.3-7,14.7-12.6c3.4-5.6,5.3-12.1,6.5-18.5c1.1-5.8,1.9-12.2,6.2-16.3
								c-9.9,3-20.7,1.8-30.6,4.8C561.9,290,553,298,548.7,308c0.2-3.8,0.1-8.3-3.2-10.3c-3.1-1.9-7.1-0.1-10,2.2
								c-7.8,6.4-11.8,16.3-14.6,26c-0.3-3.6-1.3-8.1-4.8-9.1c-3.2-0.9-6.3,1.7-8.2,4.4C502.9,328.4,497.1,370.2,497.1,370.2z"/>
						</g>
					</g>
				</g>
			</g>
			<g id="XMLID_250_" class="st4">
				<path id="XMLID_255_" class="st5" d="M497.1,370.4c3-0.1,5.9-0.4,8.9-0.9l1.1,0c4.9,0,9.7-0.1,14.6-0.3
					c4.9-0.2,9.7-0.5,14.6-0.8c4.9-0.4,9.7-0.9,14.5-1.6c1.2-0.1,2.4-0.4,3.6-0.6c1.2-0.2,2.4-0.4,3.6-0.6c1.2-0.2,2.4-0.4,3.6-0.7
					l3.6-0.9c-4.8,0.8-9.6,1.4-14.4,1.9c-4.8,0.5-9.7,0.8-14.5,1.1c-4.8,0.3-9.7,0.5-14.5,0.6c-2.7,0.1-5.4,0.1-8.1,0.2
					c5-1.4,9.9-3.4,14.5-5.8c0.2-0.1,0.4-0.2,0.6-0.3c2.1-0.2,4.1-0.4,6.2-0.7c3.3-0.4,6.6-0.8,9.8-1.3c3.3-0.5,6.5-1,9.8-1.7
					c3.2-0.6,6.5-1.3,9.7-2.1c-3.3,0.4-6.5,0.9-9.8,1.3c-3.3,0.4-6.5,0.8-9.8,1.2l-9.8,1.1c-0.8,0.1-1.6,0.2-2.4,0.2
					c3.3-1.9,6.4-4,9.4-6.3c2-1.5,3.9-3.2,5.7-4.9c0.8-0.3,1.5-0.7,2.3-1c3.4-1.3,6.9-2.5,10.3-3.7c3.5-1.1,7-2.2,10.5-3.2
					c3.5-1,7.1-2,10.5-3.4c-3.5,1-7.1,1.8-10.7,2.6c-3.6,0.8-7.2,1.7-10.7,2.7c-3.2,0.9-6.4,1.9-9.5,3.1c1.1-1.2,2.2-2.3,3.2-3.5
					c1.1-1.2,2.1-2.5,3.1-3.8c1.5-1.1,3-2.1,4.5-3.1c2.4-1.6,4.8-3.1,7.3-4.7l14.6-9.2c-2.6,1.2-5.2,2.5-7.8,3.9
					c-2.6,1.3-5.1,2.7-7.6,4.2c-2.5,1.4-5,2.9-7.4,4.5c-0.2,0.1-0.4,0.3-0.6,0.4c2.8-3.9,5.3-8,7.7-12.1l4.2-4.3
					c1.7-1.8,3.5-3.4,5.3-5c1.8-1.6,3.8-3.1,5.8-4.5c2-1.5,4-2.8,6-4.3c-2.2,1.1-4.4,2.3-6.5,3.6c-2.1,1.3-4.2,2.7-6.1,4.2
					c-2,1.5-3.8,3.2-5.6,4.9c0.2-0.4,0.5-0.8,0.7-1.2c2.5-4.6,5.1-9.2,8.3-13.4c0.1-0.1,0.1-0.2,0.2-0.2l0.2,0.1l0.1-0.5
					c3.1-3.8,6.8-7.2,11.4-9.2c0.1,0,0.2-0.2,0.1-0.3c0-0.1-0.2-0.2-0.3-0.1c-2.5,0.9-4.9,2.2-7,3.8c-1.3,1-2.5,2-3.6,3.2
					c0-0.1,0-0.1,0-0.2c0.2-1.1,0.3-2.2,0.3-3.3c0-1.1-0.1-2.2-0.3-3.3c-0.2-1.1-0.6-2.1-1.1-3.1c0.4,1,0.6,2.1,0.7,3.1
					c0.1,1.1,0,2.1-0.1,3.2c-0.1,1-0.4,2.1-0.7,3.1c-0.2,0.5-0.4,1-0.5,1.5l-0.6,1.4l0.1,0c-3.5,4.1-6.3,8.6-9,13
					c-0.6,1.1-1.3,2.1-1.9,3.2c0.1-0.6,0.1-1.2,0.2-1.8c0.2-2.3,0.4-4.6,0.4-6.9c0.1-2.3,0-4.6-0.2-6.9c-0.2-2.3-0.5-4.6-1.1-6.8
					c0.2,2.3,0.3,4.6,0.3,6.9c0,2.3-0.1,4.6-0.3,6.8c-0.2,2.3-0.4,4.5-0.7,6.8c-0.2,1.8-0.5,3.5-0.7,5.3c-3.2,4.9-6.5,9.7-10.2,14.2
					c0.1-1,0.2-2,0.3-3c0.2-2.5,0.3-5.1,0.4-7.6c0.1-2.5,0-5.1,0-7.6c-0.1-2.5-0.2-5.1-0.5-7.6c-0.1,2.5-0.1,5.1-0.2,7.6
					c-0.1,2.5-0.3,5.1-0.4,7.6c-0.2,2.5-0.4,5-0.7,7.5c-0.2,1.8-0.4,3.6-0.6,5.4c-0.7,0.8-1.5,1.6-2.2,2.4c-2.6,2.8-5.4,5.3-8.3,7.7
					c0.5-2.2,0.8-4.4,1.1-6.6c0.4-4,0.6-8,0.6-12c0.1-4-0.1-8-0.3-12c-0.3-4-0.7-7.9-1.3-11.9c0.2,4,0.4,7.9,0.4,11.9
					c0.1,4,0,7.9-0.2,11.9c-0.2,4-0.4,7.9-0.9,11.8c-0.3,2.9-0.8,5.7-1.6,8.5c-0.4,0.3-0.8,0.6-1.1,0.8c-3.9,2.8-8,5.5-12.1,7.9
					c0.7-2.3,1.3-4.7,1.7-7.1c0.7-3.7,1.1-7.3,1.4-11c0.3-3.7,0.3-7.4,0.3-11.1c-0.1-3.7-0.2-7.4-0.6-11.1c0,3.7-0.1,7.4-0.3,11
					c-0.2,3.7-0.4,7.3-0.8,11c-0.4,3.6-0.9,7.3-1.6,10.8c-0.6,3-1.4,5.9-2.3,8.7c-4.1,2.3-8.3,4.3-12.7,6.1c-1,0.4-2,0.8-3.1,1.1
					c1-2.4,1.8-4.9,2.6-7.4c1-3.4,1.7-6.9,2.3-10.5c0.6-3.5,1-7.1,1.3-10.6c0.3-3.5,0.5-7.1,0.5-10.6c-0.3,3.5-0.7,7.1-1.2,10.6
					c-0.5,3.5-1,7-1.7,10.5c-0.7,3.5-1.5,6.9-2.5,10.3c-0.9,2.9-2,5.8-3.3,8.6c-0.7,0.2-1.5,0.5-2.2,0.7c-2.5,0.8-5,1.5-7.6,2.2
					c-0.1,0-0.2,0.1-0.2,0.2C496.9,370.4,497,370.4,497.1,370.4z"/>
				<path id="XMLID_254_" class="st5" d="M509,337.4c-0.1,1.1,0,2.3,0.2,3.4c0.5-1.1,0.8-2.1,1.1-3.2c0.3-1.1,0.6-2.1,0.8-3.2
					c0.2-1.1,0.4-2.2,0.5-3.2c0.2-1.1,0.3-2.2,0.4-3.3c-0.8,0.9-1.3,1.9-1.7,3c-0.4,1.1-0.7,2.1-0.9,3.2
					C509.2,335.2,509.1,336.3,509,337.4z"/>
				<path id="XMLID_253_" class="st5" d="M508.1,337.9c0.1-1.1,0.1-2.1,0.1-3.2c0-1.1-0.1-2.1-0.3-3.2c-0.5,1-0.8,2.1-1,3.1
					c-0.2,1-0.4,2.1-0.5,3.2c-0.1,1.1-0.1,2.1-0.1,3.2c0.1,1.1,0.2,2.1,0.5,3.2c0.4-1,0.7-2.1,0.8-3.1
					C507.9,340.1,508.1,339,508.1,337.9z"/>
				<path id="XMLID_252_" class="st5" d="M535.3,311.1c0,0.9,0.2,1.9,0.6,2.8c0.3-0.9,0.5-1.8,0.7-2.7c0.2-0.9,0.4-1.7,0.6-2.6
					l0.5-2.6c0.2-0.9,0.3-1.8,0.4-2.7c-0.7,0.7-1.2,1.5-1.7,2.3c-0.4,0.8-0.7,1.7-0.9,2.7C535.3,309.3,535.3,310.2,535.3,311.1z"/>
				<path id="XMLID_251_" class="st5" d="M533.5,311.5c0.1-0.9,0.2-1.8,0.3-2.7c0.1-0.9,0.1-1.8,0.1-2.8c-0.6,0.8-1.1,1.6-1.4,2.5
					c-0.3,0.9-0.5,1.8-0.7,2.8c-0.1,0.9-0.1,1.9,0,2.8c0.1,0.9,0.3,1.9,0.8,2.8c0.3-0.9,0.4-1.9,0.5-2.7
					C533.2,313.2,533.4,312.3,533.5,311.5z"/>
			</g>
		</g>
		<g id="XMLID_237_">
			<g id="XMLID_244_">
				<g id="XMLID_245_">
					<g id="XMLID_246_">
						<g id="XMLID_247_">
							
								<linearGradient id="XMLID_11_" gradientUnits="userSpaceOnUse" x1="861.0903" y1="136.4779" x2="956.004" y2="39.3907" gradientTransform="matrix(0.6745 -0.7383 0.7383 0.6745 -272.8577 891.9221)">
								<stop  offset="0" style="stop-color:#19507E"/>
								<stop  offset="0.1718" style="stop-color:#1F6282"/>
								<stop  offset="0.7283" style="stop-color:#2F968D"/>
								<stop  offset="1" style="stop-color:#36AB92"/>
							</linearGradient>
							<path id="XMLID_248_" class="st6" d="M401.7,349.4c0,0,33-32.5,39.8-54.3c1-3,1.8-6.2,1.5-9.3c-0.3-4.1-3.4-8.5-7.5-8.3
								c-4.1,0.2-6.6,4.4-10.3,6.2c2.7-4.6,5.2-9.5,6.2-14.8c1-5.3,0.2-11.1-3.3-15.2c-0.6-0.7-1.3-1.4-2.2-1.7
								c-2.4-0.9-4.9,1.2-6.1,3.4c-1.2,2.2-1.7,4.9-3.4,6.8c2-6.3,1.3-13.2-1.2-19.3c-2.4-6.1-6.4-11.5-10.8-16.4
								c-4-4.4-8.5-8.9-9.2-14.7c-3.6,9.7-11,17.6-14.6,27.3c-3.8,10.3-2.8,22.1,2.6,31.6c-2.9-2.5-6.6-5.1-10.1-3.7
								c-3.4,1.3-4.4,5.6-4.3,9.3c0.4,10.1,5.9,19.2,11.9,27.3c-3.1-1.9-7.2-3.8-10.1-1.7c-2.7,2-2.4,6.1-1.4,9.2
								C371.9,319.5,401.7,349.4,401.7,349.4z"/>
						</g>
					</g>
				</g>
			</g>
			<g id="XMLID_238_" class="st4">
				<path id="XMLID_243_" class="st5" d="M401.9,349.5c1.7-2.4,3.2-5,4.6-7.6l0.6-0.8c3-3.9,5.8-7.8,8.6-11.8c2.8-4,5.5-8,8.1-12.1
					c2.6-4.1,5.2-8.3,7.5-12.5c0.6-1.1,1.2-2.1,1.7-3.2c0.6-1.1,1.1-2.2,1.7-3.3c0.5-1.1,1.1-2.2,1.6-3.3l1.5-3.3
					c-2.2,4.3-4.7,8.5-7.2,12.6c-2.5,4.1-5.2,8.2-7.9,12.2c-2.7,4-5.5,8-8.3,12c-1.6,2.2-3.1,4.4-4.7,6.6c1.9-4.8,3.3-9.9,4.1-15
					c0-0.2,0.1-0.5,0.1-0.7c1.1-1.8,2.2-3.6,3.2-5.4c1.7-2.9,3.3-5.7,4.9-8.6c1.6-2.9,3.1-5.8,4.6-8.8c1.5-3,2.9-5.9,4.2-9
					c-1.6,2.9-3.2,5.8-4.9,8.6c-1.6,2.9-3.3,5.7-5,8.5l-5.1,8.5c-0.4,0.7-0.8,1.4-1.3,2.1c0.4-3.7,0.6-7.5,0.6-11.3
					c0-2.5-0.2-5-0.5-7.5c0.2-0.8,0.4-1.6,0.6-2.4c1-3.5,2.1-7,3.3-10.5c1.2-3.5,2.5-6.9,3.8-10.3c1.3-3.4,2.7-6.9,3.6-10.4
					c-1.3,3.4-2.8,6.8-4.4,10.1c-1.5,3.3-3,6.7-4.3,10.2c-1.2,3.1-2.3,6.2-3.3,9.4c-0.3-1.6-0.6-3.1-0.9-4.7
					c-0.3-1.6-0.7-3.2-1.2-4.8c0-1.8,0.1-3.7,0.3-5.5c0.2-2.9,0.4-5.7,0.7-8.6l1.5-17.2c-0.6,2.8-1.1,5.7-1.6,8.5
					c-0.5,2.8-0.9,5.7-1.3,8.6c-0.4,2.9-0.7,5.7-0.9,8.6c0,0.2,0,0.5,0,0.7c-1.4-4.6-3.2-9.1-5-13.5l-0.9-6
					c-0.4-2.4-0.6-4.8-0.8-7.3c-0.2-2.4-0.2-4.9-0.1-7.3c0-2.5,0.2-4.9,0.2-7.4c-0.5,2.4-0.8,4.9-1.1,7.3c-0.2,2.5-0.4,4.9-0.3,7.4
					c0,2.5,0.2,5,0.5,7.4c-0.2-0.4-0.4-0.9-0.6-1.3c-2.2-4.8-4.3-9.6-5.7-14.7c0-0.1,0-0.2-0.1-0.3l0.2-0.1l-0.3-0.4
					c-1.2-4.8-1.6-9.8-0.4-14.6c0-0.1,0-0.2-0.1-0.3c-0.1,0-0.2,0-0.3,0.1c-0.8,2.5-1.2,5.2-1.2,7.9c0,1.6,0.1,3.2,0.4,4.8
					c0,0-0.1-0.1-0.1-0.1c-0.8-0.8-1.6-1.6-2.5-2.3c-0.9-0.7-1.8-1.3-2.8-1.8c-1-0.5-2-0.9-3.1-1c1.1,0.3,2,0.8,2.9,1.3
					c0.9,0.6,1.7,1.3,2.5,2c0.7,0.7,1.4,1.6,2,2.4c0.3,0.4,0.6,0.9,0.9,1.3l0.8,1.4l0.1,0c1.2,5.2,3.1,10.2,5,15.1
					c0.5,1.2,0.9,2.3,1.4,3.5c-0.4-0.4-0.9-0.8-1.3-1.2c-1.7-1.6-3.4-3.1-5.3-4.5c-1.8-1.4-3.7-2.8-5.7-4c-2-1.2-4-2.3-6.1-3.2
					c2,1.2,3.9,2.5,5.7,3.9c1.8,1.4,3.6,2.8,5.3,4.4c1.7,1.5,3.4,3.1,5,4.7c1.3,1.3,2.5,2.5,3.8,3.8c2,5.5,3.8,11,5.2,16.7
					c-0.7-0.7-1.5-1.4-2.2-2c-1.9-1.7-3.8-3.3-5.8-4.9c-2-1.6-4-3.1-6.1-4.6c-2.1-1.4-4.2-2.9-6.4-4.2c2,1.6,4,3.1,5.9,4.8
					c2,1.6,3.9,3.3,5.8,4.9c1.9,1.7,3.8,3.4,5.6,5.1c1.3,1.3,2.6,2.5,3.9,3.8c0.2,1.1,0.4,2.1,0.6,3.2c0.7,3.7,1,7.5,1.1,11.2
					c-1.4-1.7-3-3.3-4.6-4.8c-3-2.7-6-5.3-9.2-7.7c-3.1-2.5-6.4-4.8-9.7-7c-3.4-2.2-6.7-4.3-10.3-6.1c3.3,2.2,6.6,4.4,9.8,6.8
					c3.2,2.4,6.3,4.8,9.4,7.3c3,2.5,6,5.1,8.9,7.8c2.1,2,4.1,4.1,5.8,6.4c0,0.5,0,0.9,0,1.4c-0.1,4.8-0.4,9.6-1,14.4
					c-1.4-2-3-3.9-4.6-5.7c-2.5-2.8-5.2-5.3-8-7.8c-2.8-2.4-5.7-4.7-8.7-6.9c-3-2.2-6-4.3-9.2-6.2c2.9,2.3,5.8,4.5,8.6,6.9
					c2.8,2.3,5.6,4.8,8.3,7.3c2.7,2.5,5.3,5.1,7.7,7.8c2,2.3,3.8,4.6,5.5,7.1c-0.6,4.7-1.6,9.3-2.8,13.8c-0.3,1-0.6,2.1-0.9,3.1
					c-1.3-2.3-2.8-4.4-4.4-6.5c-2.1-2.9-4.5-5.6-7-8.1c-2.5-2.6-5-5.1-7.7-7.4c-2.7-2.4-5.4-4.6-8.2-6.8c2.6,2.4,5.2,4.8,7.7,7.3
					c2.5,2.5,5,5.1,7.3,7.7c2.4,2.6,4.6,5.4,6.6,8.2c1.8,2.5,3.4,5.1,4.9,7.8c-0.2,0.7-0.5,1.5-0.7,2.2c-0.9,2.5-1.9,4.9-2.9,7.4
					c0,0.1,0,0.2,0.1,0.3C401.7,349.6,401.8,349.6,401.9,349.5z"/>
				<path id="XMLID_242_" class="st5" d="M382.8,320.1c0.9,0.7,1.8,1.4,2.8,1.9c-0.5-1-1.2-1.9-1.9-2.8c-0.7-0.9-1.4-1.7-2.1-2.5
					c-0.7-0.8-1.5-1.6-2.3-2.4c-0.8-0.8-1.6-1.5-2.4-2.3c0.2,1.1,0.8,2.2,1.4,3.1c0.6,1,1.3,1.9,2,2.7
					C381.1,318.6,381.9,319.4,382.8,320.1z"/>
				<path id="XMLID_241_" class="st5" d="M382.6,321.1c-0.8-0.7-1.6-1.4-2.5-2c-0.9-0.6-1.8-1.2-2.8-1.7c0.5,1,1.2,1.9,1.9,2.7
					c0.7,0.8,1.4,1.6,2.2,2.3c0.8,0.7,1.6,1.4,2.5,2c0.9,0.6,1.8,1.2,2.9,1.6c-0.6-1-1.3-1.8-2-2.6
					C384.2,322.6,383.4,321.8,382.6,321.1z"/>
				<path id="XMLID_240_" class="st5" d="M377.6,283.3c0.8,0.5,1.6,1,2.6,1.2c-0.5-0.8-1.1-1.5-1.7-2.2c-0.6-0.7-1.1-1.4-1.7-2
					l-1.7-2c-0.6-0.7-1.2-1.3-1.9-2c0.1,1,0.4,1.9,0.8,2.7c0.4,0.8,1,1.6,1.6,2.3C376.2,282.1,376.9,282.7,377.6,283.3z"/>
				<path id="XMLID_239_" class="st5" d="M376.8,284.9c-0.6-0.6-1.3-1.2-2-1.8c-0.7-0.6-1.4-1.2-2.2-1.8c0.2,1,0.7,1.8,1.2,2.6
					c0.5,0.8,1.1,1.5,1.8,2.2c0.7,0.7,1.4,1.2,2.3,1.7c0.8,0.5,1.7,0.9,2.7,1c-0.6-0.8-1.2-1.4-1.9-2.1
					C378.1,286.2,377.4,285.5,376.8,284.9z"/>
			</g>
		</g>
		<g id="XMLID_225_">
			<g id="XMLID_232_">
				<g id="XMLID_233_">
					<g id="XMLID_234_">
						<g id="XMLID_235_">
							
								<linearGradient id="XMLID_12_" gradientUnits="userSpaceOnUse" x1="888.5245" y1="173.6347" x2="983.4369" y2="76.5487" gradientTransform="matrix(0.8373 -0.5468 0.5468 0.8373 -380.5943 687.3207)">
								<stop  offset="0" style="stop-color:#CBC755"/>
								<stop  offset="1" style="stop-color:#629725"/>
							</linearGradient>
							<path id="XMLID_236_" class="st7" d="M451.2,346.2c0,0,40-23.2,52.1-42.6c1.7-2.7,3.3-5.5,3.8-8.6c0.7-4.1-1.2-9.1-5.2-9.9
								c-4-0.8-7.5,2.6-11.5,3.4c3.8-3.8,7.4-7.9,9.7-12.7c2.3-4.9,3-10.7,0.6-15.6c-0.4-0.8-0.9-1.7-1.7-2.2
								c-2.1-1.4-5-0.1-6.7,1.8s-2.9,4.3-5,5.7c3.5-5.6,4.5-12.5,3.7-19c-0.8-6.5-3.3-12.7-6.4-18.6c-2.7-5.2-6-10.7-5.3-16.6
								c-5.9,8.5-15,14.3-20.9,22.8c-6.2,9-8.2,20.7-5.4,31.3c-2.2-3.1-5.1-6.6-8.9-6.1c-3.6,0.5-5.7,4.4-6.4,7.9
								c-2.2,9.9,0.9,20.1,4.7,29.4c-2.5-2.6-6-5.5-9.4-4.1c-3.1,1.3-3.8,5.3-3.7,8.6C429.8,309.9,451.2,346.2,451.2,346.2z"/>
						</g>
					</g>
				</g>
			</g>
			<g id="XMLID_226_" class="st4">
				<path id="XMLID_231_" class="st5" d="M451.4,346.4c2.3-1.9,4.4-4,6.4-6.2l0.8-0.7c3.8-3,7.6-6.1,11.3-9.3
					c3.7-3.2,7.3-6.4,10.9-9.7c3.5-3.3,7.1-6.7,10.4-10.3c0.9-0.9,1.7-1.8,2.5-2.7c0.8-0.9,1.6-1.8,2.4-2.7c0.8-0.9,1.6-1.8,2.4-2.8
					l2.3-2.9c-3.3,3.6-6.7,7.1-10.2,10.4c-3.5,3.4-7.1,6.6-10.7,9.9c-3.6,3.2-7.3,6.4-11,9.5c-2.1,1.7-4.1,3.5-6.2,5.2
					c3-4.2,5.6-8.8,7.7-13.5c0.1-0.2,0.2-0.4,0.3-0.7c1.5-1.4,3-2.9,4.4-4.4c2.3-2.4,4.6-4.7,6.9-7.2c2.3-2.4,4.5-4.9,6.6-7.4
					c2.1-2.5,4.3-5,6.3-7.6c-2.3,2.4-4.5,4.8-6.9,7.1c-2.3,2.4-4.6,4.7-7,7l-7,6.9c-0.6,0.6-1.2,1.1-1.7,1.7
					c1.4-3.5,2.5-7.1,3.4-10.8c0.6-2.4,1.1-4.9,1.4-7.4c0.4-0.7,0.8-1.5,1.2-2.2c1.8-3.1,3.8-6.2,5.8-9.3c2-3.1,4.1-6.1,6.3-9
					c2.1-3,4.3-6,6.1-9.2c-2.1,3-4.4,5.9-6.7,8.7c-2.3,2.9-4.6,5.8-6.7,8.8c-1.9,2.7-3.8,5.5-5.5,8.3c0.1-1.6,0.2-3.2,0.3-4.8
					c0.1-1.6,0.1-3.3,0.1-4.9c0.5-1.8,1-3.5,1.6-5.2c0.9-2.7,1.8-5.4,2.8-8.2l5.7-16.3c-1.3,2.6-2.5,5.2-3.7,7.8
					c-1.2,2.6-2.3,5.3-3.4,8c-1.1,2.7-2.1,5.4-3.1,8.1c-0.1,0.2-0.2,0.5-0.2,0.7c-0.3-4.8-0.8-9.6-1.5-14.3l0.6-6
					c0.3-2.4,0.6-4.8,1-7.2c0.5-2.4,1-4.8,1.7-7.1c0.6-2.4,1.4-4.7,2.1-7.1c-1.1,2.2-2,4.5-2.9,6.8c-0.9,2.3-1.6,4.7-2.2,7.1
					c-0.6,2.4-1,4.9-1.3,7.3c-0.1-0.5-0.2-0.9-0.2-1.4c-0.9-5.2-1.8-10.4-1.9-15.6c0-0.1,0-0.2,0-0.3l0.2-0.1l-0.2-0.5
					c0-4.9,0.9-9.9,3.2-14.3c0.1-0.1,0-0.2-0.1-0.3c-0.1-0.1-0.2,0-0.3,0.1c-1.4,2.3-2.4,4.8-3.1,7.4c-0.4,1.6-0.7,3.1-0.8,4.7
					c0-0.1-0.1-0.1-0.1-0.2c-0.5-1-1.1-1.9-1.8-2.8c-0.7-0.9-1.4-1.7-2.3-2.4c-0.8-0.7-1.8-1.3-2.8-1.7c1,0.5,1.8,1.2,2.5,2
					c0.7,0.8,1.3,1.7,1.9,2.6c0.5,0.9,1,1.9,1.4,2.9c0.2,0.5,0.3,1,0.5,1.5l0.4,1.5l0.1,0c-0.2,5.3,0.4,10.6,1.1,15.8
					c0.2,1.2,0.3,2.5,0.5,3.7c-0.3-0.5-0.6-1-1-1.5c-1.3-1.9-2.6-3.8-4-5.7c-1.4-1.8-2.9-3.6-4.5-5.3c-1.6-1.7-3.3-3.3-5.1-4.7
					c1.6,1.7,3.1,3.4,4.5,5.2c1.4,1.8,2.7,3.6,4,5.5c1.3,1.9,2.5,3.8,3.7,5.8c0.9,1.5,1.8,3.1,2.7,4.6c0.6,5.8,0.9,11.6,0.8,17.4
					c-0.5-0.9-1.1-1.7-1.7-2.5c-1.4-2.1-2.9-4.2-4.4-6.2c-1.5-2-3.1-4-4.8-5.9c-1.7-1.9-3.4-3.8-5.1-5.6c1.5,2,3.1,4,4.5,6.1
					c1.5,2,2.9,4.1,4.4,6.2c1.4,2.1,2.8,4.2,4.2,6.3c1,1.5,1.9,3.1,2.9,4.7c-0.1,1.1-0.1,2.2-0.2,3.3c-0.3,3.8-0.9,7.5-1.7,11.2
					c-1-2-2.1-4-3.3-5.8c-2.2-3.4-4.5-6.6-7-9.8c-2.4-3.2-5-6.2-7.7-9.2c-2.7-2.9-5.5-5.8-8.4-8.5c2.6,3,5.3,6,7.8,9.1
					c2.5,3.1,4.9,6.2,7.2,9.4c2.3,3.2,4.6,6.5,6.7,9.8c1.5,2.4,2.9,5,4,7.6c-0.1,0.5-0.2,0.9-0.4,1.4c-1.3,4.6-2.8,9.2-4.5,13.7
					c-0.9-2.3-1.9-4.5-3-6.6c-1.7-3.3-3.7-6.5-5.8-9.5c-2.1-3.1-4.3-6-6.7-8.9c-2.4-2.8-4.8-5.6-7.3-8.3c2.3,2.9,4.5,5.8,6.7,8.8
					c2.2,3,4.2,6,6.2,9.1c2,3.1,3.8,6.2,5.5,9.5c1.4,2.7,2.6,5.4,3.6,8.3c-1.8,4.4-3.8,8.6-6.2,12.7c-0.6,0.9-1.1,1.9-1.7,2.8
					c-0.7-2.5-1.6-5-2.6-7.4c-1.4-3.3-3-6.5-4.7-9.6c-1.7-3.1-3.6-6.1-5.6-9.1c-2-2.9-4.1-5.8-6.2-8.6c1.9,3,3.8,6,5.6,9
					c1.8,3.1,3.5,6.1,5.1,9.3c1.6,3.1,3.1,6.3,4.4,9.6c1.1,2.9,2.1,5.8,2.8,8.8c-0.4,0.6-0.8,1.3-1.3,1.9c-1.5,2.2-3,4.3-4.6,6.4
					c-0.1,0.1-0.1,0.2,0,0.3C451.2,346.4,451.3,346.4,451.4,346.4z"/>
				<path id="XMLID_230_" class="st5" d="M440.2,313.1c0.7,0.9,1.4,1.8,2.3,2.5c-0.3-1.1-0.7-2.2-1.1-3.2c-0.4-1-0.9-2-1.4-3
					c-0.5-1-1-1.9-1.6-2.9c-0.6-1-1.1-1.9-1.8-2.8c0,1.2,0.2,2.3,0.6,3.4c0.3,1.1,0.8,2.1,1.3,3.1
					C439,311.3,439.6,312.2,440.2,313.1z"/>
				<path id="XMLID_229_" class="st5" d="M439.8,314.1c-0.6-0.9-1.2-1.7-1.9-2.6c-0.7-0.8-1.4-1.6-2.3-2.3c0.3,1.1,0.7,2.1,1.2,3.1
					c0.5,1,1,1.9,1.6,2.8c0.6,0.9,1.2,1.7,2,2.5c0.7,0.8,1.5,1.6,2.4,2.2c-0.3-1.1-0.8-2-1.3-3C440.9,315.9,440.4,315,439.8,314.1z"
					/>
				<path id="XMLID_228_" class="st5" d="M444.4,276.2c0.6,0.7,1.3,1.4,2.2,1.8c-0.3-0.9-0.7-1.7-1.1-2.5c-0.4-0.8-0.8-1.6-1.2-2.4
					l-1.2-2.3c-0.4-0.8-0.8-1.6-1.4-2.4c-0.1,1,0,1.9,0.1,2.8c0.2,0.9,0.5,1.8,0.9,2.7C443.3,274.7,443.8,275.5,444.4,276.2z"/>
				<path id="XMLID_227_" class="st5" d="M443.2,277.6c-0.5-0.8-0.9-1.5-1.4-2.3c-0.5-0.7-1-1.5-1.7-2.3c0,1,0.2,1.9,0.5,2.8
					c0.3,0.9,0.7,1.8,1.2,2.6c0.5,0.8,1.1,1.6,1.8,2.2c0.7,0.7,1.4,1.3,2.3,1.7c-0.4-0.9-0.8-1.7-1.3-2.5
					C444.1,279.1,443.7,278.3,443.2,277.6z"/>
			</g>
		</g>
		<g id="XMLID_219_">
			
				<linearGradient id="XMLID_13_" gradientUnits="userSpaceOnUse" x1="-81.0172" y1="86.0469" x2="26.9362" y2="86.0469" gradientTransform="matrix(-0.4674 -0.8841 -0.8841 0.4674 619.6623 248.4524)">
				<stop  offset="0" style="stop-color:#CBC755"/>
				<stop  offset="1" style="stop-color:#629725"/>
			</linearGradient>
			<path id="XMLID_224_" class="st8" d="M535.2,346.7c1.8-4.4,6.5-8.5,12.5-9.5c-0.7-4.1,1.1-7.2,2.3-11c1.7-5.6,1.8-11.6,2.6-17.5
				c0.1-0.7,0.5-4.2,0.5-4.2c0,0.1-6.9-2.2-13.7,0.9c5.8-5.8,13.5-7.5,17.9-5.9c3-5.3,4.8-7.8,6.7-13.6c2-5.7,2.6-12.3,7.1-17.5
				c-3.3-2-7.6-2.5-12.1-1.3c5.3-3,11.1-3.8,15.8-2.5c2.1-2.8,4.5-5.7,6.1-8.7c1.6-3.1,2.6-6.6,1.1-9c-1.3-2.2-4.6-3.1-8.2-2.7
				c-3.5,0.4-7.3,1.9-10.8,3.7c-7.8,4.1-13.3,8-19.5,14.7c2.3,3.1,0.6,12,1.3,16.5c-2.4-3-5.8-11.3-5.8-11.3c0,0-2.7,2.5-3.2,2.9
				c-6.3,6.4-10.9,15.3-12.6,24.2c-1,5.5-1.1,10.9-2.1,16.3c-1.7,9.5-6.6,18.3-6.6,28.8c0,2,0.3,3.8,0.3,3.8
				c-0.2,0.4,14,11,17.7,11.4c-3.5,0.3-11.7-0.9-15.3-2.4c3.9,7.5,10.6,15.3,16.6,19.4c2.7,2,5.7,3.2,8.5,5.2c2.5,1.9,2.6,3,4,0.5
				c2.5-4.4,3.1-12.6,4.1-17.7c0.2-1.3,1-5.2,1.4-9.8c0.1-2.1,0.3-7.5,0.4-7.5C552.1,343.4,548.8,339.4,535.2,346.7z"/>
			<g id="XMLID_220_" class="st9">
				<path id="XMLID_223_" class="st5" d="M549.7,272.7c0.2-1.6,0.5-3.2,0.7-4.8c0.4-3.2,0.9-6.5,1.2-9.7c-0.1,3.1-0.3,6.3-0.6,9.5
					c-0.1,1.6-0.3,3.2-0.4,4.8c-0.1,0.9-0.2,1.8-0.3,2.7c0.3-0.5,0.7-0.9,1-1.4c1.5-2,3.1-4,4.8-5.9c1.2-2.8,2.4-5.7,3.7-8.6
					c1.3-3,2.7-6,4-9.1c-1.1,3-2.2,6-3.3,9.1c-0.8,2.1-1.6,4.3-2.3,6.4c2.3-2.4,4.6-4.7,7.2-6.9c0,0,0,0,0,0
					c1.1-1.9,2.3-3.9,3.4-5.9c1.1-2,2.2-4,3.2-6c-0.8,2-1.7,4-2.6,6.1c-0.6,1.4-1.2,2.7-1.9,4.1c3.9-3.2,8.2-6.2,12.7-8.8
					c0,0.1,0.1,0.1,0.1,0.2c-4.5,2.8-8.6,5.9-12.4,9.2c1.5-0.4,3-0.6,4.4-0.8c2.1-0.2,4.2-0.3,6.2-0.2c-2.1,0-4.2,0.3-6.3,0.8
					c-2.1,0.4-4.2,1.1-6.2,1.9c-2.5,2.3-4.8,4.7-7,7.2c0.6-0.2,1.2-0.5,1.8-0.7c1.4-0.5,2.9-0.9,4.3-1.2c1.4-0.3,2.8-0.5,4.2-0.6
					c1.4-0.1,2.7-0.1,4.1,0c-1.3,0-2.7,0.1-4.1,0.3c-1.4,0.2-2.8,0.5-4.2,0.9c-1.4,0.4-2.8,0.9-4.2,1.5c-1.2,0.5-2.3,1.1-3.5,1.7
					c-1.7,2-3.2,4-4.7,6.1c-0.3,0.4-0.6,0.9-0.9,1.3c0.8-0.3,1.5-0.6,2.3-0.9c1.5-0.5,3-0.9,4.4-1.2c2.9-0.6,5.9-0.9,8.7-0.8
					c-2.8,0.1-5.8,0.6-8.7,1.4c-1.5,0.4-2.9,0.9-4.4,1.5c-1.2,0.5-2.4,1.1-3.6,1.8c-1.7,2.7-3.4,5.4-4.8,8.2
					c2.3-0.8,4.5-1.3,6.7-1.6c2.7-0.3,5.4-0.3,8-0.1c-2.6,0-5.3,0.2-8.1,0.7c-2.5,0.5-5,1.3-7.5,2.5c-1.4,2.8-2.7,5.7-3.8,8.7
					c2.3-0.9,4.5-1.4,6.8-1.7c2.8-0.4,5.6-0.5,8.3-0.3c-2.7,0-5.5,0.4-8.3,1c-2.5,0.6-4.9,1.3-7.3,2.5c-1.2,3.3-2.2,6.6-3,10
					c-0.1,0.3-0.1,0.6-0.2,0.9c1.8-1,3.5-1.7,5.3-2.3c2.3-0.7,4.7-1.2,7-1.5c-2.3,0.5-4.6,1.2-6.9,2.2c-2,0.9-4,1.9-5.8,3.3
					c-0.7,3.4-1.3,6.7-1.6,10.1c1.6-1,3.2-1.7,4.8-2.3c2.1-0.8,4.2-1.4,6.3-1.7c-2.1,0.6-4.1,1.4-6.2,2.4c-1.8,0.9-3.5,1.9-5.1,3.2
					c-0.1,1.2-0.2,2.5-0.3,3.7c-0.1,2.6-0.2,5.2-0.1,7.9c1.6-1.4,3.4-2.6,5.2-3.6c2.3-1.3,4.6-2.3,7-3.1c-2.3,1-4.6,2.2-6.8,3.7
					c-1.9,1.3-3.7,2.8-5.4,4.6c0.1,2.9,0.3,5.8,0.7,8.7c0.3,3,0.8,6,1.5,9.1c0.2,0.9,0.4,1.9,0.6,2.8c0,0,0.1,0,0.1-0.1
					c1.4-0.9,2.7-2,4-3.2c1.3-1.2,2.4-2.5,3.6-3.8c-0.8,1.7-1.9,3.3-3.1,4.7c-1.2,1.4-2.5,2.6-4,3.6c-0.1,0.1-0.2,0.1-0.3,0.2
					c0.4,1.6,0.8,3.2,1.3,4.8c0.6,1.9,1.2,3.7,1.9,5.6c0.1-0.1,0.2-0.2,0.3-0.4c1.2-1.8,2.1-3.8,2.9-6c0.8-2.2,1.5-4.4,2.3-6.7
					c-0.3,2.4-0.8,4.8-1.5,7.2c-0.7,2.3-1.6,4.6-2.8,6.5c-0.2,0.2-0.3,0.5-0.5,0.7c0,0.1-0.1,0.1-0.1,0.2c1.4,3.6,2.9,7.1,4.7,10.6
					c-0.1,0-0.2,0.1-0.2,0.1c-2.1-3.3-4-6.7-5.6-10.1c0,0,0,0,0,0c-0.2-0.1-0.3-0.1-0.4-0.2c-0.3-0.1-0.6-0.2-0.8-0.3
					c-1.1-0.5-2.2-1.1-3.3-1.8c-2.1-1.4-4.1-3.3-5.9-5.5c1.9,1.8,4,3.3,6.1,4.5c1,0.6,2.1,1.1,3.2,1.5c0.1,0.1,0.3,0.1,0.4,0.2
					c-0.8-1.8-1.5-3.6-2.2-5.4c-0.6-1.7-1.2-3.4-1.7-5.1c-0.1,0-0.1,0-0.2,0c-0.9-0.2-1.7-0.5-2.6-0.9c-1.7-0.7-3.4-1.7-4.9-3.2
					c1.7,0.9,3.4,1.5,5,2c0.8,0.2,1.5,0.4,2.3,0.6c-0.2-0.8-0.5-1.7-0.7-2.5c-0.5-2.1-1-4.2-1.3-6.4c-1-0.5-2.1-1.1-3.1-1.6
					c-1.3-0.7-2.5-1.5-3.8-2.3c-1.2-0.8-2.5-1.7-3.7-2.6c-1.2-0.9-2.4-1.9-3.6-2.9c1.3,0.7,2.5,1.5,3.8,2.2c1.3,0.7,2.5,1.5,3.8,2.2
					c1.3,0.7,2.5,1.4,3.8,2.1c0.8,0.5,1.7,0.9,2.5,1.3c-0.1-0.4-0.1-0.8-0.2-1.2c-0.4-3.1-0.7-6.2-0.8-9.3c-1.6-1.7-3.3-3.2-5.1-4.8
					c-2.1-1.8-4.2-3.6-6.3-5.3c2.2,1.5,4.4,3,6.6,4.7c1.6,1.2,3.2,2.5,4.8,3.8c0-2.6,0-5.2,0.2-7.7c0.1-1.4,0.3-2.9,0.4-4.3
					c-1.2-1.5-2.4-3-3.7-4.4c-1.6-1.7-3.2-3.4-4.8-5.1c1.7,1.4,3.4,2.9,5.1,4.4c1.2,1.1,2.4,2.2,3.5,3.5c0.5-3.3,1.1-6.7,1.9-9.9
					c-1-2.1-2.1-4.2-3.2-6.2c-1.3-2.2-2.6-4.5-4-6.6c1.5,1.9,3,4,4.5,6.1c1.1,1.6,2.2,3.3,3.2,5.1c0.1-0.3,0.1-0.6,0.2-0.9
					c0.9-3.3,2-6.6,3.2-9.8c-0.9-2.7-2-5.2-3.1-7.8c-1.2-2.7-2.4-5.4-3.7-8c1.5,2.4,2.8,4.9,4.2,7.5c1.1,2.1,2.2,4.3,3.2,6.6
					c1.2-2.9,2.5-5.8,4-8.6c-0.3-2.9-0.8-5.8-1.4-8.7c-0.6-2.9-1.2-5.8-1.9-8.6c0.9,2.7,1.7,5.4,2.5,8.2c0.6,2.4,1.2,4.8,1.7,7.3
					c1.5-2.8,3.2-5.5,5-8.2C549.2,275.7,549.4,274.2,549.7,272.7z"/>
				<path id="XMLID_222_" class="st5" d="M525.4,317.5c0.3,0.4,0.6,0.8,0.9,1.3c0.3,0.5,0.6,0.9,0.9,1.5c-0.5,0-1-0.2-1.4-0.5
					c-0.4-0.3-0.8-0.7-1.2-1.1c-0.3-0.5-0.6-1-0.9-1.6c-0.2-0.6-0.4-1.3-0.4-2c0.4,0.4,0.8,0.8,1.1,1.2
					C524.8,316.6,525.1,317,525.4,317.5z"/>
				<path id="XMLID_221_" class="st5" d="M524.8,320.3c0.4,0.4,0.9,0.9,1.3,1.3c0.4,0.5,0.9,0.9,1.3,1.4c-0.6,0.1-1.2-0.1-1.8-0.4
					c-0.6-0.3-1.1-0.6-1.5-1.1c-0.5-0.5-0.9-1-1.2-1.7c-0.3-0.7-0.6-1.4-0.8-2.3c0.5,0.4,0.9,0.9,1.4,1.3
					C524,319.4,524.4,319.9,524.8,320.3z"/>
			</g>
		</g>
		<g id="XMLID_207_">
			<g id="XMLID_214_">
				<g id="XMLID_215_">
					<g id="XMLID_216_">
						<g id="XMLID_217_">
							
								<linearGradient id="XMLID_15_" gradientUnits="userSpaceOnUse" x1="676.9656" y1="170.5537" x2="771.8745" y2="73.4714" gradientTransform="matrix(-0.9958 9.230000e-02 9.230000e-02 0.9958 1013.9353 140.3511)">
								<stop  offset="0" style="stop-color:#19507E"/>
								<stop  offset="0.1718" style="stop-color:#1F6282"/>
								<stop  offset="0.7283" style="stop-color:#2F968D"/>
								<stop  offset="1" style="stop-color:#36AB92"/>
							</linearGradient>
							<path id="XMLID_218_" class="st10" d="M360.7,367.8c0,0-45.8,6.7-67.3-1c-3-1.1-6-2.3-8.3-4.4c-3.1-2.8-4.7-7.8-2.1-11
								c2.6-3.1,7.5-2.6,11.2-4.5c-5.3-0.7-10.7-1.5-15.5-3.9c-4.8-2.4-9-6.6-10.2-11.8c-0.2-0.9-0.3-1.9,0-2.8
								c0.8-2.4,3.9-3.2,6.4-2.8s4.9,1.6,7.5,1.3c-6.2-2.2-11.3-7-14.7-12.6c-3.4-5.6-5.3-12.1-6.5-18.5c-1.1-5.8-1.9-12.2-6.2-16.3
								c9.9,3,20.7,1.8,30.6,4.8c10.5,3.2,19.3,11.1,23.7,21.2c-0.2-3.8-0.1-8.3,3.2-10.3c3.1-1.9,7.1-0.1,10,2.2
								c7.8,6.4,11.8,16.3,14.6,26c0.3-3.6,1.3-8.1,4.8-9.1c3.2-0.9,6.3,1.7,8.2,4.4C354.9,326,360.7,367.8,360.7,367.8z"/>
						</g>
					</g>
				</g>
			</g>
			<g id="XMLID_208_" class="st4">
				<path id="XMLID_213_" class="st5" d="M360.7,368c-3-0.1-5.9-0.4-8.9-0.9l-1.1,0c-4.9,0-9.7-0.1-14.6-0.3
					c-4.9-0.2-9.7-0.5-14.6-0.8c-4.9-0.4-9.7-0.9-14.5-1.6c-1.2-0.1-2.4-0.4-3.6-0.6c-1.2-0.2-2.4-0.4-3.6-0.6
					c-1.2-0.2-2.4-0.4-3.6-0.7l-3.6-0.9c4.8,0.8,9.6,1.4,14.4,1.9c4.8,0.5,9.7,0.8,14.5,1.1c4.8,0.3,9.7,0.5,14.5,0.6
					c2.7,0.1,5.4,0.1,8.1,0.2c-5-1.4-9.9-3.4-14.5-5.8c-0.2-0.1-0.4-0.2-0.6-0.3c-2.1-0.2-4.1-0.4-6.2-0.7c-3.3-0.4-6.6-0.8-9.8-1.3
					c-3.3-0.5-6.5-1-9.8-1.7c-3.2-0.6-6.5-1.3-9.7-2.1c3.3,0.4,6.5,0.9,9.8,1.3c3.3,0.4,6.5,0.8,9.8,1.2l9.8,1.1
					c0.8,0.1,1.6,0.2,2.4,0.2c-3.3-1.9-6.4-4-9.4-6.3c-2-1.5-3.9-3.2-5.7-4.9c-0.8-0.3-1.5-0.7-2.3-1c-3.4-1.3-6.9-2.5-10.3-3.7
					c-3.5-1.1-7-2.2-10.5-3.2c-3.5-1-7.1-2-10.5-3.4c3.5,1,7.1,1.8,10.7,2.6c3.6,0.8,7.2,1.7,10.7,2.7c3.2,0.9,6.4,1.9,9.5,3.1
					c-1.1-1.2-2.2-2.3-3.2-3.5c-1.1-1.2-2.1-2.5-3.1-3.8c-1.5-1.1-3-2.1-4.5-3.1c-2.4-1.6-4.8-3.1-7.3-4.7l-14.6-9.2
					c2.6,1.2,5.2,2.5,7.8,3.9c2.6,1.3,5.1,2.7,7.6,4.2c2.5,1.4,5,2.9,7.4,4.5c0.2,0.1,0.4,0.3,0.6,0.4c-2.8-3.9-5.3-8-7.7-12.1
					l-4.2-4.3c-1.7-1.8-3.5-3.4-5.3-5c-1.8-1.6-3.8-3.1-5.8-4.5c-2-1.5-4-2.8-6-4.3c2.2,1.1,4.4,2.3,6.5,3.6
					c2.1,1.3,4.2,2.7,6.1,4.2c2,1.5,3.8,3.2,5.6,4.9c-0.2-0.4-0.5-0.8-0.7-1.2c-2.5-4.6-5.1-9.2-8.3-13.4c-0.1-0.1-0.1-0.2-0.2-0.2
					l-0.2,0.1l-0.1-0.5c-3.1-3.8-6.8-7.2-11.4-9.2c-0.1,0-0.2-0.2-0.1-0.3c0-0.1,0.2-0.2,0.3-0.1c2.5,0.9,4.9,2.2,7,3.8
					c1.3,1,2.5,2,3.6,3.2c0-0.1,0-0.1,0-0.2c-0.2-1.1-0.3-2.2-0.3-3.3c0-1.1,0.1-2.2,0.3-3.3c0.2-1.1,0.6-2.1,1.1-3.1
					c-0.4,1-0.6,2.1-0.7,3.1c-0.1,1.1,0,2.1,0.1,3.2c0.1,1,0.4,2.1,0.7,3.1c0.2,0.5,0.4,1,0.5,1.5l0.6,1.4l-0.1,0
					c3.5,4.1,6.3,8.6,9,13c0.6,1.1,1.3,2.1,1.9,3.2c-0.1-0.6-0.1-1.2-0.2-1.8c-0.2-2.3-0.4-4.6-0.4-6.9c-0.1-2.3,0-4.6,0.2-6.9
					c0.2-2.3,0.5-4.6,1.1-6.8c-0.2,2.3-0.3,4.6-0.3,6.9c0,2.3,0.1,4.6,0.3,6.8c0.2,2.3,0.4,4.5,0.7,6.8c0.2,1.8,0.5,3.5,0.7,5.3
					c3.2,4.9,6.5,9.7,10.2,14.2c-0.1-1-0.2-2-0.3-3c-0.2-2.5-0.3-5.1-0.4-7.6c-0.1-2.5,0-5.1,0-7.6c0.1-2.5,0.2-5.1,0.5-7.6
					c0.1,2.5,0.1,5.1,0.2,7.6c0.1,2.5,0.3,5.1,0.4,7.6c0.2,2.5,0.4,5,0.7,7.5c0.2,1.8,0.4,3.6,0.6,5.4c0.7,0.8,1.5,1.6,2.2,2.4
					c2.6,2.8,5.4,5.3,8.3,7.7c-0.5-2.2-0.8-4.4-1.1-6.6c-0.4-4-0.6-8-0.6-12c-0.1-4,0.1-8,0.3-12c0.3-4,0.7-7.9,1.3-11.9
					c-0.2,4-0.4,7.9-0.4,11.9c-0.1,4,0,7.9,0.2,11.9c0.2,4,0.4,7.9,0.9,11.8c0.3,2.9,0.8,5.7,1.6,8.5c0.4,0.3,0.8,0.6,1.1,0.8
					c3.9,2.8,8,5.5,12.1,7.9c-0.7-2.3-1.3-4.7-1.7-7.1c-0.7-3.7-1.1-7.3-1.4-11c-0.3-3.7-0.3-7.4-0.3-11.1c0.1-3.7,0.2-7.4,0.6-11.1
					c0,3.7,0.1,7.4,0.3,11c0.2,3.7,0.4,7.3,0.8,11c0.4,3.6,0.9,7.3,1.6,10.8c0.6,3,1.4,5.9,2.3,8.7c4.1,2.3,8.3,4.3,12.7,6.1
					c1,0.4,2,0.8,3.1,1.1c-1-2.4-1.8-4.9-2.6-7.4c-1-3.4-1.7-6.9-2.3-10.5c-0.6-3.5-1-7.1-1.3-10.6c-0.3-3.5-0.5-7.1-0.5-10.6
					c0.3,3.5,0.7,7.1,1.2,10.6c0.5,3.5,1,7,1.7,10.5c0.7,3.5,1.5,6.9,2.5,10.3c0.9,2.9,2,5.8,3.3,8.6c0.7,0.2,1.5,0.5,2.2,0.7
					c2.5,0.8,5,1.5,7.6,2.2c0.1,0,0.2,0.1,0.2,0.2C360.9,367.9,360.8,368,360.7,368z"/>
				<path id="XMLID_212_" class="st5" d="M348.8,335c0.1,1.1,0,2.3-0.2,3.4c-0.5-1.1-0.8-2.1-1.1-3.2c-0.3-1.1-0.6-2.1-0.8-3.2
					c-0.2-1.1-0.4-2.2-0.5-3.2c-0.2-1.1-0.3-2.2-0.4-3.3c0.8,0.9,1.3,1.9,1.7,3c0.4,1.1,0.7,2.1,0.9,3.2
					C348.6,332.8,348.7,333.9,348.8,335z"/>
				<path id="XMLID_211_" class="st5" d="M349.7,335.5c-0.1-1.1-0.1-2.1-0.1-3.2c0-1.1,0.1-2.1,0.3-3.2c0.5,1,0.8,2.1,1,3.1
					c0.2,1,0.4,2.1,0.5,3.2c0.1,1.1,0.1,2.1,0.1,3.2c-0.1,1.1-0.2,2.1-0.5,3.2c-0.4-1-0.7-2.1-0.8-3.1
					C349.9,337.6,349.7,336.6,349.7,335.5z"/>
				<path id="XMLID_210_" class="st5" d="M322.5,308.7c0,0.9-0.2,1.9-0.6,2.8c-0.3-0.9-0.5-1.8-0.7-2.7c-0.2-0.9-0.4-1.7-0.6-2.6
					l-0.5-2.6c-0.2-0.9-0.3-1.8-0.4-2.7c0.7,0.7,1.2,1.5,1.7,2.3c0.4,0.8,0.7,1.7,0.9,2.7C322.5,306.8,322.5,307.8,322.5,308.7z"/>
				<path id="XMLID_209_" class="st5" d="M324.3,309c-0.1-0.9-0.2-1.8-0.3-2.7c-0.1-0.9-0.1-1.8-0.1-2.8c0.6,0.8,1.1,1.6,1.4,2.5
					c0.3,0.9,0.5,1.8,0.7,2.8c0.1,0.9,0.1,1.9,0,2.8c-0.1,0.9-0.3,1.9-0.8,2.8c-0.3-0.9-0.4-1.9-0.5-2.7
					C324.6,310.8,324.4,309.9,324.3,309z"/>
			</g>
		</g>
		<g id="XMLID_201_">
			
				<linearGradient id="XMLID_16_" gradientUnits="userSpaceOnUse" x1="46.5165" y1="322.0443" x2="154.47" y2="322.0443" gradientTransform="matrix(0.4674 -0.8841 0.8841 0.4674 -30.1244 248.4524)">
				<stop  offset="0" style="stop-color:#CBC755"/>
				<stop  offset="1" style="stop-color:#629725"/>
			</linearGradient>
			<path id="XMLID_206_" class="st11" d="M322.6,344.3c-1.8-4.4-6.5-8.5-12.5-9.5c0.7-4.1-1.1-7.2-2.3-11
				c-1.7-5.6-1.8-11.6-2.6-17.5c-0.1-0.7-0.5-4.2-0.5-4.2c0,0.1,6.9-2.2,13.7,0.9c-5.8-5.8-13.5-7.5-17.9-5.9
				c-3-5.3-4.8-7.8-6.7-13.6c-2-5.7-2.6-12.3-7.1-17.5c3.3-2,7.6-2.5,12.1-1.3c-5.3-3-11.1-3.8-15.8-2.5c-2.1-2.8-4.5-5.7-6.1-8.7
				c-1.6-3.1-2.6-6.6-1.1-9c1.3-2.2,4.6-3.1,8.2-2.7c3.5,0.4,7.3,1.9,10.8,3.7c7.8,4.1,13.3,8,19.5,14.7c-2.3,3.1-0.6,12-1.3,16.5
				c2.4-3,5.8-11.3,5.8-11.3c0,0,2.7,2.5,3.2,2.9c6.3,6.4,10.9,15.3,12.6,24.2c1,5.5,1.1,10.9,2.1,16.3c1.7,9.5,6.6,18.3,6.6,28.8
				c0,2-0.3,3.8-0.3,3.8c0.2,0.4-14,11-17.7,11.4c3.5,0.3,11.7-0.9,15.3-2.4c-3.9,7.5-10.6,15.3-16.6,19.4c-2.7,2-5.7,3.2-8.5,5.2
				c-2.5,1.9-2.6,3-4,0.5c-2.5-4.4-3.1-12.6-4.1-17.7c-0.2-1.3-1-5.2-1.4-9.8c-0.1-2.1-0.3-7.5-0.4-7.5
				C305.7,340.9,309,337,322.6,344.3z"/>
			<g id="XMLID_202_" class="st9">
				<path id="XMLID_205_" class="st5" d="M308.1,270.2c-0.2-1.6-0.5-3.2-0.7-4.8c-0.4-3.2-0.9-6.5-1.2-9.7c0.1,3.1,0.3,6.3,0.6,9.5
					c0.1,1.6,0.3,3.2,0.4,4.8c0.1,0.9,0.2,1.8,0.3,2.7c-0.3-0.5-0.7-0.9-1-1.4c-1.5-2-3.1-4-4.8-5.9c-1.2-2.8-2.4-5.7-3.7-8.6
					c-1.3-3-2.7-6-4-9.1c1.1,3,2.2,6,3.3,9.1c0.8,2.1,1.6,4.3,2.3,6.4c-2.3-2.4-4.6-4.7-7.2-6.9c0,0,0,0,0,0
					c-1.1-1.9-2.3-3.9-3.4-5.9c-1.1-2-2.2-4-3.2-6c0.8,2,1.7,4,2.6,6.1c0.6,1.4,1.2,2.7,1.9,4.1c-3.9-3.2-8.2-6.2-12.7-8.8
					c0,0.1-0.1,0.1-0.1,0.2c4.5,2.8,8.6,5.9,12.4,9.2c-1.5-0.4-3-0.6-4.4-0.8c-2.1-0.2-4.2-0.3-6.2-0.2c2.1,0,4.2,0.3,6.3,0.8
					c2.1,0.4,4.2,1.1,6.2,1.9c2.5,2.3,4.8,4.7,7,7.2c-0.6-0.2-1.2-0.5-1.8-0.7c-1.4-0.5-2.9-0.9-4.3-1.2c-1.4-0.3-2.8-0.5-4.2-0.6
					c-1.4-0.1-2.7-0.1-4.1,0c1.3,0,2.7,0.1,4.1,0.3c1.4,0.2,2.8,0.5,4.2,0.9c1.4,0.4,2.8,0.9,4.2,1.5c1.2,0.5,2.3,1.1,3.5,1.7
					c1.7,2,3.2,4,4.7,6.1c0.3,0.4,0.6,0.9,0.9,1.3c-0.8-0.3-1.5-0.6-2.3-0.9c-1.5-0.5-3-0.9-4.4-1.2c-2.9-0.6-5.9-0.9-8.7-0.8
					c2.9,0.1,5.8,0.6,8.7,1.4c1.5,0.4,2.9,0.9,4.4,1.5c1.2,0.5,2.4,1.1,3.6,1.8c1.7,2.7,3.4,5.4,4.8,8.2c-2.3-0.8-4.5-1.3-6.7-1.6
					c-2.7-0.3-5.4-0.3-8-0.1c2.6,0,5.3,0.2,8.1,0.7c2.5,0.5,5,1.3,7.5,2.5c1.4,2.8,2.7,5.7,3.8,8.7c-2.3-0.9-4.5-1.4-6.8-1.7
					c-2.8-0.4-5.6-0.5-8.3-0.3c2.7,0,5.5,0.4,8.3,1c2.5,0.6,4.9,1.3,7.3,2.5c1.2,3.3,2.2,6.6,3,10c0.1,0.3,0.1,0.6,0.2,0.9
					c-1.8-1-3.5-1.7-5.3-2.3c-2.3-0.7-4.7-1.2-7-1.5c2.3,0.5,4.6,1.2,6.9,2.2c2,0.9,4,1.9,5.8,3.3c0.7,3.4,1.3,6.7,1.6,10.1
					c-1.6-1-3.2-1.7-4.8-2.3c-2.1-0.8-4.2-1.4-6.3-1.7c2.1,0.6,4.1,1.4,6.2,2.4c1.8,0.9,3.5,1.9,5.1,3.2c0.1,1.2,0.2,2.5,0.3,3.7
					c0.1,2.6,0.2,5.2,0.1,7.9c-1.6-1.4-3.4-2.6-5.2-3.6c-2.3-1.3-4.6-2.3-7-3.1c2.3,1,4.6,2.2,6.8,3.7c1.9,1.3,3.7,2.8,5.4,4.6
					c-0.1,2.9-0.3,5.8-0.7,8.7c-0.3,3-0.8,6-1.5,9.1c-0.2,0.9-0.4,1.9-0.6,2.8c0,0-0.1,0-0.1-0.1c-1.4-0.9-2.7-2-4-3.2
					c-1.3-1.2-2.4-2.5-3.6-3.8c0.8,1.7,1.9,3.3,3.1,4.7c1.2,1.4,2.5,2.6,4,3.6c0.1,0.1,0.2,0.1,0.3,0.2c-0.4,1.6-0.8,3.2-1.3,4.8
					c-0.6,1.9-1.2,3.7-1.9,5.6c-0.1-0.1-0.2-0.2-0.3-0.4c-1.2-1.8-2.1-3.8-2.9-6c-0.8-2.2-1.5-4.4-2.3-6.7c0.3,2.4,0.8,4.8,1.5,7.2
					c0.7,2.3,1.6,4.6,2.8,6.5c0.2,0.2,0.3,0.5,0.5,0.7c0,0.1,0.1,0.1,0.1,0.2c-1.4,3.6-2.9,7.1-4.7,10.6c0.1,0,0.2,0.1,0.2,0.1
					c2.1-3.3,4-6.7,5.6-10.1c0,0,0,0,0,0c0.2-0.1,0.3-0.1,0.4-0.2c0.3-0.1,0.6-0.2,0.8-0.3c1.1-0.5,2.2-1.1,3.3-1.8
					c2.1-1.4,4.1-3.3,5.9-5.5c-2,1.8-4,3.3-6.1,4.5c-1,0.6-2.1,1.1-3.2,1.5c-0.1,0.1-0.3,0.1-0.4,0.2c0.8-1.8,1.5-3.6,2.2-5.4
					c0.6-1.7,1.2-3.4,1.7-5.1c0.1,0,0.1,0,0.2,0c0.9-0.2,1.7-0.5,2.6-0.9c1.7-0.7,3.4-1.7,4.9-3.2c-1.7,0.9-3.4,1.5-5,2
					c-0.8,0.2-1.5,0.4-2.3,0.6c0.2-0.8,0.5-1.7,0.7-2.5c0.5-2.1,1-4.2,1.3-6.4c1-0.5,2.1-1.1,3.1-1.6c1.3-0.7,2.5-1.5,3.8-2.3
					c1.2-0.8,2.5-1.7,3.7-2.6c1.2-0.9,2.4-1.9,3.6-2.9c-1.3,0.7-2.5,1.5-3.8,2.2c-1.3,0.7-2.5,1.5-3.8,2.2c-1.3,0.7-2.5,1.4-3.8,2.1
					c-0.8,0.5-1.7,0.9-2.5,1.3c0.1-0.4,0.1-0.8,0.2-1.2c0.4-3.1,0.7-6.2,0.8-9.3c1.6-1.7,3.3-3.2,5.1-4.8c2.1-1.8,4.2-3.6,6.3-5.3
					c-2.2,1.5-4.4,3-6.6,4.7c-1.6,1.2-3.2,2.5-4.8,3.8c0-2.6,0-5.2-0.2-7.7c-0.1-1.4-0.3-2.9-0.4-4.3c1.2-1.5,2.4-3,3.7-4.4
					c1.6-1.7,3.2-3.4,4.8-5.1c-1.7,1.4-3.4,2.9-5.1,4.4c-1.2,1.1-2.4,2.2-3.5,3.5c-0.5-3.3-1.1-6.7-1.9-9.9c1-2.1,2.1-4.2,3.2-6.2
					c1.3-2.2,2.6-4.5,4-6.6c-1.5,1.9-3,4-4.5,6.1c-1.1,1.6-2.2,3.3-3.2,5.1c-0.1-0.3-0.1-0.6-0.2-0.9c-0.9-3.3-2-6.6-3.2-9.8
					c0.9-2.7,2-5.2,3.1-7.8c1.2-2.7,2.4-5.4,3.7-8c-1.5,2.4-2.8,4.9-4.2,7.5c-1.1,2.1-2.2,4.3-3.2,6.6c-1.2-2.9-2.5-5.8-4-8.6
					c0.3-2.9,0.8-5.8,1.4-8.7c0.6-2.9,1.2-5.8,1.9-8.6c-0.9,2.7-1.7,5.4-2.5,8.2c-0.6,2.4-1.2,4.8-1.7,7.3c-1.5-2.8-3.2-5.5-5-8.2
					C308.6,273.2,308.4,271.7,308.1,270.2z"/>
				<path id="XMLID_204_" class="st5" d="M332.4,315c-0.3,0.4-0.6,0.8-0.9,1.3c-0.3,0.5-0.6,0.9-0.9,1.5c0.5,0,1-0.2,1.4-0.5
					c0.4-0.3,0.8-0.7,1.2-1.1c0.3-0.5,0.6-1,0.9-1.6c0.2-0.6,0.4-1.3,0.4-2c-0.4,0.4-0.8,0.8-1.1,1.2
					C333,314.2,332.7,314.6,332.4,315z"/>
				<path id="XMLID_203_" class="st5" d="M332.9,317.9c-0.4,0.4-0.9,0.9-1.3,1.3c-0.4,0.5-0.9,0.9-1.3,1.4c0.6,0.1,1.2-0.1,1.8-0.4
					c0.6-0.3,1.1-0.6,1.5-1.1c0.5-0.5,0.9-1,1.2-1.7c0.3-0.7,0.6-1.4,0.8-2.3c-0.5,0.4-0.9,0.9-1.4,1.3
					C333.8,317,333.4,317.4,332.9,317.9z"/>
			</g>
		</g>
		<g id="XMLID_181_">
			<g id="XMLID_199_">
				<path id="XMLID_200_" class="st12" d="M404.7,215.6c0,0-10.3,31.4-12.3,31.6c-13.2,1.5-30.8,0.9-30.8,0.9l-0.4,5.5
					c0,0,38.1,14.4,44.9-2.4c7.2-17.5,12.8-31.5,12.8-31.5L404.7,215.6z"/>
			</g>
			<g id="XMLID_197_">
				<path id="XMLID_198_" class="st12" d="M456,206.5c0,0,13.8,64.9,11.3,91.3l-5.9,3.6c0,0-5.9-50.5-14.3-74.2L456,206.5z"/>
			</g>
			<g id="XMLID_194_">
				<path id="XMLID_196_" class="st13" d="M424.4,382c0,0-11.5,2.8-8.8,3.6c2.7,0.8,23.9-0.4,23.9-0.4l0.5-4.5L424.4,382z"/>
				<polygon id="XMLID_195_" class="st13" points="424.4,382 425.7,375.1 441.2,375.1 439.6,385.4 				"/>
			</g>
			<path id="XMLID_193_" class="st14" d="M413.3,259.2c-0.4,8.5-0.7,15.2-0.7,15.2l40.3-1.5c0,0,0.3-18.2-4-25.6
				c-2.6-4.5-2.4-10.1-1.1-15.2l1.8-16.8l-4-16.7l-22.2,1.6c0,0-14,0-16.4,12.6l7.1,16.4l0.1,4.8L413.3,259.2z"/>
			<path id="XMLID_192_" class="st15" d="M445.6,198.6c0,0,9,0.4,10.7,9.4l-5.7,11.8L445.6,198.6"/>
			<path id="XMLID_191_" class="st12" d="M426.5,211.3c0.2-1.4-1-17.3-1-17.3s-5.2-0.4-5.7-5.5c-0.5-5.1-0.5-16.9-0.5-16.9l9.3-4.9
				l10.6,7.5l2.4,5.6l-3.2,13.3l0,6.7L426.5,211.3z"/>
			<path id="XMLID_190_" class="st16" d="M425.5,194c0,0,7.6-1.8,10.9-4.2c0,0-5.6,5.5-10.7,5.5L425.5,194z"/>
			<linearGradient id="XMLID_44_" gradientUnits="userSpaceOnUse" x1="412.9732" y1="261.6489" x2="453.3188" y2="261.6489">
				<stop  offset="0" style="stop-color:#214A81"/>
				<stop  offset="0.9963" style="stop-color:#55007E"/>
			</linearGradient>
			<polygon id="XMLID_189_" class="st17" points="453.3,258.8 413.1,262.6 413,264.5 453.3,261.4 			"/>
			<path id="XMLID_188_" class="st18" d="M453.3,261.3l-2.7,130.6l-21.1-0.3c0,0,0.3-96.3-0.4-105.6v-22.9L453.3,261.3z"/>
			<path id="XMLID_187_" class="st18" d="M413,264.5c0,0-15.4,55.1-12,69c4.1,16.7,16.2,57.4,16.2,57.4l18.6-5.1
				c0,0-17.8-54-17.7-57.6c0.1-3.6,12.1-44.7,12.1-44.7l-1.2-20.4L413,264.5z"/>
			<polygon id="XMLID_186_" class="st19" points="429.6,365.7 429.6,387.5 426.1,388.5 427,358.4 			"/>
			<linearGradient id="XMLID_47_" gradientUnits="userSpaceOnUse" x1="401.6631" y1="230.7472" x2="461.6006" y2="230.7472">
				<stop  offset="0" style="stop-color:#214A81"/>
				<stop  offset="0.9963" style="stop-color:#55007E"/>
			</linearGradient>
			<path id="XMLID_185_" class="st20" d="M438.5,198.9c0,0-7.7,7.8-12.5,1c0,0-8.9,0-13.4,3.1c-3.9,2.7-10.9,20.1-10.9,20.1
				l11.7,10.8l0.8-2l-1.1,31.9l40.2-4.8c0,0-1.5-8.9-2.7-14.4c-1.5-7-2.5-16.7-2.5-16.7l13.4-2.4c0,0-2.2-20.8-10.6-25.9
				C445.6,196.1,438.5,198.9,438.5,198.9z"/>
			<path id="XMLID_184_" class="st18" d="M417.4,166.4c-0.8,1.8-0.9,3.9-0.4,5.8c0.5,2,2.1,4,4.1,3.8c0.1-1.1,0.5-2.2,1.2-3.2
				c0.1-0.2,0.3-0.4,0.5-0.5c0.5-0.2,1.1,0.2,1.6,0.6c3.1,2.3,7.4,2.2,11.3,1.9c0.6,2.3,2.7,4.1,5,4.5c0.6,0.1,1.3,0.1,1.8-0.2
				c0.6-0.4,0.9-1.2,1.1-1.9c0.9-4,0.2-8.3-2.1-11.8c-2.2-3.4-5.9-5.8-10-6.6C426.7,158,419.6,161.9,417.4,166.4z"/>
			<path id="XMLID_183_" class="st18" d="M435.5,182.4c0,0.4,0,0.8-0.3,1.1c-0.4,0.3-1,0.1-1.4-0.2c-2.5-1.3-5.9-2.4-8.7-1.6
				c-1.1,0.3-2.2,1.6-3.2,1.7c-1.2,0.1-2.1-1.5-3-1.2c-1.5,0.3,1.7,9.4,2.4,10.3c1.9,2.3,5.2,3.4,8.1,3.2c2.4-0.2,4.7-1,6.9-1.9
				c1.2-0.5,2.4-1,3.3-2c0.8-1,1.1-2.3,1.3-3.5c0.4-2.2,0.9-4.4,1.3-6.7c0.3-1.7,0.7-3.5,0.1-5.2c-0.7-2-3.8-3.8-5.6-2.2
				C435.2,175.6,435.6,180.6,435.5,182.4z"/>
			<path id="XMLID_182_" class="st12" d="M440,177.4c-0.2-1,0.7-2.1,1.8-2.1c1-0.1,2,0.6,2.6,1.5c0.5,0.9,0.7,2,0.7,3
				c0,1.3-0.3,2.8-1.2,3.7c-1.1,1.1-2.9,1.2-4.1,0.3c-0.1-2.1-0.1-4.2,0-6.4"/>
		</g>
		<g id="XMLID_147_">
			<g id="XMLID_176_">
				<linearGradient id="XMLID_117_" gradientUnits="userSpaceOnUse" x1="324.8344" y1="349.9498" x2="373.889" y2="349.9498">
					<stop  offset="0" style="stop-color:#FC9981"/>
					<stop  offset="0.9954" style="stop-color:#F8007E"/>
				</linearGradient>
				<path id="XMLID_177_" class="st21" d="M328.3,295.6l-0.8,13.3l-0.1,1.1l-2.6,42.3l18.9,47.3l10.6-4.5l0.7,9.2h14.5l3.8-93.3
					l0.1-1.2l0.5-12.9L328.3,295.6z M343.7,352.3l4.5-35.1l0-0.2l0,0.2l5.2,67.5L343.7,352.3z"/>
			</g>
			<g id="XMLID_153_">
				<g id="XMLID_163_">
					<g id="XMLID_166_">
						<g id="XMLID_167_">
							<g id="XMLID_173_">
								<path id="XMLID_175_" class="st12" d="M344.3,200v13.6l0,0c4.2,1.9,8.9,1.9,13.1,0l0,0V200H344.3z"/>
								<path id="XMLID_174_" class="st16" d="M344.3,200v5.1c1.2,2,3.8,5.4,6.5,5.4c2.7,0,5.2-3.2,6.5-5.3V200H344.3z"/>
							</g>
							<g id="XMLID_168_">
								<path id="XMLID_172_" class="st12" d="M339.1,180.3c0.6-2.6,2.5-4.3,4.7-5.5c4.4-2.3,9.6-2.3,14,0c2.2,1.1,4.2,2.9,4.7,5.5
									c1.4,6.5-2.8,27.3-11.7,27.3C341.9,207.6,337.7,186.8,339.1,180.3z"/>
								<g id="XMLID_169_">
									<path id="XMLID_171_" class="st12" d="M360.6,190.4c0,0,2.3-3.7,4-2.3s-0.8,9.3-5.2,9.3L360.6,190.4z"/>
									<path id="XMLID_170_" class="st12" d="M341.2,190.4c0,0-2.3-3.7-4-2.3c-1.7,1.4,0.8,9.3,5.2,9.3L341.2,190.4z"/>
								</g>
							</g>
						</g>
					</g>
					<linearGradient id="XMLID_263_" gradientUnits="userSpaceOnUse" x1="375.7208" y1="238.7157" x2="389.3246" y2="238.7157">
						<stop  offset="0.2012" style="stop-color:#FFD584"/>
						<stop  offset="0.9175" style="stop-color:#FCEE21"/>
					</linearGradient>
					<path id="XMLID_165_" class="st22" d="M389.3,254.6l-13.6-1.9l0.4-4.4l2.4-25.5c0,0,7,4,7.7,5.8c0.4,0.9,1.5,11.1,2.7,21.6
						C389,251.7,389.2,253.2,389.3,254.6z"/>
					<path id="XMLID_164_" class="st23" d="M389.3,254.6l-13.6-1.9l0.4-4.4l12.8,2C389,251.7,389.2,253.2,389.3,254.6z"/>
				</g>
				<linearGradient id="XMLID_264_" gradientUnits="userSpaceOnUse" x1="324.8344" y1="257.5132" x2="378.4998" y2="257.5132">
					<stop  offset="0.2012" style="stop-color:#FFD584"/>
					<stop  offset="0.9175" style="stop-color:#FCEE21"/>
				</linearGradient>
				<path id="XMLID_162_" class="st24" d="M375.1,286.1l1.9,13.3l-0.7,0.2c-8.2,2.2-16.6,3.3-25.1,3.3c-8.7,0-17.3-1.2-25.7-3.5
					l3.2-14.9l-1.1-14.7l-2.8-47.8c0,0,8.7-4.3,14.8-7.2c2.8-1.4,5.1-2.4,5.7-2.5c0,0,0.7,1.3,2.9,2.2c0.2,0.1,0.4,0.2,0.7,0.2
					c0.9,0.2,1.8,0.3,2.6,0.2c0.7-0.1,1.3-0.2,2-0.5c2.1-0.8,2.9-2.2,2.9-2.2c0.5,0.1,2.9,1.3,6,2.7c6.6,3.2,16.1,7.9,16.1,7.9
					l-4.1,43.7L375.1,286.1z"/>
				<path id="XMLID_161_" class="st5" d="M362.4,214.9c-1.6,3.5-6,8.6-6,8.6l-5.5-7.6l-5.5,7.6c-2.2-1.4-4.4-5.9-5.7-8.8
					c2.8-1.4,5.1-2.4,5.7-2.5c0,0,0.7,1.3,2.9,2.2c0.2,0.1,0.4,0.2,0.7,0.2c0.9,0.2,1.8,0.3,2.6,0.2c0.7-0.1,1.3-0.2,2-0.5
					c2.1-0.8,2.9-2.2,2.9-2.2C356.9,212.3,359.3,213.5,362.4,214.9z"/>
				<polygon id="XMLID_160_" class="st12" points="316.6,250.6 319.6,267.9 331,259.5 328.8,245.3 				"/>
				<linearGradient id="XMLID_265_" gradientUnits="userSpaceOnUse" x1="314.551" y1="237.1284" x2="330.5589" y2="237.1284">
					<stop  offset="0.2012" style="stop-color:#FFD584"/>
					<stop  offset="0.9175" style="stop-color:#FCEE21"/>
				</linearGradient>
				<path id="XMLID_159_" class="st25" d="M330.6,246.9l-16,5.4c0,0,0.4-2.7,1-6.4c1.1-7.3,2.7-18.3,2.8-19.1
					c0.1-1.2,6.5-4.8,6.5-4.8l4.7,20.5L330.6,246.9z"/>
				<path id="XMLID_158_" class="st5" d="M330.6,246.9l-16,5.4c0,0,0.4-2.7,1-6.4l14-3.4L330.6,246.9z"/>
				<g id="XMLID_155_">
					<polygon id="XMLID_157_" class="st5" points="363.3,237 381.2,245.5 372.9,265.7 362.1,261.9 357.9,250.5 					"/>
					<path id="XMLID_156_" class="st12" d="M386.4,254.2c0,0-3,25.1-3.8,25.8c-0.1,0.1-0.4,0.2-0.9,0.3c-4,1-8.3-0.2-11.2-3.2
						c-5.8-5.8-15.6-15.6-17-17.2l0.5-2.8l-0.7-1.6l2.1-3.8l1.1-0.5l1.3-0.7l4.6,2.3c0,0,0.7-2.9,1.3-4.5c0.2-0.6,0.9-0.8,1.4-0.5
						c0.5,0.4,1.1,0.8,1.1,0.9c0.1,0.2-0.6,4.7-0.6,4.7s0.3,0.9,0.7,2.4c0,0-0.9,4.1-1.2,4.6l1.3,1.7l6.4,3.7l1.5,0.9l0.6-5.9
						l3.2-7.7L386.4,254.2z"/>
				</g>
			</g>
			<g id="XMLID_150_">
				<path id="XMLID_151_" class="st12" d="M359.9,227.3l-33.5,26c0,0-7.6,11.2-7.3,13.4c0.4,2.2,10.8,5,13.7,3.2
					c2.9-1.7,28.4-34.7,28.4-34.7L359.9,227.3z"/>
			</g>
			<path id="XMLID_149_" class="st18" d="M362.9,188.2l-2.8,1.6l-0.5-8.2c-2.2,0.2-4.4-0.7-5.7-2.5c-0.5,0.9-1.6,1.3-2.7,1.3
				c-1,0-2.1-0.3-3.1-0.5c-1-0.2-2.2-0.2-3,0.4c-0.7,0.5-1.1,1.3-1.7,1.9c-0.5,0.7-1.3,1.1-2.2,1.1v6.5l-2.4-1.6
				c-0.4-2.2-0.9-4.5-0.6-6.7c0.3-2.2,1.3-4.4,3.2-5.5c0.5-2.2,2.3-4.2,4.3-5c2.1-0.8,4.5-0.7,6.6-0.1c1.5,0.4,2.9,1.1,4.4,1.6
				c1.5,0.5,3.1,0.7,4.6,0.2c0.4-0.1,0.8-0.3,1.3-0.4c0.4,0,0.9,0.1,1.2,0.5c0.2,0.4,0.1,0.9-0.2,1.3c-0.3,0.3-0.7,0.5-1.2,0.7
				c0.7,0.1,1.4-0.1,2.1-0.2c0.7-0.1,1.5,0,2,0.5c0.7,0.7,0.6,2,0,2.8c-0.6,0.8-1.6,1.2-2.5,1.6c0.9-0.1,1.8,0.9,1.5,1.8
				c-0.2,0.9-1.5,1.3-2.2,0.7C363.6,184,363.5,186.3,362.9,188.2z"/>
			<path id="XMLID_148_" class="st12" d="M374.2,224.5c-2.6-0.9-6,1.9-8.1,0.6c0.6-0.7,1.3-1.3,1.9-2c0.2-0.2,0.4-0.5,0.5-0.8
				c0.1-1-1.4-0.9-2.3-0.5c-2.7,1.5-14.6,10.5-6.6,13c1.8,0.6,3.6,0,5.4-0.5c2.6-0.8,5.1-1.6,7.7-2.3c1.7-0.5,3.7-1.3,4.2-3
				C377.4,227.1,376,225.1,374.2,224.5z"/>
		</g>
		<g id="XMLID_127_">
			<path id="XMLID_146_" class="st18" d="M500.8,191.1c-0.4-3.1,1.3-6.7,4.3-7.6c-0.7-1.5-0.2-3.4,0.9-4.7c1.1-1.3,2.7-2,4.3-2.5
				c4.5-1.4,9.6-1,13.8,1.2c4.2,2.2,7.5,6,9.1,10.5c1.9,5.7,1,11.9,1.9,17.9c0.6,3.8,1.9,7.5,4,10.8c1.4,2.2,3.2,4.6,2.9,7.2
				c-0.3,2.6-2.5,4.5-4.8,5.7c-7.1,3.7-15.7,3.1-23.3,0.5c-3.3-1.1-6.7-2.8-8.6-5.7c-1.5-2.2-1.9-4.9-2.4-7.5
				c-0.6-3.9-1-7.8-0.3-11.7c0.5-2.4,1.8-4.2,3.2-6.1c0,0-2.4-2.6-3-3.5C501.7,194.3,501,192.8,500.8,191.1z"/>
			<g id="XMLID_143_">
				<path id="XMLID_145_" class="st12" d="M497.4,273.7c0,0-0.5-10.2-0.1-13.1l28.2-1.2l0.3,14.7L497.4,273.7z"/>
				<linearGradient id="XMLID_266_" gradientUnits="userSpaceOnUse" x1="489.2054" y1="296.4356" x2="529.0115" y2="296.4356">
					<stop  offset="0.2012" style="stop-color:#FFD584"/>
					<stop  offset="0.9175" style="stop-color:#FCEE21"/>
				</linearGradient>
				<path id="XMLID_144_" class="st26" d="M528.8,319.1c0.7-0.2-1.2-24.9-0.5-25.2c-0.3-9.7-2.5-19.7-2.5-19.7l-31-0.5
					c0,0-4.1,20.8-5.7,25.2C493.9,310.7,515.1,320.1,528.8,319.1z"/>
			</g>
			<g id="XMLID_131_">
				<g id="XMLID_132_">
					<path id="XMLID_142_" class="st12" d="M569.2,196.5l5.5,3.5c0,0,5.8-7.4,6.3-8.2c0.5-0.8,2.2-6.9,1.9-7.1
						c-0.2-0.1-1.6-1.7-2.3-1.6c-0.6,0.1-1.2,0.7-1.2,0.7s0.9-1.5,0.9-1.7c-0.1-0.2-1-0.7-1.3-0.6c-0.3,0-4.3,6.8-4.3,6.8
						s0.8-2.3,0.4-2.5c-0.3-0.2-1.5-0.6-1.7-0.4c-0.2,0.3-2.5,4.3-2.6,5.2c-0.1,0.9,0.4,3.2,0.4,3.2L569.2,196.5z"/>
					<g id="XMLID_134_">
						<g id="XMLID_135_">
							<g id="XMLID_137_">
								<g id="XMLID_139_">
									<path id="XMLID_141_" class="st12" d="M509.3,203.5l-1,12.7c1.7,1,3.5,1.6,5.3,1.7c1.9,0.1,3.8-0.2,5.5-0.9l1-12.7
										L509.3,203.5z"/>
									<path id="XMLID_140_" class="st16" d="M509.3,203.5l-0.7,8.5c8.7,0.5,11.5-7.1,11.5-7.1l0-0.6L509.3,203.5z"/>
								</g>
								<path id="XMLID_138_" class="st12" d="M523.5,194.9c-3.8,20.1-17.1,14.8-17.1,14.8c-6.5-7.9,0.1-23.8,0.1-23.8
									S515.1,195.2,523.5,194.9z"/>
							</g>
							<path id="XMLID_136_" class="st12" d="M522,198.7c0,0,2.9-2.9,4.2-1.2c1.3,1.7-2.8,8.3-6.8,7.3L522,198.7z"/>
						</g>
					</g>
					<linearGradient id="XMLID_267_" gradientUnits="userSpaceOnUse" x1="488.4217" y1="228.3699" x2="577.1703" y2="228.3699">
						<stop  offset="0" style="stop-color:#FC9981"/>
						<stop  offset="0.9954" style="stop-color:#F8007E"/>
					</linearGradient>
					<path id="XMLID_133_" class="st27" d="M569.9,193.9c-0.5,0.7-1.1,1.3-1.7,2c-0.2,0.2-0.4,0.4-0.6,0.7
						c-7,7.2-17.5,12.8-26.8,16.7c-6.9,2.9-14.5,3.3-21.6,1.2c-0.3-0.1-0.5-0.1-0.6-0.2c0,0-1.2,0.9-2.8,1.5
						c-0.2,0.1-0.3,0.1-0.5,0.2c-0.6,0.2-1.3,0.2-1.9,0.1c-0.5-0.1-0.9-0.3-1.4-0.5c-1.5-0.9-2.6-2.1-2.6-2.1c-0.1,0-0.2,0-0.3,0.1
						c-6.7,1.4-7.4,1.5-13.3,2.6c-2.1,0.4-4,1.4-5.2,3.1c-0.4,0.6-0.8,1.2-1,1.9c-0.8,2.8-1.1,32.9-1.1,32.9l3.6,2.9l-0.7,4.2
						c7.9,3.1,26.5,1.8,36.4,0.5l2.9-19.9c22.4-6.6,39.5-31.1,44.8-39.5c0.2-0.3,0.3-0.5,0.5-0.8c0.8-1.3,1.2-2.1,1.2-2.1
						L569.9,193.9z"/>
				</g>
			</g>
			<g id="XMLID_128_">
				<path id="XMLID_130_" class="st12" d="M486.1,224.2c0,0,1.5,2.6,1.3,3.7c-0.2,1-2.9,2.5-2.9,2.5l1.5,3.5l-7,2.4
					c0,0-2.2-10.1-2.2-10.6c-0.1-0.4,0.3-3.4,1-3.8c0.8-0.4,4.1-1,4.1-1s3-2.4,3.5-2.3c0.5,0.1,1.8,2.5,1.8,2.5L486.1,224.2z"/>
				<linearGradient id="XMLID_268_" gradientUnits="userSpaceOnUse" x1="477.9503" y1="246.1421" x2="497.0738" y2="246.1421">
					<stop  offset="0" style="stop-color:#FC9981"/>
					<stop  offset="0.9954" style="stop-color:#F8007E"/>
				</linearGradient>
				<path id="XMLID_129_" class="st28" d="M478,235.4c0,0,3.4,22.2,8.1,24.1c4.7,1.9,9.9-4.4,9.9-4.4l1.1-11.6l-10.5-11.1L478,235.4
					z"/>
			</g>
		</g>
		<linearGradient id="XMLID_269_" gradientUnits="userSpaceOnUse" x1="287.1971" y1="336.352" x2="564.3834" y2="336.352">
			<stop  offset="0.2752" style="stop-color:#B4CCE9"/>
			<stop  offset="0.9189" style="stop-color:#8598C1"/>
		</linearGradient>
		<path id="XMLID_121_" class="st29" d="M559.1,318.9c-1.3-1.9-2.9-3.6-4.8-4.9c-5-3.5-11.5-4-17.6-4.1c-2.5,0-4.9,0-7.4,0.1
			c0.1-0.1,0.1-0.3,0.2-0.4c3.8-8.7,3-19-1.2-27.5c-4.2-8.5-11.6-15.2-20.1-19.4c-4.5-2.2-9.6-4-12.7-8c-3.1-4.1-3.3-9.7-5.9-14
			c-3.4-5.7-11.2-8.5-17.3-5.9c-4,1.7-8.9,8.6-7.7,13.8c-0.9,0.7-1.8,1.6-2.5,2.6c-1.7,2.3-2.8,7.6-1.6,11.1
			c-0.3-0.1-0.6-0.2-0.9-0.1c-1.8,0.2-2.4,3-1.9,5.1c0.6,2.7,2.7,3.6,4.6,4.1c0.9,1.8,2.1,3.5,3.5,5c0.7,0.8,1.5,1.6,2.4,2.1
			c0.1,2.1,0.1,4.2,0.2,6.3c0,0.4,0,0.8-0.2,1.1c-0.1,0.1-0.4,0.3-0.8,0.6c0,0-0.1,0-0.1,0c-2.2-0.4-4,1.8-6.3,2
			c-1.6,0.1-3.6-0.4-5.1-1c0,0.2,0.1,0.5,0.1,0.7c-6.3-4.8-10.7-12-12.8-19.6c-2.4-8.8-1.9-17.7-0.3-26.6c1.3-2.4,2.5-4.8,3.7-7.3
			c-1.2-0.3-2.6,0.2-3.2,1.3c-0.2-1.9,1.4-13.4-3.5-10.7c-0.9,0.5-1.2,1.4-1.5,2.3c-1.4,4.5-2.6,9.1-3.7,13.7
			c-0.3,0-0.7,0.1-0.9,0.4c-0.3,0.3-0.5,0.8-0.6,1.2c-2.4,9.9-4.7,19.6-3.4,29.4c-1.7,1.6-3.2,3.6-5,5.2c-0.3,0.3-0.7,0.5-1.1,0.5
			c-1-0.2-0.9-2.3-1.9-2.2c-0.7,2.6-1.5,5.2-2.2,7.8c-0.1,0.2-0.1,0.5-0.2,0.8c-0.5-0.3-1-0.6-1.5-0.9c-2.2,4-4.1,8.1-5.7,12.4
			c-0.6-2.4-1.2-4.7-1.9-7c-0.2-0.5-0.3-1-0.7-1.5c-0.6-0.7-1.7-1-2.6-1c-2.1-0.1-4.2,0.2-6.3,0.6c-0.7,0.1-1.3,0.3-2,0.4
			c-0.4-0.7-0.8-1.3-1.4-1.8c-0.6-0.5-1.2-0.8-2-0.9c-0.7-0.6-1.5-1.1-2.6-1.3c-1.3-0.3-2.8-0.2-4.1,0c-0.6,0.1-1.2,0.2-1.9,0.2
			c-0.4-0.1-0.7-0.2-1.1-0.2c-0.1-0.3-0.2-0.5-0.4-0.8c0-0.1-0.1-0.2-0.1-0.3c0,0,0,0,0,0c0.5,0,1-0.1,1.4-0.1
			c5.7-1,8.5-9.5,7.2-16.2c-0.7-3.5-1.6-6.3-2.8-8.6c0.3-0.3,0.5-0.5,0.6-0.8c0.2-0.4,0.1-1.1,0.3-1.3c0.2-0.2,1.1,0,1.4,0
			c2.7-0.2,1.1-3.1-0.3-4c1.3-0.8,2.5-1.3,1.3-2.9c-2-2.6-6.7-1.7-9.3-0.9c-1.7,0.6-8.9,1.4-9.8,1.6c-3.3,0.5-4.9,1.5-6,2.6
			c-1.4,1.4-2.2,3.3-2.8,5.2c-0.7,2.4-0.3,4.4,0.7,6.7c0.1,0.3,0.8,2.6,1.2,3c-0.6-0.1-1.1-0.1-1.5,0.1c-1.8,0.7-1.6,3.8-0.5,5.9
			c1.4,2.7,3.8,3,6,3c0.2,0.2,0.4,0.5,0.7,0.7c0,0.2,0,0.4,0.1,0.6c0,0.1,0,0.2,0.1,0.4c0,0.3,0.1,0.6,0.2,1c0,0.1,0,0.2,0,0.3
			c0.3,1.8,0.7,3.6,1,5.4c0,0.3,0.1,0.5,0.1,0.8c-0.5,0.3-1.2,0.9-2,1.5c-2.8,0.7-5.5,1.5-7.9,2.6c-0.5,0.2-0.9,0.5-1.3,0.7
			c-0.3-0.1-0.7-0.1-1.1,0c-4.1,0.5-6.5,4.2-8.1,7.5c-2.3,4.9-4.3,9.9-6,14.9c-10.2-0.7-20.6-0.5-29.4,4.5c-2.7,1.5-5.1,3.5-7.9,4.8
			c-6.2,3-14,3-18.9,7.8c-4.7,4.7-4.9,12-4.8,18.6c0.3,16.2,0.5,32.3,0.8,48.5c0.2,9.6,1.7,14.3,9.9,15.9c0,0.4,0,0.8,0.1,1.2
			c0.7,6,1.5,11.9,2.5,17.9c0.2,1,0.4,2.1,1.3,2.4c0.4,0.2,0.9,0.1,1.4,0.1c1.8-0.2,3.8-0.5,5.1-1.9c0.9-1,1.1-2.4,1.4-3.7
			c0.6-3.2,3.2-10.4,3-14.8c9.8,0.5,19.5,0.4,29.3-0.1c0.3,2.3,0.7,4.6,1,7c0.5-0.1,1-0.1,1.5-0.2c-0.6,1.6-0.5,3.4-0.6,5.5
			c-0.2,4.1-2.2,8.7-1.2,12.7c0.8,2.4,3.5,4.1,6.1,3.8c2.6-0.3,4.8-2.2,5.6-4.7c0.6-1.9,0.3-3.9,0.1-5.8c-0.3-2.6-0.1-9.2-1.8-12.7
			c0.7-0.1,1.5-0.2,2.2-0.3c0-2,0-3.9,0-5.9c17.9-1.2,35.9-3,53.8-3.7c0,1.4,0.1,2.9,0.1,4.3c0,0.8,0.1,1.7,0.7,2.1
			c0.2,0.2,0.5,0.2,0.8,0.3c-0.4,3.2,0.8,7,1.7,10.4c0.4,1.5,0.8,2.9,1.6,4.2c1.4,2.2,3.7,3.6,5.9,4.9c0.6,0.3,1.2,0.7,1.9,0.7
			c0.8,0.1,1.5-0.3,2.2-0.7c1.2-0.7,2.4-1.6,2.8-3c0.4-1.3-0.1-2.7-0.7-4c-1.6-3.7-3.7-7.2-6.2-10.5c-0.6-0.7-1.1-1.4-1.6-2.1
			c0.1,0,0.3-0.1,0.4-0.2c0.5-0.3,0.6-1.1,0.6-1.7c0-1.7,0-3.5,0.1-5.2c20.6-0.3,41.2,0.9,61.8,2.2c0.2,0.2,0.5,0.4,0.7,0.5
			c1.3,3.9,2.5,7.8,2.9,11.8c0.1,0.8,0.2,1.7,0.8,2.3c0.1,0.1,0.2,0.1,0.2,0.2c-0.9,1.7-0.8,3.8-0.9,6c-0.2,4.1-2.2,8.7-1.2,12.7
			c0.8,2.4,3.5,4.1,6.1,3.8c2.6-0.3,4.8-2.2,5.6-4.7c0.6-1.9,0.3-3.9,0.1-5.8c-0.3-2.3-0.2-7.5-1.2-11.1c0,0,0.1,0,0.1,0
			c0.1-2.1,0.5-4,0.8-5.9c2.7,2.1,5.3,4.6,7.8,7.6c0.4,0.5,0.9,1.1,1.6,1.3c0.3,0.1,0.5,0,0.8,0c0.9,3,3.2,5.9,5.1,8.6
			c0.9,1.2,1.8,2.4,3,3.4c2.1,1.6,4.7,2.1,7.3,2.5c0.7,0.1,1.4,0.2,2,0c0.7-0.2,1.3-0.8,1.8-1.4c0.9-1.1,1.7-2.4,1.6-3.8
			c-0.1-1.4-1.1-2.5-2.1-3.5c-2.8-2.9-6-5.5-9.5-7.6c-1.3-0.8-2.6-1.6-3.8-2.4c0.1-0.2,0.1-0.5,0.2-0.7c0.2-2.8-1.8-7.8-2.8-10.3
			c-0.2-0.6-0.5-1.1-0.7-1.6c12.6,0.7,25.1,1.2,37.7,1.1c0.6,5.3,1.3,10.6,2,16c0.2,1.1,0.4,2.3,1.3,2.7c0.4,0.2,0.9,0.1,1.4,0.1
			c1.8-0.2,3.8-0.6,5.1-2.1c0.9-1.1,1.1-2.6,1.4-4.1c0.6-3.4,3-11,3-15.9c0.7-0.7,1.3-1.5,1.7-2.5c0.6-1.5,0.7-3.2,0.8-4.9
			c0.9-18,1.8-36,2.7-54C564.6,338.3,564.9,327.3,559.1,318.9z M486.6,261.4c0,0.2,0,0.5,0.1,0.7c-0.1,0-0.1,0-0.2-0.1
			C486.6,261.9,486.6,261.7,486.6,261.4z M491.1,279.7c3.9,3,9.5,2.1,14.3,3.2c7.3,1.8,12.7,9.3,12,16.7c-0.1,1.4-0.4,2.8-0.7,4.2
			c-0.8,0.1-1.7,0.3-2.5,0.4c-2.4,0.5-4.8,1-7.1,1.5c-3.6-6.9-7.9-13.8-14.6-17.6c-0.1,0.1-0.1,0.2-0.2,0.2
			c-3.1-1.3-7.8-1.1-10.3-2.6c-0.1,0.2-0.2,0.3-0.3,0.5c-1.3-0.5-2.2-1.2-2.6-2.7c-0.3-1-0.3-2.2-0.3-3.2c0-0.7,0-1.4,0-2.2
			c0.1-0.2,0.3-0.3,0.4-0.5c0.2-0.3,0.3-0.5,0.4-0.8c0.2-0.2,0.4-0.4,0.6-0.6c1.4-1.5,2.6-3.2,3.5-5c1.2-0.3,2.4-0.8,3.3-1.7
			c0,0.2,0,0.4,0,0.5C487.2,273.6,488.3,277.5,491.1,279.7z M431.9,280.9c3.3,8.6,9.1,13,16.2,18.1c1.4,1,2.9,3.2,4.6,3.9
			c0,0.4,0,0.8,0,1.3c-2.5,0-5,0.1-7.5,0.2c-0.1,0-0.1,0.1-0.2,0.1c-0.2,0.3-0.4,0.5-0.7,0.8c-0.1,0-0.1,0.1-0.2,0.2
			c0,0.2-0.1,0.3-0.1,0.5c0.3,2.3,0.6,6.9,0.7,10.6c-8.7,0.2-17.5,0.2-26.2-0.1c1.3-3.7,1.2-8.5,1.9-12.2c0.9-5.2,2-10.4,3.2-15.6
			c0.1-0.4,0.2-0.8,0.1-1.1c0,0,0-0.1,0-0.1c0,0,0,0,0,0C426.7,286.5,429.6,283.6,431.9,280.9z M368.5,266.4c0.1,0,0.1,0,0.2,0
			c0,0,0,0.1,0,0.1C368.7,266.4,368.6,266.4,368.5,266.4z"/>
		<g id="XMLID_65_">
			<g id="XMLID_113_">
				<path id="XMLID_120_" class="st15" d="M382.8,294.8c1.4,0.6,2.9,0.8,4.3,0.6c0.5-0.1,1.1-0.3,1.3-0.7c0.1-0.2,0.1-0.5,0.1-0.8
					c-0.1-4.3-3-8-4.2-12c-1.2-4.2-7.5-5.8-11.5-5.7c0.2,3.1,1,6.4,1.5,9.5c0.1,0.6,0.2,1.2,0.4,1.7c0.2,0.5,0.6,1,1,1.4
					c1.5,1.8,3,3.5,4.9,4.9C381.3,294.1,382,294.5,382.8,294.8z"/>
				<path id="XMLID_119_" class="st30" d="M373.4,281.3c-0.3-1.7-0.6-3.5-0.7-5.2c4-0.1,10.3,1.5,11.5,5.7c0.5,1.7,1.3,3.3,2.1,5
					C381.6,287.8,377.1,284.8,373.4,281.3z"/>
				<g id="XMLID_114_">
					<path id="XMLID_118_" class="st12" d="M366.3,274.4c-1.1-2.1-1.3-5.2,0.5-5.9c0.5-0.2,1.2-0.2,2,0c-0.3-6.8,2.4-15.2,7-16.8
						c6-2.2,14.9,0.1,18,16.2c1.3,6.7-1.5,15.2-7.2,16.2c-5.1,0.9-10.5-2.3-14.3-6.7C370.1,277.3,367.7,277,366.3,274.4z"/>
					<g id="XMLID_115_">
						<path id="XMLID_45_" class="st18" d="M394.3,250.2c-2-2.6-6.7-1.7-9.3-0.9c-1.7,0.6-8.9,1.4-9.8,1.6c-3.3,0.5-4.9,1.5-6,2.6
							c-1.4,1.4-2.2,3.3-2.8,5.2c-0.7,2.4-0.3,4.4,0.7,6.7c0.1,0.3,0.9,2.9,1.2,3c0,0,0,0,0.1,0c1.9-0.6,5.1,5.4,5.1,7.1
							c0.1-0.9,0.4-1.9,0.6-2.7c0.3-1.5,0.2-2.9-0.1-4.4c-0.2-1.1-0.6-2.1-1.2-3c0,0,1.4-1.6,1.1-2.3c3.8,2,7.2-0.2,9.7-3
							c1.1,0.7,3.2,0.7,4.4,0.5c1.2-0.2,3-1.1,3.5-2.3c0.2-0.4,0.1-1.1,0.3-1.3c0.2-0.2,1.1,0,1.4,0c2.7-0.2,1.1-3.1-0.3-4
							C394.3,252.3,395.5,251.8,394.3,250.2z"/>
					</g>
				</g>
			</g>
			<g id="XMLID_66_">
				<path id="XMLID_112_" class="st12" d="M434.3,274.5c-0.5-0.8-1-1.5-1.6-2.1c-3.4,1.3-5.2,4.8-7.9,7.1c-0.3,0.3-0.7,0.5-1.1,0.5
					c-1-0.2-0.9-2.3-1.9-2.2c-0.7,2.6-1.5,5.2-2.2,7.8c-0.4,1.4-0.5,3.4,0.9,3.8c5.5,1.8,10.9-6,14.3-9.6c0.5-0.5,1-1.1,1.1-1.8
					c0.1-0.6-0.2-1.3-0.5-1.8C435,275.5,434.6,275,434.3,274.5z"/>
				<path id="XMLID_111_" class="st12" d="M438.3,229.5c0.3-0.9,0.6-1.8,1.5-2.3c5-2.7,3.3,8.8,3.5,10.7c0.7-1,2-1.6,3.2-1.3
					c-2,4.2-4.2,8.3-6.5,12.4c-0.3,0.4-0.5,0.9-1,1.1c-0.5,0.3-1.2,0.2-1.7,0c-0.8-0.1-1.5-0.3-2.3-0.4c-0.5-0.1-0.9-0.2-1.3-0.5
					c-0.5-0.5-0.3-1.3-0.2-2C435.1,241.3,436.4,235.4,438.3,229.5z"/>
				<linearGradient id="XMLID_270_" gradientUnits="userSpaceOnUse" x1="483.0222" y1="437.1628" x2="495.2762" y2="437.1628">
					<stop  offset="0" style="stop-color:#FC9981"/>
					<stop  offset="0.9954" style="stop-color:#F8007E"/>
				</linearGradient>
				<path id="XMLID_110_" class="st31" d="M483.3,446.1c0.8,2.4,3.5,4.1,6.1,3.8c2.6-0.3,4.8-2.2,5.6-4.7c0.6-1.9,0.3-3.9,0.1-5.8
					c-0.5-4.3,0.4-18.8-7.7-14c-3.1,1.9-2.7,4.7-2.8,8C484.2,437.4,482.3,442.1,483.3,446.1z"/>
				<linearGradient id="XMLID_271_" gradientUnits="userSpaceOnUse" x1="342.3407" y1="430.967" x2="354.5948" y2="430.967">
					<stop  offset="0.2752" style="stop-color:#B4CCE9"/>
					<stop  offset="0.9189" style="stop-color:#8598C1"/>
				</linearGradient>
				<path id="XMLID_109_" class="st32" d="M342.6,439.9c0.8,2.4,3.5,4.1,6.1,3.8c2.6-0.3,4.8-2.2,5.6-4.7c0.6-1.9,0.3-3.9,0.1-5.8
					c-0.5-4.3,0.4-18.8-7.7-14c-3.1,1.9-2.7,4.7-2.8,8C343.6,431.2,341.6,435.9,342.6,439.9z"/>
				<linearGradient id="XMLID_272_" gradientUnits="userSpaceOnUse" x1="504.5641" y1="434.6906" x2="525.7083" y2="434.6906">
					<stop  offset="0" style="stop-color:#FC9981"/>
					<stop  offset="0.9954" style="stop-color:#F8007E"/>
				</linearGradient>
				<path id="XMLID_108_" class="st33" d="M510,439.7c0.9,1.2,1.8,2.4,3,3.4c2.1,1.6,4.7,2.1,7.3,2.5c0.7,0.1,1.4,0.2,2,0
					c0.7-0.2,1.3-0.8,1.8-1.4c0.9-1.1,1.7-2.4,1.6-3.8c-0.1-1.4-1.1-2.5-2.1-3.5c-2.8-2.9-6-5.5-9.5-7.6c-2.7-1.6-5.2-3.1-7.2-5.6
					C501.6,429.1,506.5,434.8,510,439.7z"/>
				
					<linearGradient id="XMLID_273_" gradientUnits="userSpaceOnUse" x1="384.6586" y1="432.0685" x2="405.8035" y2="432.0685" gradientTransform="matrix(0.9356 0.353 -0.353 0.9356 201.2964 -118.9096)">
					<stop  offset="0.2752" style="stop-color:#B4CCE9"/>
					<stop  offset="0.9189" style="stop-color:#8598C1"/>
				</linearGradient>
				<path id="XMLID_107_" class="st34" d="M412,427.7c0.4,1.5,0.8,2.9,1.6,4.2c1.4,2.2,3.7,3.6,5.9,4.9c0.6,0.3,1.2,0.7,1.9,0.7
					c0.8,0.1,1.5-0.3,2.2-0.7c1.2-0.7,2.4-1.6,2.8-3c0.4-1.3-0.1-2.7-0.7-4c-1.6-3.7-3.7-7.2-6.2-10.5c-1.9-2.5-3.8-4.8-4.8-7.8
					C407.8,414.8,410.5,421.9,412,427.7z"/>
				<linearGradient id="XMLID_274_" gradientUnits="userSpaceOnUse" x1="434.1589" y1="256.1689" x2="454.9332" y2="302.6375">
					<stop  offset="0.2752" style="stop-color:#B4CCE9"/>
					<stop  offset="0.9189" style="stop-color:#8598C1"/>
				</linearGradient>
				<path id="XMLID_106_" class="st35" d="M431.9,282.8c-4.9-12.8-1.8-25.2,1.2-37.9c0.1-0.4,0.2-0.9,0.6-1.2c0.4-0.4,1-0.4,1.5-0.4
					c2.6,0,5.1,0.2,7.7,0.6c-1.6,8.9-2.2,17.8,0.3,26.7c2.4,8.8,7.9,17,15.8,21.6c0.7,0.4-2.6,11.9-4,12.7c-2.7,1.4-4.8-2.3-6.8-3.7
					C441,295.8,435.2,291.4,431.9,282.8z"/>
				<g id="XMLID_95_">
					<g id="XMLID_96_">
						<g id="XMLID_97_">
							<path id="XMLID_105_" class="st12" d="M479.7,296.6c2.5-0.1,5.4-0.4,8.2-0.9c-0.6-2.2-1.4-4.3-2.5-6.3l-3.1-0.8
								c-1.7-0.4-2.8-1.1-3.3-2.9c-0.3-1-0.3-2.2-0.3-3.2c0-1.7,0-3.4-0.1-5.1c-3.6,0.1-7.1,0.6-10.5,1.6c0.1,2.6,0.2,5.2,0.3,7.8
								c0,0.4,0,0.8-0.2,1.1c-0.5,0.7-6.1,3.5-7.1,6C466.9,296.3,474,296.8,479.7,296.6z"/>
							<path id="XMLID_104_" class="st16" d="M475.1,283.2c-0.5,0.3-1,0.5-1.5,0.5c-1.8,0.1-8.2-3.6-4.1-4.8
								c3.1-0.9,6.2-1.2,9.3-1.2c0.4,0,0.8,0.4,0.8,0.9c0,0.4-0.2,0.8-0.5,1.2c-1,1.4-2.2,2.5-3.7,3.3
								C475.3,283.1,475.2,283.2,475.1,283.2z"/>
							<g id="XMLID_98_">
								<path id="XMLID_103_" class="st18" d="M472.3,236.8c6.1-2.6,13.9,0.2,17.3,5.9c2.6,4.4,2.9,9.9,5.9,14c3,4,8.1,5.8,12.7,8
									c8.5,4.2,15.9,10.9,20.1,19.4c4.2,8.5,4.9,18.8,1.2,27.5c-0.9,2-2,4-3.7,5.3c-1.7,1.3-4.1,2-6.2,1.1
									c-2.8-1.2-3.9-4.6-3.7-7.5c0.2-3,1.3-5.8,1.5-8.8c0.6-7.5-4.8-15-12-16.7c-4.8-1.2-10.4-0.2-14.3-3.2
									c-2.8-2.2-3.9-6-4.2-9.6c-0.3-3.6,0.1-7.2-0.5-10.8c-0.6-3.5-2.3-6.8-4.7-9.4c-2.6-2.8-7.2-4.8-10-1.2
									c-1.6,2-1.3,5.9-4.6,3.5C460.7,249.6,467.3,238.9,472.3,236.8z"/>
								<path id="XMLID_102_" class="st12" d="M486.2,264.1c-0.5,0-1.1,0.1-1.7,0.5c-0.8-3.6-2.7-7.4-5-10c-1-1.3-2.1-2.1-3.3-2.6
									c-0.7-0.3-1.3-0.5-2-0.6c-0.5,0-0.9-0.1-1.4,0c-0.4,0-0.9,0-1.4,0c-0.7,0.1-1.3,0.3-2,0.6c-1.2,0.5-2.3,1.4-3.3,2.6
									c-2.3,2.6-4.2,6.4-5,10c-0.6-0.4-1.2-0.5-1.7-0.5c-1.8,0.2-2.4,3-1.9,5.1c0.6,2.7,2.7,3.6,4.6,4.1c0.9,1.8,2.1,3.5,3.5,5
									c1.5,1.7,3.4,3,5.6,3.6c0.1,0,0.1,0,0.2,0c0.1,0,0.3,0.1,0.4,0.1c0.1,0,0.2,0,0.3,0c0.1,0,0.1,0,0.2,0c0.2,0,0.3,0,0.5,0
									c0.2,0,0.3,0,0.5,0c0.1,0,0.1,0,0.2,0c0.1,0,0.2,0,0.3,0c0.1,0,0.3-0.1,0.4-0.1c0.1,0,0.1,0,0.2,0c2.2-0.5,4.1-1.8,5.6-3.6
									c1.4-1.5,2.6-3.2,3.5-5c1.9-0.5,3.9-1.4,4.6-4.1C488.6,267.1,488,264.2,486.2,264.1z"/>
								<g id="XMLID_99_">
									<path id="XMLID_46_" class="st18" d="M483.7,251.6c1.9,1.9,3.2,4.4,3.3,7.5c0.1,3.3-0.7,6.6-1.7,9.8
										c-4.3-1.6-7.9-4.9-9.8-8.9c-2.3,2.4-9.8,8.8-12.9,6.9c-3.9-2.3-2.7-10.7-0.4-13.7C467.6,245.9,478.3,246.2,483.7,251.6z"/>
								</g>
							</g>
						</g>
					</g>
				</g>
				<path id="XMLID_94_" class="st18" d="M312.1,412.7c-1.9-3.7-9.2-3.4-12.2-1.9c-0.7,0.4-1.4,0.8-1.8,1.6
					c-0.4,0.8-0.3,1.7-0.2,2.6c0.7,6,1.5,11.9,2.5,17.9c0.2,1,0.4,2.1,1.3,2.4c0.4,0.2,0.9,0.1,1.4,0.1c1.8-0.2,3.8-0.5,5.1-1.9
					c0.9-1,1.1-2.4,1.4-3.7C310.3,425.9,314,416.3,312.1,412.7z"/>
				<path id="XMLID_93_" class="st18" d="M558.4,408.6c-1.9-4.1-9.2-3.8-12.2-2.1c-0.7,0.4-1.4,0.9-1.8,1.8c-0.4,0.9-0.3,2-0.2,2.9
					c0.7,6.7,1.5,13.4,2.5,20c0.2,1.1,0.4,2.3,1.3,2.7c0.4,0.2,0.9,0.1,1.4,0.1c1.8-0.2,3.8-0.6,5.1-2.1c0.9-1.1,1.1-2.6,1.4-4.1
					C556.6,423.5,560.2,412.6,558.4,408.6z"/>
				<linearGradient id="XMLID_275_" gradientUnits="userSpaceOnUse" x1="287.1971" y1="363.6319" x2="564.3834" y2="363.6319">
					<stop  offset="0" style="stop-color:#214A81"/>
					<stop  offset="0.9963" style="stop-color:#55007E"/>
				</linearGradient>
				<path id="XMLID_92_" class="st36" d="M559.1,320.9c-1.3-1.9-2.9-3.6-4.8-4.9c-5-3.5-11.5-4-17.6-4.1
					c-22.8-0.3-45.4,3.6-68.1,5.4c-37.8,3-75.8,0.5-113.5-3.1c-12.3-1.1-25.6-2.2-36.3,3.9c-2.7,1.5-5.1,3.5-7.9,4.8
					c-6.2,3-14,3-18.9,7.8c-4.7,4.7-4.9,12-4.8,18.6c0.3,16.2,0.5,32.3,0.8,48.5c0.2,10.5,1.9,15.2,12.4,16.2
					c38.2,3.8,76.3-2.8,114.4-3.8c43.9-1.1,87.8,5.3,131.7,4.9c5.4,0,11.9-0.9,14-5.9c0.6-1.5,0.7-3.2,0.8-4.9c0.9-18,1.8-36,2.7-54
					C564.6,340.3,564.9,329.3,559.1,320.9z"/>
				
					<linearGradient id="XMLID_276_" gradientUnits="userSpaceOnUse" x1="309.5385" y1="375.8649" x2="543.532" y2="375.8649" gradientTransform="matrix(0.9998 -1.760000e-02 1.760000e-02 0.9998 -8.0048 7.1017)">
					<stop  offset="0.2752" style="stop-color:#B4CCE9"/>
					<stop  offset="0.9189" style="stop-color:#8598C1"/>
				</linearGradient>
				<path id="XMLID_91_" class="st37" d="M541.4,375c-0.4-2-0.9-4-2.1-5.7c-1.5-2-3.8-3.3-5.9-4.7c-4.9-3.5-8.6-8.5-13.7-11.8
					c-7.3-4.7-16.6-5.2-25.3-5.2c-40.2,0.1-80.3,7.9-120.4,5.6c-23.3-1.3-50.7-5.4-63.5,18.9c-3.9,7.4-3.1,17.9,4,22.4
					c2.8,1.8,6.2,2.5,9.5,3c18.3,3.1,37,3.5,55.6,3.8c51.7,0.8,103.4,0.1,155-2c1.5-0.1,3.1-0.2,4.2-1.1c1-0.8,1.5-2.1,1.8-3.4
					C542.4,388.4,542.7,381.6,541.4,375z"/>
				<linearGradient id="XMLID_277_" gradientUnits="userSpaceOnUse" x1="314.6443" y1="340.8634" x2="377.9468" y2="340.8634">
					<stop  offset="0" style="stop-color:#FC9981"/>
					<stop  offset="0.9954" style="stop-color:#F8007E"/>
				</linearGradient>
				<path id="XMLID_90_" class="st38" d="M377.7,329.2c-0.7-2.2-3-3.4-5.1-4.3c-3.7-1.7-7.4-3.5-11.5-3.8c-4.4-0.3-8.2,1.7-12.5,2
					c-3.5,0.2-6.9-0.8-10.5-0.6c-7.8,0.5-15.5,3.9-21,9.6c-1.2,1.3-2.3,2.7-2.5,4.4c-0.2,1.1,0.1,2.2,0.4,3.3
					c1.4,5.2,4.4,10,8.4,13.7c3.1,2.9,5.4,3.9,8,4.4c2.2,0.4,4.5,0.4,7.6,0.8c2.2,0.3,4.3,1.3,6.6,1.6c6.4,0.7,13.1,0.3,19.5-0.2
					c1.1-0.1,2.2-0.2,3.1-0.9c0.9-0.7,1.3-1.8,1.7-2.8c2.6-7.2,5.1-14.6,7.3-21.9C377.8,332.7,378.3,330.9,377.7,329.2z"/>
				<linearGradient id="XMLID_278_" gradientUnits="userSpaceOnUse" x1="456.4926" y1="332.3947" x2="532.3785" y2="332.3947">
					<stop  offset="0" style="stop-color:#FC9981"/>
					<stop  offset="0.9954" style="stop-color:#F8007E"/>
				</linearGradient>
				<path id="XMLID_89_" class="st39" d="M527.6,314.6c-1.2-3.3-2.7-6.9-5.9-8.3c-2.4-1-5.1-0.6-7.6-0.1
					c-16.8,3.3-33.3,7.8-49.4,13.6c-1.8,0.6-3.6,1.3-5,2.6c-3.2,2.9-3.3,7.8-3.2,12.1c0.1,5.5,0.6,11.8,5,15.2
					c4.7,3.6,11.3,2.1,17.3,2c12.8,0,30,11.6,42.4,5.8C537.7,349.7,532.4,327.7,527.6,314.6z"/>
				<g id="XMLID_85_">
					<linearGradient id="XMLID_279_" gradientUnits="userSpaceOnUse" x1="473.1448" y1="371.4896" x2="482.4385" y2="296.5931">
						<stop  offset="0.2752" style="stop-color:#B4CCE9"/>
						<stop  offset="0.9189" style="stop-color:#8598C1"/>
					</linearGradient>
					<path id="XMLID_88_" class="st40" d="M492.9,303c0.1-0.6,0.2-1.1,0.2-1.7c0.4-2.9,2.7-7.5,1.3-9.5c-2.3-3.1-9.2-2.2-12.5-4.1
						c-0.8,1.9-3,3-5,3.3c-4.2,0.6-6.1-2.1-9.6-2.6c-2.2-0.4-4,1.8-6.3,2c-1.6,0.1-3.6-0.4-5.1-1c0.4,2-0.1,4.1-1.3,5.8
						c-0.5,0.7-1.1,1.3-1.5,2.1c-0.4,0.8-0.4,1.8-0.4,2.7c0,15.5,2.7,30.7,1.1,46.2c-0.4,3.5-0.9,7-0.4,10.4
						c2.9,17.9,31.2,12.8,43.3,10.4c6.6-1.3,8.5-6.6,7.1-13c-1.7-7.5-6.2-14.4-9-21.5C490.8,322.5,491.5,313.2,492.9,303z"/>
					<g id="XMLID_86_">
						<path id="XMLID_87_" class="st41" d="M487.2,335.7c-0.3-0.6-0.9-1.1-1.4-1.5c-0.2-0.2-0.5-0.5-0.8-0.6c-0.3-0.1-0.7-0.1-1-0.1
							c-2.3,0.2-4.7,0.4-6.8,1.2c-2.2,0.8-7.6,5.4-2.2,5.6c3.3,0.1,6.6-0.2,9.8-1c1.1-0.3,2.3-0.7,2.7-1.7
							C487.7,337,487.5,336.2,487.2,335.7z"/>
					</g>
				</g>
				<path id="XMLID_84_" class="st2" d="M405.2,358.9c-0.8-11.3-0.7-17.2-1.5-28.4c-0.9-12.7-1.9-25.5-5.1-37.9
					c-0.8-3-2.2-6.4-5.8-7.3c-1.3-0.3-2.8-0.2-4.1,0c-7.7,0.9-17.1,2.1-24,5.2c-5.6,2.5-4.6,8.4-5.2,13c-1.8,14.5-11.7,34.4-12.1,49
					c-0.2,7,0,3,1.4,9.9c0.2,0.8,0.4,1.8,1.3,2.2c0.6,0.3,1.3,0.3,2,0.3c14.3,0,36.3-0.8,50.3-3c0.9-0.1,1.8-0.3,2.3-0.9
					C405.3,360.4,405.2,359.6,405.2,358.9z"/>
				<path id="XMLID_83_" class="st42" d="M411.9,317.1c-4.2-8.9-8.4-17.8-12.6-26.6c-0.5-1.1-1.1-2.2-2-3c-2.7-2.2-7.3-0.4-8.8,2.4
					c-1.6,2.9-0.4,6.8,1,9.5c4.5,8.1,10.8,15.1,17.3,21.8c1.3,1.4,3.3,2.8,4.9,1.8C413.5,321.8,412.8,319,411.9,317.1z"/>
				<linearGradient id="XMLID_280_" gradientUnits="userSpaceOnUse" x1="407.3036" y1="304.4717" x2="423.8117" y2="304.4717">
					<stop  offset="0.2752" style="stop-color:#B4CCE9"/>
					<stop  offset="0.9189" style="stop-color:#8598C1"/>
				</linearGradient>
				<path id="XMLID_82_" class="st43" d="M423.8,289.5c0,0,0-0.1,0-0.1c-0.2-0.5-0.7-0.8-1.1-1.1c-1.6-1-3.2-1.9-4.8-2.9
					c-4.9,8.8-8.3,18.3-10.2,28.2c-0.8,4.4-0.1,10.8,5.8,10c2-0.3,3.6-1.8,4.5-3.5c2.1-3.9,1.8-9.5,2.5-13.8
					c0.9-5.2,2-10.4,3.2-15.6C423.8,290.3,423.9,289.9,423.8,289.5z"/>
				<path id="XMLID_81_" class="st5" d="M384.1,305c0.4-5.9,0.1-12-1-17.8c0-0.2-0.1-0.5-0.3-0.7c-0.2-0.1-0.4-0.2-0.6-0.2
					c-2.9-0.3-5.8,0.1-8.5,1.2c3.9,10.5,4.6,22.1,9.7,32.1c-0.7-1.4,0.7-5.1,0.8-6.8C384.2,310.2,383.9,307.6,384.1,305z"/>
				<g id="XMLID_78_">
					<linearGradient id="XMLID_281_" gradientUnits="userSpaceOnUse" x1="383.9198" y1="302.2975" x2="390.453" y2="302.2975">
						<stop  offset="0.2752" style="stop-color:#B4CCE9"/>
						<stop  offset="0.9189" style="stop-color:#8598C1"/>
					</linearGradient>
					<path id="XMLID_80_" class="st44" d="M386.5,292.1c1.6-1.6,3-3.5,4-5.6c-2.1-0.7-4.3-1.2-6.5-1.4c-0.2,7.1,0,14.3,0.7,21.4
						c0.2,2.4,0.5,4.9,0.6,7.3c0.1,1.4-0.5,4.9,0.6,5.9c1.2-7.5,1.8-14.9,3.5-22.3c0.1-0.7,0.3-1.4,0.1-2
						C389,293.9,387.1,293.4,386.5,292.1z"/>
					<linearGradient id="XMLID_282_" gradientUnits="userSpaceOnUse" x1="369.7809" y1="306.433" x2="385.3797" y2="306.433">
						<stop  offset="0.2752" style="stop-color:#B4CCE9"/>
						<stop  offset="0.9189" style="stop-color:#8598C1"/>
					</linearGradient>
					<path id="XMLID_79_" class="st45" d="M380.2,305.1c-1.1-4.7-2.2-9.3-3.3-14c-0.3-1.3-0.5-4.7-2-4.9c-0.8-0.1-4.7,3.9-5.1,3.6
						c1.8,1.5,3.5,3.1,5.3,4.6c0.3,0.2,0.5,0.5,0.6,0.8c0.2,0.7-2.9,2.8-3.3,3.4c-1.5,2,2.2,3.2,3.4,5.4c4.1,7.1,7.3,14.7,9.5,22.6
						C383.7,319.5,381.9,312.3,380.2,305.1z"/>
				</g>
				<linearGradient id="XMLID_283_" gradientUnits="userSpaceOnUse" x1="343.9245" y1="311.4187" x2="365.9674" y2="311.4187">
					<stop  offset="0.2752" style="stop-color:#B4CCE9"/>
					<stop  offset="0.9189" style="stop-color:#8598C1"/>
				</linearGradient>
				<path id="XMLID_77_" class="st46" d="M364.5,292.4c-0.2-0.4-0.4-0.8-0.8-1c-0.4-0.2-1-0.3-1.5-0.2c-4.1,0.5-6.5,4.2-8.1,7.5
					c-2.9,6.4-5.5,12.9-7.5,19.5c-0.9,3-3,7.3-2.7,10.4c0.3,2.7,4.3,2.6,7,3.1c2.8-4.8,5.6-9.6,8.3-14.4c2.2-3.9,4.5-7.8,5.7-12
					C366.3,301,366.4,296.4,364.5,292.4z"/>
				<path id="XMLID_76_" class="st18" d="M421.5,351.3c-0.3-2.4-0.7-5-2.5-6.7c-1.5-1.5-3.8-2-5.9-2.3c-14.1-2.4-28.5-2.8-42.6-1.3
					c-6.4,0.7-13,1.2-19.1,3.1c-5.2,1.6-10.9,1.6-13.4,7.3c-1.7,3.7-1.5,8-1.2,12c1.2,19.6,3.2,39.2,6.2,58.6
					c4-0.6,7.9-1.2,11.9-1.8c-0.2-14,0.2-28,1.1-41.9c0.2-3-0.3-7.1,1.9-9.5c3.1-3.3,9.1-2,13.1-2.1c7,0,14.1-0.4,21.1-1.1
					c2.9-0.3,14.5-3.8,14.7,0.2c0.7,16.4,1.8,32.7,2.1,49.1c0,0.8,0.1,1.7,0.7,2.1c0.3,0.2,0.7,0.3,1,0.3c2.3,0.3,4.7,0.3,7,0
					c0.3,0,0.6-0.1,0.8-0.2c0.5-0.3,0.6-1.1,0.6-1.7c-0.1-10.4,1.6-20.3,3-30.4C423.5,374.1,422.7,362.2,421.5,351.3z"/>
				<path id="XMLID_75_" class="st5" d="M415.2,320c-0.5-9.9-2.1-19.8-5-29.3c-0.2-0.5-0.3-1-0.7-1.5c-0.6-0.7-1.7-1-2.6-1
					c-2.1-0.1-4.2,0.2-6.3,0.6c-4.6,0.8-9.1,1.8-13.6,2.8c-3.7,0.8-6.7,1.3-5.8,5.7c1.9,9.5,4.5,18.5,5.2,28.3
					c0.2,2.2,0.7,4.9,2.8,5.4c0.8,0.2,1.6,0,2.3-0.2c6.8-1.8,13.6-3.6,20.4-5.4c0.7-0.2,1.4-0.4,2-0.8
					C415.2,323.6,415.3,321.7,415.2,320z"/>
				<path id="XMLID_74_" class="st12" d="M391.1,303c-2.7-0.8-5.9,2.2-8,1c0.6-0.7,1.2-1.4,1.8-2.1c0.2-0.2,0.4-0.5,0.4-0.8
					c0-1-1.5-0.9-2.3-0.4c-2.7,1.6-14.1,11.1-6,13.3c1.8,0.5,3.6-0.2,5.4-0.8c2.5-0.9,5-1.8,7.6-2.7c1.7-0.6,3.6-1.4,4.1-3.2
					C394.5,305.5,393,303.5,391.1,303z"/>
				<path id="XMLID_73_" class="st18" d="M451.2,357.8c-0.1,11.7,4.1,23.1,10.5,32.9c5.2,7.9,12.2,16.9,20,22.4
					c7.6,5.4,14.8,9.1,20.9,16.7c0.4,0.5,0.9,1.1,1.6,1.3c0.7,0.1,1.3-0.2,1.9-0.5c2-1,4.3-2.3,4.5-4.6c0.2-2.8-1.8-7.8-2.8-10.3
					c-2-4.9-4.5-9.6-6.9-14.3c-4.7-9.5-9.7-18.8-14.8-28.1c-4.4-7.9-8.9-15.7-13.3-23.6c-2.5-4.4-3.8-11.1-9.9-10.5
					C454,340.3,451.2,350.5,451.2,357.8z"/>
				<path id="XMLID_72_" class="st18" d="M475.6,374.3c0.7-9.9,3.1-20.2,9.7-27.5c2.4-2.6,5.5-4.9,9-4.8c3.3,0.1,6.2,2.3,7.9,5.1
					c1.7,2.8,2.3,6.1,2.5,9.4c1.3,17.2-6.3,33.6-8.9,50.6c-0.6,3.6,0.2,7.3-0.3,10.9c-0.6,3.5-1.4,6.6-1.6,10.2
					c-2.4,0.1-4.9-0.1-7.2-0.5c-0.5-0.1-1.1-0.2-1.5-0.6c-0.6-0.5-0.7-1.5-0.8-2.3c-0.7-8.5-5.1-16.3-6.9-24.6
					C475.6,391.8,475,383,475.6,374.3z"/>
				<path id="XMLID_71_" class="st18" d="M480.5,369c1.8-0.1,3.6-0.4,5.3-1c7.1-2.4,11.8-9.7,13-17.1c0.3-2.2,0.4-4.5-0.6-6.5
					c-1.7-3.5-6-4.9-9.8-5.7c-4.5-1-9.1-1.7-13.6-2.1c-9.7-1-27.8-1-23,13.4C455.8,362,468,369.9,480.5,369z"/>
				<linearGradient id="XMLID_284_" gradientUnits="userSpaceOnUse" x1="504.0887" y1="344.5945" x2="490.9682" y2="300.8593">
					<stop  offset="0.2752" style="stop-color:#B4CCE9"/>
					<stop  offset="0.9189" style="stop-color:#8598C1"/>
				</linearGradient>
				<path id="XMLID_70_" class="st47" d="M489.9,295.9c0.3-2,1.1-3.9,2.5-5.8c7,3.9,11.3,11.2,15,18.3c2.1,4.1,4.1,8.3,5,12.8
					c0.9,4.5,0.4,9.4-2,13.3c-3.7,5.8-13.8,11.7-20.6,7.9c-2.7-1.5-4.2-5.3-2.4-7.8c2.6-3.7,7.9-3.1,10.5-7.1
					c1.6-2.6,1.9-5.9,0.8-8.7c-0.7-1.7-1.8-3.1-2.8-4.6C492.3,309.1,488.8,302.3,489.9,295.9z"/>
				<path id="XMLID_69_" class="st5" d="M502.1,305.6c0-0.1-0.1-0.2-0.1-0.4c0,0-0.1-0.1-0.1-0.1c0,0,0,0,0,0
					c-0.1-0.1-0.3-0.2-0.4-0.2c-0.3-0.1-0.6-0.3-0.9-0.4c-0.1,0-0.2-0.1-0.3-0.1c-18.5,1.4-36.1,1.6-55,2c-0.1,0-0.1,0.1-0.2,0.1
					c-0.2,0.3-0.4,0.5-0.7,0.8c-0.1,0-0.1,0.1-0.2,0.2c0,0.2-0.1,0.3-0.1,0.5c0.6,4.1,0.9,15,1,16.5c0.5,6.1,0.2,12.5,1,18.6
					c0.4,3,1.1,5.1,4.4,5.2c3.3,0.1,6.7-0.3,10-0.4c13.5-0.7,28.5,0.6,41.9-0.6C504.2,334.7,503,318.4,502.1,305.6z"/>
				<path id="XMLID_68_" class="st5" d="M478.1,363.1c6.6,10,12.6,19.9,18.4,30.9c-2.8-1.1-5.5-7.9-7.1-10.7
					c-2.6-4.6-5.2-9.1-7.7-13.7C480.5,367.4,479.3,365.3,478.1,363.1z"/>
				<linearGradient id="XMLID_285_" gradientUnits="userSpaceOnUse" x1="344.6234" y1="319.576" x2="379.7645" y2="319.576">
					<stop  offset="0.2752" style="stop-color:#B4CCE9"/>
					<stop  offset="0.9189" style="stop-color:#8598C1"/>
				</linearGradient>
				<path id="XMLID_67_" class="st48" d="M377.5,309c-0.6-1.5-1.2-2.9-1.9-4.4c-4.7,2.6-9,5.8-13.2,9c-5.1,3.8-11.9,7.4-16.4,12
					c-2.8,2.9-1.1,6.7,2.2,8.2c3.8,1.8,7.5-0.2,10.7-2.3c2.4-1.6,4.6-3.4,6.9-5.3c4.7-3.9,9.4-7.9,14-11.8
					C379,312.6,378.2,310.8,377.5,309z"/>
			</g>
		</g>
	</g>
	<g id="XMLID_23_">
		<defs>
			<ellipse id="XMLID_24_" cx="222.4" cy="277" rx="111.2" ry="149.1"/>
		</defs>
		<clipPath id="XMLID_286_">
			<use xlink:href="#XMLID_24_"  style="overflow:visible;"/>
		</clipPath>
		<linearGradient id="XMLID_287_" gradientUnits="userSpaceOnUse" x1="123.4846" y1="347.9045" x2="314.3997" y2="347.9045">
			<stop  offset="0.2752" style="stop-color:#B4CCE9"/>
			<stop  offset="0.9189" style="stop-color:#8598C1"/>
		</linearGradient>
		<path id="XMLID_59_" class="st49" d="M313.5,249.7c-0.5-1.1-1.1-2.1-1.8-3.1c-0.9-1.4-2-2.8-3.1-4c-6.3,2.4-9.9,9-15,13.5
			c-0.6,0.5-1.3,1-2,0.9c-1.9-0.4-1.6-4.4-3.5-4.1c-1.1,3.7-2.1,7.4-3.2,11.1l-2.4-1.8l-6.2,5l0.6,0.4c-8.1,7.8-22.5,21.4-25,22.3
			c-3.6,1.2-1.7-59.5-1.7-59.5c-3.6-19.1-22.9-21.2-27.1-21.4l-4.9-5.4c0.1-1.1,0.2-2.2,0.3-3.1l0.3-2.1c0,0,8.8-0.6,9.6-9.3
			c0.6-6.7,0.8-20.3,0.9-26.1c3.3-0.1,6.8-3.4,7.2-6.9c0.9-7.4-9.5-13.8-16-12.5c-2.1,0.4-4.1,1.6-6.2,2c-6.5,1.2-13-4.2-19.3-2.3
			c-2.6,0.8-4.7,2.7-6.4,4.8c-4.1,4.8-7.1,10.7-7.8,17c-0.7,6.3,1.1,13,5.5,17.6c1,1.1,2.2,2.1,3,3.4c1.1,1.8,1.4,4.1,2.5,6
			c1.9,3,3.3,2.9,4.2,1.4l0.8,3.6l0,4.9l-0.5-0.1L194,207l-9.5-0.7c0,0-13.6,0.6-17.6,13.4l-0.1-0.1c0,0-0.2,0.9-0.5,2.6l0,0
			c-3.1,14.8-18.3,90.6-19.1,136.3l-23.8,3l6.4,50.1l42.9-5.5c0.9,40.1,2.3,86.7,3.3,128.3l2,0l1.4,12.9l1.3-0.2
			c2.7-0.5,13.7,1.3,23.9,2.5c9.9,1.1,19,1.7,19.2-0.7c0.1-1,0-2-0.1-3c0.7,0.4,1.5,0.7,2.2,1.1c9,4.3,17.4,7.8,18.4,5.5
			c2-4.9,1.1-10.8-2.3-14.8c-2.4-2.8-5.3-5.1-8.6-7.1c3.7-12.6,20.5-69.9,26.7-95.1c5.2-21.2-15.2-98.3-19.5-114.3l0,0v0
			c-0.5-1.9-0.8-2.9-0.8-2.9h0l0,0c0,0,0,0,0,0c21.2,7.1,58.3-44.2,58.3-44.2l-1.8-1.3c6.3-4,11.9-11.6,15.9-16c0.9-1,1.8-2,2-3.4
			C314.5,252,314,250.8,313.5,249.7z M212.5,356.9c1.3,4.4,3.1,10.8,5.1,17.9c5.9,20.8,13.5,48,13.6,51.7c0.1,3.6-10.7,38-19.3,64.9
			C211.8,444.5,211.9,373.4,212.5,356.9z M179.9,254.6l0.9,8.6c2.1,8.6,2.6,18.2-1.9,25.8c-7.5,12.6-6.5,28.1-6.5,28.1l0,0
			c-0.5,8.2-0.7,21.6-0.5,38.3l-5.9,0.7C167.8,332,172.1,286,179.9,254.6z M240,318.1l-0.1,0C239.9,317.9,239.9,317.8,240,318.1
			C240,318.1,240,318.1,240,318.1z"/>
		<g id="XMLID_25_" class="st50">
			<path id="XMLID_58_" class="st18" d="M225.5,549.1c9,4.3,17.4,7.8,18.4,5.5c2-4.9,1.1-10.8-2.3-14.8c-8.4-10-23.7-13.5-35.5-18.2
				l-3.9,17.3c0,0,1.4,0.2,1.4,0.2C206.3,539.4,216.2,544.7,225.5,549.1z"/>
			<linearGradient id="XMLID_288_" gradientUnits="userSpaceOnUse" x1="230.8324" y1="499.1132" x2="229.7389" y2="362.4408">
				<stop  offset="0" style="stop-color:#214A81"/>
				<stop  offset="0.9963" style="stop-color:#55007E"/>
			</linearGradient>
			<path id="XMLID_57_" class="st51" d="M217.1,377c-3.8-13.4-7-24.2-7-24.2l2-34.6l27.4,2.1c0,0,26.1,93.5,20.3,117.2
				c-7,28.4-27.5,97.6-27.5,97.6l-31.7-8.7c0,0,30.2-91.7,30-97.8C230.5,425,223,397.8,217.1,377"/>
			<path id="XMLID_56_" class="st18" d="M204.3,551.7c9.9,1.1,19,1.7,19.2-0.7c0.4-5.3-2.4-10.6-6.9-13.3
				c-11.2-6.8-26.8-5.1-39.4-5.8l1.9,17.6l1.3-0.2C183,548.8,194,550.6,204.3,551.7z"/>
			<linearGradient id="XMLID_289_" gradientUnits="userSpaceOnUse" x1="171.3235" y1="425.7591" x2="212.9037" y2="425.7591">
				<stop  offset="0" style="stop-color:#214A81"/>
				<stop  offset="0.9963" style="stop-color:#55007E"/>
			</linearGradient>
			<path id="XMLID_55_" class="st52" d="M172.3,314.9c-2.7,24.3,1.1,134.2,3.3,221.7l35.8-0.5c0,0-0.4-163.7,0.7-179.3l0.8-37.8
				L172.3,314.9z"/>
			<g id="XMLID_52_">
				<linearGradient id="XMLID_290_" gradientUnits="userSpaceOnUse" x1="122.9378" y1="383.9358" x2="204.6441" y2="383.9358">
					<stop  offset="0.2752" style="stop-color:#B4CCE9"/>
					<stop  offset="0.9189" style="stop-color:#8598C1"/>
				</linearGradient>
				<polygon id="XMLID_54_" class="st53" points="204.6,404.2 129.3,413.8 122.9,363.7 198.3,354.1 				"/>
				<polygon id="XMLID_53_" class="st5" points="171.5,370.7 175.8,396.1 189.5,394.4 184.8,368.7 				"/>
			</g>
			<path id="XMLID_51_" class="st12" d="M311.2,248.8c-0.9-1.4-2-2.8-3.1-4c-6.3,2.4-9.9,9-15,13.5c-0.6,0.5-1.3,1-2,0.9
				c-1.9-0.4-1.6-4.4-3.5-4.1c-1.4,4.9-2.8,9.8-4.2,14.7c-0.8,2.6-1,6.4,1.6,7.2c10.4,3.4,20.7-11.3,26.9-18.1c0.9-1,1.8-2,2-3.4
				c0.2-1.2-0.3-2.4-0.9-3.5C312.4,250.9,311.8,249.8,311.2,248.8z"/>
			<path id="XMLID_50_" class="st12" d="M167.1,405.2c1.7-0.3,3.3-0.7,4.9-1.2c0.4-6.8-4.2-12.7-6.3-19.1c-0.2-0.7-0.4-1.6,0-2.2
				c1.2-1.6,4.7,0.3,5.2-1.6c-3.9-3.3-7.8-6.5-11.7-9.8c-2.1-1.8-5.4-3.5-7.3-1.4c-7.3,8.2,2,23.4,5.7,32c0.5,1.2,1.1,2.5,2.3,3.2
				c1,0.6,2.3,0.7,3.5,0.6C164.8,405.5,166,405.4,167.1,405.2z"/>
			<g id="XMLID_41_">
				<defs>
					<path id="XMLID_42_" d="M281.9,264.3c0,0-27,26.5-30.6,27.7c-3.6,1.2-1.7-59.5-1.7-59.5c-4.1-21.4-27.9-21.4-27.9-21.4
						l-37.6-2.6c0,0-13.6,0.6-17.6,13.4l-0.1-0.1c0,0-0.2,0.9-0.5,2.6l0,0l0,0c-3.5,16.7-22.5,111.7-18.6,152.6l17.2-2.6
						c0,0,3.9-73.2,15-117.6l0.9,8.6c2.1,8.6,2.6,18.2-1.9,25.8c-7.5,12.6-6.5,28.1-6.5,28.1l68.4,4c0,0-1.4-4-0.8-2.9
						c21.2,7.1,58.3-44.2,58.3-44.2L281.9,264.3z"/>
				</defs>
				<linearGradient id="XMLID_291_" gradientUnits="userSpaceOnUse" x1="146.7006" y1="292.7299" x2="297.7438" y2="292.7299">
					<stop  offset="0" style="stop-color:#FC9981"/>
					<stop  offset="0.9954" style="stop-color:#F8007E"/>
				</linearGradient>
				<use xlink:href="#XMLID_42_"  style="overflow:visible;fill:url(#XMLID_291_);"/>
				<clipPath id="XMLID_292_">
					<use xlink:href="#XMLID_42_"  style="overflow:visible;"/>
				</clipPath>
				<g id="XMLID_43_" class="st54">
					<g id="XMLID_48_">
						<path id="XMLID_116_" class="st55" d="M176.6,197.5"/>
					</g>
				</g>
			</g>
			<g id="XMLID_39_">
				<path id="XMLID_40_" class="st5" d="M239.2,279.6c0.1,11.1,0.2,21.2,0.3,28.7c0,3.5,0,6.5,0,8.7c0,2.1-0.1,3.2-0.1,3.2
					c-0.1,0-0.2-1.1-0.3-3.2c-0.1-2.2-0.2-5.2-0.4-8.7c-0.3-7.3-0.5-17.5-0.6-28.7c-0.1-11.2,0-21.4,0.2-28.7
					c0.1-3.7,0.2-6.7,0.3-8.7c0.1-2.1,0.2-3.2,0.3-3.2c0.1,0,0.1,1.1,0.1,3.2c0,2.2,0,5.2,0,8.7"/>
			</g>
			<g id="XMLID_30_">
				<g id="XMLID_31_">
					<g id="XMLID_34_">
						<path id="XMLID_38_" class="st15" d="M217.2,212.4c-0.3-2.3,0.9-11.9,0.9-11.9s8.8-0.6,9.6-9.3c0.8-8.7,0.9-28.8,0.9-28.8
							l-15.7-8.3l-18,12.8l-4.1,9.5l5.4,22.7l0,11.4L217.2,212.4z"/>
						<path id="XMLID_35_" class="st56" d="M218.1,200.6c0,0-13.5-0.7-19-4.8c0,0,10,7,18.8,7L218.1,200.6z"/>
					</g>
					<path id="XMLID_32_" class="st18" d="M210.9,164.3c4.4,2.7,10.4,3.3,13.3-1.7c3.4,5.7,11,0.9,11.6-4.4
						c0.9-7.4-9.5-13.8-16-12.5c-2.1,0.4-4.1,1.6-6.2,2c-6.5,1.2-13-4.2-19.3-2.3c-2.6,0.8-4.7,2.7-6.4,4.8
						c-4.1,4.8-7.1,10.7-7.8,17c-0.7,6.3,1.1,13,5.5,17.6c1,1.1,2.2,2.1,3,3.4c1.1,1.8,1.4,4.1,2.5,6c5.1,8.3,6.8-7.2,5.7-10.5
						c0,0-4.4,1.4-5.4-6.5c-0.5-3.9,5.4-5.8,7.1-1.1l3.7,0.3C202.1,176.4,202.4,161.5,210.9,164.3z"/>
				</g>
			</g>
			<polygon id="XMLID_29_" class="st5" points="195.7,203.9 193.1,210.1 212.6,215.8 211.5,207 			"/>
			<path id="XMLID_28_" class="st5" d="M212.6,215.8c-0.9-4.6,1.6-9,1.6-9l3.3-1.1l4.9,5.4L212.6,215.8z"/>
			<polygon id="XMLID_27_" class="st5" points="281.9,264.3 275.7,269.3 293.1,281.6 297.7,276 			"/>
			<polygon id="XMLID_26_" class="st5" points="147.2,377 164.4,374.4 164.4,367.7 146.7,370.8 			"/>
		</g>
	</g>
	<linearGradient id="XMLID_293_" gradientUnits="userSpaceOnUse" x1="121.7812" y1="363.709" x2="284.6564" y2="363.709">
		<stop  offset="0.2012" style="stop-color:#FFD584"/>
		<stop  offset="0.9175" style="stop-color:#FCEE21"/>
	</linearGradient>
	<path id="XMLID_22_" class="st57" d="M121.8,328.9c0,21.4,4,43.2,10.6,61.3c11.6,31.8,39,58.8,73.9,61.7c28,2.3,55.9-9,78.4-25.9
		c-0.1,0.1-8.2-22.9-8.9-25c-46.7,46.7-115.5,13.1-136.3-40.6c-11.1-28.7-7.2-55.5-6.7-85.2C125.1,291,121.8,309.8,121.8,328.9z"/>
	<linearGradient id="XMLID_294_" gradientUnits="userSpaceOnUse" x1="222.0319" y1="393.7183" x2="273.0589" y2="393.7183">
		<stop  offset="0.2012" style="stop-color:#FFD584"/>
		<stop  offset="0.9175" style="stop-color:#FCEE21"/>
	</linearGradient>
	<path id="XMLID_21_" class="st58" d="M265.2,371.6c2.9,6.6,5.4,13.4,7.5,20.2c0.3,0.9,0.5,1.8,0.3,2.6c-0.3,1.1-1.3,1.8-2.2,2.5
		c-12.6,8.8-32.9,20-48.8,18.8C249.4,407,263,383.3,265.2,371.6z"/>
	<g id="XMLID_5_">
		<polygon id="XMLID_20_" class="st5" points="574.5,227.8 577.7,229.5 574.5,231.3 572.7,234.5 571,231.3 567.8,229.5 571,227.8 
			572.7,224.6 		"/>
		<polygon id="XMLID_18_" class="st5" points="475,177.5 478.2,179.3 475,181 473.2,184.2 471.5,181 468.3,179.3 471.5,177.5 
			473.2,174.3 		"/>
		<polygon id="XMLID_9_" class="st5" points="394.8,181.3 398,183.1 394.8,184.8 393.1,188 391.3,184.8 388.1,183.1 391.3,181.3 
			393.1,178.1 		"/>
		<polygon id="XMLID_8_" class="st5" points="340.2,148.6 343.4,150.3 340.2,152.1 338.4,155.3 336.7,152.1 333.5,150.3 
			336.7,148.6 338.4,145.4 		"/>
		<polygon id="XMLID_6_" class="st5" points="308.6,207.4 311.8,209.1 308.6,210.9 306.9,214.1 305.2,210.9 302,209.1 305.2,207.4 
			306.9,204.2 		"/>
	</g>
	<linearGradient id="XMLID_295_" gradientUnits="userSpaceOnUse" x1="257.4068" y1="160.6792" x2="316.1629" y2="160.6792">
		<stop  offset="0.2012" style="stop-color:#FFD584"/>
		<stop  offset="0.9175" style="stop-color:#FCEE21"/>
	</linearGradient>
	<path id="XMLID_4_" class="st59" d="M258.8,203.3c-1.9-5.9-4.6-17.8,12.2-54.1c3.6-7.7,12.2-16.9,18.5-22.7
		c5.5-5,12.4-7.7,19.8-8.5c0,8.3,2.4,16.7,6.8,23.7C292.4,148.1,272.2,170.4,258.8,203.3z"/>
	
		<linearGradient id="XMLID_296_" gradientUnits="userSpaceOnUse" x1="496.784" y1="149.1283" x2="571.7115" y2="149.1283" gradientTransform="matrix(0.8582 -8.220000e-02 9.530000e-02 0.9954 46.138 44.7093)">
		<stop  offset="0.2012" style="stop-color:#FFD584"/>
		<stop  offset="0.9175" style="stop-color:#FCEE21"/>
	</linearGradient>
	<path id="XMLID_3_" class="st60" d="M538.4,142.7c-11.4-6.2-25.4,2.9-36.9-3c-1-0.5-2.2-1.8-3.5-3.2c-1.5,0.8-3,1.5-4.5,2
		c-2.7,0.9-5.3,1.5-8,1.6c0,0.1,0,0.1,0,0.2c1.7,9.8,15.1,12.5,22.1,13c7.7,0.5,15.4-1,23.1-0.9c7.7,0.1,15.9,2.1,21.7,8.2
		C548.8,153.7,544.8,146.2,538.4,142.7z"/>
</g>
<text id="XMLID_1_" transform="matrix(1 0 0 1 59.1109 538.2224)" class="st61 st62">Your project has no bugs!</text>
<g id="XMLID_154_">
	<linearGradient id="XMLID_297_" gradientUnits="userSpaceOnUse" x1="454.8942" y1="705.7356" x2="385.8289" y2="665.5649">
		<stop  offset="0" style="stop-color:#9A5CFF"/>
		<stop  offset="1" style="stop-color:#5577FF"/>
	</linearGradient>
	<path id="XMLID_152_" class="st63" d="M445.3,679H288.6c-4.2,0-7.5-3.4-7.5-7.5v-33.7c0-4.2,3.4-7.5,7.5-7.5h156.7
		c4.2,0,7.5,3.4,7.5,7.5v33.7C452.8,675.6,449.4,679,445.3,679z"/>
	<text id="XMLID_33_" transform="matrix(1 0 0 1 318.4533 659.2224)" class="st5 st61 st64">Continue!</text>
</g>
<text id="XMLID_36_" transform="matrix(1 0 0 1 163.1755 591.4444)" class="st65 st61 st64">You unlocked a new level Senior Developer</text>
</svg>
