<?xml version="1.0" encoding="utf-8"?>
<!-- Generator: Adobe Illustrator 19.0.0, SVG Export Plug-In . SVG Version: 6.00 Build 0)  -->
<svg version="1.1" id="Layer_1" xmlns="http://www.w3.org/2000/svg" xmlns:xlink="http://www.w3.org/1999/xlink" x="0px" y="0px"
	 viewBox="0 0 750 750" style="enable-background:new 0 0 750 750;" xml:space="preserve">
<style type="text/css">
	.st0{font-family:'MyriadPro-Regular';}
	.st1{font-size:60px;}
	.st2{fill:url(#XMLID_7_);}
	.st3{fill:#FFFFFF;}
	.st4{font-size:24px;}
	.st5{fill:#546BDD;}
	.st6{fill:#EDF3FF;}
	.st7{fill:#FC4B1F;}
	.st8{fill:#114FDE;}
	.st9{fill:#FFB925;}
	.st10{fill:#FDBBA5;}
	.st11{opacity:0.5;fill:#FDBBA5;}
	.st12{fill:#3F2F49;}
	.st13{opacity:0.5;fill:#3F2F49;}
	.st14{fill:#E6E6E6;}
	.st15{opacity:0.5;}
</style>
<text id="XMLID_1_" transform="matrix(1 0 0 1 59.1109 538.2224)" class="st0 st1">Your project has no bugs!</text>
<g id="XMLID_154_">
	<linearGradient id="XMLID_7_" gradientUnits="userSpaceOnUse" x1="454.8942" y1="705.7356" x2="385.8289" y2="665.5649">
		<stop  offset="0" style="stop-color:#9A5CFF"/>
		<stop  offset="1" style="stop-color:#5577FF"/>
	</linearGradient>
	<path id="XMLID_152_" class="st2" d="M445.3,679H288.6c-4.2,0-7.5-3.4-7.5-7.5v-33.7c0-4.2,3.4-7.5,7.5-7.5h156.7
		c4.2,0,7.5,3.4,7.5,7.5v33.7C452.8,675.6,449.4,679,445.3,679z"/>
	<text id="XMLID_33_" transform="matrix(1 0 0 1 318.4533 659.2224)" class="st3 st0 st4">Continue!</text>
</g>
<text id="XMLID_36_" transform="matrix(1 0 0 1 163.1755 591.4444)" class="st5 st0 st4">You unlocked a new level , the last Level</text>
<g id="XMLID_5_">
	<path id="XMLID_649_" class="st6" d="M244.3,435.8c-22.1-4.9-48.3-25.2-63.1-45.8c-27.8-38.7-5-105.2,25.1-115.3
		c4.1-1.4,9.8-2.2,14.2-7c9.3-10.3-0.6-24.7,0-40.6c0.8-23,23.2-42.6,40-51.3c43.2-22.4,105.4-1.1,120.6,28.6
		c7.8,15.2,1.6,29.5,11.3,34c11.6,5.4,25.5-12.7,50.6-19.7c33.5-9.3,71.2,5.6,91.3,20.3c40.9,29.9,50.8,89.3,31.3,128.9
		C520.9,458.6,324.1,453.7,244.3,435.8z"/>
	<g id="XMLID_454_">
		<path id="XMLID_643_" class="st7" d="M519.4,332.6c-0.9,3.1-2.7,5.8-3.4,9c-0.6,2.6-0.7,5.4-0.5,8.1c0.5,5.9,2.6,11.6,4.8,17
			c0,0.2,0,0.3,0.2,0.4c0,0,0,0,0,0c-8.9,15.7-15.4,32.6-18.6,50.6c-0.1,0.6,0.8,0.9,0.9,0.3c2-11.4,5.4-22.4,9.9-33.1
			c2.5-5.9,5.4-11.6,8.5-17.2c0.2-0.1,0.3-0.3,0.3-0.5c0-0.1,0.1-0.1,0.1-0.2c12.4,3.3,22.9-6.5,30.5-15c0.3-0.3,0-1-0.5-0.7
			c-2.7,1.5-6,1.7-9,2.5c-2.7,0.8-5.3,1.7-7.8,2.9c-3.9,1.8-7.9,4-11.3,6.8c4-6.7,8.5-13.2,13.3-19.3c0.1,0,0.1,0,0.2-0.1
			c0.1,0,0.2-0.1,0.3-0.1c9.9,3,21.1,0.2,29.1-6.2c0.3-0.2,0.2-0.7-0.2-0.8c-9.4-1.6-19.4,0.7-27.8,5.2c2.8-3.5,5.7-6.9,8.7-10.1
			c1.4-1.5,2.8-3,4.2-4.5c0.1,0.1,0.2,0.2,0.2,0.2c0.9,1.6,2.8,2.4,4.5,2.9c2.2,0.6,4.6,1.1,6.9,1c4.4-0.2,8.4-2.4,12.1-4.5
			c0.4-0.2,0.3-0.7-0.1-0.8c-7.2-2.9-15.2-2.9-22.3-0.1c3.5-3.6,7.1-7,10.8-10.4c0.1,0.1,0.3,0.1,0.4,0c0.1,0.1,0.2,0.1,0.4,0
			c0.1-0.1,0.2-0.1,0.3-0.2c8.1,2.6,17.5-0.9,22.8-7.3c0.2-0.3-0.1-0.6-0.3-0.7c-4.3-0.4-8.5,0.1-12.6,1.4c-2.3,0.8-4.8,1.8-7,3.3
			c0.7-0.7,1.5-1.3,2.3-1.9c4-3.4,8.2-6.7,12.4-9.9c3.6,0.2,7.3-1.6,10-3.7c3.8-2.9,6.7-6.9,9-11.1c0.2-0.5-0.4-0.9-0.7-0.5
			c-8.2,0.8-16.2,6.4-18.6,14.4c-4.6,3.4-9.1,7-13.4,10.8c1.4-2.2,2.5-4.5,3-7.1c0.7-4.4-0.1-8.8-0.2-13.2c0-0.5-0.6-0.7-0.9-0.3
			c-2.9,4.1-5.7,8.6-7.4,13.4c-1.5,4.1-0.7,7.7,0.2,11.7c-3.5,3.1-6.8,6.3-10.1,9.6c4.3-7.4,1.1-16.9-2.1-24.3
			c-0.2-0.4-0.7-0.3-0.9,0c-6,8-3.6,18.5,0.8,26.6c-4.3,4.4-8.4,9-12.2,13.8c1.5-4.2,1.8-9,1.5-13.3c-0.4-5.5-2-10.8-4.7-15.6
			c-0.2-0.3-0.6-0.3-0.8,0c-3.3,4.5-3.7,10-2.8,15.4c0.8,5.4,2.2,11.5,4.8,16.3c-4.8,6.2-9.3,12.6-13.4,19.3
			c3.6-9.6,2-21.3-2.9-29.9C520.1,332.1,519.5,332.1,519.4,332.6z"/>
		<path id="XMLID_640_" class="st8" d="M336.5,279.4c-0.4-2.9-3.2-2.8-5.1-1.4c-6,4.2-10.4,11.8-17.8,13.6c0,0,0,0,0,0
			c-0.3-5.6-0.6-11.3-1.1-16.9c0.1-0.3,0.1-0.6,0.1-1.1c5.3-0.8,10.4-2.6,14.8-5.8c2.6-1.9,8.1-5.6,7.3-9.4
			c-0.6-2.9-3.3-2.6-5.2-1.2c-5.8,4.5-9.8,12.3-17.1,14.5c0,0,0,0,0,0c0,0,0,0,0-0.1c-0.5-5.4-1.1-10.7-1.9-16c0-0.3,0-0.5,0-0.9
			c5.3-1.1,10.2-3.3,14.4-6.8c2.5-2.1,7.6-6.2,6.6-9.9c-0.8-2.8-3.5-2.4-5.3-0.8c-5.4,4.8-8.9,12.9-16,15.7
			c-0.8-5.2-1.8-10.3-3.1-15.3c5.2-1.3,10.1-3.6,14.2-7.2c2.4-2.1,7.5-6.4,6.3-10.1c-0.9-2.8-3.6-2.3-5.3-0.6
			c-5.3,5-8.5,13.2-15.6,16.1c0,0,0,0,0,0c-1.2-4.5-2.5-9-4.1-13.4c0.1,0,0.2-0.1,0.3-0.1c4.1-3,8.9-5.7,11.6-10.3
			c1.3-2.2,3.1-7.2,1-9.5c-2-2.2-4.4,1.4-5.3,2.9c-3.1,4.7-4.9,10.1-8.5,14.5c-1.5-3.9-3.3-7.8-5.2-11.5c3.3-2.2,6-5.5,7.7-9.1
			c1-2,1.9-6-0.4-7.7c-3.4-2.5-7,10-8.5,14.5c-1.5-2.7-3.1-5.3-4.9-7.9c-1.5-5.9-3-12-6.4-17.1c-1.9-2.9-5.5-7.3-9.5-6.3
			c-8,2,10.6,20.1,14,23.6c2,2.8,3.8,5.8,5.4,8.7c-3.4-0.2-7.1-1.8-10.4-2.2c-1.8-0.3-4-0.4-5.2,1.2c-0.2,0.3-0.2,0.7,0,1
			c3.5,4.8,11.9,3.9,16.9,2.4c2,3.8,3.7,7.6,5.2,11.5c-4.1-0.6-8.2-1.5-12.2-2.6c-2.5-0.7-5.6-1.7-8-0.3c-0.4,0.2-0.5,0.5-0.5,0.9
			c0,3.1,5.4,4.5,7.7,4.9c4.6,1,9.5,0.9,14-0.5c1.4,3.9,2.7,8,3.8,12.1c-7.1,1.6-13.6-0.8-20.7-0.8c-2,0-7,0-6,3.3
			c1.3,4.4,10.9,3.7,14.1,3.7c4.8-0.1,9.3-0.8,13.5-3.1c1.1,4.4,1.9,8.8,2.7,13.2c0,0.2,0,0.4,0,0.6c-7.1,1.4-13.5-1.2-20.7-1.3
			c-2,0-7-0.2-6.1,3.1c1.2,4.4,10.8,4,14,4.1c4.8,0.1,9.2-0.5,13.4-2.6c0.8,5.1,1.3,10.1,1.8,15.2c0,0,0,0.1,0,0.1
			c-7.2,0.9-13.4-2.1-20.5-2.8c-2-0.2-7-0.7-6.3,2.7c0.9,4.5,10.5,4.8,13.6,5.1c4.7,0.4,9.2,0.1,13.5-1.7c0.4,5.4,0.8,10.8,1,16.2
			c0,0.1,0,0.1,0,0.2c-7.3,0.5-13.3-2.8-20.4-3.8c-2-0.3-6.9-1.1-6.4,2.4c0.7,4.6,10.2,5.3,13.4,5.7c4.7,0.6,9.2,0.6,13.6-1
			c0.1,3.4,0.3,6.8,0.4,10.1c0,1.1,1.7,0.8,1.7-0.2c-0.1-3.3-0.2-6.7-0.4-10c0.1-0.3,0.1-0.5,0.1-0.9c5.4-0.5,10.5-2.1,15.1-5
			C331.5,286.7,337.1,283.3,336.5,279.4z"/>
		<path id="XMLID_634_" class="st8" d="M376,247.3c0.3,0.1,0.5,0.1,0.7-0.1c0.2,0.1,0.4,0.1,0.6,0c5.2,1.5,9.9,4.2,15.2,5.2
			c1.9,0.4,8.2,1.5,8.8-1.4c0.6-2.9-5.5-4.6-7.4-5c-5.5-1.3-11.2-0.3-16.7-0.2c0,0-0.1-0.1-0.1-0.1c1.3-2.1,2.6-4.1,4.1-6
			c1.5-2,3.1-3.9,4.7-5.7c2.5,0.9,4.6,3.2,6.7,4.8c1.7,1.2,3.6,2.3,5.6,2.9c2.4,0.7,7.1,1.2,8.4-1.7c3-6.9-15.4-6.1-19.4-7.4
			c3.7-3.8,7.7-7.3,12-10.3c2.1,3.6,4.8,7.5,8.6,9.4c2.2,1.1,6.2,1.7,8.2-0.4c1.7-1.8,0.1-3.9-1.7-5c-2-1.3-4.6-2-6.8-2.9
			c-2.1-0.8-4.2-1.7-6.3-2.5c3.3-2.2,6.8-4.2,10.5-5.8c3.8,2.7,7.8,6,12.4,7.4c1.9,0.6,6.8,1.6,7.9-1.1c1.1-3-3.5-4.5-5.4-4.9
			c-4.3-0.9-8.8-0.7-12.9-2.1c3.4-1.5,6.8-2.7,10.4-3.8c0.1,0,0.2,0.1,0.3,0c4.2-0.6,8.3,0,12.5,0.4c3.7,0.3,8,0.8,11.7,0.2
			c1.3-0.2,2.6-0.7,3.5-1.7c1.1-1.2,1.3-3.1,0.6-4.7c-0.6-1.5-2-2.7-3.5-3.4c-2.4-1.1-5.2-1.1-7.8-0.6c-5.7,1-12.9,4.2-17.1,8.3
			c-4.2,1.2-8.2,2.7-12.1,4.5c-0.1,0-0.1-0.1-0.2-0.1c0-0.2,0-0.3-0.1-0.5c1-5,7.4-8,10-12c1.6-2.3,1.3-5.8-1.9-6.2
			c-3.6-0.5-6.5,3.1-7.8,6c-1.7,3.8-2,8.2-1.6,12.3c-0.1,0.4-0.1,0.8-0.1,1.2c-3.5,1.7-6.9,3.7-10.2,5.9c0,0-0.1,0-0.1,0
			c0.4-2.8,1.1-5.6,2.1-8.3c0.9-2.4,2.5-4.8,2.8-7.4c0.3-2.7-1.1-5.1-4.1-4.5c-9.4,1.9-6.8,16.2-2.4,21.4c0,0,0,0,0,0
			c-4.4,3.2-8.5,6.7-12.3,10.7c0,0,0,0,0,0c0,0,0,0-0.1-0.1c-0.1-0.1-0.2-0.1-0.3-0.2c0.1-0.4,0-0.8-0.2-1.2
			c-0.2-0.8-0.3-1.6-0.4-2.4c-0.1-1.2-0.2-2.3-0.2-3.5c-0.1-2-0.2-4.1-0.8-6c-0.9-2.7-3.1-5.6-6.2-3.8c-3,1.7-2.4,5.6-1.2,8.3
			c1.8,4.3,3.7,8.4,8.1,10.4c-3.2,3.5-6,7.3-8.5,11.3c-1.5-2.1-1.9-5.3-2.8-7.6c-0.9-2.6-2-5.1-3.2-7.5c-1.2-2.4-4.3-7.4-7.5-4.4
			c-2.6,2.5-1.4,7.3,0.1,9.9c2.7,4.8,7.9,8.1,12.3,11.4c-4.5,7.6-7.8,16-9.7,25c-2,9.6-2.2,19.5-0.8,29.3c0.1,0.8,1.4,0.7,1.3-0.1
			C363.2,282.4,366.7,263.3,376,247.3z"/>
		<g id="XMLID_621_">
			<path id="XMLID_631_" class="st8" d="M305,417.3c0.4-10,5.5-21.4,13.4-24.2c5.8-2.1,10.9,1.3,11.2,7.5c0.3,6.8-3.9,12.8-8.3,17.5
				c-1,1.1-12.9,12.4-13.6,11.2C305.6,426.2,304.8,421.9,305,417.3z"/>
			<path id="XMLID_628_" class="st8" d="M302.4,428.5c-0.3-0.2-0.6-0.3-0.8-0.5c-4.9-3.1-12.1-9-9.6-15.6
				c3.6-9.6,14.7,0.2,17.8,13.6C311.2,432.4,305.9,430.5,302.4,428.5z"/>
			<path id="XMLID_625_" class="st8" d="M314.1,430.3c0.3,0,0.7-0.1,1-0.1c5.7-0.9,14.7-3.3,15.1-10.3c0.6-10.3-13.5-5.8-21.8,5.3
				C304.5,430.3,310.1,430.7,314.1,430.3z"/>
			<path id="XMLID_622_" class="st8" d="M303.9,408.6c0,0-10.2-7.2-6.8-14.1C300.4,387.6,308.1,390.1,303.9,408.6z"/>
		</g>
		<g id="XMLID_611_">
			<path id="XMLID_618_" class="st9" d="M406.9,410.1c-0.4-10-5.5-21.4-13.4-24.2c-5.8-2.1-10.9,1.3-11.2,7.5
				c-0.3,6.8,3.9,12.8,8.3,17.5c1,1.1,12.9,12.4,13.6,11.2C406.3,419,407.1,414.7,406.9,410.1z"/>
			<path id="XMLID_615_" class="st9" d="M409.5,421.3c0.3-0.2,0.6-0.3,0.8-0.5c4.9-3.1,12.1-9,9.6-15.6c-3.6-9.6-14.7,0.2-17.8,13.6
				C400.7,425.2,406,423.3,409.5,421.3z"/>
			<path id="XMLID_612_" class="st9" d="M397.8,423.1c-0.3,0-0.7-0.1-1-0.1c-5.7-0.9-14.7-3.3-15.1-10.3
				c-0.6-10.3,13.5-5.8,21.8,5.3C407.4,423.1,401.8,423.5,397.8,423.1z"/>
		</g>
		<g id="XMLID_536_">
			<path id="XMLID_608_" class="st9" d="M167.3,335.6c0,0-3.8-5.5-9-5.6c-5.2,0-4.1,5.8-0.8,6.8
				C160.7,337.7,167.3,335.6,167.3,335.6z"/>
			<path id="XMLID_607_" class="st9" d="M159.1,332.8c0,0,37.6,10.7,76.3,74.2l2.7-2.2C238.1,404.8,199,342.7,159.1,332.8z"/>
			<g id="XMLID_602_">
				<path id="XMLID_604_" class="st9" d="M174.3,338.8c0,0,3.4-5.8,1.2-10.5c-2.2-4.7-7-1.2-6.5,2.1
					C169.6,333.8,174.3,338.8,174.3,338.8z"/>
				<path id="XMLID_603_" class="st9" d="M173.4,339.2c0,0,0.8-5.3-1.5-10.7c0,0,2.4,3,2.9,10.8L173.4,339.2z"/>
			</g>
			<g id="XMLID_597_">
				<path id="XMLID_599_" class="st9" d="M182.7,343.8c0,0,5.1-4.4,4.5-9.6c-0.5-5.2-6.2-3.4-6.8-0.1
					C179.8,337.5,182.7,343.8,182.7,343.8z"/>
				<path id="XMLID_598_" class="st9" d="M181.7,343.8c0,0,2.5-4.8,2-10.6c0,0,1.3,3.6-0.8,11.2L181.7,343.8z"/>
			</g>
			<g id="XMLID_592_">
				<path id="XMLID_594_" class="st9" d="M191.5,350.5c0,0,5.5-3.9,5.4-9.1c0-5.2-5.9-4-6.8-0.7C189.2,344,191.5,350.5,191.5,350.5z
					"/>
				<path id="XMLID_593_" class="st9" d="M190.5,350.5c0,0,3-4.5,3-10.4c0,0,0.9,3.7-1.9,11L190.5,350.5z"/>
			</g>
			<g id="XMLID_587_">
				<path id="XMLID_589_" class="st9" d="M201,358.9c0,0,5.5-3.9,5.4-9.1c0-5.2-5.9-4-6.8-0.7C198.8,352.4,201,358.9,201,358.9z"/>
				<path id="XMLID_588_" class="st9" d="M200,358.9c0,0,3-4.5,3-10.4c0,0,0.9,3.7-1.9,11L200,358.9z"/>
			</g>
			<g id="XMLID_582_">
				<path id="XMLID_584_" class="st9" d="M209.6,367.7c0,0,5.9-3.2,6.5-8.3c0.6-5.2-5.3-4.7-6.6-1.5
					C208.2,360.9,209.6,367.7,209.6,367.7z"/>
				<path id="XMLID_583_" class="st9" d="M208.6,367.5c0,0,3.5-4.1,4.3-10c0,0,0.5,3.8-3.2,10.7L208.6,367.5z"/>
			</g>
			<g id="XMLID_577_">
				<path id="XMLID_579_" class="st9" d="M173.1,340c0,0-3.3,5.8-8.5,6.3c-5.2,0.5-4.5-5.5-1.4-6.7C166.4,338.4,173.1,340,173.1,340
					z"/>
				<path id="XMLID_578_" class="st9" d="M173,339c0,0-4.2,3.4-10.1,4.1c0,0,3.8,0.6,10.8-2.9L173,339z"/>
			</g>
			<g id="XMLID_572_">
				<path id="XMLID_574_" class="st9" d="M182,345.2c0,0-1.9,6.4-6.9,8c-5,1.6-5.6-4.3-2.8-6.2C175.1,345.2,182,345.2,182,345.2z"/>
				<path id="XMLID_573_" class="st9" d="M181.7,344.3c0,0-3.3,4.2-8.9,6.2c0,0,3.8-0.3,9.9-5.3L181.7,344.3z"/>
			</g>
			<g id="XMLID_567_">
				<path id="XMLID_569_" class="st9" d="M190.7,352.1c0,0-2,6.4-6.9,8c-5,1.6-5.6-4.3-2.8-6.2C183.8,352,190.7,352.1,190.7,352.1z"
					/>
				<path id="XMLID_568_" class="st9" d="M190.4,351.1c0,0-3.4,4.2-8.9,6.1c0,0,3.8-0.3,9.9-5.2L190.4,351.1z"/>
			</g>
			<g id="XMLID_562_">
				<path id="XMLID_564_" class="st9" d="M199.4,360.5c0,0-3,6-8.2,6.7c-5.2,0.7-4.8-5.2-1.7-6.6
					C192.6,359.3,199.4,360.5,199.4,360.5z"/>
				<path id="XMLID_563_" class="st9" d="M199.2,359.6c0,0-4,3.6-9.8,4.6c0,0,3.8,0.4,10.6-3.5L199.2,359.6z"/>
			</g>
			<g id="XMLID_557_">
				<path id="XMLID_559_" class="st9" d="M207.7,369.2c0,0-3,6-8.2,6.7c-5.2,0.7-4.8-5.2-1.7-6.6C200.9,368,207.7,369.2,207.7,369.2
					z"/>
				<path id="XMLID_558_" class="st9" d="M207.5,368.3c0,0-4,3.6-9.8,4.6c0,0,3.8,0.4,10.6-3.5L207.5,368.3z"/>
			</g>
			<g id="XMLID_552_">
				<path id="XMLID_554_" class="st9" d="M218.2,377.9c0,0,5.9-3.2,6.5-8.3c0.6-5.2-5.3-4.7-6.6-1.5
					C216.8,371.1,218.2,377.9,218.2,377.9z"/>
				<path id="XMLID_553_" class="st9" d="M217.2,377.8c0,0,3.5-4.1,4.3-10c0,0,0.5,3.8-3.2,10.7L217.2,377.8z"/>
			</g>
			<g id="XMLID_547_">
				<path id="XMLID_549_" class="st9" d="M216.3,379.5c0,0-3,6-8.2,6.7c-5.2,0.7-4.8-5.2-1.7-6.6
					C209.5,378.3,216.3,379.5,216.3,379.5z"/>
				<path id="XMLID_548_" class="st9" d="M216.1,378.5c0,0-4,3.6-9.8,4.6c0,0,3.8,0.4,10.6-3.5L216.1,378.5z"/>
			</g>
			<g id="XMLID_542_">
				<path id="XMLID_544_" class="st9" d="M226.2,387.3c0,0,5.9-3.2,6.5-8.3c0.6-5.2-5.3-4.7-6.6-1.5
					C224.8,380.5,226.2,387.3,226.2,387.3z"/>
				<path id="XMLID_543_" class="st9" d="M225.2,387.2c0,0,3.5-4.1,4.3-10c0,0,0.5,3.8-3.2,10.7L225.2,387.2z"/>
			</g>
			<g id="XMLID_537_">
				<path id="XMLID_539_" class="st9" d="M224.3,388.9c0,0-3,6-8.2,6.7c-5.2,0.7-4.8-5.2-1.7-6.6
					C217.5,387.6,224.3,388.9,224.3,388.9z"/>
				<path id="XMLID_538_" class="st9" d="M224.1,387.9c0,0-4,3.6-9.8,4.6c0,0,3.8,0.4,10.6-3.5L224.1,387.9z"/>
			</g>
		</g>
		<g id="XMLID_461_">
			<path id="XMLID_533_" class="st9" d="M587.6,362.8c0,0,4.8-5.1,10.3-4.3c5.4,0.8,3.2,6.7-0.3,7.1
				C594.1,366.1,587.6,362.8,587.6,362.8z"/>
			<path id="XMLID_532_" class="st9" d="M596.6,361.2c0,0-40.7,4.8-91.6,64l-2.5-2.7C502.5,422.5,553.6,364.8,596.6,361.2z"/>
			<g id="XMLID_527_">
				<path id="XMLID_529_" class="st9" d="M579.8,364.9c0,0-2.5-6.6,0.5-11.1c3.1-4.5,7.4,0,6.3,3.3
					C585.5,360.5,579.8,364.9,579.8,364.9z"/>
				<path id="XMLID_528_" class="st9" d="M580.6,365.5c0,0,0.1-5.7,3.4-10.9c0,0-3,2.7-4.8,10.7L580.6,365.5z"/>
			</g>
			<g id="XMLID_522_">
				<path id="XMLID_524_" class="st9" d="M570.3,368.6c0,0-4.5-5.4-3.1-10.7c1.4-5.3,7-2.5,7.1,1.1
					C574.3,362.6,570.3,368.6,570.3,368.6z"/>
				<path id="XMLID_523_" class="st9" d="M571.3,368.9c0,0-1.8-5.4-0.3-11.4c0,0-1.9,3.5-1.1,11.7L571.3,368.9z"/>
			</g>
			<g id="XMLID_517_">
				<path id="XMLID_519_" class="st9" d="M560,374.1c0,0-5-4.9-4.1-10.3c0.9-5.4,6.8-3.1,7.1,0.4C563.5,367.7,560,374.1,560,374.1z"
					/>
				<path id="XMLID_518_" class="st9" d="M561,374.3c0,0-2.3-5.2-1.4-11.3c0,0-1.6,3.7,0.1,11.7L561,374.3z"/>
			</g>
			<g id="XMLID_512_">
				<path id="XMLID_514_" class="st9" d="M548.7,381.2c0,0-5-4.9-4.1-10.3c0.9-5.4,6.8-3.1,7.1,0.4
					C552.2,374.8,548.7,381.2,548.7,381.2z"/>
				<path id="XMLID_513_" class="st9" d="M549.8,381.4c0,0-2.3-5.2-1.4-11.3c0,0-1.6,3.7,0.1,11.7L549.8,381.4z"/>
			</g>
			<g id="XMLID_507_">
				<path id="XMLID_509_" class="st9" d="M538.4,388.8c0,0-5.6-4.3-5.3-9.7c0.2-5.5,6.3-3.9,7.1-0.5
					C541,382,538.4,388.8,538.4,388.8z"/>
				<path id="XMLID_508_" class="st9" d="M539.4,388.8c0,0-2.9-4.9-2.8-11c0,0-1.1,3.8,1.5,11.7L539.4,388.8z"/>
			</g>
			<g id="XMLID_502_">
				<path id="XMLID_504_" class="st9" d="M580.8,366.3c0,0,2.4,6.6,7.7,8c5.3,1.4,5.6-4.9,2.6-6.7
					C588.1,365.8,580.8,366.3,580.8,366.3z"/>
				<path id="XMLID_503_" class="st9" d="M581.1,365.3c0,0,3.8,4.2,9.7,5.9c0,0-4-0.1-10.7-4.9L581.1,365.3z"/>
			</g>
			<g id="XMLID_497_">
				<path id="XMLID_499_" class="st9" d="M570.7,370.2c0,0,0.9,7,5.8,9.5c4.9,2.5,6.6-3.5,4-5.9
					C577.9,371.4,570.7,370.2,570.7,370.2z"/>
				<path id="XMLID_498_" class="st9" d="M571.2,369.3c0,0,2.8,5,8.2,7.9c0,0-3.9-0.9-9.3-7.1L571.2,369.3z"/>
			</g>
			<g id="XMLID_492_">
				<path id="XMLID_494_" class="st9" d="M560.6,375.8c0,0,0.9,7,5.8,9.5c4.9,2.5,6.5-3.5,4-6C567.7,376.9,560.6,375.8,560.6,375.8z
					"/>
				<path id="XMLID_493_" class="st9" d="M561,374.9c0,0,2.8,4.9,8.2,7.9c0,0-3.9-0.9-9.4-7.1L561,374.9z"/>
			</g>
			<g id="XMLID_487_">
				<path id="XMLID_489_" class="st9" d="M550.2,383.2c0,0,2.1,6.7,7.3,8.4c5.2,1.6,5.9-4.6,2.9-6.5
					C557.4,383,550.2,383.2,550.2,383.2z"/>
				<path id="XMLID_488_" class="st9" d="M550.5,382.2c0,0,3.6,4.4,9.4,6.4c0,0-4-0.3-10.4-5.4L550.5,382.2z"/>
			</g>
			<g id="XMLID_482_">
				<path id="XMLID_484_" class="st9" d="M540.1,390.8c0,0,2.1,6.7,7.3,8.4c5.2,1.6,5.9-4.6,2.9-6.5
					C547.3,390.7,540.1,390.8,540.1,390.8z"/>
				<path id="XMLID_483_" class="st9" d="M540.4,389.8c0,0,3.6,4.4,9.4,6.4c0,0-4-0.3-10.4-5.4L540.4,389.8z"/>
			</g>
			<g id="XMLID_477_">
				<path id="XMLID_479_" class="st9" d="M527.7,398c0,0-5.6-4.3-5.3-9.7c0.2-5.5,6.3-3.9,7.1-0.5C530.3,391.2,527.7,398,527.7,398z
					"/>
				<path id="XMLID_478_" class="st9" d="M528.7,398c0,0-2.9-4.9-2.8-11c0,0-1.1,3.8,1.5,11.7L528.7,398z"/>
			</g>
			<g id="XMLID_472_">
				<path id="XMLID_474_" class="st9" d="M529.4,400c0,0,2.1,6.7,7.3,8.4c5.2,1.6,5.9-4.6,2.9-6.5C536.7,399.8,529.4,400,529.4,400z
					"/>
				<path id="XMLID_473_" class="st9" d="M529.8,399c0,0,3.6,4.4,9.4,6.4c0,0-4-0.3-10.4-5.4L529.8,399z"/>
			</g>
			<g id="XMLID_467_">
				<path id="XMLID_469_" class="st9" d="M517.8,406.3c0,0-5.6-4.3-5.3-9.7c0.2-5.5,6.3-3.9,7.1-0.5
					C520.4,399.6,517.8,406.3,517.8,406.3z"/>
				<path id="XMLID_468_" class="st9" d="M518.8,406.4c0,0-2.9-4.9-2.8-11c0,0-1.1,3.8,1.5,11.7L518.8,406.4z"/>
			</g>
			<g id="XMLID_462_">
				<path id="XMLID_464_" class="st9" d="M519.5,408.3c0,0,2.1,6.7,7.3,8.4c5.2,1.6,5.9-4.6,2.9-6.5
					C526.8,408.2,519.5,408.3,519.5,408.3z"/>
				<path id="XMLID_463_" class="st9" d="M519.9,407.4c0,0,3.6,4.4,9.4,6.4c0,0-4-0.3-10.4-5.4L519.9,407.4z"/>
			</g>
		</g>
		<path id="XMLID_455_" class="st7" d="M226.4,290.8c-5.1,8.8-6.8,20.8-3.2,30.6c-4.1-6.9-8.6-13.5-13.6-19.9
			c2.7-4.9,4.1-11.2,5-16.7c0.9-5.4,0.5-11.2-2.8-15.8c-0.2-0.3-0.7-0.3-0.9,0c-2.8,4.9-4.5,10.3-5,16c-0.3,4.4-0.1,9.3,1.4,13.7
			c-3.9-4.9-8.1-9.7-12.4-14.2c4.6-8.2,7.1-19,1-27.2c-0.2-0.3-0.7-0.4-0.9,0c-3.3,7.6-6.6,17.3-2.3,24.9c-3.3-3.4-6.8-6.7-10.3-9.9
			c1-4.1,1.8-7.8,0.3-12c-1.7-4.9-4.5-9.5-7.4-13.8c-0.3-0.4-0.9-0.2-0.9,0.3c-0.1,4.5-1,9.1-0.3,13.5c0.4,2.6,1.5,5.1,3,7.3
			c-4.4-3.8-9-7.6-13.7-11.1c-2.4-8.3-10.6-14.1-19-14.9c-0.3-0.4-0.9,0-0.7,0.5c2.3,4.3,5.3,8.5,9.1,11.4c2.8,2.2,6.6,4.1,10.2,3.9
			c4.3,3.3,8.5,6.7,12.7,10.2c0.8,0.7,1.5,1.3,2.3,2c-2.3-1.5-4.8-2.6-7.2-3.4c-4.1-1.4-8.5-1.9-12.9-1.6c-0.3,0-0.6,0.4-0.4,0.7
			c5.4,6.6,14.9,10.3,23.3,7.7c0.1,0.1,0.2,0.1,0.3,0.2c0.2,0.1,0.3,0.1,0.4,0c0.1,0.1,0.3,0.1,0.4,0c3.8,3.5,7.4,7,11,10.7
			c-7.3-3-15.5-3-22.8-0.1c-0.4,0.2-0.4,0.6-0.1,0.9c3.8,2.2,7.8,4.5,12.4,4.7c2.4,0.1,4.8-0.3,7.1-0.9c1.8-0.5,3.7-1.2,4.6-2.9
			c0.1-0.1,0.1-0.1,0.2-0.2c1.5,1.5,2.9,3.1,4.3,4.7c3,3.4,6,6.9,8.8,10.5c-8.6-4.7-18.7-7.1-28.4-5.5c-0.4,0.1-0.5,0.6-0.2,0.8
			c8.1,6.6,19.6,9.5,29.7,6.5c0.1,0,0.2,0.1,0.3,0.1c0.1,0,0.1,0.1,0.2,0.1c4.9,6.4,9.4,13,13.5,19.9c-3.5-2.9-7.5-5.2-11.5-7.1
			c-2.6-1.2-5.2-2.2-7.9-3c-3-0.9-6.4-1.1-9.2-2.7c-0.5-0.3-0.8,0.4-0.5,0.7c7.7,8.7,18.4,18.8,31.1,15.6c0,0.1,0.1,0.1,0.1,0.2
			c0,0.2,0.1,0.4,0.3,0.5c3.2,5.7,6.1,11.6,8.6,17.7c4.5,10.9,7.9,22.3,9.8,33.9c0.1,0.6,1,0.3,0.9-0.3c-3.1-18.5-9.7-35.9-18.6-52
			c0,0,0,0,0,0c0.1-0.1,0.2-0.2,0.2-0.4c2.4-5.5,4.6-11.3,5.1-17.3c0.3-2.8,0.2-5.6-0.5-8.3c-0.7-3.2-2.5-6-3.4-9.2
			C227.2,290.5,226.6,290.4,226.4,290.8z"/>
	</g>
	<g id="XMLID_92_">
		<g id="XMLID_347_">
			<g id="XMLID_451_">
				<polygon id="XMLID_453_" class="st10" points="350.1,421.8 347,375.7 348.4,360.8 334.6,363.8 334.6,374.8 342.3,422.5 
					332.1,431.8 337.1,435.4 351.2,425.8 				"/>
				<path id="XMLID_452_" class="st11" d="M346.7,428.9l4.6-3.1l-1.1-4l-3.1-46.1l1.4-14.9l-8.2,2.2c3.4,10.3,1.2,21.6,3,32.4
					c1.1,6.7,2.7,13.2,4.3,19.8c0.8,3.4,0.1,7.1-0.3,10.6C347.1,426.9,346.9,427.9,346.7,428.9z"/>
			</g>
			<g id="XMLID_444_">
				<path id="XMLID_448_" class="st12" d="M333.2,430.8c0,0-3.4,2.7-8.6,3.7c0,0,0.3,3.5,9.2,3.4c6.8,0,11.2-6.8,15.9-8.6v6.1h2.2
					v-6.1c0,0,2.1-5.9-1.7-8.2C350.2,421.1,346.8,433.6,333.2,430.8z"/>
				<path id="XMLID_445_" class="st13" d="M351.9,435.4v-6.1c0,0,1.1-3,0.3-5.5c-2.9,3.6-7.5,6.7-11.4,8.7c-2.4,1.2-4.8,2-7.4,2.4
					c-1.9,0.4-6.3,0.4-8.2,0.7c0.9,1,3.1,2.3,8.6,2.3c6.8,0,11.2-6.8,15.9-8.6v6.1H351.9z"/>
			</g>
			<g id="XMLID_434_">
				<path id="XMLID_438_" class="st12" d="M372.6,434.5c-0.2-2.1-0.9-4.1-1.7-6.2c-0.9-2.3-1.5-4.7-2.4-6.9c-0.1-0.3-0.7-0.5-0.8,0
					c-0.4,1.7-1.1,3.5-1.6,5.3c-0.9-1.9-1.8-3.7-2.5-5.8c0-0.1-0.3-0.2-0.3,0c-0.5,2.4-1,4.9-1.2,7.4c-0.3,3.6,0.7,7.3,2.4,10.4
					c0.9,1.6,1.9,3.1,3.1,4.4c0.4,0.5,1.1,1.5,1.7,1.7c1.5,0.4,2.8-4.9,3-5.9C372.7,437.3,372.8,435.9,372.6,434.5z"/>
				<path id="XMLID_435_" class="st13" d="M372.6,434.5c-0.2-2.1-0.9-4.1-1.7-6.2c-0.9-2.3-1.5-4.7-2.4-6.9
					c-0.1-0.2-0.3-0.3-0.5-0.3c-0.1,0.4,4.6,16.2,0.5,23c0.3,0.3,0.6,0.6,0.9,0.7c1.5,0.4,2.8-4.9,3-5.9
					C372.7,437.3,372.8,435.9,372.6,434.5z"/>
			</g>
			<path id="XMLID_431_" class="st12" d="M340.8,242.1c0,0-9-0.8-14.8-6.3c-1.4-1.3-2.1-3.2-1.9-5.1c0.8-8.1,4.8-32,22.6-32.5
				c0,0,21.1-3.6,24.7,31.1c0.2,2.1-0.5,4.2-2,5.6c-2.3,2.2-6.6,5.4-13.1,7.1H340.8z"/>
			<g id="XMLID_428_">
				<path id="XMLID_430_" class="st10" d="M369.6,424.4l-3-63.4l-14.1,1.7l9.2,57.3c0.2,1.4,0.3,2.9,0.3,4.4l0,0c0,0,1,9.6,5,9
					C367.1,433.4,370.8,432.9,369.6,424.4z"/>
				<path id="XMLID_429_" class="st11" d="M366.5,433.4c-5.5-17.9-4-49.4-5.7-56.8c-0.9-3.7-3-7.4-3.1-11.2c0-0.8-0.1-1.6-0.1-2.4
					c0.2-0.2,0.4-0.6,0.3-1l-5.4,0.7l9.2,57.3c0.2,1.4,0.3,2.9,0.3,4.4C362,424.4,362.9,433,366.5,433.4z"/>
			</g>
			<g id="XMLID_421_">
				<path id="XMLID_425_" class="st12" d="M329.1,312.5c0,0-1.8,24.7,2.9,52.5l38.9-1.5c0,0,4.2-40.2-1.5-56.5l-21.9-17.9
					L329.1,312.5z"/>
				<path id="XMLID_422_" class="st13" d="M335.3,334.6c0.1-7.3,0.1-12.7-1.5-19.8c-0.7-3.4,1.9-7,1.8-10.5l-6.5,8.2
					c0,0-1.8,24.7,2.9,52.5C332.1,364.9,335.1,349.6,335.3,334.6z"/>
			</g>
			<path id="XMLID_418_" class="st13" d="M372.5,333.7c0-7.3-0.2-14.7-1.7-21.8c0-0.1-0.1-0.3-0.1-0.4c-0.3-1.3-0.6-2.7-1-4
				c-0.3-0.9-1.8-1.8-2.5-2.4c-1.4-1.1-2.7-2.2-4.1-3.3c-2.9-2.4-5.9-4.8-8.8-7.2c-0.9-0.7-1.7-1.4-2.6-2.1c-1.7-0.7-3.8-1-5.9-1
				l-8.5,10.8c0.6,0.7,1.4,1.4,2.4,1.7c0.4,0.2,0.7,0.1,1-0.1c4.1,2.9,8.3,5.8,11.5,9.8c3.8,4.7,6.1,10.9,8,16.5
				c3.7,10.8,4,22.4,6.5,33.5l4.3-0.2c0.3,0,0.7-8.9,0.8-9.4C372.2,347.3,372.5,340.5,372.5,333.7z"/>
			<path id="XMLID_415_" class="st7" d="M331.9,267.7l1.6,16.8l-9.5,28.7c0,0,23.4,5.5,25.2-16.5c0,0,5.4,24,28.3,13.4l-12.4-25.6
				l5.5-38.6l-11.2-2.4l-10.2,1.3l-10.4-1.3l-8.6,2.7L331.9,267.7z"/>
			<path id="XMLID_412_" class="st7" d="M365.1,284.5l0.3-2.4c-2.9-0.4-6-0.6-8.2,1.4c-3.2,3-2.1,7.1-0.9,10.6
				c0.1,0.2,0.2,0.4,0.4,0.5c1.5,5.1,5.2,9.6,8.8,13.5c1.4,1.5,2.8,3,4.4,4.4c2.3-0.4,4.8-1.1,7.6-2.4L365.1,284.5z"/>
			<g id="XMLID_409_">
				<path id="XMLID_411_" class="st10" d="M309.3,313.8l-3.3,9c-0.3,0.9-0.3,1.8,0.1,2.7l2,4.7c0.5,1.2,1.7,1.9,2.9,1.9l0,0l3.4-2.5
					c1,0,1.9-0.6,2.2-1.6l0.6-2.3c0.1-0.4,0.1-0.9,0-1.3l-2.1-6.9l0.3-4.3L309.3,313.8z"/>
				<path id="XMLID_410_" class="st11" d="M315,317.6l0.3-4.3l-4.1,0.3c0.1,0.8,0.1,1.7,0.3,2.5c0.5,3.2,1,6.3,1.1,9.4
					c-0.7,1.8-1.2,4-0.8,6l2.5-1.8c1,0,1.9-0.6,2.2-1.6l0.6-2.3c0.1-0.4,0.1-0.9,0-1.3L315,317.6z"/>
			</g>
			<path id="XMLID_406_" class="st7" d="M330.2,246.3c0,0-17.9,36.2-25.6,66c0,0,2.7,4.5,14.3,3.1l14.2-42.8l7-12.2L330.2,246.3z"/>
			<path id="XMLID_403_" class="st7" d="M338.5,288.5c0.3-5.5-0.6-10.9-1.5-16.3c-0.3-1.7-0.6-3.3-0.8-5c-0.2-1-0.3-2-0.4-3
				c-0.1-1-0.3-2.1-1.6-2.1c-0.1,0-0.3,0-0.4,0c0,0-0.1,0-0.1,0c-0.1,0-0.2,0-0.3,0.1c0,0-0.1,0-0.1,0c-0.1,0-0.2,0.1-0.3,0.2
				c0,0,0,0,0,0c-0.1,0.1-0.2,0.1-0.3,0.2c0,0,0,0-0.1,0.1c-0.1,0.1-0.2,0.1-0.2,0.2c0,0,0,0-0.1,0.1c-0.3,0.3-0.5,0.7-0.7,1.1
				c-0.3,0.5-0.6,1.1-0.8,1.5c-2.7,5.1-5,10.4-7.2,15.8c-4.6,11.2-8.6,22.7-12.8,34.1c2,0.4,4.7,0.5,8.1,0l13.6-41.1l1,10.2
				l-9.5,28.7c2.4,0.6,5,0.7,7.4,0.6C338.3,304.8,338.3,291.8,338.5,288.5z"/>
			<g id="XMLID_396_">
				<polygon id="XMLID_400_" class="st14" points="343.8,249.5 349.2,267 354.7,249.5 349.2,244.9 				"/>
				<polygon id="XMLID_397_" class="st14" points="343.8,249.5 349.2,267 354.7,249.5 349.2,244.9 				"/>
			</g>
			<g id="XMLID_391_">
				<polygon id="XMLID_395_" class="st9" points="346,256.5 340.1,292.4 364.4,296.9 368.7,259.8 				"/>
				<path id="XMLID_392_" class="st9" d="M340.1,292.4l24.3,4.5l4.3-37.1C357.6,268.3,346.7,277.1,340.1,292.4z"/>
			</g>
			<g id="XMLID_386_">
				<g id="XMLID_388_">
					<path id="XMLID_390_" class="st10" d="M353.7,276.4c0,0-11.1-5.8-14.8-1.5c-0.8,0.9-0.8,2.3-0.1,3.2c1.3,1.7,4.7,3.9,13.9,3.7
						L353.7,276.4z"/>
					<path id="XMLID_389_" class="st10" d="M350.6,275.8c0,0-4.4-2.2-4.7-6.6l8.7,6.6l-1.4,2.6L350.6,275.8z"/>
				</g>
				<path id="XMLID_387_" class="st11" d="M352.7,281.7l0.6-3.5c-1.1-0.2-2.3-0.2-3.3-0.4c-2.2-0.3-4.4-0.5-6.5-1.2
					c-1.7-0.5-3.1-1.2-4.3-2.2c-0.1,0.1-0.2,0.2-0.3,0.3c-0.8,0.9-0.8,2.3-0.1,3.2C340.1,279.7,343.5,282,352.7,281.7z"/>
			</g>
			<path id="XMLID_383_" class="st7" d="M353.8,273.6c0,0-2.2,5.8-1.6,10.4c0,0,19.6,6.1,30.4,4.6c2.2-0.3,4-2,4.4-4.2
				c0.9-4.8-1-15.4-16.3-38.5l-2.8,20c0,0,4.1,8,2.5,8.3C367.7,274.8,362.6,275.2,353.8,273.6z"/>
			<path id="XMLID_380_" class="st7" d="M374.2,266.5c-1.2-2.3-5.3-6.3-5.6-6.6l-0.9,6c0,0,4.1,8,2.5,8.3c-2.6,0.5-7.8,0.9-16.5-0.6
				c0,0-1,2.6-1.5,5.7c2.7,1,6.3,0.6,8.7,0.3c2.1-0.2,4.2-0.5,6.3-0.6c2.1-0.1,4.2,0.2,6.3,0.2c2.3,0,4.1-1.2,3.8-3.7
				C377.2,272.6,375.6,269.1,374.2,266.5z"/>
			<g id="XMLID_370_">
				<polygon id="XMLID_377_" class="st12" points="309.2,334.6 316.5,334.6 321.4,377.9 304.6,377.9 				"/>
				<path id="XMLID_374_" class="st13" d="M310.1,377.9h11.3l-4.9-43.3h-4.3c-0.2,1.2-0.3,2.4-0.3,3.7c-0.1,5.7,0.7,11.3,0.8,17
					c0.2,5.6,0,11.2-1,16.7C311.3,374,310.8,376,310.1,377.9z"/>
				<path id="XMLID_371_" class="st12" d="M312.5,324.1c-0.9,0-1.6,0.7-1.6,1.6v8.9c0,0.9,0.7,1.6,1.6,1.6s1.6-0.7,1.6-1.6v-8.9
					C314.1,324.8,313.4,324.1,312.5,324.1z"/>
			</g>
			<path id="XMLID_367_" class="st12" d="M348,207.8c0,0-1.4,7.8-14.7,15.8c0,0-4.7-11.1,3.7-19.6l11-2.7c0,0,20.6,4,12.6,19.6
				C360.7,220.8,349,216.3,348,207.8z"/>
			<path id="XMLID_364_" class="st13" d="M371.5,229.4c-2.5-24.4-13.6-29.9-20-31c2.9,2.3,5.1,5.4,7,8.7c2.8,5,5.9,10.4,6.4,16.2
				c0.2,2.9-0.3,5.6-1,8.4c-0.6,2.2-1.8,4.9-1.5,7.3c0,0.3,0.1,0.6,0.2,0.9c3.2-1.6,5.5-3.4,7-4.9
				C371,233.5,371.7,231.4,371.5,229.4z"/>
			<path id="XMLID_361_" class="st13" d="M343.7,242.1c-1.2-4.6-6.1-7.5-8.7-11.3c-1.7-2.5-3.1-5.3-3.8-8.4
				c-0.8-3.6,0.1-6.8,0.6-10.4c0.3-1.8,0.4-3.7,0.4-5.6c-5.7,7.8-7.4,19.2-8,24.3c-0.2,1.9,0.5,3.8,1.9,5.1
				c5.8,5.5,14.8,6.3,14.8,6.3H343.7z"/>
			<g id="XMLID_358_">
				<polygon id="XMLID_360_" class="st10" points="343.8,234.6 343.2,243.2 349.2,244.8 355.3,242.2 355.3,230.7 				"/>
				<path id="XMLID_359_" class="st11" d="M347.5,233.3c-0.5,0.6-4.5,0.8-3.8,1.3c4.1,2.4,6.2,9.5,6.2,9.9l5.3-2.3v-11.5
					L347.5,233.3z"/>
			</g>
			<g id="XMLID_355_">
				<path id="XMLID_357_" class="st10" d="M348,207.8c0,0-1.3,7.3-13.5,15c0.8,3.2,4.4,14,13.9,13.9c0,0,11.2-0.7,12.2-15.9
					C360.7,220.8,349,216.3,348,207.8z"/>
				<path id="XMLID_356_" class="st11" d="M360.6,220.8C360.6,220.8,360.6,220.8,360.6,220.8c-0.1,0-0.1,0-0.1-0.1c0,0,0,0,0,0
					c-0.1-0.1-0.3-0.1-0.6-0.3c0,0,0,0,0,0c-0.1-0.1-0.2-0.1-0.4-0.2c0,0,0,0-0.1,0c-0.3-0.1-0.7-0.3-1.1-0.5c0,0,0,0,0,0
					c-0.2-0.1-0.4-0.2-0.6-0.3c0,0,0,0-0.1,0c-0.6-0.4-1.3-0.8-2-1.2c0,0-0.1,0-0.1-0.1c-0.7-0.5-1.4-1-2.2-1.6c0,0-0.1-0.1-0.1-0.1
					c-0.2-0.2-0.4-0.4-0.7-0.6c0,0,0,0,0,0c-0.2-0.2-0.5-0.4-0.7-0.7c0.6,1.9,3.5,12.7-3.4,21.7c0,0,1.7-0.1,3.8-1.1
					C355.7,234,360.1,230.1,360.6,220.8C360.7,220.8,360.6,220.8,360.6,220.8z"/>
			</g>
			<g id="XMLID_348_">
				<g id="XMLID_249_">
					<polygon id="XMLID_251_" class="st14" points="342.3,238.8 335,244.8 343.7,254.4 349.2,244.8 					"/>
					<polygon id="XMLID_250_" class="st14" points="356.2,238.8 364.6,244.9 354.8,254.4 349.2,244.8 					"/>
				</g>
			</g>
		</g>
		<g id="XMLID_203_">
			<g id="XMLID_340_">
				<path id="XMLID_344_" class="st12" d="M511,427.3l8.5,13.1c0.7,1,0.3,2.4-0.7,2.9l-1.6,0.9c-1.5,0.8-3.3,0.6-4.5-0.5l-11.1-9.8
					c-1.1-1-1.5-2.6-0.8-4l1.9-4.1L511,427.3z"/>
				<path id="XMLID_341_" class="st13" d="M511.3,437.8c-2.1-1.6-4.7-2.9-6.2-5.2c-1-1.5-1.2-3.2-1.1-5c0.1-0.1,0.1-0.2,0.2-0.3
					c0.2-0.4,0.3-0.8,0.4-1.2l-1.9-0.3l-1.9,4.1c-0.6,1.4-0.3,3,0.8,4l11.1,9.8c1.3,1.1,3.1,1.3,4.5,0.5l1.6-0.9
					c1.1-0.6,1.4-1.9,0.7-2.9l-0.1-0.2c-0.5,0.1-1.1,0.3-1.6,0.5C514.8,441.7,513.4,439.4,511.3,437.8z"/>
			</g>
			<g id="XMLID_330_">
				<polygon id="XMLID_337_" class="st8" points="478.1,304.7 460.7,361.4 463.7,431.4 476.3,431.4 478.1,367.4 496.1,324 
					501.2,427 512.7,427.4 521.6,297.9 490.4,295.8 				"/>
				<g id="XMLID_334_">
					<path id="XMLID_162_" class="st8" d="M476.4,347.8c-4.8,9.5-7.5,20.2-6.7,30.8c0.2,3.3,0.8,6.6,1.2,9.9
						c1.7,14.2,0.6,28.6-0.8,42.8h6.2l1.8-64l18-43.4l0,0.1c0-0.5,0.1-1,0.1-1.5C488.5,330,481.2,338.3,476.4,347.8z"/>
				</g>
				<path id="XMLID_331_" class="st8" d="M521.6,297.9l-7.2-0.5c-2.4,15.9-1.6,32-1.9,48c-0.3,18.8-3.7,37.2-5.4,55.9
					c-0.5,5.1-0.8,10.2-0.8,15.4c0,3.5,0.1,7.1,0.8,10.5l5.6,0.2L521.6,297.9z"/>
			</g>
			<g id="XMLID_325_">
				<path id="XMLID_329_" class="st10" d="M528,317.1c-1.7-2.1-4-6.6,2.1-12l-4.8-4.9c0,0-11.1,9.3-1.8,18.1c1.1,1,2.7,1.3,4,0.8
					l0,0C528.3,318.6,528.5,317.8,528,317.1z"/>
				<g id="XMLID_326_" class="st15">
					<path id="XMLID_156_" class="st10" d="M530,305.1l-3.2-3.3c-0.4,0.3-0.8,0.7-1,1.2l0.6-0.9c-1.9,2.4-3,5.4-3,8.4
						c-0.1,2.8,0.8,5.8,2.9,7.6c0.4,0.3,0.8,0.6,1.2,0.9c0.7-0.4,0.9-1.2,0.4-1.8C526.3,315,524,310.5,530,305.1z"/>
				</g>
			</g>
			<g id="XMLID_310_">
				<path id="XMLID_322_" class="st9" d="M476.7,232.7l-11,3.3l-14.8,15.5v20.8l21.7-15.5l2.5,10c2,7.8,2,16-0.1,23.8l-0.7,2.8
					c-0.6,2.3-0.2,4.7,1,6.7l2.8,4.6c0,0,24.9,3.1,42-2.4l3.3-7c1.2-1.7,1.5-3.9,0.6-5.8c-2.6-6-8.3-17.6-5-31.2l10.3,13.8
					c1,1.8,1.2,3.9,0.3,5.8c-2.5,5.6-7.7,17.9-9.5,24.5c0,0,6.6,5.5,12.2,4.9c0,0,6.6-14.6,13.9-30.6c0.9-2.1,0.9-4.4-0.2-6.4
					c-4.6-8.6-17.7-31.9-25.9-37.6l-9.7-0.9l-14.6,0.4l-2.4,3.5l-2.2-3.4L476.7,232.7z"/>
				<path id="XMLID_314_" class="st9" d="M515.9,250.7c-0.8,0.6-6.2,10.4-3.7,23.3c0.4,1.9,0.7,3.7,1.5,5.5c1,2.2,0.9,3.6,0.4,5.9
					c-0.3,1.3-0.5,2.6-0.1,3.9c0.6,1.9,1.9,3.1,2,5.2c0.1,3.1-1.4,6.1-1.2,9.3c1.9-0.4,3.8-0.9,5.6-1.4c0,0,0.9,0.8,2.4,1.7
					c2.4,1.6,4.7-15.1,12-31.1C535.5,270.9,518.8,248.3,515.9,250.7z M529.6,277.9c-1.3,3-3.4,7.7-5.3,12.6c-0.1-0.3-0.2-0.7-0.3-1
					c-2.6-6-8.3-17.6-5-31.2l10.3,13.8C530.3,273.9,530.5,276,529.6,277.9z"/>
				<path id="XMLID_311_" class="st9" d="M487,301.6c-1.2-3.3-4.9-6.5-4.5-10.2c0.2-1.6,1-3,1.1-4.6c0.2-1.3,0-2.6-0.2-3.9
					c-0.7-4-0.6-7.7-0.2-11.7c0.3-3.4,0.3-6.7-0.6-10.1c-0.8-3-2.3-5.8-3.5-8.6c-1-2.3-1.2-5-4.1-5.3c-3.3-0.4-6.7,1.2-9.3,3.1
					c-2.9,2.1-5.2,4.8-7.8,7.2c-2,1.8-4.4,3.2-6.5,4.8c0-0.3-0.3-0.4-0.5-0.4v10.5l21.7-15.5l2.5,10c2,7.8,2,16-0.1,23.8l-0.7,2.8
					c-0.6,2.3-0.2,4.7,1,6.7l2.8,4.6c0,0,3.9,0.5,9.6,0.7C487.7,304.2,487.4,302.8,487,301.6z"/>
			</g>
			<g id="XMLID_303_">
				<path id="XMLID_307_" class="st12" d="M474.4,431.4c0,0,1.5,2.5,1.7,4.1c0.2,1.4-0.7,2.8-2.1,3.2c-3.7,1-12.4,3.3-19.1,4.2
					c-1.7,0.2-3.2-1.1-3.3-2.9c0-0.8,0.1-1.2,0.7-1.7c0.4-0.4,0.9-0.8,1.5-1.1l11.5-5.9H474.4z"/>
				<path id="XMLID_304_" class="st13" d="M474.4,431.4h-2.7c-0.2,1.6-0.6,3-1.8,4.1c-3.3,3.3-8.9,3.8-13.3,4
					c-1.4,0.1-3.3-0.1-4.9,0.3c0,0.1,0,0.2,0,0.3c0,1.7,1.5,3.1,3.3,2.9c6.7-0.8,15.4-3.1,19.1-4.2c1.4-0.4,2.3-1.8,2.1-3.2
					C475.8,433.9,474.4,431.4,474.4,431.4z"/>
			</g>
			<g id="XMLID_239_">
				<g id="XMLID_280_">
					<g id="XMLID_267_">
						<g id="XMLID_275_">
							
								<rect id="XMLID_276_" x="395.8" y="326" transform="matrix(0.9979 6.540244e-02 -6.540244e-02 0.9979 25.7424 -25.1405)" class="st12" width="2.2" height="109.3"/>
						</g>
						<g id="XMLID_272_">
							
								<rect id="XMLID_273_" x="434.6" y="326" transform="matrix(0.9979 6.539977e-02 -6.539977e-02 0.9979 25.8244 -27.6785)" class="st12" width="2.2" height="109.3"/>
						</g>
						<g id="XMLID_270_">
							
								<rect id="XMLID_271_" x="400.6" y="368.1" transform="matrix(6.522936e-02 0.9979 -0.9979 6.522936e-02 793.999 -109.1611)" class="st12" width="109.3" height="2.2"/>
						</g>
						<g id="XMLID_268_">
							
								<rect id="XMLID_269_" x="362.8" y="368.1" transform="matrix(6.522845e-02 0.9979 -0.9979 6.522845e-02 758.6262 -71.3998)" class="st12" width="109.3" height="2.2"/>
						</g>
					</g>
				</g>
				<polygon id="XMLID_277_" class="st12" points="397.7,234.7 451.7,235.2 459.3,324.1 401.9,320.9 				"/>
				<polygon id="XMLID_274_" class="st14" points="397.7,234.2 451.7,234.7 448.9,332.8 391.5,329.7 				"/>
				<g id="XMLID_243_">
					<g id="XMLID_259_">
						<g id="XMLID_210_">
							
								<rect id="XMLID_226_" x="440.1" y="252" transform="matrix(-0.9994 -3.464223e-02 3.464223e-02 -0.9994 874.5524 588.394)" class="st9" width="4.6" height="69.3"/>
							
								<rect id="XMLID_225_" x="432" y="251.7" transform="matrix(-0.9994 -3.464223e-02 3.464223e-02 -0.9994 858.3362 587.5503)" class="st9" width="4.6" height="69.3"/>
							
								<rect id="XMLID_216_" x="423.9" y="251.4" transform="matrix(-0.9994 -3.466187e-02 3.466187e-02 -0.9994 842.1143 586.7147)" class="st9" width="4.6" height="69.3"/>
							
								<rect id="XMLID_215_" x="415.7" y="251.1" transform="matrix(-0.9994 -3.464291e-02 3.464291e-02 -0.9994 825.9037 585.8631)" class="st9" width="4.6" height="69.3"/>
							
								<rect id="XMLID_213_" x="407.6" y="250.8" transform="matrix(-0.9994 -3.464299e-02 3.464299e-02 -0.9994 809.6878 585.0194)" class="st9" width="4.6" height="69.3"/>
							
								<rect id="XMLID_212_" x="399.5" y="250.6" transform="matrix(-0.9994 -3.466568e-02 3.466568e-02 -0.9994 793.4648 584.1845)" class="st9" width="4.6" height="69.3"/>
						</g>
					</g>
					<g id="XMLID_244_">
						<g id="XMLID_195_">
							
								<rect id="XMLID_207_" x="439.2" y="305.6" transform="matrix(-0.9994 -3.464223e-02 3.464223e-02 -0.9994 871.7674 641.9213)" class="st7" width="4.6" height="15.7"/>
							
								<rect id="XMLID_206_" x="431.6" y="275.9" transform="matrix(-0.9994 -3.464223e-02 3.464223e-02 -0.9994 857.0768 611.7562)" class="st7" width="4.6" height="45.1"/>
							
								<rect id="XMLID_202_" x="423" y="299.9" transform="matrix(-0.9994 -3.466187e-02 3.466187e-02 -0.9994 839.5948 635.1281)" class="st7" width="4.6" height="20.8"/>
							
								<rect id="XMLID_201_" x="415.1" y="285.8" transform="matrix(-0.9994 -3.464291e-02 3.464291e-02 -0.9994 824.1032 620.468)" class="st7" width="4.6" height="34.7"/>
							
								<rect id="XMLID_199_" x="407.3" y="272.3" transform="matrix(-0.9994 -3.464299e-02 3.464299e-02 -0.9994 808.5703 606.4978)" class="st7" width="4.6" height="47.8"/>
							
								<rect id="XMLID_198_" x="399.3" y="265.6" transform="matrix(-0.9994 -3.466568e-02 3.466568e-02 -0.9994 792.6843 599.1848)" class="st7" width="4.6" height="54.3"/>
						</g>
					</g>
				</g>
				<path id="XMLID_240_" class="st14" d="M451.7,234.7l-2.8,98.2l-57.4-3.2C405.7,294,425.6,262.2,451.7,234.7z"/>
			</g>
			<g id="XMLID_236_">
				<polygon id="XMLID_238_" class="st10" points="485.9,222.6 485.3,230.1 494.4,237.5 501.3,230.8 502.2,213.9 				"/>
				<path id="XMLID_237_" class="st11" d="M493,219.3c-0.8,4.7-2.5,8.8-4.3,13.1c-0.1,0-0.3,0-0.4,0.1l6.1,5l6.9-6.7l0.9-16.9
					l-9.2,4.8C493,219,493,219.1,493,219.3z"/>
			</g>
			<g id="XMLID_233_">
				<path id="XMLID_235_" class="st10" d="M478.4,202c0,0-3.6,23.2,11,24c0.3,0,0.6,0,0.9-0.1c2.6-0.5,13.8-3.4,13.1-21
					c0,0-2-8.5-13.7-8C489.8,196.9,480.3,193.4,478.4,202z"/>
				<path id="XMLID_234_" class="st11" d="M491.3,225.7c3.6-0.9,12.9-4.9,12.2-20.8c0,0-1.5-6.5-9.8-7.8
					C496.9,201.4,500.6,215,491.3,225.7z"/>
			</g>
			<g id="XMLID_223_">
				<path id="XMLID_227_" class="st12" d="M508.3,215.2c0.4-1.5,1.2-2.9,1.6-4.5c0.8-3.5,1.3-7.2,0.9-10.8c-0.5-5-2.7-10-6.8-13
					c-5-3.7-11.6-3.2-17-0.9c-4.3,1.8-8.5,9.3-14.5,8.5c-0.1,0.2-0.4,2.4,0.8,5.1c0.9,1.9,2.3,3.4,4.4,3.7c2.4,0.4,4.6-0.7,6.6-1.7
					c3.1-1.5,6.3-2.8,9.9-2.2c8.1,1.4,8,9.9,7.5,16.2c-0.2,2.2-0.2,4.6,1.1,6.5c1.6,2.3,3.8,1.9,6.3,2.3
					C507.4,220.8,507.9,216.9,508.3,215.2z"/>
				<g id="XMLID_224_" class="st15">
					<path id="XMLID_102_" class="st12" d="M509.1,224.5c-0.2-0.3-0.3-0.6-0.4-1c-0.6-0.4-1.2-0.9-1.7-1.5c-1.1-1.4-1.6-3.2-1.9-5
						c-0.6-3.5-0.4-7-0.7-10.6c-0.3-3.5-1-7.1-3.1-10c-0.8-1.1-1.9-2.1-3.1-2.7c-2.5-1.2-5.4-0.8-8,0.1c-2.6,0.9-5,2.3-7.6,3
						c-2.6,0.7-5.7,0.7-7.9-0.9c-0.6-0.4-1-0.9-1.4-1.5c-0.2,0-0.5,0-0.7-0.1c-0.1,0.2-0.4,2.4,0.8,5.1c0.9,1.9,2.3,3.4,4.4,3.7
						c2.4,0.4,4.6-0.7,6.6-1.7c3.1-1.5,6.3-2.8,9.9-2.2c8.1,1.4,8,9.9,7.5,16.2c-0.2,2.2-0.2,4.6,1.1,6.5
						C504.5,224.5,506.6,224.1,509.1,224.5z"/>
				</g>
			</g>
			<g id="XMLID_220_">
				<path id="XMLID_222_" class="st10" d="M431.9,233.3c-1-4.9-7.8-5.5-9.8-0.9c-1.6,3.6-2.7,8.3,0.7,9.9c5.9,2.8,9.1-8.5,9.1-8.5
					S432,233.6,431.9,233.3z"/>
				<path id="XMLID_221_" class="st11" d="M422.8,242.3c5.9,2.8,9.1-8.5,9.1-8.5s0-0.1,0-0.2C429.6,234.6,427.4,239.8,422.8,242.3z"
					/>
			</g>
			<g id="XMLID_217_">
				
					<ellipse id="XMLID_219_" transform="matrix(0.8962 0.4437 -0.4437 0.8962 145.1163 -202.1357)" class="st10" cx="504.5" cy="209" rx="3.4" ry="5.2"/>
				
					<ellipse id="XMLID_218_" transform="matrix(0.8962 0.4437 -0.4437 0.8962 145.1163 -202.1357)" class="st11" cx="504.5" cy="209" rx="3.4" ry="5.2"/>
			</g>
			<g id="XMLID_204_">
				<polygon id="XMLID_214_" class="st14" points="488,238.8 493.5,256.3 498.9,238.8 493.5,234.2 				"/>
				<polygon id="XMLID_211_" class="st14" points="488,238.8 493.5,256.3 498.9,238.8 493.5,234.2 				"/>
				<polygon id="XMLID_208_" class="st14" points="484.4,226.7 476,230.5 485.1,242.7 493.5,234.2 				"/>
				<polygon id="XMLID_205_" class="st14" points="502.5,226.7 510.9,230.5 501.9,242.7 493.5,234.2 				"/>
			</g>
		</g>
		<g id="XMLID_100_">
			<g id="XMLID_196_">
				<path id="XMLID_200_" class="st12" d="M269.1,427.3c0,0-0.9,1.2-1.2,2.9c-0.2,1.4,0.7,2.8,2.1,3.2c3.7,1,12.3,3.3,19.1,4.2
					c1.7,0.2,3.3-1.1,3.3-2.8c0-1.1-0.3-2.2-1.4-2.5l-14.7-6.2L269.1,427.3z"/>
				<path id="XMLID_197_" class="st13" d="M273.6,428.5c-0.3-0.6-0.6-1.2-0.8-1.9l-3.8,0.7c0,0-0.9,1.2-1.2,2.9
					c-0.2,1.4,0.7,2.8,2.1,3.2c3.7,1,12.3,3.3,19.1,4.2c1.7,0.2,3.3-1.1,3.3-2.8c0-0.1,0-0.1,0-0.2c0,0,0,0,0,0
					C284.4,434.7,275.2,431.2,273.6,428.5z"/>
			</g>
			<g id="XMLID_186_">
				<path id="XMLID_193_" class="st8" d="M240.1,306.7c0,0-7.9,40.4-8.8,54.3c-0.9,13.9,0.9,66.4,0.9,66.4h11l6.3-62.6l10.5-43.5
					l8.4,106H279l3.1-66.5l-2.7-52.8L240.1,306.7z"/>
				<path id="XMLID_190_" class="st8" d="M271.3,368.2c-0.7-10.1-1.3-20.4-2.7-30.4c-0.6-4.4-2.4-15.8-8.6-16.4l8.4,106h5.5
					c0.1-1.4,0.1-2.7,0.1-4C273.6,404.9,272.6,386.5,271.3,368.2z"/>
				<path id="XMLID_187_" class="st8" d="M231.3,361c-0.9,13.9,0.9,66.4,0.9,66.4h5.7c0.2-3.6-0.4-7.4-0.6-10.8
					c-0.3-5.7-0.7-11.3-0.9-17c-0.4-11-0.5-22,0.4-32.9c1-12.2,3.1-24.4,7-36c1.8-5.4,4.4-10.6,5.2-16.3c0.3-2.5,0.4-4.9,0.2-7.3
					l-9.1-0.3C240.1,306.7,232.2,347.1,231.3,361z"/>
			</g>
			<g id="XMLID_179_">
				<path id="XMLID_183_" class="st12" d="M233.4,427.3l-8.5,13.1c-0.7,1-0.3,2.4,0.7,2.9l1.6,0.9c1.5,0.8,3.3,0.6,4.5-0.5l11.1-9.8
					c1.1-1,1.5-2.6,0.8-4l-1.2-2.6H233.4z"/>
				<path id="XMLID_180_" class="st13" d="M242.5,427.3h-3.7c-0.3,0.9-0.5,1.8-0.9,2.7c-1,2.2-2.4,4.2-4.1,6c-2.3,2.5-5.3,5.4-8.6,7
					c0.1,0.1,0.2,0.2,0.4,0.3l1.6,0.9c1.5,0.8,3.3,0.6,4.5-0.5l11.1-9.8c1.1-1,1.5-2.6,0.8-4L242.5,427.3z"/>
			</g>
			<g id="XMLID_176_">
				<polygon id="XMLID_178_" class="st10" points="249.6,227.2 249.6,237 248.9,238.7 257.6,245.9 264.6,240.5 264.6,227.2 				"/>
				<path id="XMLID_177_" class="st11" d="M249.6,237l-0.7,1.6l8.7,7.2l1.4-1.1c-2.4-4.7-4.4-9.6-4.8-14.8c0.7-0.8,0.9-1.7,0.8-2.7
					h-5.4V237z"/>
			</g>
			<g id="XMLID_169_">
				<path id="XMLID_173_" class="st12" d="M250.2,214.7c0,0-1.2-5.2,0.2-8.3c0.8-1.7,3-2.2,4.7-1.2c0.9,0.6,2.5,1.1,5.4,1
					c1.7-0.1,3.3-0.9,4.6-2c0.3-0.3,0.8-0.5,1.3-0.6c0.8-0.1,1.7,0.2,2.3,0.7c0.7,0.6,1.8,1.4,2.7,0.6c0.4-0.4,0.5-0.9,0.4-1.4
					c-0.5-2-2.9-7.9-15-7.8c0,0-15.6,0.3-16.3,13.9c-0.6,13.6,9.1,18.8,9.1,18.8S245.9,215.4,250.2,214.7z"/>
				<path id="XMLID_170_" class="st13" d="M271.6,203.4c-0.1-0.6-0.4-1.4-1-2.4c-1.1-0.1-2.1-0.7-3.1-1.2c-1.4-0.6-2.7-1.1-4.2-0.6
					c-0.9,0.3-1.5,0.9-2.4,1.2c-1.9,0.7-3.1,0.1-4.8-0.4c-1.7-0.5-3.3-0.4-5,0.2c-3.5,1.5-5.5,4.8-6.2,8.4c-0.4,2.2-0.4,4.4-0.3,6.7
					c0.1,1.6,0.2,3.3-0.5,4.7c-0.3,0.6-0.7,1-1.1,1.3c2.7,4.8,6.5,6.8,6.5,6.8s-3.6-12.9,0.6-13.6c0,0-1.2-5.2,0.2-8.3
					c0.8-1.7,3-2.2,4.7-1.2c0.9,0.6,2.5,1.1,5.4,1c1.7-0.1,3.3-0.9,4.6-2c0.3-0.3,0.8-0.5,1.3-0.6c0.8-0.1,1.7,0.2,2.3,0.7
					c0.7,0.6,1.8,1.4,2.7,0.6C271.6,204.5,271.7,203.9,271.6,203.4z"/>
			</g>
			<g id="XMLID_149_">
				<g id="XMLID_164_">
					<g id="XMLID_68_">
						<path id="XMLID_69_" class="st9" d="M281.4,283.3l-2.1-35.2c-0.1-2.1-1.6-4-3.6-4.6l-3.1-1l-8.9,7.2l-6.2-3.7l-6.2,3.7l-9.9-8
							l-6.5,2.6c0,0,4.9,5.3,5.1,22.3V284v9l-2.7,6.7c-1.2,3-0.2,6.4,2.5,8.1c1.1,0.7,2.5,1.3,4.3,1.7c3.4,0.6,6.2,0.6,8.1,0.5
							c1.8-0.2,3.7-0.1,5.5,0.2c1.7,0.3,4.5,0.4,8.5-0.3c2-0.3,4-0.3,6,0c2,0.3,5,0.4,7.7-0.7c2.3-0.9,3.6-3.2,3.3-5.6
							C282.7,299.7,281.9,292.5,281.4,283.3z"/>
					</g>
				</g>
				<path id="XMLID_161_" class="st9" d="M260.8,285.5c0.6,0.1,0.9-0.8,0.3-1c-0.9-3.3-2.2-6.4-4-9.3c-2.4-3.8-6.1-6.5-8.5-10.3
					c-2.7-4.2-10.4-16-10.8-15.1c1.1,3.5,2.2,8.8,2.3,16.6V284v3c1-0.1,1.9-0.2,2.7-0.3C248.8,286.3,254.9,284.6,260.8,285.5z"/>
				<path id="XMLID_158_" class="st9" d="M283.2,303.6c-0.5-3.8-1.3-11.1-1.8-20.3l-0.8-13.8c-1.9-0.5-3.9,0.9-3.6,2.9
					c-1,4-1.1,7.9-0.9,12.1c0.3,4.8,1.4,11.1-1,15.4c-1.8,3.2-5.3,5.1-7,8.4c-0.3,0.5-0.4,1-0.5,1.4c1.5-0.1,3.1-0.1,4.6,0.1
					c2,0.3,5,0.4,7.7-0.7C282.1,308.3,283.5,306,283.2,303.6z"/>
				<path id="XMLID_155_" class="st9" d="M280.3,264.6l-1-16.6c-0.1-2.1-1.6-4-3.6-4.6l-3.1-1l-3.1,2.5c1.9,3,3.6,6,4,9.8
					c0.3,2.4,0,4.9,0,7.3c0,1.2-0.1,2.4,0.8,3.3C276,267.1,278.6,266,280.3,264.6z"/>
				<path id="XMLID_150_" class="st9" d="M255.1,309.8c1.1-1.7,1.4-3.7,0.8-5.9c-1.3-4.5-2.9-9.1-1.3-13.5c0.1,0,0.1,0,0.2-0.1
					c2.1-1.2,1.3-3.5-0.3-4.7c-2.7-2-6.8-2.9-10.1-3.2c-1.7-0.1-3.1,0.2-4.3,1.1v0.4v9l-2.7,6.7c-1.2,3-0.2,6.4,2.5,8.1
					c1.1,0.7,2.5,1.3,4.3,1.7c3.4,0.6,6.2,0.6,8.1,0.5C253.2,309.8,254.1,309.8,255.1,309.8z"/>
			</g>
			<g id="XMLID_139_">
				<polygon id="XMLID_146_" class="st12" points="265.6,282.9 273.9,252.5 313.8,250 303.2,281.4 266.2,284.6 				"/>
				<polygon id="XMLID_143_" class="st12" points="247,278.4 265.6,282.9 274.8,275.4 				"/>
				<polygon id="XMLID_140_" class="st12" points="247,278.4 247,281.4 266.2,284.6 265.6,282.9 				"/>
			</g>
			<polygon id="XMLID_136_" class="st13" points="265.6,282.9 313.8,250 303.2,281.4 266.2,284.6 			"/>
			<g id="XMLID_133_">
				<path id="XMLID_135_" class="st10" d="M294,282.6c-0.7,4.3-6.6,5.1-8.6,1.2c-1.5-3.1-2.7-7.2,0.2-8.8c5.1-2.7,8.4,7.2,8.4,7.2
					S294,282.3,294,282.6z"/>
				<path id="XMLID_134_" class="st11" d="M286.1,274.8c0.2,0.9,0.4,1.8,0.8,2.7c0.9,1.9,2.1,3.6,2.7,5.7c0.3,1,0.5,2.1,0.6,3.1
					c1.8-0.3,3.4-1.6,3.7-3.7c0-0.3,0-0.4,0-0.4S291,273,286.1,274.8z"/>
			</g>
			<g id="XMLID_130_">
				<path id="XMLID_132_" class="st10" d="M258.4,282.6c0,0,11.2-3.1,15.9,0.4c1.7,1.3,1.2,4.3-0.8,4.9c-4.1,1.1-13.8,2.7-18.1-2.3
					L258.4,282.6z"/>
				<path id="XMLID_131_" class="st11" d="M273.5,287.8c2-0.5,2.5-3.6,0.8-4.9c-0.2-0.1-0.4-0.2-0.6-0.4c-3.3,2.9-7.7,2.6-11.8,1.7
					c-1.6-0.4-3.2-0.7-4.8-0.5l-1.8,1.7C259.7,290.6,269.4,288.9,273.5,287.8z"/>
			</g>
			<g id="XMLID_114_">
				<path id="XMLID_127_" class="st14" d="M232.6,280.3l7.5-10.7v-3.2c-0.2-17-5.1-22.3-5.1-22.3s-8.2,6.7-17,32.5
					c-0.8,2.3-1.8,4.4-2.9,6.6c-0.7,1.4-1.3,3.4-0.1,5.5c0,0,2,5.1,8.4,4.5c0.9-0.1,1.9-0.1,2.8-0.1l32-4.1v-9.3L232.6,280.3z"/>
				<path id="XMLID_124_" class="st14" d="M240.1,269.6v-3.2c-0.1-7.8-1.2-13.1-2.3-16.6c-0.9,2.2-0.8,5.1-1.1,7.1
					c-0.8,4.5-3.1,8.7-5.8,12.4c-2.1,3-4.9,5.9-5.3,9.7c-0.4,3.1,0.9,6.2,3.8,7.4c3.9,1.6,9.4,0.5,13.5,0.3
					c5.1-0.4,10.3-1.7,15.5-1.5v-5.5l-25.7,0.5L240.1,269.6z"/>
			</g>
			<g id="XMLID_111_">
				<path id="XMLID_113_" class="st10" d="M268.5,204.3c-0.6-0.6-1.5-0.9-2.3-0.7c-0.5,0.1-1,0.3-1.3,0.6c-1.3,1.1-2.8,1.9-4.6,2
					c-2.9,0.1-4.5-0.4-5.4-1c-1.6-1.1-3.8-0.6-4.7,1.2c-1.4,3.1-0.2,8.3-0.2,8.3c-4.1,0.7-0.8,12.9-0.6,13.6
					c2.9,1.8,10.9,6.5,13.8,6.1c2.2-0.3,4.5-4.1,5.8-6.8c0.9-1.8,1.5-3.7,1.7-5.6c1.1-7.9,0.2-14.3-0.2-16.8
					C269.9,205.4,269.1,204.8,268.5,204.3z"/>
				<path id="XMLID_112_" class="st11" d="M250.3,228.8c0.1,0.1,0.2,0.1,0.4,0.2c0.1,0.1,0.2,0.1,0.3,0.2c0.1,0.1,0.2,0.1,0.3,0.2
					c2.7,1.6,6.6,3.7,9.5,4.6c0,0,0,0,0,0c-8.8-13.2-4.5-28.2-4.6-28.2c-0.1,0-0.1,0-0.2-0.1c-0.1,0-0.2-0.1-0.3-0.1
					c-0.1,0-0.1-0.1-0.2-0.1c-0.1,0-0.1-0.1-0.2-0.1c-0.1-0.1-0.2-0.1-0.3-0.2c-1.6-1.1-3.8-0.6-4.7,1.2c-1.4,3.1-0.2,8.3-0.2,8.3
					c-4.1,0.7-0.8,12.9-0.6,13.6c0.2,0.1,0.3,0.2,0.5,0.3C250.1,228.7,250.2,228.7,250.3,228.8z"/>
			</g>
			<g id="XMLID_108_">
				
					<ellipse id="XMLID_110_" transform="matrix(0.8963 -0.4435 0.4435 0.8963 -70.1589 132.449)" class="st10" cx="248.1" cy="216.2" rx="3.1" ry="4.5"/>
				
					<ellipse id="XMLID_109_" transform="matrix(0.8963 -0.4435 0.4435 0.8963 -70.1589 132.449)" class="st11" cx="248.1" cy="216.2" rx="3.1" ry="4.5"/>
			</g>
			<polygon id="XMLID_104_" class="st14" points="240.3,240.7 248.9,235.2 257.6,245.9 249.1,252.9 			"/>
			<polygon id="XMLID_101_" class="st14" points="274.8,240.7 266.2,235.2 257.6,245.9 266,252.4 			"/>
		</g>
	</g>
	<g id="XMLID_6_">
		<g id="XMLID_80_">
			<g id="XMLID_85_">
				<path id="XMLID_86_" class="st7" d="M423.7,432.5c0.4-10,5.5-21.4,13.4-24.2c5.8-2.1,10.9,1.3,11.2,7.5
					c0.3,6.8-3.9,12.8-8.3,17.5c-1,1.1-12.9,12.4-13.6,11.2C424.3,441.4,423.5,437.1,423.7,432.5z"/>
			</g>
			<g id="XMLID_83_">
				<path id="XMLID_84_" class="st7" d="M421.1,443.7c-0.3-0.2-0.6-0.3-0.8-0.5c-4.9-3.1-12.1-9-9.6-15.6
					c3.6-9.6,14.7,0.2,17.8,13.6C429.9,447.6,424.6,445.7,421.1,443.7z"/>
			</g>
			<g id="XMLID_81_">
				<path id="XMLID_82_" class="st7" d="M432.8,445.5c0.3,0,0.7-0.1,1-0.1c5.7-0.9,14.7-3.3,15.1-10.3c0.6-10.3-13.5-5.8-21.8,5.3
					C423.2,445.5,428.8,445.9,432.8,445.5z"/>
			</g>
		</g>
	</g>
</g>
</svg>
