<?xml version="1.0" encoding="utf-8"?>
<!-- Generator: Adobe Illustrator 19.0.0, SVG Export Plug-In . SVG Version: 6.00 Build 0)  -->
<svg version="1.1" id="Layer_1" xmlns="http://www.w3.org/2000/svg" xmlns:xlink="http://www.w3.org/1999/xlink" x="0px" y="0px"
	 viewBox="325 -325 750 750" style="enable-background:new 325 -325 750 750;" xml:space="preserve">
<style type="text/css">
	.st0{fill:#FCFCFC;}
	.st1{font-family:'MyriadPro-Regular';}
	.st2{font-size:48px;}
	.st3{fill:url(#XMLID_4_);}
	.st4{fill:#FFFFFF;}
	.st5{font-size:24px;}
	.st6{fill:#546BDD;}
	.st7{fill:#5D66D3;}
	.st8{fill:#474EBB;}
	.st9{fill:#3B3387;}
	.st10{fill:#DDDAE8;}
	.st11{fill:#353A85;}
	.st12{opacity:0.18;}
	.st13{fill:#9EA6AD;}
	.st14{fill:#F1F7F8;}
	.st15{opacity:0.1;}
	.st16{fill:#000100;}
	.st17{fill:#DD957C;}
	.st18{fill:#292949;}
	.st19{fill:#161626;}
	.st20{opacity:6.000000e-02;}
	.st21{fill:#7DB5DB;}
	.st22{fill:#EBCEB1;}
	.st23{opacity:5.000000e-02;}
	.st24{fill:#426362;}
	.st25{fill:#D67086;}
	.st26{fill:#EBD296;}
	.st27{fill:#2E3472;}
	.st28{fill:#F2F2F2;}
	.st29{fill:#DDDDDD;}
	.st30{fill:#FFFDF4;}
	.st31{fill:#A4A6A9;}
</style>
<g id="Layer_2">
	<rect id="XMLID_37_" x="325" y="-325" class="st0" width="750" height="750"/>
</g>
<text id="XMLID_1_" transform="matrix(1 0 0 1 374.8874 209.2217)" class="st1 st2">Congrats, you finished the game!</text>
<g id="XMLID_154_">
	
		<linearGradient id="XMLID_4_" gradientUnits="userSpaceOnUse" x1="779.8657" y1="-280.7847" x2="710.8004" y2="-240.614" gradientTransform="matrix(1 0 0 -1 0 100)">
		<stop  offset="0" style="stop-color:#9A5CFF"/>
		<stop  offset="1" style="stop-color:#5577FF"/>
	</linearGradient>
	<path id="XMLID_152_" class="st3" d="M770.3,354H613.6c-4.2,0-7.5-3.4-7.5-7.5v-33.7c0-4.2,3.4-7.5,7.5-7.5h156.7
		c4.2,0,7.5,3.4,7.5,7.5v33.7C777.8,350.6,774.4,354,770.3,354z"/>
	<text id="XMLID_33_" transform="matrix(1 0 0 1 643.4533 334.2224)" class="st4 st1 st5">Continue!</text>
</g>
<text id="XMLID_36_" transform="matrix(1 0 0 1 567.2237 263.4449)" class="st6 st1 st5">Today is Friday let´s drink!</text>
<g>
	<g>
		<path class="st7" d="M676.6-85.4c-5.9-5-14.7-18.6-6.1-33.8c2.4-4.3,4.7-7.6,6.5-10.3c5.2-7.8,6.7-9.9,2.8-19.3
			c-2.5-6-2.5-10.7-0.1-14c3.3-4.4,9.3-3.9,10-3.8l-0.7,6.5c-0.7-0.1-3.2,0-4.1,1.2c-0.9,1.2-0.6,4,0.9,7.6
			c5.2,12.6,2.2,17.2-3.4,25.5c-1.8,2.7-3.9,5.8-6.2,9.9c-8.1,14.3,4.1,25.2,4.6,25.6L676.6-85.4z"/>
	</g>
	<g>
		<path class="st8" d="M745.2-105.7l-6.5,0.9c-0.1-0.4-1.3-9.2,3.5-15.4c2.4-3.2,5.9-5,10.3-5.6c3.3-0.4,5.6-1.4,6.5-2.8
			c0.9-1.5,0.2-3.4,0.2-3.4l6-2.5c0.2,0.5,2,4.9-0.5,9.2c-1.9,3.4-5.8,5.4-11.4,6.1c-2.6,0.3-4.5,1.3-5.9,3.1
			C744.4-112.2,745.2-105.8,745.2-105.7z"/>
	</g>
	<g>
		<path class="st9" d="M637.4-141.9l2.3-6.1c0.4,0.1,8.7,3.3,11.9,10.4c1.6,3.6,1.6,7.6,0,11.7c-1.2,3.1-1.5,5.6-0.6,7
			c0.9,1.5,2.9,1.8,2.9,1.8l-0.7,6.5c-0.5-0.1-5.2-0.6-7.8-4.8c-2-3.3-2-7.6,0.1-12.9c1-2.4,1-4.6,0.1-6.6
			C643.6-139.5,637.5-141.9,637.4-141.9z"/>
	</g>
	<g>
		<path class="st7" d="M625.1-181.8l-2.2-6.2c0.4-0.1,8.8-3.1,15.8,0.3c3.6,1.7,6.1,4.7,7.5,8.9c1.1,3.2,2.5,5.2,4.1,5.8
			c1.6,0.6,3.3-0.5,3.4-0.5l3.7,5.4c-0.4,0.3-4.4,2.9-9.1,1.3c-3.7-1.2-6.4-4.6-8.2-9.9c-0.8-2.5-2.2-4.2-4.2-5.1
			C631.3-183.9,625.1-181.8,625.1-181.8z"/>
	</g>
	<g>
		
			<rect x="692.6" y="-112.4" transform="matrix(0.997 7.681793e-02 -7.681793e-02 0.997 -5.9129 -53.7628)" class="st9" width="6.5" height="17.4"/>
	</g>
	<g>
		
			<rect x="722.1" y="-133.5" transform="matrix(0.7268 0.6869 -0.6869 0.7268 112.4902 -532.358)" class="st7" width="6.5" height="17.4"/>
	</g>
	<g>
		
			<rect x="611.8" y="-116.8" transform="matrix(0.7535 0.6575 -0.6575 0.7535 78.3175 -435.9674)" class="st8" width="17.4" height="6.6"/>
	</g>
	<g>
		<path class="st9" d="M714.1-161.7l-6.5,1c-0.1-0.6-2.1-14.2,13.8-21.7c5.9-2.8,5.5-4,4.7-6.8c-0.7-2.3-1.8-5.8,1.2-9.3l4.9,4.3
			c-0.5,0.6-0.5,0.9,0.1,3c1.4,4.6,2.1,9.8-8.1,14.6C712.8-171,714.1-161.8,714.1-161.7z"/>
	</g>
	<g>
		<path class="st8" d="M801.7-151l-6.1,2.5c-1.4-3.3-3.9-6.6-5.1-6.6c-0.4,0-1.6,0.7-3.3,4.2c-1.2,2.5-3.1,5.8-6.5,6.1
			c-3.9,0.4-6.5-3.1-9.6-7.2c-3.9-5.2-8.7-11.6-16.1-11.5c-4,0.1-6.9,1.3-9.1,3.6c-4.6,5.2-3.8,14.2-3.8,14.3l-6.5,0.7
			c0-0.5-1.1-11.9,5.4-19.3c3.4-3.8,8-5.8,13.9-5.9c10.8-0.2,17.2,8.4,21.4,14.1c1.2,1.6,2.7,3.6,3.6,4.4c0.3-0.3,0.7-1,1.3-2.2
			c2.6-5.4,5.7-8.1,9.4-8C797.1-161.5,801-152.7,801.7-151z"/>
	</g>
</g>
<g>
	<g>
		<g>
			<g>
				<g>
					<path class="st10" d="M852.4-92.4c11.3-1.1,20.3-10.9,20.3-23c0-1.8-0.2-3.6-0.6-5.3l-6.7-32.5l-2.3,0l-0.4,0l-12.3-0.1
						l-12-0.1l-0.7,0l-2,0l-7,32.4c-0.4,1.7-0.6,3.4-0.6,5.3c0,11.9,8.6,21.8,19.8,23.1l-0.1,21.9c-3,0.3-8.3,1.1-13.8,3l0,1.9
						l16.2,0.1l16.2,0.1l0-1.9c-5.7-2.1-11.2-2.9-14.1-3.2L852.4-92.4z"/>
				</g>
			</g>
			<g>
				<g>
					<path class="st11" d="M869-123.3l-37.1-0.2l-0.5,2.4c-0.3,1.5-0.5,3-0.5,4.6c0,11.2,8.7,20.4,19.5,20.4
						c10.8,0,19.6-9,19.7-20.3c0-1.6-0.2-3.1-0.5-4.6L869-123.3z"/>
				</g>
			</g>
			<g class="st12">
				<g>
					<g>
						<path class="st13" d="M872.7-115.4c0-1.8-0.2-3.6-0.6-5.3l-3.7-18c0,0,2.3,37.4-35.8,37.2l0,0c3.6,4.9,9,8.3,15.3,9l-0.1,21.9
							c-3,0.3-8.3,1.1-13.8,3l0,1.9l16.2,0.1l16.2,0.1l0-1.9c-5.7-2.1-11.2-2.9-14.1-3.2l0.1-21.8
							C863.7-93.4,872.6-103.3,872.7-115.4z"/>
					</g>
				</g>
			</g>
			<g>
				<g>
					<path class="st14" d="M833.8-131.5l3.4-14.9c0.5-2.4,2.6-4.1,5-4.1l4.2,0C846.5-150.5,838.6-148.8,833.8-131.5z"/>
				</g>
			</g>
			<g class="st15">
				<g>
					<g>
						<path class="st16" d="M866.3-67.4c-5.5-2-10.8-2.8-13.8-3.1c0,0,7.5,1.3,10.8,5l3,0L866.3-67.4z"/>
					</g>
				</g>
			</g>
		</g>
	</g>
</g>
<g>
	<g>
		<path class="st17" d="M845.8,112.7c2.1,1.6,4.2,3.2,6.5,4.1c0.5-1.5,0.8-3.1,0.8-4.6c0-0.2,0-0.4-0.1-0.6
			c-0.1-0.1-0.2-0.2-0.4-0.3c-3.1-1.8-6.3-3.6-9.4-5.4c-0.1,1.1-0.7,3.2-0.3,4.3C843.5,111.4,845,112,845.8,112.7z"/>
	</g>
	<g>
		<path class="st18" d="M854.6,120.5c0.7,2,0.3,4.3-0.1,6.4c1.2,1.4,3.6,0.9,4.8-0.5c1.2-1.4,1.5-3.3,1.8-5c0.3-2.2,1.2-4.5,0.7-6.8
			c-0.6-2.7-2.3-3.1-4.8-3.5c-1.2-0.2-2.6-1.2-3.8-1.2c-1.7,0-1.6,0.9-1.9,2.3c-0.4,1.7-1.2,3.2-1.5,4.9
			C851.9,117.3,853.9,118.4,854.6,120.5z"/>
	</g>
</g>
<g>
	<path class="st18" d="M833.2,111.5c2.5,0.8,4.9,1.5,7.4,2.3c1.6,0.5,3.3,1,5,0.6c2.8-0.6,5.5-4.8,5.3-7.6c-0.3-4.2-4.9-4.5-8.7-6.3
		c-9-4-17.7-8.6-26.1-13.8c-2.1-1.3-4.2-2.6-5.6-4.6c-0.9-1.4-1.5-2.9-2-4.5c-2.2-6.2-3.5-14.1-8.2-18.5
		c-4.9-4.6-11.9-8.3-18.2-10.4c-6.8-2.1-16.5-2-22.4,2.5c-7.8,6-1.9,15.3,2.7,21.2c5.6,7.2,12.1,15.9,19.7,21.1
		c5.2,3.5,11.3,5.5,17.3,7.3C810.7,104.5,822,108,833.2,111.5z"/>
</g>
<g>
	<g>
		<g>
			<g>
				<g>
					<g>
						<polygon class="st17" points="735.7,106.1 739.7,116.6 733.5,119 729.1,107.3 						"/>
					</g>
				</g>
				<g>
					<g>
						<path class="st18" d="M733.4,119l5.7-2.3l2.5,0.3l2.6,3.6l-11.2,11l0,0c-2.2-0.6-3.3-3.2-2.1-5.2l0.4-0.7L733.4,119z"/>
					</g>
				</g>
			</g>
		</g>
		<g>
			<path class="st18" d="M713.3,51.2c-4.1,5.2-2.2,12.7-0.1,19c4.9,14.8,9.8,29.5,14.7,44.3c12.2,0.3,12.5-3.8,10.5-14.6
				c-1.5-8-4.2-15.8-4.3-24.1c0-1.1,0.1-2.4,1-3.1c0.6-0.4,1.3-0.5,2-0.6c7.6-0.7,14.9-1.3,22.5-1.7c9-0.5,17.5-3.9,25.9-7.3
				c3.3-1.3,6.6-2.7,9.2-5.1c12.7-12.2-14.5-15.1-21.5-16.8c-4.1-1-7.9-1-12.1-0.9c-3.2,0-7-1.2-9.7-1.1c-7,0.2-2.7,2.4-8,7
				c-3.5,3-7.7,1.7-11.9,1C724.7,46.2,717.9,45.4,713.3,51.2z"/>
		</g>
	</g>
</g>
<g>
	<g>
		<g>
			<g>
				<g>
					<path class="st17" d="M905.9-42.3c-0.1,0.2-0.3,0.3-0.5,0.4c-0.8,0.5-1.7,0.7-2.6,0.7c-1.2,0-2.4-0.4-3.5-0.9
						c-1.5-0.6-1.3-1.5-1.3-3c0-0.8,0.1-1.6,0.1-2.4c0-0.4,0.5-2,0.3-2.3c-0.2-0.2-0.9-0.3-1.2-0.5c-0.5-0.4-0.8-1-1.1-1.5
						c-0.4-0.9-0.5-1.9-0.6-2.8c-0.2-1.7-0.4-3.3-0.6-5c-0.2-1.7-0.4-3.4-0.3-5.1c0.2-2.6,1.2-6.1,3.5-7.6c2-1.4,4.7-1.5,7.1-1.4
						c3.2,0.1,6.3,1.3,8.6,3.4c1,0.8,1.8,1.9,2.3,3.2c0.7,2,0.2,4.2-0.3,6.3c-0.4,1.9-0.9,3.9-1.3,5.8c-0.5,2.2-1.2,4.8-3.1,5.7
						c-1,0.5-2.2,0.4-3.1,1.1c-1.1,0.9-1.4,2.4-1.6,3.8C906.4-43.6,906.3-42.8,905.9-42.3z"/>
				</g>
			</g>
			<g>
				<path class="st18" d="M900.5-69.3c-0.1,0.2-0.3,0.3-0.4,0.5c-0.5,1-0.5,2.2-1,3.2c-0.8,1.6-2.9,2.2-3.5,3.9
					c-0.5,1.4,0.2,2.9,0.1,4.3c-0.2,1.6-1.4,2.9-1.5,4.4c-0.1,1.4,0.4,3.4,1,4.6c-0.2-0.4-2.4-0.6-3-1.1c-0.8-0.7-0.8-1.1-0.9-2
					c-0.1-1,0.3-1.8,0-2.8c-0.3-1.2-1.2-2.3-1.3-3.6c-0.2-1.8,1-3.4,1.2-5.1c0.4-2.7-1.5-5.5-0.2-7.9c0.7-1.4,2.3-2.1,3.4-3.3
					c0.8-0.9,1.2-2,1.8-3.1c0.6-1,1.5-2,2.7-2.1c0.7-0.1,1.3,0.1,2,0.1c1.1,0,2.2-0.6,3.3-0.8c1.6-0.3,4.1,1.8,4.7,3.2
					c0.7,1.4,0,2.5-1.1,3.4C906-71.8,902.1-71.2,900.5-69.3z"/>
			</g>
		</g>
		<g>
			<path class="st18" d="M922.5-73.5c0.8,0.8,1.9,1.5,2.6,2.5c1.4,1.8,1.3,4.3,0.9,6.6c-0.3,2,0.3,3.9-0.3,6
				c-0.4,1.4-1.2,2.7-2.5,3.3c-1.6,0.8-3.8,0.6-4.8,2.1c-1,1.7,0.5,4.2-0.9,5.6c-0.8,0.7-2,0.7-3,1.1c-1.1,0.5-1.8,1.5-2.6,2.4
				s-1.8,1.8-3,1.6c0.3-1.8,0.5-3.2,1.5-4.7c0.6-0.9,2.2-2.4,1.4-3.6c-0.5-1-1.9-1.5-1.8-2.6c0.1-0.5,0.5-0.9,0.8-1.2
				c1.3-1.4,1.8-3.6,1.4-5.5c-0.4-1.9-1.6-3.6-3.2-4.7c-1.9-1.3-1.4-1.8-1.7-3.8c-0.2-1.9-1.2-2.5-2.7-3.4c-1.3-0.8-1.7-1.3-2-2.7
				c-0.2-1.1-0.5-2.3,0.3-3.3c0.6-0.8,1.5-1.3,2.4-1.8c1.9-1,3.9-2,6-1.5c1.1,0.3,2.1,1,3.2,1.3c0.8,0.2,1.5,0.1,2.3,0.2
				c1.3,0.2,2.6,0.8,3.5,1.8c0.9,1,0.8,1.8,1.2,3C921.7-74.4,922.1-73.9,922.5-73.5z"/>
		</g>
	</g>
</g>
<g>
	<g>
		<g>
			<path class="st18" d="M921.8,133c0,0.2,0.1,0.4,0.2,0.5c0.1,0.1,0.3,0.1,0.5,0.1c1.3,0.1,2.5,0.1,3.8-0.1
				c0.5-0.1,1.1-0.2,1.5-0.6c0.4-0.5,0.4-1.2,0.4-1.8c-0.1-1.3-0.1-2.6-0.2-4c0-0.7-0.1-1.4-0.2-2.1c-0.4-1.4-1.7-7.1-2.6-7.9
				c-1.4-1.2-3.4,0.1-4.1,1.4C918.6,122.3,921.1,129.1,921.8,133z"/>
		</g>
		<g>
			<path class="st18" d="M864.7,122.4c0,0.4,0.2,0.7,0.4,1c1.1,1.9,1.9,3.9,2.4,6.1c0.3,1.3,0.5,2.7,1.5,3.5
				c1.3,1.1,3.3,0.5,4.9-0.1c0.7-0.3,1.4-0.5,1.9-1.1c0.5-0.6,0.5-1.6-0.1-2c-0.3-0.2-0.7-0.2-1.1-0.3c-1-0.3-1.6-1.5-1.6-2.6
				c0-3.5,4.8-6.4-0.3-9C870.1,116.7,864.7,119.2,864.7,122.4z"/>
		</g>
		<g>
			<path class="st18" d="M926,52.1c0.8,1.5,1.5,3.1,2,4.7c3.9,11.6,3,24.3,2.1,36.3c-0.8,9.9-1.5,19.8-2.3,29.8
				c-2.9,0.2-5.9-0.1-8.7-0.9c-2.6-9.8-4.9-19.6-6.8-29.5c-1.6-8.3-2-19-6.7-26.2c-2.3-3.5-5.8-5.9-8.9-8.8
				c-5.6-5.3-9.8-12.3-10.8-19.9c-1-7.6,1.5-15.8,7.1-21c1.5-1.4,3.3-2.5,5.3-2.8c9.6-1.4,9.4,9.8,12,15.4
				C914.3,37.8,921.6,43.8,926,52.1z"/>
		</g>
		<g>
			<path class="st18" d="M864.2,56.8c2.2,2.4,5.1,4.1,7.8,5.8c6.2,3.6,12.4,7.2,19,9.3c-2.4,8.8-6.7,15.9-10.4,23.9
				c-2.1,4.5-4.3,8.9-6.7,13.2c-1.5,2.8-4.2,5.4-5.3,8.5c-1.3,3.8,2.4,7.7,5.5,6.4c1.3-0.5,2.5-1.6,3.6-2.7
				c12.8-12.6,24.1-26.5,31.3-43.1c1.5-3.4,2.8-7.1,2.4-10.8c-0.9-8.4-7.8-16.3-14.1-21.3c-3.6-2.8-7.9-6.7-10.1-11.1
				c-2.4-4.8-2.8-10.6-6.4-14.6c-3.8-4.2-9.9-4-14.3-0.6c-4.6,3.6-6,11.6-6.4,17.6c-0.4,5.7-0.4,11.9,2.3,16.6
				C862.8,55.1,863.5,56,864.2,56.8z"/>
		</g>
	</g>
	<g>
		<path class="st10" d="M910.8-45c3.2,1.1,5.4,3.1,5.5,6c0.4,15.8-3,31.7-4.3,47.5c-1.1,13.1,9.2,21.1,9.1,33.9
			c-13.5,2.4-22.4-2.2-34.7-4.8c-5.3-1.1-10.7-0.4-15.6,1.9c-3.3,1.5-8.7,9.1-11.1,9.6c-1.6,0.3-4.1,0.6-5.7,0.2
			c-0.9-0.2-1.8-0.8-1.9-1.6c-0.1-0.6,0.2-1.2,0.5-1.8c4.5-8.8,4.5-19,6.7-28.5c2.3-9.9,5.7-19.5,10.8-28.4
			c5-8.9,9.3-22.8,15.9-30.3C889.8-45.8,903.1-47.7,910.8-45z"/>
	</g>
	<g>
		<g>
			<path class="st17" d="M933.7-81.4c-0.5,0.1-1,0.6-1,1.1c-0.1,0.7,0.3,1.4,0.7,2.1c1.6,2.5,3.5,4.9,4.4,7.7
				c0.5,1.5,0.7,4.4,2.9,4.4c0.5,0,1.1,0,1.6-0.2c0.4-0.2,0.8-0.4,1.1-0.7c0.3-0.2,0.7-0.5,0.8-0.9c0.2-1.9-1.2-4.9-1.4-6.8
				c-0.2-1.2-2.2-15.7-2.8-15.5c-1,0.2-2,0.4-3,0.6c-0.2,0-0.4,0.1-0.5,0.2c-0.2,0.2-0.2,0.4-0.3,0.6c-0.3,2.1-0.2,4.3,0.2,6.3
				c0.1,0.5,0.3,1.1,0.1,1.7c-0.2,0.5-0.8,1-1.3,0.7c-0.4-0.2-0.5-0.8-0.9-1C934.1-81.3,933.9-81.4,933.7-81.4z"/>
		</g>
		<g>
			<path class="st10" d="M951.3-46.7c-2.1-9.2-6-25.2-7.9-24.9c-3,0.5-5.9,1.5-8.5,3.1c1.5,6.5,3.8,13.3,3.1,20
				c-0.5,5.5-6,6.6-10.5,7.2c-2.3,0.3-5.2,1.1-7.5,1.2c-3.5,0-6.9-2.1-10.3-1.1c-2.5,0.7-4.3,3-5.2,5.5s-1,5.1-1.2,7.8
				c-0.5,4.9-0.5,11.4,6.1,12c3.3,0.3,6.4-1.2,9.3-2.7c11.1-5.7,24.2-10.5,33.1-19.5c0.4-0.3,0.8-0.7,0.9-1.1c0.1-0.4,0-0.8,0-1.2
				C952.5-41,952-43.4,951.3-46.7z"/>
		</g>
	</g>
	<g>
		<g>
			<path class="st17" d="M851.8-73.9c0.3,0,0.5,0,0.8,0c0.2,0,0.3,0,0.4,0.1c0.1,0.1,0.2,0.2,0.3,0.3c1.1,1.3,1.9,2.7,2.6,4.2
				c0.3,0.6,0.3,0.6,0.1,1.2c-0.3,0.7-0.7,1.3-1,1.9c-0.2,1-0.4,1.9-0.5,2.9c-0.2,2.5,1.9,8-1,9.3c-0.6,0.2-1.1,0.5-1.7,0.5
				c-0.5,0-1-0.1-1.4-0.3c-0.4-0.1-1-0.2-1.1-0.6c-0.2-0.4,0-1.5,0.1-1.9c0-1.3,0.1-2.5,0.1-3.8c0-1.2,0-2.7-1-3.4
				c-0.2-0.1-0.4-0.2-0.6-0.4c-0.2-0.2-0.3-0.5-0.4-0.8c-0.4-1-0.8-2.1-0.9-3.2c-0.2-1,0.4-1.5,0.9-2.3c0.5-0.8,0.5-1.8,1-2.7
				c0.4-0.9,1.2-1,2.2-1C850.9-73.9,851.4-74,851.8-73.9z"/>
		</g>
		<g>
			<path class="st10" d="M851.2-25.3c-2.5-10.3-4.9-20.1-4-31.3c3.3-0.9,6.7-1,10-0.5c0,0,4.1,18.3,5,20.2c2.3,4.8,2.1,4.2,6.3,2.2
				c3.7-1.8,7-4.5,10.7-6.4c5.3-2.9,13.4-3.5,15.9,3.9c0.7,2,0.2,4.1-0.2,6.1c-1,4.6-2.1,9.2-3.3,13.8c-0.3,1.3-0.7,2.6-1.8,3.4
				c-0.8,0.6-1.9,0.8-2.9,0.9c-8.3,1-16.6,1.7-25,2c-2.6,0.1-5.7,0-7.3-2.1c-0.7-1-1-2.2-1.3-3.3C852.6-19.4,851.9-22.4,851.2-25.3z
				"/>
		</g>
	</g>
</g>
<g>
	<g>
		<g>
			<path class="st8" d="M935.9-101l-1.8-8.2l-0.5-2.4l-40.1,10.7l-4.6,7.6l-0.6,0.9c-0.5,0.8-0.2,1.9,0.7,2.4c1.9,1,4.1,2.1,6.5,3.1
				l41.1-11L935.9-101z"/>
		</g>
		<g>
			<path class="st8" d="M925.7-148.2c-0.3-1.5-2.3-1.8-3.1-0.5l-2.3,3.9l-5.3,8.8l-3,4.9l16.5-4.4L925.7-148.2z"/>
		</g>
		<g>
			<polygon class="st8" points="929.8,-129.4 907.2,-123.3 898.4,-108.8 932.3,-117.9 			"/>
		</g>
		<g>
			<path class="st8" d="M939.6-84.1l-1.6-7.4l-31.4,8.4c1.9,0.5,3.9,0.9,6,1.3c10.5,1.8,19.5,1.2,25.6,0.2c1-0.2,1.6-1.1,1.4-2
				L939.6-84.1z"/>
		</g>
		<g>
			<polygon class="st11" points="928.4,-135.7 912,-131.2 907.2,-123.3 929.8,-129.4 			"/>
		</g>
		<g>
			<polygon class="st11" points="932.3,-117.9 898.4,-108.8 894.2,-101.9 893.6,-100.9 933.6,-111.6 			"/>
		</g>
		<g>
			<path class="st11" d="M937.5-93.6l-0.9-4.2l-41.1,11c3.2,1.3,6.9,2.6,11.1,3.7l31.4-8.4L937.5-93.6z"/>
		</g>
	</g>
	<g>
		<path class="st11" d="M933.8-154.5c0.1,0,0.2,0.2,0,0.3l-4.6,3.2c0,0-0.1,0.1-0.1,0.2l0,5.7c0,0.2-0.2,0.2-0.3,0.1l-4.5-3.4
			c0,0-0.1,0-0.2,0l-5.4,1.8c-0.1,0-0.3-0.1-0.2-0.2l1.9-5.3c0-0.1,0-0.1,0-0.2l-3.3-4.6c-0.1-0.1,0-0.3,0.2-0.3l5.7,0.1
			c0.1,0,0.1,0,0.2-0.1l3.3-4.6c0.1-0.1,0.3-0.1,0.3,0.1l1.6,5.4L933.8-154.5z"/>
	</g>
	<g>
		<path class="st11" d="M945.7-81.8c-0.7-1.1-2.2-1.9-4.1-1.7c-10.1,1.1-19.9,0.6-30.1-1.3c-4.8-0.9-9.6-2-14.1-3.5
			c-2.4-0.8-4.6-1.8-6.9-2.8c-1.9-0.9-3.7-2.2-5.9-2.3c-1-0.1-2,0.1-2.7,0.8c-0.7,0.7-0.9,1.7-1,2.6c-0.2,1.5,4.1,3.3,5.5,4.2
			c2.4,1.5,5.1,2.6,7.8,3.6c5.2,2,10.6,3.3,16.1,4.4c11,2.1,22.5,3.3,33.3,0.5C946.2-77.9,946.8-80.2,945.7-81.8z"/>
	</g>
</g>
<g>
	<g>
		<g>
			<path class="st17" d="M594.7-130.6c0.1,0.1,0.3,0.2,0.4,0.3c1.1,1,0.7,2.4,1.3,3.5c0.3,0.5,1.9,1.1,1.3,1.8
				c-0.2,0.3-0.9,1.3-1.6,2.2c-1.1,1.4-0.9,3.3-0.9,4.9c0,2.2,0,4.4,0.1,6.6c0,1.9,0,3.8,0.4,5.7c0.8,4.6,3.3,8.1,5.5,12
				c2.4,4.1,4.9,8.4,6.7,12.8c0.6,1.6,1.1,3.2,0.9,4.9c-0.5,4.2-4.4,4.7-7.2,2.3c-1.2-1-2.1-2.3-3-3.6c-2.3-3.5-4.3-7.2-5.9-11.1
				c-0.7-1.8-1.4-3.7-2-5.5c-1.7-4.8-2.5-9.2-2.8-14.3c0.1-2.4,0.4-4.7,0.7-7.1c0.2-1.4,1.2-4.6-0.1-5.6c-0.2-0.2-0.5-0.3-0.7-0.5
				c-0.2-0.2-0.3-0.5-0.4-0.8c-0.4-1.1-0.7-2.2-0.8-3.4c-0.2-2,2.3-4.1,3.6-5.3c0.3-0.3,0.7-0.6,1.1-0.8c0.7-0.2,1.4,0.1,2.1,0.3
				C594-131,594.4-130.9,594.7-130.6z"/>
		</g>
		<g>
			<path class="st10" d="M597-80.3c3.4-2.8,6.7-5.7,10.1-8.5c-0.2,0.2,13.8,14.5,14.6,15.3c3.1,3.4,6.2,6.9,7.6,11.2
				c3,9.2-6.8,17.5-15.3,12.1c-9.2-5.9-16.9-15.8-20.7-26c-0.1-0.2-0.2-0.5-0.1-0.7c0.1-0.3,0.3-0.6,0.6-0.8
				C594.9-78.5,596-79.4,597-80.3z"/>
		</g>
	</g>
	<g>
		<g>
			<g>
				<path class="st17" d="M671.5,114.7c-1.2,0.8-2.6,1.3-4,1.9c-8.2-12-14.9-25.7-21.9-38.5c3.3-1.8,6.6-3.5,9.9-5.3
					c1.8,8,4.4,15.8,7.7,23.3C663.7,97.4,671.6,114.6,671.5,114.7z"/>
			</g>
			<g>
				<path class="st18" d="M665.6,114.4c-0.9,0.3-1.1,1-1.4,1.8c-0.1,0.5-0.1,1-0.4,1.4c-0.2,0.4-0.6,0.7-1,1
					c-2.2,1.6-7.5,4.7-2.4,6.9c4.7,1.9,10.6-3.6,14-6.9c0.2-0.2,0.5-0.4,0.5-0.7c0.1-0.3,0-0.7-0.1-1c-0.5-1.9-1.2-4.3-3.6-3.8
					c-1,0.2-1.5,1.3-2.6,1.5C667.9,114.7,666.5,114.1,665.6,114.4z"/>
			</g>
		</g>
		<g>
			<path class="st18" d="M675,28.2c-1.7,7.3-7.3,13.4-11,19.7c-4.2,7-4.6,14.8-1.5,22.5c0.2,0.5,0.4,1,0.3,1.5
				c-0.1,0.5-0.6,0.8-1,1.1c-4.4,3-9,5.7-13.9,7.8c-2.7,1.2-5.4,2.4-8.2,3.3c-7-12.7-10.1-27.5-8.7-41.9c0.8-8.1,2.9-16,5-23.8
				c1.1-3.9,1.8-8,3.3-11.7c1-2.4,1.7-6.2,3.9-7.8c2-1.5,4.2-1.8,6.9-1.6c7.2,0.4,17.4-0.4,22.4,5.6C677.9,9.6,676.7,20.7,675,28.2z
				"/>
		</g>
	</g>
	<g>
		<g>
			<g>
				<path class="st17" d="M623.6,120c-1.4,0.5-2.8,0.7-4.3,1.1c-5.5-13.4-9.2-28.2-13.5-42.2c3.6-1,7.2-2.1,10.7-3.1
					c0.1,8.2,1,16.4,2.7,24.4C619.6,101.5,623.8,119.9,623.6,120z"/>
			</g>
			<g>
				<path class="st18" d="M618,118.6c-0.9,0.1-1.3,0.7-1.7,1.4c-0.2,0.4-0.3,0.9-0.6,1.3c-0.3,0.4-0.7,0.5-1.2,0.8
					c-2.4,1.1-8.3,3.1-3.7,6.2c4.2,2.9,11.1-1.3,15.1-3.9c0.3-0.2,0.5-0.3,0.7-0.6c0.1-0.3,0.2-0.7,0.1-1c-0.1-2-0.3-4.5-2.7-4.5
					c-1.1,0-1.7,0.9-2.8,0.9C620.2,119.3,618.9,118.4,618,118.6z"/>
			</g>
		</g>
		<g>
			<path class="st18" d="M645,36.1c-3.2,6.8-9.9,11.6-14.9,17c-5.5,6-7.6,13.5-6.2,21.7c0.1,0.5,0.2,1.1-0.1,1.5
				c-0.2,0.5-0.8,0.7-1.2,0.9c-4.9,2.1-10,3.7-15.2,4.8c-2.9,0.6-5.7,1.2-8.7,1.5c-4.3-13.9-4.2-29,0.1-42.8
				c2.4-7.7,6.2-15,9.9-22.2c1.8-3.6,3.4-7.5,5.7-10.8c1.5-2.2,3-5.7,5.4-6.8c2.2-1.1,4.5-0.9,7.1-0.2c6.9,1.8,17.1,3.2,20.7,10.2
				C651.7,18.6,648.2,29.2,645,36.1z"/>
		</g>
	</g>
	<g>
		<path class="st10" d="M652.6-66.1c6.5,5.3,11.6,12.4,14.9,19.9c5.9,13.3,7,27.8,8.1,42c0.4,4.7,0.7,9.5,1.1,14.2
			c0.4,4.7,0,5.7-5.1,5.5c-9.5-0.4-19.4-1.6-28.2-5.2c-4.2-1.7-8.2-3.9-12.5-5.2c-6.3-1.8-12.6-0.3-18.8-1.3
			c1.2-4.8,3.2-9.3,3.9-14.2c0.7-5,0.8-10.1,0.8-15.1c-0.1-8.8,0.4-17.6,0.4-26.4c0-6.3-1.2-11.4,5.2-16c3.5-2.5,9.8-6.8,15-6.2
			C642.9-73.5,649-69.1,652.6-66.1z"/>
	</g>
	<g>
		<g>
			<g>
				<path class="st17" d="M622.6-83.8c1.3,2.3,3.3,4.2,4.9,6.3c1.6,2.1,2.3,4,2.8,6.4c0.4,1.8,1.2,3.2,3.4,3.3
					c4.2,0.3,2.7-3,3.5-5.6c0.9-2.9,3-5.3,4.4-7.9c4.1-7.6,1.7-21.9-8.1-24.3C622.7-108.1,618.7-90.9,622.6-83.8z"/>
			</g>
		</g>
		<g>
			<path class="st19" d="M638.7-92c1.2,0,2.5,0,3.4,0.7c0.9,0.7,1,2.5-0.2,2.8c-1,0.2-2.5-0.7-3.1,0.1c-0.3,0.5,0,1.2,0.4,1.7
				c1.3,2,1.8,4.4,1.4,6.7c0.5,0.4,1.1-0.1,1.5-0.5c1.7-2.2,3-4.7,3.8-7.4c0.4,0.6,1,1.1,1.7,1.4c-0.5-1-0.3-2-0.1-3.1
				c0.6-3.8,0.9-8.1-1.9-10.9c-1.5-1.5-3.7-2.3-5.8-2.5s-4.3,0-6.4,0.3c-0.9,0.1-2,0.4-2.2,1.2c2.1,0.7,4.2,2.1,5.4,3.9
				C637-97.2,638.6-92,638.7-92z"/>
		</g>
		<g>
			<path class="st18" d="M633.9-100.6c0.1,0,0.2,0.1,0.2,0.1c1,0.6,1.9,1.4,3,1.6c1.6,0.3,3.2-0.6,4.8-0.1c1.8,0.5,3.1,2.5,4.4,3.6
				c2.2,1.9,4.9,3.1,7.7,3.8c1.4,0.3,2.9,0.5,4.4,0.5c0.7,0,1.6,0,2.2-0.2c0.9-0.3,0.8-0.7-0.2-0.9c-3-0.7-4.2-4.7-4.2-7.5
				c0-2.2,0.6-4.5-0.4-6.4c-0.7-1.5-2.1-2.2-3.5-2.9c-1.5-0.9-3-0.5-4.7-0.8c-1.7-0.4-3.2-1.6-5-1.8c-1.9-0.2-3.6,0.7-5.4,1.2
				c-1.5,0.4-3.1,0.5-4.6,0.3c-1.4-0.2-2.7-0.6-4.1-0.5c-2,0.2-3.8,1.6-4.9,3.3c-1.5,2.5-2.3,6.5-1.5,9.6c-0.1-0.5,1.3-2.3,1.7-2.7
				c0.6-0.8,1.4-1.6,2.5-1.8C628.9-102.8,631.8-101.8,633.9-100.6z"/>
		</g>
	</g>
	<g>
		<g>
			<path class="st17" d="M679.6-128.8c-0.1,0.1-0.3,0.1-0.4,0.2c-1.2,0.9-1,2.3-1.8,3.3c-0.4,0.5-2.1,0.8-1.6,1.7
				c0.2,0.3,0.7,1.4,1.3,2.4c0.9,1.5,0.5,3.4,0.3,5c-0.3,2.2-0.6,4.4-0.9,6.5c-0.3,1.9-0.5,3.8-1.1,5.6c-1.4,4.4-4.3,7.7-7,11.2
				c-2.9,3.8-5.9,7.7-8.2,11.8c-0.8,1.5-1.5,3.1-1.5,4.7c0,4.2,3.7,5.2,6.9,3.2c1.3-0.8,2.4-2,3.4-3.2c2.8-3.2,5.2-6.6,7.2-10.3
				c1-1.7,1.8-3.5,2.7-5.2c2.3-4.5,3.7-8.9,4.5-13.8c0.2-2.4,0.1-4.7,0.1-7.1c0-1.4-0.6-4.7,0.8-5.6c0.2-0.1,0.5-0.2,0.7-0.4
				c0.2-0.2,0.4-0.5,0.5-0.8c0.5-1,0.9-2.1,1.2-3.2c0.4-2-1.8-4.3-2.9-5.7c-0.3-0.3-0.6-0.7-1-0.9c-0.7-0.3-1.4-0.1-2.2,0.1
				C680.4-129.1,680-129,679.6-128.8z"/>
		</g>
		<g>
			<path class="st10" d="M671-79.2c-3-3.2-6-6.5-8.9-9.7c0.2,0.2-15.5,12.6-16.4,13.4c-3.5,2.9-7,6-9,10.1
				c-4.1,8.8,4.6,18.2,13.6,13.9c9.9-4.7,18.8-13.5,23.8-23.2c0.1-0.2,0.2-0.4,0.2-0.7c0-0.3-0.2-0.6-0.5-0.8
				C672.9-77.2,671.9-78.2,671-79.2z"/>
		</g>
	</g>
</g>
<g>
	<g>
		<g>
			<path class="st11" d="M641.6-179.2c-0.1-0.4-0.4-0.6-0.7-0.8c0,0-48.1-17.3-49.2-17.7c-0.2-0.1-0.4-0.2-0.6-0.2
				c-0.4,0-0.8,0.2-1,0.5l-31.2,42.7c-0.4,0.5-1.1,0.6-1.6,0.1c-2.1-2-4.9-3.5-8-4.3c-8-2-15.8,1.3-17.3,7.5c-0.8,3,0.1,6.3,2.4,9.1
				c0.8,1,1.8,1.9,2.9,2.7c1.9,1.4,4.1,2.4,6.5,3c6.3,1.6,12.6-0.1,15.7-4.1c0,0,0-0.1,0.1-0.1l24.7-33.8c0.3-0.4,0.8-0.5,1.2-0.4
				l32.6,11.7c0.7,0.2,0.9,1.1,0.5,1.7l-17.8,24.4c-0.4,0.5-1.1,0.6-1.6,0.1c-2.1-2-4.9-3.5-8-4.3c-3.8-1-7.7-0.8-11,0.6
				c-3.4,1.4-5.6,3.8-6.4,6.9c-0.8,3,0.1,6.3,2.4,9.1c2.2,2.7,5.6,4.7,9.4,5.7c6.4,1.6,12.7-0.1,15.8-4.2c0,0,0,0,0,0l40.1-54.9
				C641.7-178.5,641.8-178.9,641.6-179.2z M626.4-172.3l-1.3,1.8c-0.3,0.4-0.8,0.5-1.2,0.4l-32.6-11.7c-0.7-0.2-0.9-1.1-0.5-1.7
				l1.3-1.8c0.3-0.4,0.8-0.5,1.2-0.4l32.6,11.7C626.5-173.7,626.8-172.8,626.4-172.3z"/>
		</g>
		<g class="st20">
			<path class="st21" d="M532-146.5c0.4,1.5,1.2,2.9,2.3,4.3c0.8,1,1.8,1.9,2.9,2.7c1.9,1.4,4.1,2.4,6.5,3
				c6.3,1.6,12.6-0.1,15.7-4.1c0,0,0-0.1,0.1-0.1l6.9-9.4C550.9-141.9,538.8-143.9,532-146.5z"/>
		</g>
		<g class="st20">
			<path class="st21" d="M585.5-119c6.4,1.6,12.7-0.1,15.8-4.2c0,0,0,0,0,0l5.5-7.5c-15.4,7.1-27.1,4.2-33,1.5
				c0.4,1.6,1.2,3.1,2.4,4.5C578.4-122,581.7-119.9,585.5-119z"/>
		</g>
	</g>
</g>
<g>
	<path class="st10" d="M782.1-23.1c1,0.8,2,1.8,2.9,2.7c0.8,0.9,1.6,1.7,2.4,2.6c2.8,3,4.2,7.4,5.4,11.2c2.3,7.3,3.1,14.9,4.4,22.5
		c1.3,7.8,4.7,15.2,7.7,22.5c1.2,3,2.5,6.1,4.8,8.4c2.2,2.4,5.7,3.9,8.8,2.9c-0.2,2-0.3,3.9-0.5,5.9c-0.1,0.7-0.1,1.5-0.6,2
		c-0.6,0.7-1.5,0.8-2.4,0.8c-3.5,0.2-7-0.3-10.5,0.2c-4.6,0.6-9,2.6-13.6,2.4c-4.3-0.2-7.9-2.3-11.9-3.6c-3.3-1-5.8-0.5-9-0.7
		c-7.9-0.7-16.5-5.8-23.9-8.8c-0.5-0.2-1-0.4-1.3-0.9c-0.3-0.4-0.2-1-0.2-1.5c1.2-11.2,2.4-22.4,4.6-33.4c1.1-5.5,2.5-11,4.2-16.4
		c1.9-5.7,4-11.8,8.3-16.1c4.7-4.6,13.6-6.9,19.4-3.3C781.5-23.6,781.8-23.4,782.1-23.1z"/>
</g>
<g>
	<g>
		<g>
			<path class="st17" d="M780.4-20.3c0.3-1.8,0.6-3.6,0.8-5.4c0.4-0.2,0.7-0.4,1.1-0.6c6.5-4.1,17.4-26.4,0.1-31.3
				c-15.7-4.5-14.9,17.1-11.8,26.1c0.5,1.5,1.2,3,2.3,4.3c0.7,0.9,0.9,0.7,0.8,1.7c-0.1,1-1.1,2.1-1.3,3.1c-0.2,1.1-0.1,2.3,0.5,3.2
				c0.4,0.6,1,1,1.6,1.3c1,0.5,2.1,0.8,3.1,0.6C778.8-17.7,780.2-19,780.4-20.3z"/>
		</g>
	</g>
	<g>
		<g>
			<g>
				<g>
					<path class="st19" d="M766.9-39.8c1,2.9,2.3,5.6,4,8.1c-0.1-5.3,0.6-10.6,1.9-15.8c0.1-0.4,0.2-0.8,0-1.2
						c-0.2-0.3-0.6-0.4-1-0.5C765.2-50.5,765.3-44.8,766.9-39.8z"/>
				</g>
			</g>
		</g>
		<g>
			<g>
				<g>
					<g>
						<path class="st18" d="M784.3-31.8c1.1,1.5,3.4,1.1,5,0.3c6.7-3.4,10.7-11.5,9.2-18.9c-1.2-6.2-9-10.8-10.6-3.1
							c-0.6,2.7,1.1,6.5,0.7,9.5C788.1-39.8,786.1-35.6,784.3-31.8z"/>
					</g>
				</g>
			</g>
			<g>
				<g>
					<g>
						<path class="st18" d="M767-63.3c-0.8,0.3-1.5,0.6-2.3,0.9c-1.7,0.7-2.9,0.9-4.6-0.1c-0.5-0.3-3.8-3.4-3-4
							c-5.3,4.3-0.9,10.6,1,15c1.3,3,1.6,7.2,4.6,9.2c3.3,2.1,5.5-0.6,8.5-1.8c2.6-1.1,5.5-1.7,8.2-2.6c4.4-1.6,11.1-4.4,9.6-10.3
							c-1.7-6.9-8.7-8.6-15-8.1C771.3-65,769.2-64.2,767-63.3z"/>
					</g>
				</g>
			</g>
		</g>
	</g>
</g>
<g>
	<g>
		<g>
			<g>
				<g>
					<path class="st22" d="M728.7-6.3c0,0-1,3.4-1,3.4c0,0.1-2.7-0.6-2.9-0.6c-1.3-0.4-2.8-0.7-3.6-1.8c-0.3-0.4-0.5-0.8-0.7-1.2
						c-0.5-1-1.6-1.8-1.8-2.9c-0.2-1.6,0.8-2.3,2.2-1.8c0.4,0.2,0.9,0.4,1.2,0.7c0.4,0.4,0.7,1,1.1,1.5c0.3,0.3,2.5,1.4,1.9,0.5
						l-0.5-0.8l0.8-0.4L728.7-6.3z"/>
				</g>
			</g>
		</g>
	</g>
	<g>
		<path class="st10" d="M737.9-5.3c-0.9-0.3-9.6-3.4-10-2.8c-0.9,1.5-1.7,3-2.6,4.5c-0.2,0.4-0.4,0.8-0.4,1.2
			c0.1,1.5,4.5,3.7,5.7,4.4c2.3,1.2,4.8,2,7.3,2.7c1.9,0.5,3.8,1,5.7,1.5c0.7,0.2,1.5,0.3,2.2,0.2c0.9-0.1,1.7-0.5,2.4-0.9
			c2.1-1.1,4.2-2.2,6.2-3.5c3.2-2.1,6-4.7,9.2-6.7c2.4-1.5,5.1-2.9,6-5.6c0.6-2,0-4.2-1.2-5.8c-1.2-1.7-2.9-2.9-4.7-4
			c-0.3-0.2-0.6-0.3-0.9-0.4c-0.5,0-0.9,0.3-1.3,0.6c-5.5,4.1-10.8,8.4-15.9,12.9c-1.1,0.9-2.2,1.9-3.6,2.2
			C740.7-4.5,739.3-4.9,737.9-5.3z"/>
	</g>
</g>
<g>
	<g>
		<path class="st7" d="M748.3-128.5c-2.9-2.5-7.4-9.3-3-16.9c1.2-2.1,2.3-3.8,3.2-5.1c2.6-3.9,3.3-5,1.4-9.6c-1.2-3-1.3-5.4,0-7
			c1.6-2.2,4.6-2,5-1.9l-0.3,3.3c-0.4,0-1.6,0-2,0.6c-0.5,0.6-0.3,2,0.5,3.8c2.6,6.3,1.1,8.6-1.7,12.7c-0.9,1.4-1.9,2.9-3.1,4.9
			c-4.1,7.1,2.1,12.6,2.3,12.8L748.3-128.5z"/>
	</g>
	<g>
		<path class="st8" d="M782.6-138.6l-3.2,0.5c0-0.2-0.6-4.6,1.7-7.7c1.2-1.6,2.9-2.5,5.1-2.8c1.7-0.2,2.8-0.7,3.2-1.4
			c0.4-0.7,0.1-1.7,0.1-1.7l3-1.3c0.1,0.2,1,2.5-0.3,4.6c-1,1.7-2.9,2.7-5.7,3c-1.3,0.2-2.3,0.7-2.9,1.5
			C782.2-141.9,782.6-138.7,782.6-138.6z"/>
	</g>
	<g>
		<path class="st9" d="M728.7-156.7l1.1-3.1c0.2,0.1,4.4,1.6,5.9,5.2c0.8,1.8,0.8,3.8,0,5.8c-0.6,1.6-0.7,2.8-0.3,3.5
			c0.4,0.7,1.4,0.9,1.5,0.9l-0.3,3.3c-0.3,0-2.6-0.3-3.9-2.4c-1-1.7-1-3.8,0.1-6.4c0.5-1.2,0.5-2.3,0.1-3.3
			C731.8-155.5,728.8-156.7,728.7-156.7z"/>
	</g>
	<g>
		<path class="st7" d="M722.6-176.6l-1.1-3.1c0.2-0.1,4.4-1.5,7.9,0.1c1.8,0.9,3.1,2.4,3.8,4.5c0.5,1.6,1.3,2.6,2,2.9
			c0.8,0.3,1.7-0.3,1.7-0.3l1.8,2.7c-0.2,0.2-2.2,1.4-4.5,0.7c-1.8-0.6-3.2-2.3-4.1-5c-0.4-1.2-1.1-2.1-2.1-2.6
			C725.7-177.7,722.6-176.6,722.6-176.6z"/>
	</g>
	<g>
		
			<rect x="756.3" y="-142" transform="matrix(0.997 7.681793e-02 -7.681793e-02 0.997 -8.334 -58.6292)" class="st9" width="3.3" height="8.7"/>
	</g>
	<g>
		
			<rect x="771" y="-152.5" transform="matrix(0.7268 0.6869 -0.6869 0.7268 109.3496 -571.2061)" class="st7" width="3.3" height="8.7"/>
	</g>
	<g>
		
			<rect x="715.9" y="-144.2" transform="matrix(0.7535 0.6575 -0.6575 0.7535 83.8567 -508.7232)" class="st8" width="8.7" height="3.3"/>
	</g>
	<g>
		<path class="st9" d="M767-166.6l-3.2,0.5c0-0.3-1-7.1,6.9-10.8c2.9-1.4,2.8-2,2.3-3.4c-0.4-1.2-0.9-2.9,0.6-4.6l2.5,2.1
			c-0.3,0.3-0.3,0.4,0.1,1.5c0.7,2.3,1,4.9-4.1,7.3C766.4-171.3,767-166.6,767-166.6z"/>
	</g>
	<g>
		<path class="st8" d="M810.8-161.2l-3,1.2c-0.7-1.7-2-3.3-2.6-3.3c-0.2,0-0.8,0.4-1.7,2.1c-0.6,1.2-1.6,2.9-3.2,3
			c-1.9,0.2-3.2-1.6-4.8-3.6c-1.9-2.6-4.3-5.8-8-5.7c-2,0-3.5,0.6-4.5,1.8c-2.3,2.6-1.9,7.1-1.9,7.1l-3.3,0.3c0-0.2-0.6-6,2.7-9.6
			c1.7-1.9,4-2.9,6.9-2.9c5.4-0.1,8.6,4.2,10.7,7c0.6,0.8,1.4,1.8,1.8,2.2c0.1-0.2,0.4-0.5,0.6-1.1c1.3-2.7,2.9-4,4.7-4
			C808.5-166.5,810.4-162.1,810.8-161.2z"/>
	</g>
</g>
<g>
	<g>
		<g>
			<g>
				<g>
					<g>
						<path class="st7" d="M740.9-51c-4.5-18-0.8-32.5-0.8-32.5l6.6-27.7l-6.6-1.6l-6.6-1.6l-6.6,27.7c0,0-3.2,14.6-15.4,28.6
							c-12.2,14-15.5,23.7-19.3,39.7l-11.4,47.7c-1.2,4.8,1.8,9.7,6.6,10.8l15.3,3.7l15.3,3.7c4.8,1.1,9.6-1.8,10.8-6.7l11.4-47.7
							C743.9-22.9,745.4-33,740.9-51z"/>
					</g>
					<g>
						
							<rect x="730.7" y="-112.9" transform="matrix(0.9725 0.2329 -0.2329 0.9725 -5.2263 -175.1912)" class="st7" width="16.9" height="6.3"/>
					</g>
					<g>
						
							<rect x="733.5" y="-114.6" transform="matrix(0.9725 0.2329 -0.2329 0.9725 -6.1157 -175.5199)" class="st7" width="13.4" height="1.8"/>
					</g>
					<g>
						
							<rect x="729.6" y="-106.9" transform="matrix(-0.9725 -0.2329 0.2329 -0.9725 1475.2166 -20.5344)" class="st11" width="13.7" height="19.1"/>
					</g>
				</g>
				<g class="st15">
					<g>
						<path class="st16" d="M742.9-20.3c0,0-14.7,64-54.7,60.8l14.5,3.5l15.3,3.7c4.8,1.1,9.6-1.8,10.8-6.7l11.4-47.7
							C741.3-11.8,742.2-16.1,742.9-20.3L742.9-20.3z"/>
					</g>
				</g>
				<g class="st23">
					<g>
						<path class="st4" d="M724.9-77.3c0,0-5.2,19.4,1.4,26.2c6.6,6.8-18-1.2-30.4,24.7c0,0,4-16.6,13.8-27.2
							C720-64.6,722.2-69.9,724.9-77.3z"/>
					</g>
				</g>
				<g class="st15">
					<g>
						<polygon class="st16" points="732,-108.2 744.3,-101 745.3,-105 						"/>
					</g>
				</g>
			</g>
			<g>
				<polygon class="st11" points="740.1,-3 708.3,-42 691,-27.2 681.6,12.1 728.2,44.4 				"/>
			</g>
		</g>
	</g>
</g>
<g>
	<g>
		<g>
			<g>
				<path class="st17" d="M838.2,8.4c0,0-0.4-3.6-0.4-3.6c0-0.1,2.8-0.4,3.1-0.4c1.4-0.1,2.9-0.3,4.2,0.5c0.4,0.2,0.7,0.6,1.1,0.9
					c0.8,0.7,1.8,1.2,2.8,1.5c0.2,0.1,0.4,0.1,0.5,0.3c0.1,0.1,0.1,0.3,0.2,0.4c0.2,0.5,0.3,1.1,0,1.6c-0.3,0.7-1.2,0.9-2,0.9
					c-0.5,0-1,0-1.4-0.2c-0.6-0.3-1.1-0.7-1.6-1.1c-0.4-0.2-2.9-0.5-2,0.2l0.8,0.6l-0.6,0.7L838.2,8.4z"/>
			</g>
		</g>
	</g>
	<g>
		<path class="st10" d="M814.2,6.9c-1.4-2.6-1.9-5.6-3.9-7.6c-3.5-3.5-8.6-1.2-12.8,0.3c-6.8,2.5-17.9,3.8-21.5-4.4
			c-1.4-3.1-0.2-7,2.2-9.4c3.2-3.1,8.2-4.3,12.3-2.9c8.8,3.2,21.1,2.4,27.5,10.5c2.2,2.8,3.4,6.5,6.2,8.7c4.8,3.9,10.9,1.4,16,1.7
			c-0.5,2.9-1.8,6.5-1.8,6.5c-2.3,6.2-18.3,2.2-21.6-0.5C815.5,9.1,814.8,8,814.2,6.9z"/>
	</g>
</g>
<g>
	<g>
		<g>
			<path class="st17" d="M529.8-55.7c1-3.2-0.1-6.7-2.8-8.8c-4.9-3.7-9.8-7.5-14.7-11.2c-2.8-2.1-6.8-4.1-8.6-7
				c-3.3-5-5.2-12-7.3-17.6c-1.1-2.9-3.1-6.5-3.3-9.6c0-0.6,1.4-5.7,1.2-5.8c0,0-1.2-0.7-1.2-0.7l-0.7,1.2l-0.9,0.2l0.9-3.9
				l-4.4-0.8l-3.5,3.9c1.2,3.1,3.2,5.9,3.7,9.2c0.2,1.4,0.2,2.8,0.2,4.2c0.1,2.4,0.6,4.8,0.9,7.2c0.3,2.3,0.2,4.7,0.6,7
				c0.8,5.1,1.7,10.2,2.5,15.2L517-52.1C521.4-48.4,528.1-50.3,529.8-55.7z"/>
		</g>
		<g>
			<path class="st24" d="M534.4-50.2c2.5-3.4,2.2-9.6-0.2-12.9c-1.2-1.7-2.5-3.3-3.9-4.9c-1.9-2.2-5.2-3.3-7.7-4.7
				c-0.7-0.4-8.5-4.2-8.5-4.1c-3.5,7-7,14-10.5,21c-0.2,0.3-0.3,0.7-0.3,1c0,0.5,0.4,0.9,0.7,1.2c3.2,3.2,6.6,6.4,11,7.4
				c2.5,0.6,5.1,0.5,7.6,0.3C526.9-46.1,531.8-46.6,534.4-50.2z"/>
		</g>
	</g>
	<g>
		<g>
			<g>
				<g id="XMLID_39_">
					<g id="XMLID_40_">
						<path class="st17" d="M528.9,73.1l-0.3,20.3c0.1,5.6-0.4,11.3-0.7,16.9c-0.3,5.2,0.7,10.6-1.7,15.4c-0.8,1.5-2.4,2.6-3.7,0.8
							c-1-1.4-0.5-3.7-0.8-5.3c-1.8-11.8-5.1-23.3-6.8-35.1C513.1,73.9,517.9,74.2,528.9,73.1z"/>
					</g>
				</g>
				<g>
					<polygon class="st18" points="527.8,122.3 529.1,125.7 522.7,131.3 516.8,131.6 514.9,128.5 522.8,121.6 					"/>
				</g>
			</g>
			<g>
				<g id="XMLID_2_">
					<g id="XMLID_38_">
						<path class="st17" d="M543.3,73.3l3.7,20c1.3,8.9,4.2,17.6,5.5,26.6c0.3,2.1,0.1,4.3,1,6.2c0.8,1.9,2.5,2,3.9,0.7
							c1.9-1.7,1-4.8,1-7.2c-0.2-15.7,1-31.2,1.3-46.9c0-0.2,0-0.4-0.2-0.6c-0.1-0.1-0.3-0.1-0.5-0.1
							C557.6,72.2,543.4,73.8,543.3,73.3z"/>
					</g>
				</g>
				<g>
					<polygon class="st18" points="558.5,123.1 560.6,126.1 555.6,133.1 549.9,134.7 547.3,132.1 553.5,123.6 					"/>
				</g>
			</g>
			<g>
				<polygon class="st18" points="508,86.1 510.8,57 512.1,38.1 516.6,22.7 540.9,18.9 570.9,24.1 572.3,29.9 566.5,83.9 
					537.6,86.1 538,52.5 533.5,73.3 533.7,86.1 				"/>
			</g>
		</g>
		<g>
			<path class="st4" d="M565.6-39.1c0,1,0.1,2,0.1,2.9c0.4,19.9-0.7,40.1-0.9,60.2c-10.3-1.6-20.7-2.5-31.1-2.7
				c-2.4,0-13.4,1.7-14.9,0.2c-2.1-2,0.2-1.6,0.1-4.1c-0.2-3.3,1.4-6,0.8-9.9c-0.7-4.6-2.1-9.1-2.9-13.7
				c-2.2-12.5-1.7-24.2-0.1-36.8c0.9-7.3,2.2-15.3,6.2-21.7c2.9-4.6,8.7-6.5,14-7.1c10.7-1.1,21.3,4.4,25.4,14.6
				C564.6-51.4,565.4-45.2,565.6-39.1z"/>
		</g>
		<g>
			<path class="st25" d="M533.7-64.9l7.7,14c-0.4,14.1-0.8,28.3-1.2,42.4c-0.2,6.5-0.4,13-0.6,19.6c-0.1,2.3-0.1,4.5-0.2,6.8
				c0,1,0.2,2.7-0.3,3.6c-1.3,1.8-5.9,1.2-7.9,1.4c-3.1,0.2-6.3,0.5-9.2,1.6c-2,0.7-3.8,1.8-5.9,2.1c-0.5,0.1-1,0.1-1.3-0.2
				c-0.4-0.3-0.5-0.9-0.5-1.4c-1-12.8-0.1-25.8-0.4-38.7c-0.3-13.3-0.3-26.8,3.2-39.7c1.3-4.9,3.3-9.8,6.4-13.8
				c3.7-4.9,6.6-5.5,12.5-5.7c1.7-0.1,3.5-0.4,2.8,2.1C538.2-69,535-66.5,533.7-64.9z"/>
		</g>
		<g>
			<path class="st25" d="M550.4-63.6l-7.7,14c0.2,0,1,34.3,1,36.6c0.3,8.8,0.5,17.6,0.8,26.4c0.1,2.4-0.3,5.3,0.2,7.7
				c0.7,3.4,4.2,2.7,7.2,3c6.6,0.6,13.5,1.7,20.2,1.4c1.9-0.1-0.6-39.9-0.6-43.6c0-13.4,2.8-28.2-4-40.3c-2-3.5-5.5-9.2-9.3-10.9
				c-3.6-1.6-8.7-1.9-12.6-2.8l-0.2,2.5L550.4-63.6z"/>
		</g>
		<g>
			<g>
				<g>
					<path class="st18" d="M540.5-97.1c-1.6,1.9-2.6,4.1-3.2,6.5c-0.1,0.6-0.3,1.4-0.9,1.6c-0.6,0.3-0.3,1.3-0.6,0.7
						c-0.3-0.6-1.4-2.8-1.3-3.4c0.2-1.6,0.5-3.2,0.9-4.8c0.4-1.4,1-2.8,2.1-3.6c0.7-0.5,1.5-0.8,2.2-1.1c1.1-0.4,2.3-0.8,3.5-0.8
						c2.1,0,3.2,1,1.1,2C542.9-99.3,541.6-98.4,540.5-97.1z"/>
				</g>
				<g>
					<g>
						<path class="st17" d="M548-67.5c-0.2,1-0.2,2-1.2,2.6c-0.5,0.3-1.1,0.3-1.6,0.3c-1.5,0-2.9-0.4-4.2-1.1
							c-0.5-0.3-1-0.6-1.4-1.1c-0.4-0.6-0.3-1-0.3-1.7c0.1-0.7,0.1-1.5,0.1-2.3c0.1-1.7,0.3-3.3,0.6-5c-2.3-0.9-5.1-2.2-5.4-4.9
							c-0.1-0.9,0-1.7,0.2-2.6c0.6-3.5,1.3-7.1,1.9-10.6c0.2-1.2,0.5-2.5,1.1-3.5c1.1-1.8,3.2-2.7,5.2-3.1c5-1,10.4,0.1,14.2,3.6
							c1,0.9,1.9,2.1,2.3,3.4c0.6,2.1,0.1,4.5-0.5,6.7c-0.5,2-1.1,4.1-1.6,6.1c-0.6,2.3-1.5,5-3.6,5.9c-1.1,0.5-2.4,0.4-3.4,1.1
							c-1.8,1.2-1.5,3.6-2.3,5.3C548.2-68,548.1-67.8,548-67.5z"/>
					</g>
				</g>
				<g>
					<path class="st18" d="M533.9-81.3c0,2.3,0.7,4.6,2.2,6.1c1.8,1.8,4.3,2.4,6.7,2.9c1.3,0.3,2.6,0.6,3.9,0.8
						c3.3,0.7,6.7,0.9,9.1-2.3c1.1-1.5,1.7-3.3,1.9-5.1c0.1-0.5,0.1-1-0.1-1.5c-0.2-0.5-0.5-0.9-1-0.9c-0.6,0-1.1,0.5-1.6,1
						c-1,0.9-2.6,1.2-3.7,0.4c-0.3-0.2-0.6-0.6-0.8-0.9c-0.1-0.1-0.2-0.3-0.3-0.4c-1.1-1.2-2.5-2-4-2.5c-1.3-0.4-3.2-1.3-4.4-0.3
						c-0.7,0.5-1.4,1.1-2.1,1.6c-0.3,0.2-0.6,0.5-0.9,0.6c-0.3,0.1-0.7,0.1-1.1,0c-0.9-0.2-1.8-0.8-2-1.7c-0.1-0.4,0-0.8,0.1-1.3
						c0.1-0.4,0.1-0.9-0.1-1.2c-0.8-1.4-1.4,0.5-1.6,1.1C534-83.7,533.9-82.5,533.9-81.3z M542.8-79c0.9,0.9,2,1.1,3.3,1
						c0.6-0.1,0.7,1,0.1,1.1c-1.5,0.2-2.9-0.2-4-1.2C541.7-78.6,542.4-79.5,542.8-79z"/>
				</g>
				<g>
					<path class="st18" d="M537.4-104c-0.1-0.9-0.1-1.8,0-2.7c0.8,0.4,1.6,0.7,2.5,0.7c0.1-0.5,0.2-1,0.3-1.5
						c0.1-0.4,5.8,0.4,6.3,0.4c4.4,0.5,8.4,0.9,11.9,3.9c3,2.6,4.6,6,4.3,10c-0.2,3.8-2.3,8.4-5,11c0.2-1,1.2-3.2,1.1-4.2
						c0-1-0.1-1.9-0.4-2.8c-0.6-1.8-1.7-3.5-3.1-4.8c-2.2-2.1-5-3.5-7.9-4.4c-2.6-0.9-5.9-1.9-8.7-1.6c-1.3,0.1-1.6,0.4-2.2-1.1
						c-0.1-0.3-0.7-3.1-0.6-3.1C536.5-104.2,537-104.1,537.4-104z"/>
				</g>
			</g>
		</g>
	</g>
	<g>
		<g>
			<g>
				<g>
					<path class="st26" d="M525.6-52.5L500.4,27c-2,6.3-8.7,9.8-15,7.8l-41.6-13.2c-6.3-2-9.7-8.7-7.7-15l25.1-79.5l-3.5-1.1
						l-26,82.1c-2.2,7,1.6,14.5,8.6,16.7l46.1,14.6c7,2.2,14.4-1.7,16.6-8.7l26-82.1L525.6-52.5z"/>
				</g>
				<g>
					<path class="st11" d="M443.8,21.7l41.6,13.2c6.3,2,13-1.5,15-7.8l23-72.7L459.1-66l-23,72.7C434.1,13,437.6,19.7,443.8,21.7z"
						/>
				</g>
				<g>
					<g>
						<path class="st8" d="M533.7-33.8l-12.8-4l-2.7,8.7l11.8,3.7c0,0,8.1,2.6,5.2,11.8c-2.9,9.3-7.4,23.5-7.4,23.5
							s-1.9,9.7-12.4,6.4c-5.2-1.7-9.4-3-10.5-3.3l-2.7,8.7l12.8,4c8.7,2.7,17.9-2.1,20.7-10.8l8.8-27.9
							C547.2-21.8,542.4-31.1,533.7-33.8z"/>
					</g>
				</g>
				<g>
					<path class="st8" d="M472.5-48l-12.1-3.8L443.8,0.8l0,0c0,0,0,0.1,0,0.1c-1.1,3.4,0.8,6.9,4.1,8c3.3,1.1,6.9-0.8,8-4.2
						c0,0,0-0.1,0-0.1l0,0L472.5-48z"/>
				</g>
				<g>
					<path class="st8" d="M501.9-38.7l12.1,3.8l-16.6,52.6l0,0c0,0,0,0.1,0,0.1c-1.1,3.4-4.6,5.2-8,4.2c-3.3-1.1-5.2-4.6-4.1-8
						c0,0,0-0.1,0-0.1l0,0L501.9-38.7z"/>
				</g>
				<g>
					<path class="st8" d="M493.3-41.5l-12.1-3.8L464.5,7.3l0,0c0,0,0,0.1,0,0.1c-1.1,3.4,0.8,6.9,4.1,8c3.3,1.1,6.9-0.8,8-4.2
						c0,0,0-0.1,0-0.1l0,0L493.3-41.5z"/>
				</g>
				<g>
					<path class="st8" d="M523.5-45.9l-23,72.9c-2,6.3-8.7,9.8-15,7.8l-41.6-13.2c-6.3-2-9.7-8.7-7.7-15l23-72.9l-3.5-1.1L431.8,8.2
						c-2.2,7,1.6,14.5,8.6,16.7l46.1,14.6c7,2.2,14.4-1.7,16.6-8.7l23.9-75.5L523.5-45.9z"/>
				</g>
				<g class="st15">
					<g>
						<path class="st16" d="M439.2,24.4c0.4,0.2,0.8,0.3,1.2,0.4l46.1,14.6c7,2.2,14.4-1.7,16.6-8.7l13.1-41.4
							C516.2-10.7,492,34.4,439.2,24.4z"/>
					</g>
				</g>
				<g>
					<polygon class="st27" points="523.4,-45.7 459.1,-66.2 520.9,-37.9 					"/>
				</g>
				<g>
					<g>
						<path class="st28" d="M542.3-54c0.8-4.9-1.5-9.7-5.6-12c2.4-6.8,0.3-14.6-5.7-19.2c-5.8-4.4-13.6-4.5-19.4-0.7
							c-1.1-1.8-2.9-3.3-5.1-4c-2.4-0.7-4.8-0.5-6.9,0.5c-0.6-7-5.3-13.3-12.4-15.6c-9.4-3-19.5,2.3-22.5,11.8
							c-0.4,1.4-0.7,2.9-0.8,4.3c-1-0.5-2.1-0.9-3.3-1.1c-6.3-1.1-12.3,3.2-13.4,9.5c-1.1,6.3,2.2,11.5,8.5,13.2l72.1,23
							c0.3,0.1,0.7,0.2,1,0.2C535.1-43,541.2-47.7,542.3-54z"/>
					</g>
					<g>
						<path class="st29" d="M536.8-66L536.8-66c0,0-14.5,18.1-81.1-1.4c17.5,5.6,72.1,23.1,72.1,23.1c0.3,0.1,0.7,0.2,1,0.2
							c6.3,1.1,12.4-3.6,13.5-9.9C543.2-58.9,540.8-63.6,536.8-66z"/>
					</g>
					<g>
						<path class="st30" d="M492-99.6c0.1,0,0.2,0.1,0.2,0.1c-1.5-1.3-3.3-2.3-5.4-3c-8.1-2.6-16.8,2-19.4,10.2
							c-0.6,2-0.8,4-0.7,5.9C470.1-97.1,481.4-103,492-99.6z"/>
					</g>
				</g>
			</g>
			<g>
				<path class="st31" d="M525.2,9.4L525.2,9.4L525.2,9.4L525.2,9.4z M529.2-23L529.2-23L529.2-23L529.2-23z"/>
			</g>
		</g>
	</g>
	<g>
		<g>
			<path class="st17" d="M558.1-53c-3-1.5-6.7-1-9.1,1.3c-4.5,4.2-9,8.5-13.5,12.7c-2.5,2.4-5.2,6-8.3,7.4
				c-5.5,2.4-12.6,3.2-18.5,4.3c-3,0.6-7,2-10,1.7c-0.6-0.1-5.4-2.3-5.5-2.2c0,0-0.9,1-0.9,1l1,0.8l0.1,0.9l-3.7-1.5l-1.5,4.2
				l3.3,4.1c3.2-0.7,6.3-2.2,9.7-2.1c1.4,0,2.8,0.3,4.2,0.5c2.4,0.3,4.8,0.2,7.3,0.2c2.3,0,4.7,0.5,7,0.5c5.1,0,10.3,0,15.4,0
				l24.6-20.7C564-43.4,563.2-50.4,558.1-53z"/>
		</g>
		<g>
			<path class="st25" d="M564.3-56.5c-3-3-9.1-3.8-12.8-1.9c-1.9,0.9-3.7,2-5.5,3c-2.5,1.5-4.1,4.5-5.8,6.9
				c-0.5,0.6-5.6,7.7-5.5,7.7c6.3,4.6,12.7,9.2,19,13.7c0.3,0.2,0.6,0.4,0.9,0.5c0.5,0,0.9-0.2,1.3-0.5c3.6-2.6,7.4-5.5,9.1-9.6
				c1-2.3,1.3-4.9,1.5-7.4C567.1-48.5,567.4-53.4,564.3-56.5z"/>
		</g>
	</g>
</g>
</svg>
